<?xml version="1.0" encoding="UTF-8" standalone="no"?>
<svg width="339px" height="343px" viewBox="0 0 339 343" version="1.1" xmlns="http://www.w3.org/2000/svg" xmlns:xlink="http://www.w3.org/1999/xlink">
    <!-- Generator: Sketch 39 (31667) - http://www.bohemiancoding.com/sketch -->
    <title>innovation-research</title>
    <desc>Created with Sketch.</desc>
    <defs></defs>
    <g id="Startup" stroke="none" stroke-width="1" fill="none" fill-rule="evenodd">
        <g id="innovation-research">
            <path d="M182.18,34.076 C181.316,34.057 180.449,34.047 179.58,34.047 L178.522,34.047 L178.522,30.348 L179.58,30.348 C180.477,30.348 181.371,30.358 182.263,30.378 L182.18,34.076 L182.18,34.076 Z M189.449,34.467 C188.244,34.364 187.033,34.28 185.817,34.214 L186.017,30.52 C187.271,30.588 188.52,30.675 189.763,30.781 L189.449,34.467 L189.449,34.467 Z M196.678,35.316 C195.481,35.137 194.279,34.976 193.07,34.835 L193.501,31.16 C194.749,31.306 195.99,31.473 197.225,31.657 L196.678,35.316 L196.678,35.316 Z M203.836,36.624 C202.654,36.368 201.464,36.131 200.267,35.913 L200.932,32.273 C202.167,32.499 203.396,32.744 204.618,33.008 L203.836,36.624 L203.836,36.624 Z M210.898,38.387 C209.733,38.057 208.561,37.744 207.381,37.449 L208.278,33.86 C209.495,34.164 210.705,34.487 211.907,34.828 L210.898,38.387 L210.898,38.387 Z M217.841,40.603 C216.697,40.196 215.543,39.808 214.382,39.437 L215.507,35.913 C216.706,36.295 217.897,36.697 219.079,37.116 L217.841,40.603 L217.841,40.603 Z M224.638,43.263 C223.522,42.784 222.397,42.322 221.263,41.878 L222.611,38.434 C223.782,38.892 224.944,39.368 226.097,39.862 L224.638,43.263 L224.638,43.263 Z M231.246,46.351 C230.163,45.802 229.07,45.27 227.967,44.754 L229.534,41.402 C230.673,41.934 231.801,42.484 232.919,43.051 L231.246,46.351 L231.246,46.351 Z M237.641,49.854 C236.595,49.237 235.538,48.636 234.471,48.051 L236.25,44.807 C237.35,45.41 238.44,46.031 239.52,46.667 L237.641,49.854 L237.641,49.854 Z M243.796,53.755 C242.792,53.073 241.776,52.406 240.75,51.755 L242.73,48.631 C243.79,49.302 244.839,49.99 245.876,50.695 L243.796,53.755 L243.796,53.755 Z M249.689,58.038 C248.73,57.294 247.76,56.565 246.777,55.85 L248.952,52.858 C249.966,53.595 250.968,54.348 251.958,55.116 L249.689,58.038 L249.689,58.038 Z M255.297,62.685 C254.388,61.881 253.466,61.092 252.531,60.317 L254.891,57.469 C255.855,58.268 256.808,59.083 257.747,59.912 L255.297,62.685 L255.297,62.685 Z M260.599,67.674 C259.743,66.815 258.872,65.969 257.988,65.138 L260.523,62.443 C261.436,63.302 262.334,64.175 263.219,65.062 L260.599,67.674 L260.599,67.674 Z M265.572,72.986 C264.771,72.076 263.957,71.177 263.128,70.292 L265.829,67.763 C266.685,68.677 267.526,69.604 268.352,70.545 L265.572,72.986 L265.572,72.986 Z M270.199,78.6 C269.458,77.64 268.702,76.692 267.931,75.757 L270.786,73.404 C271.582,74.37 272.363,75.348 273.127,76.339 L270.199,78.6 L270.199,78.6 Z M274.459,84.493 C273.78,83.488 273.085,82.495 272.375,81.512 L275.375,79.346 C276.107,80.359 276.823,81.384 277.524,82.42 L274.459,84.493 L274.459,84.493 Z M278.335,90.64 C277.721,89.594 277.091,88.56 276.446,87.536 L279.576,85.563 C280.242,86.62 280.892,87.688 281.525,88.767 L278.335,90.64 L278.335,90.64 Z M281.812,97.017 C281.266,95.936 280.704,94.864 280.125,93.802 L283.373,92.03 C283.97,93.127 284.551,94.234 285.114,95.35 L281.812,97.017 L281.812,97.017 Z M284.872,103.599 C284.396,102.485 283.903,101.379 283.394,100.284 L286.749,98.724 C287.275,99.855 287.783,100.996 288.274,102.146 L284.872,103.599 L284.872,103.599 Z M287.509,110.368 C287.105,109.223 286.683,108.086 286.243,106.957 L289.689,105.614 C290.144,106.779 290.581,107.955 290.998,109.137 L287.509,110.368 L287.509,110.368 Z M289.711,117.306 C289.38,116.136 289.032,114.974 288.666,113.82 L292.192,112.701 C292.571,113.893 292.93,115.092 293.271,116.3 L289.711,117.306 L289.711,117.306 Z M291.464,124.368 C291.209,123.18 290.936,121.998 290.645,120.823 L294.235,119.932 C294.537,121.145 294.818,122.365 295.082,123.593 L291.464,124.368 L291.464,124.368 Z M292.761,131.528 C292.583,130.326 292.386,129.129 292.17,127.939 L295.811,127.279 C296.033,128.509 296.238,129.745 296.421,130.987 L292.761,131.528 L292.761,131.528 Z" id="Fill-22" fill="#41464B"></path>
            <path d="M63.357,169.643 C63.134,168.415 62.93,167.178 62.746,165.936 L66.406,165.394 C66.584,166.596 66.781,167.793 66.997,168.983 L63.357,169.643 L63.357,169.643 Z M64.932,176.991 C64.631,175.778 64.349,174.558 64.085,173.33 L67.703,172.555 C67.958,173.743 68.231,174.925 68.522,176.1 L64.932,176.991 L64.932,176.991 Z M66.974,184.223 C66.596,183.031 66.236,181.831 65.895,180.624 L69.455,179.617 C69.786,180.788 70.134,181.949 70.5,183.104 L66.974,184.223 L66.974,184.223 Z M69.476,191.309 C69.022,190.143 68.586,188.969 68.169,187.786 L71.657,186.555 C72.061,187.7 72.483,188.837 72.923,189.966 L69.476,191.309 L69.476,191.309 Z M72.416,198.199 C71.89,197.068 71.381,195.927 70.89,194.776 L74.294,193.325 C74.769,194.439 75.261,195.544 75.771,196.64 L72.416,198.199 L72.416,198.199 Z M75.792,204.893 C75.195,203.797 74.614,202.69 74.05,201.573 L77.354,199.906 C77.9,200.989 78.462,202.061 79.041,203.123 L75.792,204.893 L75.792,204.893 Z M79.588,211.361 C78.922,210.304 78.272,209.236 77.638,208.156 L80.83,206.285 C81.442,207.33 82.072,208.364 82.718,209.389 L79.588,211.361 L79.588,211.361 Z M83.789,217.579 C83.056,216.566 82.34,215.54 81.639,214.504 L84.705,212.432 C85.383,213.437 86.078,214.43 86.788,215.412 L83.789,217.579 L83.789,217.579 Z M88.376,223.52 C87.581,222.554 86.8,221.576 86.036,220.585 L88.964,218.325 C89.705,219.285 90.462,220.233 91.232,221.169 L88.376,223.52 L88.376,223.52 Z M93.333,229.163 C92.477,228.249 91.636,227.321 90.81,226.38 L93.589,223.939 C94.39,224.85 95.205,225.749 96.033,226.634 L93.333,229.163 L93.333,229.163 Z M98.637,234.482 C97.726,233.624 96.828,232.751 95.943,231.864 L98.563,229.252 C99.419,230.11 100.29,230.957 101.173,231.788 L98.637,234.482 L98.637,234.482 Z M104.271,239.458 C103.306,238.658 102.353,237.843 101.415,237.015 L103.864,234.242 C104.773,235.045 105.695,235.834 106.63,236.609 L104.271,239.458 L104.271,239.458 Z M110.208,244.069 C109.193,243.332 108.192,242.579 107.202,241.81 L109.472,238.889 C110.43,239.633 111.4,240.362 112.383,241.077 L110.208,244.069 L110.208,244.069 Z M116.43,248.296 C115.371,247.625 114.323,246.937 113.286,246.232 L115.364,243.172 C116.369,243.855 117.384,244.521 118.411,245.172 L116.43,248.296 L116.43,248.296 Z M122.91,252.121 C121.809,251.517 120.719,250.897 119.639,250.26 L121.519,247.074 C122.565,247.69 123.621,248.292 124.688,248.876 L122.91,252.121 L122.91,252.121 Z M129.625,255.526 C128.487,254.994 127.358,254.444 126.241,253.877 L127.914,250.577 C128.997,251.126 130.09,251.659 131.192,252.174 L129.625,255.526 L129.625,255.526 Z" id="Fill-23" fill="#41464B"></path>
            <path d="M309.07,148.465 C309.07,155.764 303.156,161.678 295.857,161.678 C288.558,161.678 282.645,155.764 282.645,148.465 C282.645,141.166 288.558,135.252 295.857,135.252 C303.156,135.252 309.07,141.166 309.07,148.465" id="Fill-24" fill="#FF7443"></path>
            <path d="M76.525,148.465 C76.525,155.764 70.611,161.678 63.312,161.678 C56.013,161.678 50.099,155.764 50.099,148.465 C50.099,141.166 56.013,135.252 63.312,135.252 C70.611,135.252 76.525,141.166 76.525,148.465" id="Fill-25" fill="#FF7443"></path>
            <path d="M179.59,54.917 C127.927,54.929 86.046,96.806 86.046,148.465 C86.046,175.842 97.819,200.455 116.544,217.557 C117.434,218.328 118.334,219.1 119.227,219.875 C133.851,233.205 143.037,252.376 143.037,273.716 L143.037,285.884 L216.133,285.884 L216.133,273.716 C216.133,252.376 225.317,233.205 239.942,219.875 C240.839,219.1 241.727,218.328 242.619,217.557 C261.34,200.455 273.117,175.842 273.117,148.465 C273.117,96.806 231.247,54.929 179.59,54.917" id="Fill-26" fill="#FED65C"></path>
            <polygon id="Fill-27" fill="#FFFFFF" points="169.011 285.884 190.152 285.884 190.152 231.565 169.011 231.565"></polygon>
            <polygon id="Fill-28" fill="#41464B" points="163.726 233.315 195.437 233.315 195.437 229.815 163.726 229.815"></polygon>
            <polygon id="Fill-29" fill="#41464B" points="163.726 240.934 195.437 240.934 195.437 237.434 163.726 237.434"></polygon>
            <path d="M179.6,217.151 C141.565,217.151 110.88,186.445 110.88,148.473 C110.88,110.497 141.565,79.762 179.6,79.762 C217.502,79.762 248.304,110.497 248.304,148.473 C248.304,186.445 217.502,217.151 179.6,217.151" id="Fill-30" fill="#FFFFFF"></path>
            <path d="M179.597,189.443 C156.909,189.443 138.605,171.123 138.605,148.467 C138.605,125.808 156.909,107.47 179.597,107.47 C202.203,107.47 220.579,125.808 220.579,148.467 C220.579,171.123 202.203,189.443 179.597,189.443" id="Fill-31" fill="#4CBED8"></path>
            <path d="M179.593,160.084 C173.157,160.084 167.965,154.887 167.965,148.46 C167.965,142.032 173.157,136.829 179.593,136.829 C186.008,136.829 191.219,142.032 191.219,148.46 C191.219,154.887 186.008,160.084 179.593,160.084" id="Fill-32" fill="#FFFFFF"></path>
            <path d="M179.582,81.512 C142.663,81.512 112.628,111.547 112.628,148.465 C112.628,185.383 142.663,215.419 179.582,215.419 C216.503,215.419 246.541,185.383 246.541,148.465 C246.541,111.547 216.503,81.512 179.582,81.512 L179.582,81.512 Z M179.582,218.919 C140.733,218.919 109.128,187.313 109.128,148.465 C109.128,109.617 140.733,78.012 179.582,78.012 C218.433,78.012 250.041,109.617 250.041,148.465 C250.041,187.313 218.433,218.919 179.582,218.919 L179.582,218.919 Z" id="Fill-33" fill="#41464B"></path>
            <polygon id="Fill-34" fill="#41464B" points="177.832 231.565 181.332 231.565 181.332 217.151 177.832 217.151"></polygon>
            <path d="M179.582,90.988 C166.772,90.988 155.951,117.309 155.951,148.465 C155.951,179.622 166.772,205.944 179.582,205.944 C192.394,205.944 203.219,179.622 203.219,148.465 C203.219,117.309 192.394,90.988 179.582,90.988 L179.582,90.988 Z M179.582,209.444 C164.368,209.444 152.451,182.659 152.451,148.465 C152.451,114.272 164.368,87.488 179.582,87.488 C194.799,87.488 206.719,114.272 206.719,148.465 C206.719,182.659 194.799,209.444 179.582,209.444 L179.582,209.444 Z" id="Fill-35" fill="#41464B"></path>
            <path d="M213.241,113.331 C200.671,113.331 183.671,118.814 167.767,127.997 C140.787,143.575 123.402,166.108 129.805,177.201 C132.854,182.48 140.255,183.588 145.928,183.589 L145.93,183.589 C158.502,183.589 175.5,178.109 191.401,168.931 C204.897,161.138 216.269,151.579 223.423,142.015 C230.169,132.995 232.333,124.87 229.36,119.721 C226.31,114.44 218.911,113.331 213.241,113.331 L213.241,113.331 Z M145.93,187.089 L145.927,187.089 C136.471,187.088 129.848,184.274 126.773,178.952 C119.169,165.775 136.407,142.062 166.017,124.966 C182.675,115.347 199.887,109.831 213.241,109.831 C222.694,109.831 229.316,112.646 232.392,117.971 C236.152,124.484 233.962,133.767 226.226,144.111 C218.794,154.046 207.048,163.938 193.151,171.962 C176.498,181.575 159.286,187.089 145.93,187.089 L145.93,187.089 Z" id="Fill-36" fill="#41464B"></path>
            <path d="M145.932,113.337 C140.259,113.337 132.856,114.446 129.806,119.729 C123.404,130.822 140.788,153.355 167.768,168.933 C183.672,178.115 200.674,183.596 213.246,183.597 L213.247,183.597 C218.916,183.597 226.313,182.489 229.361,177.209 C232.334,172.061 230.169,163.935 223.422,154.914 C216.268,145.349 204.896,135.79 191.402,127.999 C175.502,118.818 158.503,113.337 145.932,113.337 L145.932,113.337 Z M213.247,187.097 L213.246,187.097 C199.89,187.096 182.676,181.581 166.018,171.964 C136.408,154.867 119.17,131.154 126.775,117.979 C129.851,112.652 136.475,109.837 145.932,109.837 C159.287,109.837 176.499,115.352 193.152,124.967 C207.047,132.991 218.793,142.881 226.225,152.817 C233.963,163.163 236.153,172.447 232.393,178.96 C229.318,184.283 222.697,187.097 213.247,187.097 L213.247,187.097 Z" id="Fill-37" fill="#41464B"></path>
            <polygon id="Fill-38" fill="#FF7443" points="143.037 324.632 216.133 324.632 216.133 285.884 143.037 285.884"></polygon>
            <polygon id="Fill-39" fill="#41464B" points="157.409 287.634 222.944 287.634 222.944 284.134 157.409 284.134"></polygon>
            <polygon id="Fill-40" fill="#41464B" points="157.409 295.252 222.944 295.252 222.944 291.752 157.409 291.752"></polygon>
            <polygon id="Fill-41" fill="#41464B" points="157.409 302.879 222.944 302.879 222.944 299.379 157.409 299.379"></polygon>
            <polygon id="Fill-42" fill="#41464B" points="136.226 287.634 152.082 287.634 152.082 284.134 136.226 284.134"></polygon>
            <polygon id="Fill-43" fill="#41464B" points="136.226 295.252 152.082 295.252 152.082 291.752 136.226 291.752"></polygon>
            <polygon id="Fill-44" fill="#41464B" points="136.226 302.879 152.082 302.879 152.082 299.379 136.226 299.379"></polygon>
            <path d="M162.837,326.382 L162.837,331.995 C162.837,333.828 163.552,335.557 164.851,336.864 C166.153,338.16 167.884,338.877 169.719,338.877 L189.446,338.877 C191.278,338.877 193.009,338.159 194.32,336.856 C195.617,335.56 196.333,333.832 196.333,331.995 L196.333,326.382 L162.837,326.382 L162.837,326.382 Z M189.446,342.377 L169.719,342.377 C166.952,342.377 164.344,341.298 162.375,339.338 C160.414,337.364 159.337,334.758 159.337,331.995 L159.337,322.882 L199.833,322.882 L199.833,331.995 C199.833,334.767 198.752,337.374 196.791,339.335 C194.816,341.298 192.209,342.377 189.446,342.377 L189.446,342.377 Z" id="Fill-45" fill="#41464B"></path>
            <path d="M263.619,287.578 C260.211,287.578 257.439,290.348 257.439,293.753 C257.439,297.158 260.211,299.928 263.619,299.928 C267.024,299.928 269.795,297.158 269.795,293.753 C269.795,290.348 267.024,287.578 263.619,287.578 L263.619,287.578 Z M263.619,303.428 C258.282,303.428 253.939,299.088 253.939,293.753 C253.939,288.418 258.282,284.078 263.619,284.078 C268.955,284.078 273.295,288.418 273.295,293.753 C273.295,299.088 268.955,303.428 263.619,303.428 L263.619,303.428 Z" id="Fill-46" fill="#41464B"></path>
            <path d="M16.861,123.736 C12.874,123.736 9.629,126.981 9.629,130.969 C9.629,134.957 12.874,138.201 16.861,138.201 C20.852,138.201 24.099,134.957 24.099,130.969 C24.099,126.981 20.852,123.736 16.861,123.736 L16.861,123.736 Z M16.861,141.701 C10.944,141.701 6.129,136.887 6.129,130.969 C6.129,125.051 10.944,120.236 16.861,120.236 C22.782,120.236 27.599,125.051 27.599,130.969 C27.599,136.887 22.782,141.701 16.861,141.701 L16.861,141.701 Z" id="Fill-47" fill="#41464B"></path>
            <path d="M296.524,50.244 C291.954,50.244 288.235,53.962 288.235,58.533 C288.235,63.11 291.954,66.834 296.524,66.834 C301.098,66.834 304.819,63.11 304.819,58.533 C304.819,53.962 301.098,50.244 296.524,50.244 L296.524,50.244 Z M296.524,70.334 C290.024,70.334 284.735,65.04 284.735,58.533 C284.735,52.033 290.024,46.744 296.524,46.744 C303.028,46.744 308.319,52.033 308.319,58.533 C308.319,65.04 303.028,70.334 296.524,70.334 L296.524,70.334 Z" id="Fill-48" fill="#41464B"></path>
            <path d="M316.469,28.935 C316.469,33.027 313.159,36.331 309.073,36.331 C304.983,36.331 301.671,33.027 301.671,28.935 C301.671,24.854 304.983,21.537 309.073,21.537 C313.159,21.537 316.469,24.854 316.469,28.935" id="Fill-49" fill="#4CBED8"></path>
            <path d="M177.467,4.855 C177.467,7.189 175.577,9.083 173.239,9.083 C170.903,9.083 169.011,7.189 169.011,4.855 C169.011,2.516 170.903,0.627 173.239,0.627 C175.577,0.627 177.467,2.516 177.467,4.855" id="Fill-50" fill="#AFAFAF"></path>
            <path d="M287.447,321.395 C287.447,323.634 285.629,325.459 283.384,325.459 C281.139,325.459 279.321,323.634 279.321,321.395 C279.321,319.144 281.139,317.331 283.384,317.331 C285.629,317.331 287.447,319.144 287.447,321.395" id="Fill-51" fill="#AFAFAF"></path>
            <path d="M9.38,210.302 C9.38,212.637 7.489,214.531 5.151,214.531 C2.818,214.531 0.924,212.637 0.924,210.302 C0.924,207.968 2.818,206.075 5.151,206.075 C7.489,206.075 9.38,207.968 9.38,210.302" id="Fill-52" fill="#AFAFAF"></path>
            <path d="M323.921,106.292 C322.833,106.292 321.948,107.182 321.948,108.276 C321.948,109.364 322.833,110.25 323.921,110.25 C325.013,110.25 325.901,109.364 325.901,108.276 C325.901,107.182 325.013,106.292 323.921,106.292 L323.921,106.292 Z M323.921,113.75 C320.903,113.75 318.448,111.294 318.448,108.276 C318.448,105.252 320.903,102.792 323.921,102.792 C326.942,102.792 329.401,105.252 329.401,108.276 C329.401,111.294 326.942,113.75 323.921,113.75 L323.921,113.75 Z" id="Fill-53" fill="#41464B"></path>
            <path d="M39.812,222.805 C38.253,222.805 36.985,224.071 36.985,225.627 C36.985,227.182 38.253,228.447 39.812,228.447 C41.368,228.447 42.633,227.182 42.633,225.627 C42.633,224.071 41.368,222.805 39.812,222.805 L39.812,222.805 Z M39.812,231.947 C36.323,231.947 33.485,229.112 33.485,225.627 C33.485,222.141 36.323,219.305 39.812,219.305 C43.297,219.305 46.133,222.141 46.133,225.627 C46.133,229.112 43.297,231.947 39.812,231.947 L39.812,231.947 Z" id="Fill-54" fill="#41464B"></path>
            <path d="M329.326,237.888 C329.326,256.917 313.898,272.35 294.873,272.35 C275.84,272.35 260.411,256.917 260.411,237.888 C260.411,228.373 264.271,219.754 270.504,213.53 L294.873,237.888 L329.326,237.888" id="Fill-55" fill="#4CBED8"></path>
            <path d="M302.057,230.705 L336.517,230.705 C336.517,221.188 332.659,212.573 326.424,206.337 L302.057,230.705" id="Fill-56" fill="#FF7443"></path>
            <path d="M303.807,228.955 L334.72,228.955 C333.839,212.307 320.454,198.921 303.807,198.04 L303.807,228.955 L303.807,228.955 Z M338.267,232.455 L300.307,232.455 L300.307,194.494 L302.057,194.494 C322.023,194.494 338.267,210.738 338.267,230.705 L338.267,232.455 L338.267,232.455 Z" id="Fill-57" fill="#41464B"></path>
            <path d="M294.873,274.1 C274.905,274.1 258.661,257.855 258.661,237.888 C258.661,217.926 274.905,201.686 294.873,201.686 L296.369,201.686 L296.369,205.186 L294.873,205.186 C276.835,205.186 262.161,219.856 262.161,237.888 C262.161,255.925 276.835,270.6 294.873,270.6 C303.605,270.6 311.819,267.197 318.002,261.019 L320.476,263.494 C313.632,270.333 304.539,274.1 294.873,274.1" id="Fill-58" fill="#41464B"></path>
            <polyline id="Fill-59" fill="#41464B" points="329.326 239.638 293.123 239.638 293.123 230.918 296.623 230.918 296.623 236.138 329.326 236.138 329.326 239.638"></polyline>
            <polyline id="Fill-60" fill="#41464B" points="284.621 250.614 282.146 248.14 293.635 236.65 296.11 239.125 284.621 250.614"></polyline>
            <polygon id="Fill-61" fill="#41464B" points="293.123 227.219 296.623 227.219 296.623 223.512 293.123 223.512"></polygon>
            <polygon id="Fill-62" fill="#41464B" points="293.123 219.818 296.623 219.818 296.623 216.122 293.123 216.122"></polygon>
            <polygon id="Fill-63" fill="#41464B" points="293.123 212.426 296.623 212.426 296.623 208.721 293.123 208.721"></polygon>
            <polygon id="Fill-64" fill="#41464B" points="95.467 287.634 98.965 287.634 98.965 284.134 95.467 284.134"></polygon>
            <polygon id="Fill-65" fill="#41464B" points="102.466 287.634 105.966 287.634 105.966 284.134 102.466 284.134"></polygon>
            <polygon id="Fill-66" fill="#41464B" points="109.466 287.634 112.967 287.634 112.967 284.134 109.466 284.134"></polygon>
            <polygon id="Fill-67" fill="#41464B" points="21.062 287.634 24.562 287.634 24.562 284.134 21.062 284.134"></polygon>
            <polygon id="Fill-68" fill="#41464B" points="28.063 287.634 31.563 287.634 31.563 284.134 28.063 284.134"></polygon>
            <polygon id="Fill-69" fill="#41464B" points="35.062 287.634 38.563 287.634 38.563 284.134 35.062 284.134"></polygon>
            <path d="M89.803,285.884 C92.043,289.754 93.323,294.249 93.323,299.039 C93.323,313.566 81.542,325.346 67.015,325.346 C52.488,325.346 40.706,313.566 40.706,299.039 C40.706,294.249 41.986,289.754 44.227,285.884 C48.775,293.749 57.282,299.039 67.015,299.039 C76.75,299.039 85.254,293.749 89.803,285.884" id="Fill-70" fill="#4CBED8"></path>
            <path d="M67.015,246.422 C81.542,246.422 93.323,258.203 93.323,272.731 C93.323,277.521 92.043,282.016 89.803,285.884 C85.254,278.022 76.75,272.731 67.015,272.731 C57.282,272.731 48.775,278.022 44.227,285.884 C41.986,282.016 40.706,277.521 40.706,272.731 C40.706,258.203 52.488,246.422 67.015,246.422" id="Fill-71" fill="#FF7443"></path>
            <path d="M46.272,285.884 C50.759,292.944 58.614,297.289 67.014,297.289 C75.414,297.289 83.268,292.944 87.756,285.884 C83.267,278.825 75.412,274.481 67.014,274.481 C58.615,274.481 50.76,278.825 46.272,285.884 L46.272,285.884 Z M67.014,300.789 C57.026,300.789 47.714,295.413 42.71,286.76 L42.204,285.884 L42.711,285.008 C47.715,276.356 57.027,270.981 67.014,270.981 C76.999,270.981 86.312,276.356 91.317,285.008 L91.824,285.884 L91.318,286.76 C86.314,295.413 77.001,300.789 67.014,300.789 L67.014,300.789 Z" id="Fill-72" fill="#41464B"></path>
            <path d="M67.015,281.789 C64.757,281.789 62.92,283.626 62.92,285.884 C62.92,288.143 64.757,289.98 67.015,289.98 C69.272,289.98 71.109,288.143 71.109,285.884 C71.109,283.626 69.272,281.789 67.015,281.789 L67.015,281.789 Z M67.015,293.48 C62.827,293.48 59.42,290.073 59.42,285.884 C59.42,281.696 62.827,278.289 67.015,278.289 C71.203,278.289 74.609,281.696 74.609,285.884 C74.609,290.073 71.203,293.48 67.015,293.48 L67.015,293.48 Z" id="Fill-73" fill="#41464B"></path>
            <polygon id="Fill-74" fill="#41464B" points="98.69 325.453 113.466 325.453 113.466 321.953 98.69 321.953"></polygon>
            <polyline id="Fill-75" fill="#41464B" points="113.466 319.081 97.965 319.081 85.421 306.536 87.896 304.062 99.416 315.581 113.466 315.581 113.466 319.081"></polyline>
            <polygon id="Fill-76" fill="#41464B" points="20.564 249.816 35.339 249.816 35.339 246.316 20.564 246.316"></polygon>
            <polyline id="Fill-77" fill="#41464B" points="46.134 267.707 34.614 256.188 20.564 256.188 20.564 252.688 36.064 252.688 48.608 265.232 46.134 267.707"></polyline>
            <path d="M74.515,72.254 C76.733,68.296 76.174,63.196 72.804,59.835 C69.431,56.462 64.343,55.9 60.381,58.115 C59.147,53.745 55.144,50.549 50.379,50.549 C45.614,50.549 41.608,53.745 40.376,58.115 C36.418,55.9 31.324,56.462 27.954,59.835 C24.594,63.196 24.022,68.296 26.24,72.254 C21.874,73.488 18.668,77.495 18.668,82.252 C18.668,87.993 23.327,92.652 29.069,92.652 L46.368,92.652 C52.109,92.652 56.768,97.308 56.768,103.052 L56.768,110.021 L61.296,110.021 L61.296,103.052 C61.296,97.308 65.945,92.652 71.689,92.652 C74.562,92.652 77.162,91.482 79.044,89.606 C80.93,87.722 82.09,85.121 82.09,82.252 C82.09,77.495 78.884,73.488 74.515,72.254" id="Fill-78" fill="#AFAFAF"></path>
            <polygon id="Fill-79" fill="#FFFFFF" points="41.13 83.859 44.83 83.859 44.83 80.359 41.13 80.359"></polygon>
            <polygon id="Fill-80" fill="#FFFFFF" points="48.53 83.859 52.231 83.859 52.231 80.359 48.53 80.359"></polygon>
            <polygon id="Fill-81" fill="#FFFFFF" points="55.928 83.859 59.628 83.859 59.628 80.359 55.928 80.359"></polygon>
            <path d="M108.178,30.155 C103.316,30.155 99.36,34.11 99.36,38.972 C99.36,43.84 103.316,47.801 108.178,47.801 C113.043,47.801 117.001,43.84 117.001,38.972 C117.001,34.11 113.043,30.155 108.178,30.155 L108.178,30.155 Z M108.178,51.301 C101.386,51.301 95.86,45.77 95.86,38.972 C95.86,32.18 101.386,26.655 108.178,26.655 C114.973,26.655 120.501,32.18 120.501,38.972 C120.501,45.77 114.973,51.301 108.178,51.301 L108.178,51.301 Z" id="Fill-82" fill="#41464B"></path>
            <path d="M139.889,30.155 C135.027,30.155 131.071,34.11 131.071,38.972 C131.071,43.84 135.027,47.801 139.889,47.801 C144.754,47.801 148.712,43.84 148.712,38.972 C148.712,34.11 144.754,30.155 139.889,30.155 L139.889,30.155 Z M139.889,51.301 C133.097,51.301 127.571,45.77 127.571,38.972 C127.571,32.18 133.097,26.655 139.889,26.655 C146.684,26.655 152.212,32.18 152.212,38.972 C152.212,45.77 146.684,51.301 139.889,51.301 L139.889,51.301 Z" id="Fill-83" fill="#41464B"></path>
            <path d="M131.071,38.972 L127.571,38.972 C127.571,37.024 125.984,35.44 124.034,35.44 C122.086,35.44 120.501,37.024 120.501,38.972 L117.001,38.972 C117.001,35.094 120.156,31.94 124.034,31.94 C127.915,31.94 131.071,35.094 131.071,38.972" id="Fill-84" fill="#41464B"></path>
            <path d="M152.212,38.972 L148.712,38.972 L148.712,12.546 C148.712,10.599 147.125,9.014 145.175,9.014 L145.175,5.514 C149.055,5.514 152.212,8.669 152.212,12.546 L152.212,38.972" id="Fill-85" fill="#41464B"></path>
            <path d="M99.36,38.972 L95.86,38.972 L95.86,12.546 C95.86,10.599 94.273,9.014 92.323,9.014 L92.323,5.514 C96.204,5.514 99.36,8.669 99.36,12.546 L99.36,38.972" id="Fill-86" fill="#41464B"></path>
        </g>
    </g>
</svg>