<svg width="512" height="124" viewBox="0 0 512 124" xmlns="http://www.w3.org/2000/svg" preserveAspectRatio="xMinYMin meet">
    <g fill-rule="evenodd">
        <path d="M303.758.215l107.286 113.642s3.656 2.578 6.45-.43c2.796-3.007.646-6.014.646-6.014L303.758.215zm33.97 10.74l81.702 88.08s3.655 2.577 6.45-.43c2.795-3.008.645-6.015.645-6.015l-88.797-81.634zm-23.865 22.987l81.7 88.08s3.656 2.577 6.45-.43c2.796-3.01.646-6.016.646-6.016l-88.8-81.634zm52.583-13.748l57.08 61.535s2.553 1.8 4.506-.305c1.953-2.1.45-4.202.45-4.202L366.446 20.19zm-44.72 40.386l57.08 61.536s2.553 1.8 4.505-.3c1.957-2.102.455-4.203.455-4.203l-62.04-57.033zm74.054-27.067l25.87 27.974s1.263.844 2.23-.14c.965-.985.222-1.97.222-1.97L395.78 33.513zm-59.772 55.425l25.87 27.974s1.264.844 2.23-.14c.966-.985.223-1.97.223-1.97l-28.32-25.864z" fill="#DF4F4F"/>
        <path d="M446.17 46.23v75.433h17.068V97.33h12.8l16.457 24.333H512l-18.286-26.157s16.238-6.418 16.238-23.826c0-24.576-22.333-25.448-22.333-25.448l-41.45-.002zm17.068 14.602v21.9h21.943s8.39-.002 8.39-10.952c0-11.365-10.215-10.948-10.215-10.948H463.24zm-206.018-14.6v75.43h57.294v-14.598h-40.228V91.248h34.743v-14.6h-34.747V60.82h40.228V46.232h-57.29zm-82.896 0v14.6h22.552v60.83h17.067v-60.83h22.552v-14.6h-62.17zm-78.02 0v75.43H153.6v-14.598h-40.23V91.248h34.744v-14.6H113.37V60.82h40.23V46.232H96.305zM0 46.23v75.435h17.055V74.212L37.78 104.63l20.734-30.417v47.452H75.58V46.23H58.515L37.78 77.254 17.054 46.23H0z" fill="#26262C"/>
    </g>
</svg>
