<svg xmlns="http://www.w3.org/2000/svg" viewBox="0 0 146 146"><defs><style>.a{fill:#fff;}.b{fill:#a6a385;}.c{fill:#499d4a;}.d{fill:#58aa50;}</style></defs><title>Artboard 1</title><path class="a" d="M76.23,144.06l-3.78-1.29s.46-19.29-6.46-20.67c-4.61-5.35.74-227,17.35-.74,0,0-5.72,2.86-6.74,7.75S76.23,144.06,76.23,144.06Z"/><path class="b" d="M76.23,144.06l-3.78-1.29s.46-19.29-6.46-20.67c-4.61-5.35.74-227,17.35-.74,0,0-5.72,2.86-6.74,7.75S76.23,144.06,76.23,144.06Z"/><path class="a" d="M78.27,125.42s33.13-21.78,25.38-67.09c-7.47-32.94-25.1-43.74-27-47.89a46.34,46.34,0,0,1-4.16-8.12l1.38,91.63c0,.09-2.86,28.05,4.43,31.47"/><path class="c" d="M78.27,125.42s33.13-21.78,25.38-67.09c-7.47-32.94-25.1-43.74-27-47.89a46.34,46.34,0,0,1-4.16-8.12l1.38,91.63c0,.09-2.86,28.05,4.43,31.47"/><path class="a" d="M70.51,126.61S39.41,105.39,41.26,68,65,12.28,69.22,9c2.77-3,2.86-4.06,3-7C74.21,6.1,73.84,64,74.11,70.88c.83,26.3-1.47,50.76-3.59,55.74Z"/><path class="d" d="M70.51,126.61S39.41,105.39,41.26,68,65,12.28,69.22,9c2.77-3,2.86-4.06,3-7C74.21,6.1,73.84,64,74.11,70.88c.83,26.3-1.47,50.76-3.59,55.74Z"/></svg>