<?xml version="1.0" encoding="utf-8"?>
<!-- Generator: Adobe Illustrator 20.1.0, SVG Export Plug-In . SVG Version: 6.00 Build 0)  -->
<svg version="1.1" id="Layer_1" xmlns="http://www.w3.org/2000/svg" xmlns:xlink="http://www.w3.org/1999/xlink" x="0px" y="0px"
	 viewBox="0 0 146 146" style="enable-background:new 0 0 146 146;" xml:space="preserve">
<style type="text/css">
	.st0{fill:#FFFFFF;}
	.st1{fill:#A6A385;}
	.st2{fill:#499D4A;}
	.st3{fill:#58AA50;}
</style>
<g>
	<path class="st0" d="M76.2,144.1l-3.8-1.3c0,0,0.5-19.3-6.5-20.7c-4.6-5.4,0.7-227,17.4-0.7c0,0-5.7,2.9-6.7,7.8
		C75.5,133.9,76.2,144.1,76.2,144.1z"/>
	<path class="st1" d="M76.2,144.1l-3.8-1.3c0,0,0.5-19.3-6.5-20.7c-4.6-5.4,0.7-227,17.4-0.7c0,0-5.7,2.9-6.7,7.8
		C75.5,133.9,76.2,144.1,76.2,144.1z"/>
	<path class="st0" d="M78.3,125.4c0,0,33.1-21.8,25.4-67.1c-7.5-32.9-25.1-43.7-27-47.9c-2.1-3-4.2-8.1-4.2-8.1l1.4,91.6
		C73.8,94,71,122,78.3,125.4"/>
	<path class="st2" d="M78.3,125.4c0,0,33.1-21.8,25.4-67.1c-7.5-32.9-25.1-43.7-27-47.9c-2.1-3-4.2-8.1-4.2-8.1l1.4,91.6
		C73.8,94,71,122,78.3,125.4"/>
	<path class="st0" d="M70.5,126.6c0,0-31.1-21.2-29.3-58.6C43,30.6,65,12.3,69.2,9c2.8-3,2.9-4.1,3-7c1.9,4.2,1.6,62.1,1.8,68.9
		C74.9,97.2,72.6,121.6,70.5,126.6L70.5,126.6z"/>
	<path class="st3" d="M70.5,126.6c0,0-31.1-21.2-29.3-58.6C43,30.6,65,12.3,69.2,9c2.8-3,2.9-4.1,3-7c1.9,4.2,1.6,62.1,1.8,68.9
		C74.9,97.2,72.6,121.6,70.5,126.6L70.5,126.6z"/>
</g>
</svg>
