<svg width="512" height="145" viewBox="0 0 512 145" xmlns="http://www.w3.org/2000/svg" preserveAspectRatio="xMinYMin meet">
    <g fill="#83CD29">
        <path d="M471.05 51.61c-1.244 0-2.454.258-3.525.864l-33.888 19.57c-2.193 1.264-3.526 3.65-3.526 6.19V117.3c0 2.537 1.337 4.92 3.53 6.187l8.85 5.108c4.3 2.12 5.885 2.086 7.84 2.086 6.367 0 10-3.86 10-10.573V81.542c0-.545-.47-.935-1.005-.935h-4.245c-.545 0-1.008.39-1.008.935v38.566c0 2.975-3.1 5.968-8.13 3.453l-9.21-5.392c-.324-.177-.574-.49-.574-.863v-39.07c0-.37.247-.747.576-.935l33.814-19.5a.998.998 0 0 1 1.007 0l33.817 19.497c.323.194.577.553.577.936v39.07c0 .372-.19.754-.507.934l-33.89 19.498c-.29.173-.69.173-1.006 0l-8.707-5.18a.905.905 0 0 0-.86 0c-2.403 1.362-2.855 1.52-5.11 2.302-.554.194-1.397.495.29 1.44l11.367 6.69a6.995 6.995 0 0 0 3.526.936 6.95 6.95 0 0 0 3.526-.935l33.89-19.5c2.19-1.274 3.522-3.65 3.522-6.186v-39.07c0-2.538-1.332-4.92-3.525-6.187l-33.89-19.57c-1.06-.607-2.28-.864-3.525-.864z"/>
        <path d="M480.116 79.528c-9.65 0-15.397 4.107-15.397 10.937 0 7.408 5.7 9.444 14.962 10.36 11.08 1.085 11.943 2.712 11.943 4.893 0 3.783-3.016 5.396-10.144 5.396-8.956 0-10.924-2.236-11.583-6.69-.08-.48-.448-.865-.937-.865h-4.39c-.54 0-1.005.462-1.005 1.004 0 5.703 3.102 12.447 17.916 12.447 10.725 0 16.91-4.21 16.91-11.583 0-7.31-4.995-9.274-15.397-10.65-10.51-1.39-11.512-2.07-11.512-4.532 0-2.033.85-4.75 8.636-4.75 6.954 0 9.524 1.5 10.577 6.188.092.44.48.79.935.79h4.39c.27 0 .532-.165.72-.36.183-.206.313-.44.287-.718-.68-8.074-6.064-11.872-16.91-11.872z"/>
    </g>
    <path d="M271.82.383a2.18 2.18 0 0 0-1.078.287 2.18 2.18 0 0 0-1.08 1.87v55.043c0 .54-.25 1.024-.72 1.295a1.5 1.5 0 0 1-1.51 0l-8.994-5.18a4.31 4.31 0 0 0-4.317 0l-35.9 20.72c-1.34.776-2.16 2.265-2.16 3.815v41.443c0 1.548.82 2.966 2.16 3.74l35.904 20.723a4.3 4.3 0 0 0 4.318 0l35.904-20.726a4.308 4.308 0 0 0 2.16-3.74V16.354a4.386 4.386 0 0 0-2.23-3.813L272.9.6c-.335-.187-.707-.22-1.08-.215zM40.86 52.115c-.683.027-1.327.147-1.94.503L3.014 73.34a4.3 4.3 0 0 0-2.158 3.74L.93 132.7c0 .772.398 1.49 1.078 1.87.667.4 1.494.4 2.16 0l21.296-12.232c1.35-.802 2.23-2.196 2.23-3.742V92.623c0-1.55.815-2.972 2.16-3.742l9.064-5.25a4.25 4.25 0 0 1 2.16-.574c.74 0 1.5.185 2.157.576l9.066 5.25a4.296 4.296 0 0 1 2.16 3.744V118.6c0 1.545.89 2.95 2.23 3.74l21.3 12.23c.67.4 1.496.4 2.16 0a2.164 2.164 0 0 0 1.08-1.87l.07-55.62a4.28 4.28 0 0 0-2.16-3.74L43.237 52.62c-.607-.356-1.253-.475-1.942-.503h-.432zm322.625.503c-.75 0-1.485.19-2.158.576l-35.903 20.722a4.306 4.306 0 0 0-2.16 3.74V119.1c0 1.56.88 2.97 2.232 3.742l35.615 20.29c1.32.75 2.925.807 4.25.07l21.584-12.015c.686-.38 1.15-1.09 1.152-1.87a2.126 2.126 0 0 0-1.08-1.87l-36.118-20.723c-.676-.386-1.15-1.167-1.15-1.943V91.83c0-.774.48-1.484 1.15-1.87l11.224-6.476a2.155 2.155 0 0 1 2.16 0l11.22 6.476a2.152 2.152 0 0 1 1.08 1.87v10.217c0 .776.41 1.484 1.08 1.87a2.14 2.14 0 0 0 2.16 0L401.33 91.4a4.325 4.325 0 0 0 2.16-3.743v-10a4.32 4.32 0 0 0-2.16-3.742l-35.686-20.722a4.28 4.28 0 0 0-2.16-.575zm-107.35 30.94c.188 0 .408.045.576.142l12.308 7.123c.334.193.576.55.576.935v14.246c0 .387-.24.743-.575.936l-12.305 7.123a1.09 1.09 0 0 1-1.078 0l-12.303-7.123c-.336-.194-.577-.55-.577-.936V91.758c0-.386.242-.74.576-.935l12.3-7.123a.948.948 0 0 1 .504-.142z" fill="#404137"/>
    <path d="M148.714 52.402c-.748 0-1.488.19-2.158.576l-35.903 20.65c-1.343.773-2.16 2.265-2.16 3.813v41.447c0 1.55.818 2.966 2.16 3.742l35.903 20.72a4.297 4.297 0 0 0 4.317 0l35.903-20.72a4.308 4.308 0 0 0 2.158-3.743V77.44c0-1.55-.816-3.04-2.158-3.812l-35.903-20.65a4.297 4.297 0 0 0-2.16-.576zm214.7 36.983c-.144 0-.303 0-.43.072l-6.91 4.03a.84.84 0 0 0-.43.718v7.915c0 .298.17.57.43.72l6.908 3.957c.26.15.535.15.79 0l6.908-3.958a.846.846 0 0 0 .432-.72V94.2a.846.846 0 0 0-.432-.72l-6.907-4.028c-.128-.076-.216-.072-.36-.072z" fill="#83CD29"/>
</svg>
