<svg width="354" height="302" viewBox="0 0 354 302" xmlns="http://www.w3.org/2000/svg"><title>design-studio</title><g fill="none" fill-rule="evenodd"><path fill="#AFAFAF" d="M194.398 299.317h140v-50h-140z"/><path fill="#FFF" d="M206.398 287.317h116v-26h-116z"/><path fill="#41464B" d="M336.148 299.317h-3.5v-48.25h-136.5v48.25h-3.5v-51.75h143.5v51.75"/><path fill="#41464B" d="M243.485 276.067h41.826v-3.5h-41.824z"/><path fill="#AFAFAF" d="M19.102 299.317h10v-50h-10z"/><path fill="#41464B" d="M30.852 299.317h-3.5v-48.25h-6.5v48.25h-3.5v-51.75h13.5v51.75"/><path d="M3.5 247.567H350v-9.5H3.5v9.5zm-3.5 3.5h353.5v-16.5H0v16.5z" fill="#41464B"/><path d="M175.03 202.388a7.445 7.445 0 0 1-2.175 5.287 7.515 7.515 0 0 1-5.313 2.195H26.592a7.47 7.47 0 0 1-5.298-2.195 7.43 7.43 0 0 1-2.192-5.287v-9.98H175.03v9.98" fill="#AFAFAF"/><path d="M20.852 190.658H173.28V94.803a5.72 5.72 0 0 0-1.665-4.06 5.73 5.73 0 0 0-4.073-1.676H26.592a5.7 5.7 0 0 0-4.06 1.68 5.697 5.697 0 0 0-1.68 4.056v95.855zm155.927 3.5H17.35V94.803c0-2.466.96-4.786 2.705-6.53a9.174 9.174 0 0 1 6.534-2.706h140.95a9.21 9.21 0 0 1 6.55 2.705 9.194 9.194 0 0 1 2.688 6.53v99.356z" fill="#41464B"/><path d="M20.852 194.158v8.23a5.67 5.67 0 0 0 1.677 4.047 5.71 5.71 0 0 0 4.06 1.685h140.95c1.54 0 2.99-.6 4.08-1.685a5.686 5.686 0 0 0 1.66-4.047v-8.23H20.85zm146.69 17.462H26.592a9.185 9.185 0 0 1-6.535-2.708 9.147 9.147 0 0 1-2.705-6.524v-11.73H176.78v11.73a9.165 9.165 0 0 1-2.686 6.523 9.223 9.223 0 0 1-6.552 2.71z" fill="#41464B"/><path d="M76.007 234.567h42.118l-3.24-22.947H79.247l-3.24 22.947zm46.147 3.5H71.978l4.23-29.947h41.717l4.23 29.947zM89.986 202.89h14.178v-3.5H89.986z" fill="#41464B"/><path fill="#4CBED8" d="M28.978 182.532H165.16V97.19H28.978z"/><path fill="#41464B" d="M35.978 113.362h3.5v-3.5h-3.5zm0 7.063h3.5v-3.5h-3.5zm0 7.062h3.5v-3.5h-3.5zm0 7.063h3.5v-3.5h-3.5zm0 7.06h3.5v-3.5h-3.5zm0 7.064h3.5v-3.5h-3.5zm0 7.062h3.5v-3.5h-3.5zm0 7.064h3.5v-3.5h-3.5zm0 7.06h3.5v-3.5h-3.5z"/><path fill="#FFF" d="M146.41 118.675h10v-7.063h-10zm0 49.435h10v-7.06h-10z"/><path d="M148.16 116.925h6.5v-3.563h-6.5v3.563zm-3.5 3.5h13.5v-10.563h-13.5v10.563zm3.5 45.935h6.5v-3.56h-6.5v3.56zm-3.5 3.5h13.5V159.3h-13.5v10.56zm3.5-17.624h6.5v-24.75h-6.5v24.75zm-3.5 3.5h13.5v-31.75h-13.5v31.75z" fill="#41464B"/><path d="M79.18 131.883c10.487 0 18.99 8.502 18.99 18.99 0 10.486-8.503 18.988-18.99 18.988-10.488 0-18.99-8.5-18.99-18.986 0-10.488 8.502-18.99 18.99-18.99" fill="#FF7443"/><path d="M79.18 109.86c10.487 0 18.99 8.503 18.99 18.99 0 10.488-8.503 18.99-18.99 18.99-10.488 0-18.99-8.502-18.99-18.99 0-10.487 8.502-18.99 18.99-18.99" fill="#FED65C"/><path d="M116.446 143.61v-7.5h3.375c-1.74-8.69-9.41-15.238-18.612-15.238-10.487 0-18.99 8.502-18.99 18.99 0 10.486 8.503 18.988 18.99 18.988 9.203 0 16.874-6.548 18.614-15.24h-3.374" fill="#FFF"/><path d="M79.18 131.884c1.57 0 3.09.19 4.55.548a18.865 18.865 0 0 0-1.512 7.43c0 2.635.537 5.147 1.512 7.427-1.46.36-2.98.55-4.55.55-6.383 0-12.03-3.15-15.47-7.98 3.44-4.828 9.087-7.977 15.47-7.977m15.47 7.977a18.905 18.905 0 0 1 3.52 11.013 18.85 18.85 0 0 1-1.514 7.43A19.022 19.022 0 0 1 83.73 147.29a18.98 18.98 0 0 0 10.92-7.43" fill="#FFF"/><path d="M96.656 121.422a18.836 18.836 0 0 1 1.513 7.428 18.9 18.9 0 0 1-3.52 11.01 18.994 18.994 0 0 0-10.92-7.428 19.013 19.013 0 0 1 12.925-11.01" fill="#FFF"/><path d="M83.73 132.432a18.994 18.994 0 0 1 10.92 7.43 18.98 18.98 0 0 1-10.92 7.427 18.85 18.85 0 0 1-1.512-7.43c0-2.636.537-5.146 1.512-7.43" fill="#FFF"/><path d="M79.18 133.633c-9.506 0-17.24 7.733-17.24 17.24 0 9.505 7.734 17.238 17.24 17.238 9.506 0 17.24-7.73 17.24-17.236 0-9.507-7.734-17.24-17.24-17.24zm0 37.978c-11.436 0-20.74-9.3-20.74-20.736s9.304-20.74 20.74-20.74c11.435 0 20.74 9.304 20.74 20.74 0 11.435-9.305 20.738-20.74 20.738z" fill="#41464B"/><path d="M79.18 111.61c-9.506 0-17.24 7.734-17.24 17.24 0 9.506 7.734 17.24 17.24 17.24 9.506 0 17.24-7.734 17.24-17.24 0-9.506-7.734-17.24-17.24-17.24zm0 37.98c-11.436 0-20.74-9.304-20.74-20.74 0-11.435 9.304-20.74 20.74-20.74 11.435 0 20.74 9.305 20.74 20.74 0 11.436-9.305 20.74-20.74 20.74z" fill="#41464B"/><path d="M101.208 160.6c-1.695 0-3.37-.206-4.98-.61-6.284-1.53-11.566-6.028-14.117-12.027a20.69 20.69 0 0 1-1.637-8.1c0-2.818.555-5.548 1.65-8.112a20.784 20.784 0 0 1 14.116-12.023c1.6-.403 3.274-.608 4.97-.608 9.85 0 18.4 7.003 20.325 16.652l-3.433.687c-1.6-8.02-8.704-13.84-16.892-13.84-1.407 0-2.795.17-4.126.505a17.274 17.274 0 0 0-11.738 9.998 17.06 17.06 0 0 0-1.372 6.744c0 2.33.458 4.595 1.362 6.732 2.12 4.983 6.506 8.72 11.735 9.995 1.344.337 2.73.507 4.14.507 8.19 0 15.293-5.816 16.892-13.83l3.434.687c-1.926 9.64-10.476 16.64-20.328 16.64" fill="#41464B"/><path d="M118.196 141.86h4v-4h-4v4zm-3.5 3.5h11v-11h-11v11z" fill="#41464B"/><path fill="#41464B" d="M118.446 136.11h3.5v-26.25h-3.5zm0 33.75h3.5v-26.25h-3.5z"/><path d="M321.438 152.82a3.93 3.93 0 0 0-2.75-1.14H210.103c-.994 0-1.99.39-2.743 1.14a3.85 3.85 0 0 0-1.136 2.74v70.408h40.94l2.734 3h29l2.735-3h40.94v-70.41a3.9 3.9 0 0 0-1.135-2.74" fill="#AFAFAF"/><path d="M324.323 225.968h-3.5v-70.41a2.15 2.15 0 0 0-.632-1.512 2.16 2.16 0 0 0-1.502-.616H210.104c-.557 0-1.106.23-1.508.63a2.083 2.083 0 0 0-.622 1.5v70.408h-3.5v-70.41c0-1.5.586-2.912 1.65-3.976a5.678 5.678 0 0 1 3.98-1.652h108.583c1.485 0 2.897.582 3.976 1.64 1.08 1.096 1.66 2.504 1.66 3.99v70.408" fill="#41464B"/><path d="M196.148 227.714v3.427c0 .92.355 1.783 1 2.425a3.428 3.428 0 0 0 2.427 1.003h129.648c.912 0 1.775-.357 2.428-1.006a3.382 3.382 0 0 0 1-2.42v-3.426h-50.243l-2.734 3.004h-30.547l-2.734-3.004H196.15zm133.075 10.353H199.575a6.907 6.907 0 0 1-4.894-2.02 6.87 6.87 0 0 1-2.03-4.906v-6.925h55.29l2.733 3.004h27.453l2.734-3.005h55.288v6.927c0 1.86-.72 3.6-2.03 4.904a6.908 6.908 0 0 1-4.895 2.023z" fill="#41464B"/><path fill="#FFF" d="M214.224 217.964h100.35V159.68h-100.35z"/><path fill="#41464B" d="M284.65 209.072h3.5v-3.5h-3.5zm-29.78 0h3.722v-3.5h-3.722v3.5zm7.444 0h3.723v-3.5h-3.723v3.5zm7.445 0h3.72v-3.5h-3.722v3.5zm7.443 0h3.723v-3.5h-3.723v3.5zm-29.556 0h3.5v-3.5h-3.5zm0-29.556h3.5v-3.722h-3.5v3.722zm0 7.445h3.5v-3.72h-3.5v3.72zm0 7.447h3.5v-3.723h-3.5v3.723zm0 7.444h3.5v-3.72h-3.5v3.72zm0-29.778h3.5v-3.5h-3.5zm7.223 0h3.723v-3.5h-3.723v3.5zm7.445 0h3.723v-3.5h-3.723v3.5zm7.445 0h3.722v-3.5h-3.722v3.5zm7.445 0h3.722v-3.5h-3.722v3.5zm7.445 0h3.5v-3.5h-3.5zm0 7.444h3.5v-3.722h-3.5v3.722zm0 7.445h3.5v-3.72h-3.5v3.72zm0 7.447h3.5v-3.723h-3.5v3.723zm0 7.444h3.5v-3.72h-3.5v3.72zm-18.502-1.93h3.5v-22.198h-3.5z"/><path fill="#41464B" d="M262.348 201.67h11.1v-3.5h-11.1zm18.4-18.4h-3.5v-3.8h-18.7v3.8h-3.5v-7.3h25.7v7.3m23.325 27.694h3.5V166.68h-3.5v44.284zm-3.5 3.5h10.5V163.18h-10.5v51.284z"/><path fill="#41464B" d="M302.323 174.16h7v-3.5h-7zm-81.1 36.804h10.5V187.16h-10.5v23.804zm-3.5 3.5h17.5V183.66h-17.5v30.804z"/><path fill="#41464B" d="M219.474 193.985h14v-3.5h-14zm0 6.825h14v-3.5h-14zm0 6.827h14v-3.5h-14z"/><path fill="#41464B" d="M224.724 212.714h3.5V185.41h-3.5zm-3.5-42.054h10.5v-3.98h-10.5v3.98zm-3.5 3.5h17.5v-10.98h-17.5v10.98z"/><path d="M169.708 220.333h.004v-27.925h-32.69v27.924a5.317 5.317 0 0 0 5.317 5.318l27.37.002a5.317 5.317 0 0 0 5.32-5.32h-5.323" fill="#FED65C"/><path d="M142.34 227.4c-3.898 0-7.07-3.17-7.07-7.068v-29.674h36.192v29.674h-3.5v-26.174h-29.19v26.174a3.57 3.57 0 0 0 3.567 3.568v3.5" fill="#41464B"/><path d="M148.437 223.902h21.274a3.57 3.57 0 0 0 3.11-1.82H149.19a7.068 7.068 0 0 1-.75 1.82zm21.274 3.5h-27.37v-3.5a3.57 3.57 0 0 0 3.567-3.57v-1.75h30.874v1.75c0 3.9-3.172 7.07-7.07 7.07zm-24.843-22.782h17v-3.5h-17zm0 7h8.5v-3.5h-8.5zm-35.292 89.447c-7.858 0-14.25-6.392-14.25-14.25v-37.5h3.5v37.5c0 5.928 4.822 10.75 10.75 10.75 5.927 0 10.75-4.822 10.75-10.75v-15h3.5v15c0 7.858-6.393 14.25-14.25 14.25" fill="#41464B"/><path d="M113.325 278.847h17.5v-17.5h-17.5v17.5zm-3.5 3.5h24.5v-24.5h-24.5v24.5z" fill="#41464B"/><path fill="#41464B" d="M116.825 268.347h3.5v-3.5h-3.5zm7 0h3.5v-3.5h-3.5zm-66.973-32.03h-3.5a7.208 7.208 0 0 0-2.124-5.127 7.204 7.204 0 0 0-5.126-2.123h-8a7.202 7.202 0 0 0-5.127 2.124 7.203 7.203 0 0 0-2.123 5.128h-3.5c0-2.87 1.118-5.57 3.148-7.6a10.68 10.68 0 0 1 7.602-3.15h8c2.87 0 5.57 1.118 7.6 3.148a10.687 10.687 0 0 1 3.15 7.602"/><path d="M302.323 192.408v38.732c0 1.328.51 2.65 1.514 3.662a5.15 5.15 0 0 0 3.662 1.515h21.722a5.15 5.15 0 0 0 3.662-1.515 5.184 5.184 0 0 0 1.513-3.662v-38.732h-32.075" fill="#FF7443"/><path d="M304.073 194.158v36.982c0 .913.358 1.776 1.006 2.43.64.642 1.5.997 2.42.997h21.722c.92 0 1.78-.355 2.422-1a3.432 3.432 0 0 0 1.003-2.427v-36.982h-28.575zm25.15 43.91H307.5a6.87 6.87 0 0 1-4.903-2.03 6.91 6.91 0 0 1-2.024-4.898v-40.482h35.575v40.482c0 1.843-.717 3.58-2.02 4.895a6.872 6.872 0 0 1-4.905 2.032z" fill="#41464B"/><path d="M336.148 224.214h1.917a3.39 3.39 0 0 0 2.256-.996 3.428 3.428 0 0 0 1.005-2.427v-13.024c0-.92-.354-1.78-.998-2.422a3.43 3.43 0 0 0-2.428-1.003h-1.75v19.875zm1.75 3.504l-5.25-.004V200.84h5.25c1.843 0 3.58.717 4.895 2.02a6.87 6.87 0 0 1 2.03 4.905v13.026a6.907 6.907 0 0 1-2.02 4.896 6.87 6.87 0 0 1-4.905 2.033zm-17.075-25.128h3.5v-10.355h-3.5z" fill="#41464B"/><path fill="#FFF" d="M317.573 214.59h10v-12h-10z"/><path fill="#FF7443" d="M206.224 70.936h14v-7.834h-14z"/><path d="M207.974 109.862h10.5v-51.5h-10.5v51.5zm-3.5 3.5h17.5v-58.5h-17.5v58.5z" fill="#41464B"/><path fill="#41464B" d="M211.474 104.274h3.5v-26h-3.5z"/><path fill="#4CBED8" d="M220.224 100.19h8V56.612h-8z"/><path d="M221.974 109.862h4.5V46.94h-4.5v62.922zm-3.5 3.5h11.5V43.44h-11.5v69.922z" fill="#41464B"/><path fill="#FF7443" d="M260.224 111.613h8v-61.27h-8z"/><path d="M261.974 109.862h4.5v-57.77h-4.5v57.77zm-3.5 3.5h11.5v-64.77h-11.5v64.77zm-28.5-3.5h14.5v-57.77h-14.5v57.77zm-3.5 3.5h21.5v-64.77h-21.5v64.77z" fill="#41464B"/><path fill="#41464B" d="M232.474 98.112h3.5v-28h-3.5zm6 0h3.5v-14h-3.5zm-10.25-39.75h18v-3.5h-18z"/><path fill="#FED65C" d="M246.224 100.68h14V56.612h-14z"/><path fill="#AFAFAF" d="M246.224 56.612h14V45.19h-14z"/><path d="M247.974 109.862h10.5V36.01h-10.5v73.852zm-3.5 3.5h17.5V32.51h-17.5v80.853z" fill="#41464B"/><path fill="#41464B" d="M251.474 76.86h3.5V66.146h-3.5zm0 14.286h3.5V80.433h-3.5zm-5.25-32.784h14v-3.5h-14z"/><path fill="#AFAFAF" d="M194.398 118.612h140v-7h-140z"/><path fill="#41464B" d="M194.398 113.362h140v-3.5h-140zm0 7h140v-3.5h-140z"/><path fill="#41464B" d="M204.474 125.612h3.5v-7h-3.5zm116.35 0h3.5v-7h-3.5z"/><path fill="#FED65C" d="M283.573 87.612h35l-5 24h-25l-5-24m-4 0h43v-7h-43z"/><path d="M289.996 109.862h22.154l4.27-20.5h-30.694l4.27 20.5zm25 3.5H287.15l-5.73-27.5h39.306l-5.73 27.5z" fill="#41464B"/><path d="M281.323 85.862h39.5v-3.5h-39.5v3.5zm-3.5 3.5h46.5v-10.5h-46.5v10.5z" fill="#41464B"/><path d="M295.823 78.862h10.5v-24.25a5.22 5.22 0 0 0-1.537-3.713 5.22 5.22 0 0 0-3.713-1.54c-1.402 0-2.72.547-3.712 1.538a5.22 5.22 0 0 0-1.536 3.712v24.25zm14 3.5h-17.5v-27.75c0-2.337.91-4.535 2.564-6.187a8.688 8.688 0 0 1 6.186-2.563c2.337 0 4.534.91 6.187 2.562a8.694 8.694 0 0 1 2.563 6.188v27.75z" fill="#41464B"/><path d="M310.073 71.8h-2v-3.5h2a8.7 8.7 0 0 0 6.19-2.564 8.694 8.694 0 0 0 2.56-6.186v-10c0-.965-.785-1.75-1.75-1.75s-1.75.785-1.75 1.75v10c0 1.4-.545 2.72-1.536 3.71a5.217 5.217 0 0 1-3.714 1.54h-2v-3.5h2a1.746 1.746 0 0 0 1.75-1.75v-10a5.256 5.256 0 0 1 5.25-5.25 5.256 5.256 0 0 1 5.25 5.25v10c0 3.27-1.274 6.347-3.586 8.66a12.18 12.18 0 0 1-8.664 3.59m-16 4.562h-2c-3.27 0-6.347-1.274-8.663-3.588a12.176 12.176 0 0 1-3.587-8.662v-4.687a5.256 5.256 0 0 1 5.25-5.25 5.256 5.256 0 0 1 5.25 5.25v4.687c0 .467.182.907.513 1.238.33.33.77.512 1.237.512h2v3.5h-2a5.215 5.215 0 0 1-3.713-1.538 5.22 5.22 0 0 1-1.537-3.712v-4.687c0-.965-.785-1.75-1.75-1.75s-1.75.785-1.75 1.75v4.687c0 2.337.91 4.534 2.562 6.187a8.702 8.702 0 0 0 6.188 2.56h2v3.5m5.25-19.998h3.5v-3.5h-3.5zm0 6.666h3.5v-3.5h-3.5zm0 6.667h3.5v-3.5h-3.5zm0 6.667h3.5v-3.5h-3.5zm-170.236-7.176h53.877v-65.5h-53.877v65.5zm-3.5 3.5h60.877V.186h-60.877v72.5z" fill="#41464B"/><path fill="#FF7443" d="M134.337 63.936h43.377v-55h-43.377z"/><path d="M161.975 47.596a7.667 7.667 0 1 1-15.334 0 7.667 7.667 0 0 1 15.336 0" fill="#FFF"/><path fill="#AFAFAF" d="M154.308 47.597h14.675V32.922h-14.675z"/><path fill="#FFF" d="M155.067 17.608l-6 10.392-6-10.392h12"/><path d="M154.308 41.68a5.923 5.923 0 0 0-5.916 5.916 5.923 5.923 0 0 0 5.916 5.917 5.924 5.924 0 0 0 5.917-5.917 5.924 5.924 0 0 0-5.917-5.916zm0 15.333c-5.192 0-9.416-4.224-9.416-9.417 0-5.19 4.224-9.416 9.416-9.416s9.417 4.225 9.417 9.416c0 5.193-4.225 9.417-9.417 9.417z" fill="#41464B"/><path d="M156.058 45.846h11.175V34.67h-11.175v11.176zm-3.5 3.5h18.175V31.173h-18.175v18.175zM146.1 19.358l2.967 5.142 2.97-5.142H146.1zm2.967 12.142l-9.03-15.642H158.1L149.065 31.5zM67.19 25.686a5.256 5.256 0 0 0-5.25 5.25v33a5.256 5.256 0 0 0 5.25 5.25h33a5.256 5.256 0 0 0 5.25-5.25v-33a5.256 5.256 0 0 0-5.25-5.25h-33zm33 47h-33c-4.824 0-8.75-3.925-8.75-8.75v-33c0-4.824 3.926-8.75 8.75-8.75h33c4.825 0 8.75 3.926 8.75 8.75v33c0 4.825-3.925 8.75-8.75 8.75z" fill="#41464B"/><path d="M101.19 47.436c0 9.665-7.835 17.5-17.5 17.5s-17.5-7.835-17.5-17.5 7.835-17.5 17.5-17.5 17.5 7.835 17.5 17.5" fill="#4CBED8"/><path fill="#41464B" d="M81.94 33.436h3.5v-3.5h-3.5zm-15.75 15.75h3.5v-3.5h-3.5zm15.75 15.75h3.5v-3.5h-3.5zm15.75-15.75h3.5v-3.5h-3.5zm-7 0h-8.75v-12.25h3.5v8.75h5.25v3.5"/></g></svg>