<svg width="333" height="321" viewBox="0 0 333 321" xmlns="http://www.w3.org/2000/svg"><title>idea</title><g fill="none" fill-rule="evenodd"><path d="M128.392 51.872v-3.5a4.133 4.133 0 0 0 4.127-4.13 4.132 4.132 0 0 0-4.13-4.125c-.577 0-1.14.12-1.672.355a1.75 1.75 0 0 1-2.456-1.602l.003-.186c.002-5.44-4.373-9.812-9.75-9.812-5.376 0-9.75 4.373-9.75 9.747 0 .624.062 1.262.184 1.892a1.748 1.748 0 0 1-2.3 1.984 2.88 2.88 0 0 0-.96-.16 3.02 3.02 0 0 0-3.018 3.016 3.02 3.02 0 0 0 3.017 3.017h3.332l-.002 3.5h-3.33a6.524 6.524 0 0 1-6.517-6.518 6.524 6.524 0 0 1 6.096-6.502 8.762 8.762 0 0 1-.004-.23c0-7.305 5.944-13.248 13.25-13.248 6.64 0 12.155 4.907 13.106 11.284.255-.026.51-.04.77-.04 4.204 0 7.626 3.422 7.626 7.627 0 4.207-3.423 7.63-7.628 7.63" fill="#41464B"/><path d="M82.257 81.858c.16 0 .316.017.46.025a14.08 14.08 0 0 1-.927-4.984c0-7.647 6.19-13.84 13.848-13.84 2.1 0 4.086.47 5.886 1.32 2.926-9.76 11.998-16.86 22.71-16.86 13.097 0 23.724 10.622 23.724 23.725 0 .233-.014.46-.014.68h.014c7.643 0 13.83 6.19 13.83 13.835 0 7.64-6.187 13.833-13.83 13.833h-65.7c-4.89 0-8.853-3.97-8.853-8.864 0-4.904 3.963-8.873 8.852-8.873" fill="#4CBED8"/><path d="M261.46 320.374l-12.856-67.538.132-.42 20.793-66a86.962 86.962 0 0 0 4.7-28.254c0-48.03-39.073-87.106-87.1-87.106-48.035 0-87.114 39.076-87.114 87.106l-.052 10.95-.085.26-17.984 55.405h21.36l4.455 56.014 42.49-5.08 6.42 44.086-3.463.504-5.93-40.71-42.715 5.11-4.49-56.423H77.08l19.387-59.727.05-10.396c0-49.952 40.65-90.598 90.613-90.598 49.958 0 90.6 40.646 90.6 90.606a90.363 90.363 0 0 1-4.876 29.347l-20.647 65.536 12.69 66.673-3.437.653" fill="#41464B"/><path fill="#41464B" d="M185.372 261.983h3.5v-3.5h-3.5zm0 7.257h3.5v-3.5h-3.5zm0 7.26h3.5V273h-3.5zm0 7.257h3.5v-3.5h-3.5zm0 7.258h3.5v-3.5h-3.5zm0 7.258h3.5v-3.5h-3.5zm0 7.257h3.5v-3.5h-3.5zm0 7.26h3.5v-3.5h-3.5zm0 7.257h3.5v-3.5h-3.5z"/><path d="M187.126 108.16c-27.62.01-50.004 22.394-50.004 50.01 0 14.636 6.293 27.795 16.303 36.936.474.41.955.822 1.43 1.24 7.82 7.125 12.73 17.37 12.73 28.78v6.505h39.074v-6.502c0-11.41 4.91-21.656 12.727-28.78.478-.42.955-.83 1.43-1.24 10.01-9.142 16.304-22.3 16.304-36.936 0-27.616-22.382-50-49.995-50.01" fill="#FED65C"/><path fill="#AFAFAF" d="M179.726 260.233h14.793v-7.89h-14.795z"/><path d="M169.335 250.592h35.574v-17.21h-35.576v17.21zm-3.5 3.5h42.574v-24.21h-42.576v24.21z" fill="#41464B"/><path fill="#41464B" d="M163.944 233.38H210.3v-3.5h-46.356zm0 6.904H210.3v-3.5h-46.356zm0 6.906H210.3v-3.5h-46.356zm0 6.902H210.3v-3.5h-46.356z"/><path d="M181.476 258.483h11.293v-4.39h-11.295v4.39zm-3.5 3.5h18.293v-11.39h-18.295v11.39zm7.396-30.353h3.5v-46.15h-3.5zm4.43-64.188l-5.358-10.716-1.598 3.195h-9.724v-3.5h7.562l3.76-7.52 5.358 10.716 1.595-3.194h9.725v3.5h-7.56l-3.76 7.522" fill="#41464B"/><path fill="#41464B" d="M187.126 188.747L170.14 161.98l2.954-1.875 14.032 22.11 14.032-22.1 2.955 1.875-16.987 26.757"/><path d="M169.622 156.42c-.965 0-1.75.786-1.75 1.75 0 .966.785 1.75 1.75 1.75s1.75-.784 1.75-1.75c0-.964-.785-1.75-1.75-1.75zm0 7a5.256 5.256 0 0 1-5.25-5.25 5.256 5.256 0 0 1 5.25-5.25 5.256 5.256 0 0 1 5.25 5.25 5.256 5.256 0 0 1-5.25 5.25zm35-7c-.965 0-1.75.786-1.75 1.75 0 .966.785 1.75 1.75 1.75s1.75-.784 1.75-1.75c0-.964-.785-1.75-1.75-1.75zm0 7a5.256 5.256 0 0 1-5.25-5.25 5.256 5.256 0 0 1 5.25-5.25 5.256 5.256 0 0 1 5.25 5.25 5.256 5.256 0 0 1-5.25 5.25zm-19.25-65.155h3.5v-7h-3.5zm15.915 1.673l-3.424-.727 1.455-6.846 3.424.728-1.455 6.848m11.797 4.215l-3.197-1.423 2.845-6.395 3.198 1.422-2.846 6.394m10.66 6.58l-2.83-2.06 4.114-5.663 2.832 2.06-4.115 5.664m9.062 8.65l-2.342-2.6 5.2-4.687 2.343 2.6-5.2 4.686m7.065 10.347l-1.752-3.03 6.063-3.503 1.752 3.03-6.06 3.502m4.755 11.588l-1.082-3.33 6.658-2.164 1.082 3.33-6.658 2.164m2.246 12.324l-.367-3.48 6.96-.734.368 3.48-6.964.734m6.6 13.252l-6.964-.73.365-3.48 6.963.73-.365 3.48m-3.263 13.604l-6.66-2.162 1.08-3.33 6.66 2.163-1.08 3.327m-6.023 12.628l-6.065-3.5 1.75-3.03 6.065 3.5-1.75 3.03m-8.517 11.1l-5.205-4.683 2.342-2.6 5.205 4.68-2.342 2.603m-10.637 9.087l-4.117-5.662 2.83-2.06 4.117 5.663-2.83 2.06M172.957 99.938l-1.455-6.846 3.424-.728 1.455 6.847-3.422.73m-11.796 4.216l-2.848-6.394 3.198-1.424 2.847 6.395-3.2 1.423m-10.66 6.578l-4.114-5.662 2.832-2.058 4.115 5.662-2.832 2.058m-9.06 8.65l-5.202-4.682 2.342-2.6 5.203 4.68-2.342 2.603m-7.064 10.345l-6.063-3.498 1.75-3.032 6.063 3.5-1.75 3.03m-4.756 11.59l-6.66-2.163 1.08-3.33 6.66 2.163-1.08 3.33m-2.247 12.324l-6.96-.732.364-3.48 6.96.73-.364 3.482m-6.595 13.254l-.367-3.48 6.963-.733.367 3.48-6.962.733m3.266 13.602l-1.082-3.328 6.656-2.164 1.082 3.33-6.656 2.163m6.023 12.628l-1.75-3.03 6.06-3.5 1.75 3.03-6.06 3.5m8.517 11.098l-2.342-2.6 5.2-4.684 2.343 2.6-5.2 4.684m10.637 9.087l-2.832-2.057 4.113-5.663 2.832 2.057-4.113 5.663M273.85 92.596h2.276l1.442-7.23 1.216-.18a24.873 24.873 0 0 0 5.297-1.42l1.14-.442 4.87 5.53 1.976-1.14-2.362-6.988.956-.765a24.93 24.93 0 0 0 3.87-3.872l.767-.956 6.996 2.364 1.133-1.972-5.527-4.874.44-1.138a25.313 25.313 0 0 0 1.417-5.286l.184-1.21 7.22-1.455v-2.286l-7.217-1.44-.185-1.213a25.16 25.16 0 0 0-1.424-5.31l-.442-1.14 5.532-4.86-1.133-1.974-6.99 2.363-.765-.954a25.458 25.458 0 0 0-3.88-3.88l-.95-.766 2.358-6.988-1.975-1.137-4.875 5.527-1.138-.442a25.264 25.264 0 0 0-5.298-1.417l-1.213-.185-1.44-7.224h-2.286l-1.447 7.226-1.21.185a25.292 25.292 0 0 0-5.296 1.42l-1.14.443-4.867-5.534-1.975 1.138 2.36 6.992-.955.765a24.912 24.912 0 0 0-3.876 3.872l-.766.957-6.985-2.367-1.14 1.977 5.535 4.853-.444 1.142a24.95 24.95 0 0 0-1.425 5.315l-.183 1.216-7.225 1.438v2.284l7.228 1.453.182 1.216a24.787 24.787 0 0 0 1.422 5.293l.442 1.14-5.534 4.863 1.142 1.972 6.992-2.364.765.96a24.343 24.343 0 0 0 3.868 3.866l.96.766-2.363 6.994 1.974 1.14 4.86-5.535 1.142.44a24.997 24.997 0 0 0 5.302 1.424l1.213.182 1.452 7.23zm5.147 3.5h-8.016l-1.537-7.665a28.518 28.518 0 0 1-3.668-.983l-5.16 5.873-6.943-4.008 2.506-7.412a27.868 27.868 0 0 1-2.68-2.677l-7.41 2.506-4.012-6.944 5.873-5.16a28.303 28.303 0 0 1-.987-3.663l-7.66-1.54V56.4l7.66-1.523c.243-1.234.574-2.465.988-3.68l-5.873-5.15 4.012-6.95 7.41 2.51c.83-.95 1.726-1.846 2.68-2.68l-2.506-7.416 6.945-4 5.162 5.87c1.2-.41 2.425-.737 3.66-.982l1.536-7.666H279l1.53 7.663a28.74 28.74 0 0 1 3.66.98l5.17-5.862 6.944 3.996-2.505 7.42c.95.832 1.844 1.73 2.677 2.677l7.423-2.51 3.99 6.952-5.865 5.15c.412 1.208.74 2.436.986 3.674l7.658 1.528v8.02l-7.66 1.545a28.654 28.654 0 0 1-.98 3.65l5.862 5.17-3.99 6.94-7.424-2.507a28.43 28.43 0 0 1-2.676 2.68l2.506 7.412-6.943 4.006-5.168-5.868a28.31 28.31 0 0 1-3.665.983l-1.528 7.663z" fill="#41464B"/><path d="M274.99 79.404c-10.516 0-19-8.486-19-18.99 0-10.506 8.484-19 19-19 10.486 0 19 8.494 19 19 0 10.504-8.514 18.99-19 18.99" fill="#FF7443"/><path d="M272.32 53.136l-1.202-3.287a11.2 11.2 0 0 1 3.843-.683l.01 3.5a7.755 7.755 0 0 0-2.65.468zm7.636 1.327a7.694 7.694 0 0 0-2.333-1.34l1.186-3.292a11.21 11.21 0 0 1 3.387 1.946l-2.242 2.688zm-11.69 2.084l-3.033-1.745a11.22 11.22 0 0 1 2.506-2.995l2.252 2.677a7.722 7.722 0 0 0-1.726 2.063zm14.352 2.492a7.692 7.692 0 0 0-.926-2.524l3.024-1.762a11.148 11.148 0 0 1 1.347 3.67l-3.445.614zm-18.708 3.335a11.412 11.412 0 0 1-.006-3.898l3.45.595a7.895 7.895 0 0 0 .003 2.697l-3.448.605zM284.756 66l-3.037-1.74a7.68 7.68 0 0 0 .907-2.53l3.45.593A11.186 11.186 0 0 1 284.755 66zm-16.993 3.034a11.182 11.182 0 0 1-2.515-2.988l3.03-1.753a7.715 7.715 0 0 0 1.73 2.057l-2.245 2.685zm11.118 1.93l-1.207-3.284a7.694 7.694 0 0 0 2.323-1.353l2.26 2.674a11.214 11.214 0 0 1-3.374 1.967zm-3.85.69h-.04a11.24 11.24 0 0 1-3.842-.67l1.192-3.29a7.78 7.78 0 0 0 2.65.46l.04 3.5zm27.823 78.242h1.697l1.55-4.057.866-.23a13.018 13.018 0 0 0 3.232-1.344l.775-.452 3.973 1.77 1.2-1.2-1.773-3.97.452-.775c.59-1.013 1.043-2.1 1.344-3.235l.227-.867 4.056-1.547v-1.7l-4.055-1.547-.23-.865a13.196 13.196 0 0 0-1.347-3.24l-.45-.774 1.773-3.967-1.198-1.2-3.978 1.778-.78-.458a12.71 12.71 0 0 0-3.223-1.338l-.868-.23-1.55-4.058h-1.697l-1.55 4.057-.867.23a12.87 12.87 0 0 0-3.228 1.34l-.778.455-3.975-1.78-1.198 1.2 1.773 3.968-.45.776a13.063 13.063 0 0 0-1.345 3.235l-.23.868-4.056 1.546v1.7l4.057 1.547.228.87a12.9 12.9 0 0 0 1.34 3.228l.457.777-1.775 3.972 1.198 1.198 3.97-1.77.775.45a13.13 13.13 0 0 0 3.235 1.345l.867.23 1.548 4.056zm4.107 3.5h-6.518l-1.78-4.662a16.63 16.63 0 0 1-2.417-1.005l-4.56 2.03-4.606-4.603 2.036-4.557c-.4-.778-.735-1.587-1.005-2.42l-4.66-1.776v-6.524l4.66-1.776a16.7 16.7 0 0 1 1.007-2.42l-2.038-4.556 4.605-4.608 4.558 2.04a16.364 16.364 0 0 1 2.42-1.004l1.778-4.66h6.52l1.78 4.66c.834.27 1.644.606 2.42 1.003l4.56-2.04 4.6 4.606-2.034 4.558c.4.78.735 1.59 1.005 2.418l4.663 1.78v6.52l-4.66 1.778a16.57 16.57 0 0 1-1.006 2.42l2.034 4.56-4.6 4.6-4.563-2.03c-.78.4-1.59.735-2.42 1.004l-1.778 4.662z" fill="#41464B"/><path d="M303.702 141.13a7.987 7.987 0 0 1-7.988-7.986c0-4.408 3.576-7.99 7.988-7.99a7.99 7.99 0 0 1 0 15.977" fill="#AFAFAF"/><path d="M188.864 35.863h-3.5v-2.81c0-3.864 1.96-7.395 5.24-9.444l.12-.07a7.593 7.593 0 0 0 4.023-6.72c0-4.206-3.42-7.627-7.625-7.627-4.204 0-7.625 3.42-7.625 7.627h-3.5c0-6.135 4.99-11.126 11.125-11.126s11.125 4.99 11.125 11.127a11.074 11.074 0 0 1-5.84 9.79 7.59 7.59 0 0 0-3.543 6.444v2.81m-3.5 6.562h3.5v-3.28h-3.5zm22.98 1.454h-3.5v-1.686a7.34 7.34 0 0 1 3.473-6.26l.1-.057a3.852 3.852 0 0 0 2.055-3.424 3.88 3.88 0 0 0-3.875-3.875 3.88 3.88 0 0 0-3.875 3.875h-3.5c0-4.066 3.308-7.375 7.375-7.375 4.066 0 7.375 3.31 7.375 7.375a7.345 7.345 0 0 1-3.844 6.477 3.856 3.856 0 0 0-1.785 3.264v1.685m-3.5 6.563h3.5v-3.28h-3.5zm-35.45-6.563h-3.5v-1.686a7.334 7.334 0 0 1 3.475-6.26l.122-.07a3.873 3.873 0 0 0 2.034-3.412 3.88 3.88 0 0 0-3.877-3.874 3.88 3.88 0 0 0-3.875 3.875h-3.5c0-4.066 3.31-7.375 7.375-7.375 4.068 0 7.377 3.31 7.377 7.375a7.344 7.344 0 0 1-3.853 6.482 3.854 3.854 0 0 0-1.775 3.26v1.684m-3.5 6.563h3.5v-3.28h-3.5z" fill="#41464B"/><path d="M64.446 201.74c-.5 0-.978.083-1.424.24a10.61 10.61 0 0 0-10.416-12.67c-5.87 0-10.623 4.748-10.623 10.614 0 .08.008.153.008.23a5.423 5.423 0 0 0-7.622 4.96 5.428 5.428 0 0 0 5.427 5.43h24.652c2.428 0 4.4-1.973 4.4-4.402 0-2.428-1.972-4.4-4.4-4.4" fill="#4CBED8"/><path d="M83.22 150.692h-.008l.004-3.5h.004c.75 0 1.453-.292 1.984-.823.533-.534.826-1.24.826-1.993a2.82 2.82 0 0 0-2.816-2.816c-.26 0-.518.037-.77.11a1.75 1.75 0 0 1-2.23-1.572 6.682 6.682 0 0 0-6.656-6.254 6.676 6.676 0 0 0-5.5 2.892 1.75 1.75 0 0 1-1.254.748 1.742 1.742 0 0 1-1.385-.464 5.954 5.954 0 0 0-5.778-1.34 1.75 1.75 0 0 1-2.26-1.53c-.508-6.198-5.782-11.053-12.007-11.053-6.642 0-12.045 5.404-12.045 12.047 0 .25.01.492.025.737a1.75 1.75 0 0 1-1.537 1.848 4.744 4.744 0 0 0-4.167 4.71 4.76 4.76 0 0 0 4.754 4.752v3.5c-4.55 0-8.252-3.702-8.252-8.25a8.253 8.253 0 0 1 5.69-7.842c.29-8.32 7.147-15 15.536-15 7.38 0 13.725 5.288 15.215 12.352a9.392 9.392 0 0 1 5.758 1.39 10.174 10.174 0 0 1 7.21-2.996c4.734 0 8.765 3.27 9.87 7.72 3.383.112 6.1 2.9 6.103 6.31 0 1.69-.658 3.276-1.852 4.47a6.27 6.27 0 0 1-4.457 1.846" fill="#41464B"/><path d="M52.245 167.1v-3.5l21.734-.002a1.652 1.652 0 0 0 0-3.302 1.6 1.6 0 0 0-.525.087 1.748 1.748 0 0 1-2.295-1.99 6.47 6.47 0 0 0 .124-1.25 6.46 6.46 0 0 0-6.453-6.45v-3.5c5.395 0 9.8 4.31 9.95 9.665a5.16 5.16 0 0 1 4.35 5.09c0 2.84-2.31 5.15-5.15 5.15H52.245m-19.84-16.406h18.152v-3.5H32.403zm22.616 0h4.485v-3.5H55.02zM295.712 201.4l-.506-3.462a13.738 13.738 0 0 1 1.986-.144h.01c.64 0 1.282.044 1.913.132l-.484 3.467c-.47-.067-.996-.082-1.436-.1-.496 0-.994.037-1.48.108zm8.174 2.374a10.238 10.238 0 0 0-2.457-1.57l1.443-3.19a13.78 13.78 0 0 1 3.297 2.108l-2.284 2.652zm-13.414.04l-2.3-2.638a13.76 13.76 0 0 1 3.282-2.127l1.465 3.177c-.888.408-1.71.942-2.45 1.586zm16.557 4.803c-.28-.935-.69-1.825-1.224-2.645l2.935-1.906a13.694 13.694 0 0 1 1.64 3.552l-3.352 1zm-19.673.06l-3.36-.978a13.72 13.72 0 0 1 1.617-3.564l2.95 1.886a10.215 10.215 0 0 0-1.207 2.653zm23.04 6.74l-3.358-.987c.272-.93.41-1.902.41-2.886l3.5-.05v.05c0 1.317-.185 2.62-.552 3.872zm-26.384.025a13.77 13.77 0 0 1-.56-3.87l3.5-.006c0 .982.142 1.952.417 2.885l-3.356.993zm22.2 6.488l-2.295-2.643a10.32 10.32 0 0 0 1.91-2.206l2.943 1.896c-.71 1.1-1.57 2.095-2.56 2.955zm-18 .018a13.84 13.84 0 0 1-2.568-2.95l2.94-1.9a10.32 10.32 0 0 0 1.916 2.202l-2.29 2.648zm10.955 3.205l-.497-3.465a10.12 10.12 0 0 0 2.794-.82l1.46 3.18a13.673 13.673 0 0 1-3.757 1.105zm-3.907.005a13.683 13.683 0 0 1-3.757-1.097l1.45-3.183c.89.405 1.83.68 2.798.816l-.49 3.466zm23.318-136.34l-1.777-3.015a8.753 8.753 0 0 1 4.36-1.207l.03 3.5c-.92.01-1.823.258-2.61.722zm7.178 1.856a5.287 5.287 0 0 0-1.942-1.902l1.725-3.046a8.818 8.818 0 0 1 3.225 3.16l-3.01 1.788zm-9.768 2.713l-3.5-.003c0-1.555.394-3.05 1.142-4.362l3.04 1.73a5.25 5.25 0 0 0-.683 2.55v.085zm12.83 4.33l-3.03-1.75c.457-.793.7-1.7.7-2.62l3.5-.084v.083a8.754 8.754 0 0 1-1.17 4.37zm-11.93 3.224a8.79 8.79 0 0 1-3.207-3.18l3.02-1.767a5.295 5.295 0 0 0 1.93 1.913l-1.74 3.036zm4.375 1.157l-.01-3.5a5.24 5.24 0 0 0 2.616-.707l1.76 3.025a8.75 8.75 0 0 1-4.368 1.18zM220.983 12.43l-3.196-3.194 2.475-2.476 3.197 3.196-2.477 2.475m-6.798-6.802l-3.198-3.18 2.47-2.482 3.196 3.18-2.468 2.482m6.075 0l-2.47-2.482 3.197-3.18 2.47 2.48-3.198 3.182m-6.8 6.802l-2.476-2.474 3.198-3.196 2.474 2.476-3.197 3.195m115.336 169.503l-4.475-4.474 2.477-2.477 4.475 4.475-2.474 2.473m-9.525-9.523l-4.474-4.454 2.467-2.48 4.474 4.453-2.47 2.48m7.523 0l-2.47-2.48 4.476-4.454 2.467 2.48-4.475 4.455m-9.522 9.526l-2.474-2.474 4.475-4.477 2.476 2.475-4.474 4.473" fill="#41464B"/><path d="M332.237 192.943" fill="#AFAFAF"/><path d="M286.314 237.94a7.5 7.5 0 0 1-7.5 7.5 7.5 7.5 0 0 1-7.5-7.5 7.5 7.5 0 0 1 7.5-7.5c4.143 0 7.5 3.355 7.5 7.5" fill="#FF7443"/><path fill="#41464B" d="M10.26 163.752v-3.5h25.593v3.5H10.26m-9.657 0v-3.5h4.75v3.5H.603m24.505 23.538v-3.5h5.745v3.5h-5.745M68.15 48.25v-3.5h5.003v3.5H68.15"/><path d="M89.146 55.708h-32.67a4.657 4.657 0 0 1-4.653-4.65 4.66 4.66 0 0 1 3.72-4.56c.24-4.612 4.068-8.29 8.74-8.29v3.5a5.256 5.256 0 0 0-5.25 5.25c0 .327.033.672.1 1.027a1.75 1.75 0 0 1-2.3 1.98 1.154 1.154 0 0 0-1.51 1.093c0 .633.517 1.15 1.153 1.15h32.67v3.5" fill="#41464B"/><path d="M63.81 76.513a7.382 7.382 0 0 0-7.364-7.833 7.38 7.38 0 0 0-7.355 6.773 4.076 4.076 0 0 0-4.005.93 4.504 4.504 0 0 0-8.207 2.27 2.442 2.442 0 1 0-.67 4.788h27.18a3.475 3.475 0 0 0 .423-6.928" fill="#AFAFAF"/></g></svg>