<?xml version="1.0" encoding="UTF-8" standalone="no"?>
<svg width="348px" height="287px" viewBox="0 0 348 287" version="1.1" xmlns="http://www.w3.org/2000/svg" xmlns:xlink="http://www.w3.org/1999/xlink">
    <!-- Generator: Sketch 39 (31667) - http://www.bohemiancoding.com/sketch -->
    <title>analytics-research</title>
    <desc>Created with Sketch.</desc>
    <defs></defs>
    <g id="Business" stroke="none" stroke-width="1" fill="none" fill-rule="evenodd">
        <g id="analytics-research">
            <path d="M292.594,238.682 L289.094,238.682 L289.094,126.848 C289.094,125.603 288.601,124.416 287.707,123.506 C286.811,122.623 285.616,122.126 284.363,122.126 L103.252,122.126 C102.007,122.126 100.79,122.632 99.913,123.513 C99.013,124.412 98.52,125.594 98.52,126.848 L98.52,238.682 L95.02,238.682 L95.02,126.848 C95.02,124.657 95.877,122.595 97.436,121.041 C98.96,119.508 101.082,118.626 103.252,118.626 L284.363,118.626 C286.542,118.626 288.608,119.481 290.184,121.033 C291.745,122.622 292.594,124.68 292.594,126.848 L292.594,238.682" id="Fill-21" fill="#41464B"></path>
            <path d="M78.807,240.427 L78.807,247.316 C78.807,249.161 79.52,250.889 80.815,252.181 C82.124,253.479 83.857,254.196 85.691,254.196 L301.939,254.196 C303.769,254.196 305.498,253.48 306.808,252.179 C308.105,250.896 308.818,249.17 308.818,247.316 L308.818,240.427 L223.332,240.427 L218.773,245.437 L168.855,245.437 L164.297,240.427 L78.807,240.427 L78.807,240.427 Z M301.939,257.696 L85.691,257.696 C82.928,257.696 80.319,256.619 78.346,254.663 C76.385,252.705 75.307,250.097 75.307,247.316 L75.307,236.927 L165.844,236.927 L170.402,241.937 L217.227,241.937 L221.785,236.927 L312.318,236.927 L312.318,247.316 C312.318,250.113 311.236,252.724 309.271,254.665 C307.305,256.619 304.7,257.696 301.939,257.696 L301.939,257.696 Z" id="Fill-22" fill="#41464B"></path>
            <polygon id="Fill-23" fill="#41464B" points="95.02 249.064 98.52 249.064 98.52 245.564 95.02 245.564"></polygon>
            <polygon id="Fill-24" fill="#41464B" points="102.02 249.064 105.52 249.064 105.52 245.564 102.02 245.564"></polygon>
            <polygon id="Fill-25" fill="#41464B" points="109.02 249.064 112.52 249.064 112.52 245.564 109.02 245.564"></polygon>
            <polygon id="Fill-26" fill="#41464B" points="275.094 249.064 292.594 249.064 292.594 245.564 275.094 245.564"></polygon>
            <polyline id="Fill-27" fill="#4CBED8" points="108.459 132.062 108.459 194.305 127.423 194.305 133.744 182.056 152.714 182.056 159.037 168.763 178.004 168.763 184.326 178.999 203.297 178.999 209.62 170.874 228.588 170.874 234.912 157.567 253.88 157.567 260.202 167.806 279.171 167.806 279.176 132.062 108.459 132.062"></polyline>
            <polyline id="Fill-28" fill="#FF7443" points="108.454 214.817 108.454 227.013 279.171 227.013 279.171 197.513 260.202 197.513 253.88 191.388 234.912 191.388 228.588 200.568 209.62 200.568 203.297 205.637 184.326 205.637 178.006 199.513 159.038 199.513 152.716 208.693 133.746 208.693 127.423 214.817 108.454 214.817"></polyline>
            <polyline id="Fill-29" fill="#41464B" points="128.131 216.567 108.454 216.567 108.454 213.067 126.714 213.067 133.038 206.943 151.796 206.943 158.118 197.763 178.715 197.763 185.035 203.887 202.682 203.887 209.005 198.818 227.668 198.818 233.993 189.638 254.588 189.638 260.911 195.763 279.171 195.763 279.171 199.263 259.494 199.263 253.171 193.138 235.832 193.138 229.507 202.318 210.235 202.318 203.912 207.387 183.617 207.387 177.297 201.263 159.958 201.263 153.636 210.443 134.455 210.443 128.131 216.567"></polyline>
            <polygon id="Fill-30" fill="#41464B" points="115.454 163.562 152.714 163.562 152.714 160.062 115.454 160.062"></polygon>
            <polygon id="Fill-31" fill="#41464B" points="115.454 170.562 134.084 170.562 134.084 167.062 115.454 167.062"></polygon>
            <polygon id="Fill-32" fill="#41464B" points="178.681 142.562 216.619 142.562 216.619 139.062 178.681 139.062"></polygon>
            <polygon id="Fill-33" fill="#41464B" points="159.714 149.562 197.65 149.562 197.65 146.062 159.714 146.062"></polygon>
            <polygon id="Fill-34" fill="#41464B" points="159.714 142.562 172.358 142.562 172.358 139.062 159.714 139.062"></polygon>
            <polygon id="Fill-35" fill="#FFFFFF" points="115.454 156.562 152.714 156.562 152.714 139.062 115.454 139.062"></polygon>
            <polygon id="Fill-36" fill="#41464B" points="135.834 149.562 144.729 149.562 144.729 146.062 135.834 146.062"></polygon>
            <polygon id="Fill-37" fill="#41464B" points="123.439 149.562 132.334 149.562 132.334 146.062 123.439 146.062"></polygon>
            <polygon id="Fill-38" fill="#FFFFFF" points="254.671 142.562 258.171 142.562 258.171 139.062 254.671 139.062"></polygon>
            <polygon id="Fill-39" fill="#FFFFFF" points="261.671 142.562 265.171 142.562 265.171 139.062 261.671 139.062"></polygon>
            <polygon id="Fill-40" fill="#FFFFFF" points="268.671 142.562 272.171 142.562 272.171 139.062 268.671 139.062"></polygon>
            <polygon id="Fill-41" fill="#FF7443" points="198.318 94.658 208.817 94.658 208.817 80.718 198.318 80.718"></polygon>
            <polygon id="Fill-42" fill="#FF7443" points="212.317 81.729 222.817 81.729 222.817 63.583 212.317 63.583"></polygon>
            <polygon id="Fill-43" fill="#FF7443" points="226.317 98.452 236.818 98.452 236.818 91.141 226.317 91.141"></polygon>
            <polygon id="Fill-44" fill="#FF7443" points="240.317 76.618 250.818 76.618 250.818 68.988 240.317 68.988"></polygon>
            <polygon id="Fill-45" fill="#FF7443" points="254.318 85.754 264.818 85.754 264.818 58.671 254.318 58.671"></polygon>
            <polygon id="Fill-46" fill="#FF7443" points="268.318 94.272 278.818 94.272 278.818 85.015 268.318 85.015"></polygon>
            <polygon id="Fill-47" fill="#FF7443" points="282.318 91.02 292.818 91.02 292.818 74.312 282.318 74.312"></polygon>
            <polygon id="Fill-48" fill="#FED65C" points="198.318 105.126 208.817 105.126 208.817 98.158 198.318 98.158"></polygon>
            <polygon id="Fill-49" fill="#FED65C" points="212.317 105.126 222.817 105.126 222.817 85.229 212.317 85.229"></polygon>
            <polygon id="Fill-50" fill="#FED65C" points="226.317 105.126 236.818 105.126 236.818 101.952 226.317 101.952"></polygon>
            <polygon id="Fill-51" fill="#FED65C" points="240.317 105.126 250.818 105.126 250.818 80.118 240.317 80.118"></polygon>
            <polygon id="Fill-52" fill="#FED65C" points="254.318 105.126 264.818 105.126 264.818 89.254 254.318 89.254"></polygon>
            <polygon id="Fill-53" fill="#FED65C" points="268.318 105.126 278.818 105.126 278.818 97.772 268.318 97.772"></polygon>
            <polygon id="Fill-54" fill="#FED65C" points="282.318 105.126 292.818 105.126 292.818 94.52 282.318 94.52"></polygon>
            <path d="M198.318,112.126 L201.818,112.126 L201.818,108.626 L198.318,108.626 L198.318,112.126 Z M205.318,112.126 L208.818,112.126 L208.818,108.626 L205.318,108.626 L205.318,112.126 Z M212.318,112.126 L215.818,112.126 L215.818,108.626 L212.318,108.626 L212.318,112.126 Z M219.318,112.126 L222.818,112.126 L222.818,108.626 L219.318,108.626 L219.318,112.126 Z M226.318,112.126 L229.818,112.126 L229.818,108.626 L226.318,108.626 L226.318,112.126 Z M233.318,112.126 L236.818,112.126 L236.818,108.626 L233.318,108.626 L233.318,112.126 Z M240.318,112.126 L243.818,112.126 L243.818,108.626 L240.318,108.626 L240.318,112.126 Z M247.318,112.126 L250.818,112.126 L250.818,108.626 L247.318,108.626 L247.318,112.126 Z M254.318,112.126 L257.818,112.126 L257.818,108.626 L254.318,108.626 L254.318,112.126 Z M261.318,112.126 L264.818,112.126 L264.818,108.626 L261.318,108.626 L261.318,112.126 Z M268.318,112.126 L271.818,112.126 L271.818,108.626 L268.318,108.626 L268.318,112.126 Z M275.318,112.126 L278.818,112.126 L278.818,108.626 L275.318,108.626 L275.318,112.126 Z M282.318,112.126 L285.818,112.126 L285.818,108.626 L282.318,108.626 L282.318,112.126 Z M289.318,112.126 L292.818,112.126 L292.818,108.626 L289.318,108.626 L289.318,112.126 Z" id="Fill-55" fill="#41464B"></path>
            <polyline id="Fill-56" fill="#41464B" points="308.818 202.763 290.844 202.763 290.844 199.263 305.318 199.263 305.318 57.737 283.344 35.763 185.818 35.763 185.818 120.376 182.318 120.376 182.318 32.263 284.793 32.263 308.818 56.288 308.818 202.763"></polyline>
            <polyline id="Fill-57" fill="#41464B" points="307.068 58.763 282.318 58.763 282.318 34.013 285.818 34.013 285.818 55.263 307.068 55.263 307.068 58.763"></polyline>
            <polygon id="Fill-58" fill="#FFFFFF" points="268.097 255.946 346.039 255.946 346.039 174.244 268.097 174.244"></polygon>
            <path d="M335.645,152.599 L278.494,152.599 C272.775,152.599 268.097,157.276 268.097,162.989 L268.097,174.244 L346.039,174.244 L346.039,162.989 C346.039,157.276 341.361,152.599 335.645,152.599" id="Fill-59" fill="#AFAFAF"></path>
            <polygon id="Fill-60" fill="#41464B" points="299.489 165.174 314.649 165.174 314.649 161.674 299.489 161.674"></polygon>
            <path d="M278.494,277.599 L335.645,277.599 C341.361,277.599 346.039,272.921 346.039,267.205 L346.039,255.946 L268.097,255.946 L268.097,267.205 C268.097,272.921 272.775,277.599 278.494,277.599" id="Fill-61" fill="#AFAFAF"></path>
            <path d="M317.462,266.773 C317.462,268.677 315.662,270.235 313.462,270.235 L300.672,270.235 C298.472,270.235 296.672,268.677 296.672,266.773 C296.672,264.869 298.472,263.311 300.672,263.311 L313.462,263.311 C315.662,263.311 317.462,264.869 317.462,266.773" id="Fill-62" fill="#FFFFFF"></path>
            <path d="M300.145,265.061 C299.211,265.061 298.422,265.845 298.422,266.774 C298.422,267.717 299.195,268.485 300.145,268.485 L313.992,268.485 C314.94,268.485 315.712,267.717 315.712,266.774 C315.712,265.829 314.94,265.061 313.992,265.061 L300.145,265.061 L300.145,265.061 Z M313.992,271.985 L300.145,271.985 C297.265,271.985 294.922,269.648 294.922,266.774 C294.922,263.899 297.265,261.561 300.145,261.561 L313.992,261.561 C316.87,261.561 319.212,263.899 319.212,266.774 C319.212,269.648 316.87,271.985 313.992,271.985 L313.992,271.985 Z" id="Fill-63" fill="#41464B"></path>
            <path d="M278.494,154.349 C273.726,154.349 269.847,158.225 269.847,162.989 L269.847,267.205 C269.847,271.971 273.726,275.849 278.494,275.849 L335.645,275.849 C340.411,275.849 344.289,271.971 344.289,267.205 L344.289,162.989 C344.289,158.225 340.411,154.349 335.645,154.349 L278.494,154.349 L278.494,154.349 Z M335.645,279.349 L278.494,279.349 C271.796,279.349 266.347,273.901 266.347,267.205 L266.347,162.989 C266.347,156.295 271.796,150.849 278.494,150.849 L335.645,150.849 C342.341,150.849 347.789,156.295 347.789,162.989 L347.789,267.205 C347.789,273.901 342.341,279.349 335.645,279.349 L335.645,279.349 Z" id="Fill-64" fill="#41464B"></path>
            <polygon id="Fill-65" fill="#41464B" points="268.097 175.994 346.039 175.994 346.039 172.494 268.097 172.494"></polygon>
            <polygon id="Fill-66" fill="#41464B" points="268.097 257.696 346.039 257.696 346.039 254.196 268.097 254.196"></polygon>
            <path d="M323.568,211.824 C323.568,222.874 314.617,231.824 303.568,231.824 C298.047,231.824 293.047,229.584 289.428,225.964 L303.568,211.824 L323.568,211.824" id="Fill-67" fill="#FF7443"></path>
            <path d="M303.568,191.824 L303.568,211.824 L289.428,225.964 C285.807,222.355 283.568,217.355 283.568,211.824 C283.568,200.784 292.527,191.824 303.568,191.824" id="Fill-68" fill="#FED65C"></path>
            <path d="M312.318,203.074 L328.735,203.074 C327.907,194.405 320.987,187.486 312.318,186.657 L312.318,203.074 L312.318,203.074 Z M332.318,206.574 L308.818,206.574 L308.818,183.074 L310.568,183.074 C322.562,183.074 332.318,192.831 332.318,204.824 L332.318,206.574 L332.318,206.574 Z" id="Fill-69" fill="#41464B"></path>
            <polygon id="Fill-70" fill="#41464B" points="292.068 240.432 322.068 240.432 322.068 236.932 292.068 236.932"></polygon>
            <polygon id="Fill-71" fill="#41464B" points="299.566 247.432 314.566 247.432 314.566 243.932 299.566 243.932"></polygon>
            <polyline id="Fill-72" fill="#41464B" points="119.022 95.611 116.548 93.137 136.077 73.607 138.552 76.082 119.022 95.611"></polyline>
            <polyline id="Fill-73" fill="#41464B" points="31.091 95.611 11.561 76.082 14.035 73.607 33.565 93.137 31.091 95.611"></polyline>
            <path d="M141.592,66.269 C139.221,66.269 137.293,68.197 137.293,70.568 C137.293,72.938 139.221,74.866 141.592,74.866 C143.962,74.866 145.891,72.938 145.891,70.568 C145.891,68.197 143.962,66.269 141.592,66.269 L141.592,66.269 Z M141.592,78.366 C137.292,78.366 133.793,74.868 133.793,70.568 C133.793,66.267 137.292,62.769 141.592,62.769 C145.892,62.769 149.391,66.267 149.391,70.568 C149.391,74.868 145.892,78.366 141.592,78.366 L141.592,78.366 Z" id="Fill-74" fill="#41464B"></path>
            <path d="M113.508,94.353 C111.138,94.353 109.21,96.281 109.21,98.651 C109.21,101.021 111.138,102.949 113.508,102.949 C115.878,102.949 117.807,101.021 117.807,98.651 C117.807,96.281 115.878,94.353 113.508,94.353 L113.508,94.353 Z M113.508,106.449 C109.208,106.449 105.71,102.951 105.71,98.651 C105.71,94.351 109.208,90.853 113.508,90.853 C117.808,90.853 121.307,94.351 121.307,98.651 C121.307,102.951 117.808,106.449 113.508,106.449 L113.508,106.449 Z" id="Fill-75" fill="#41464B"></path>
            <path d="M36.605,94.353 C34.235,94.353 32.307,96.281 32.307,98.651 C32.307,101.021 34.235,102.949 36.605,102.949 C38.975,102.949 40.903,101.021 40.903,98.651 C40.903,96.281 38.975,94.353 36.605,94.353 L36.605,94.353 Z M36.605,106.449 C32.305,106.449 28.807,102.951 28.807,98.651 C28.807,94.351 32.305,90.853 36.605,90.853 C40.905,90.853 44.403,94.351 44.403,98.651 C44.403,102.951 40.905,106.449 36.605,106.449 L36.605,106.449 Z" id="Fill-76" fill="#41464B"></path>
            <path d="M8.521,66.269 C6.151,66.269 4.223,68.197 4.223,70.568 C4.223,72.938 6.151,74.866 8.521,74.866 C10.892,74.866 12.82,72.938 12.82,70.568 C12.82,68.197 10.892,66.269 8.521,66.269 L8.521,66.269 Z M8.521,78.366 C4.221,78.366 0.723,74.868 0.723,70.568 C0.723,66.267 4.221,62.769 8.521,62.769 C12.822,62.769 16.32,66.267 16.32,70.568 C16.32,74.868 12.822,78.366 8.521,78.366 L8.521,78.366 Z" id="Fill-77" fill="#41464B"></path>
            <polyline id="Fill-78" fill="#41464B" points="42.119 95.611 39.645 93.137 50.839 81.941 53.314 84.416 42.119 95.611"></polyline>
            <polyline id="Fill-79" fill="#41464B" points="107.993 95.611 96.801 84.417 99.275 81.943 110.468 93.137 107.993 95.611"></polyline>
            <polygon id="Fill-80" fill="#AFAFAF" points="68.054 155.699 82.054 155.699 82.054 104.699 68.054 104.699"></polygon>
            <path d="M75.054,29.449 C58.098,29.449 44.304,43.244 44.304,60.199 C44.304,77.155 58.098,90.949 75.054,90.949 C92.009,90.949 105.804,77.155 105.804,60.199 C105.804,43.244 92.009,29.449 75.054,29.449 L75.054,29.449 Z M75.054,94.449 C56.168,94.449 40.804,79.085 40.804,60.199 C40.804,41.314 56.168,25.949 75.054,25.949 C93.94,25.949 109.304,41.314 109.304,60.199 C109.304,79.085 93.94,94.449 75.054,94.449 L75.054,94.449 Z" id="Fill-81" fill="#41464B"></path>
            <polygon id="Fill-82" fill="#41464B" points="73.304 104.699 76.804 104.699 76.804 92.699 73.304 92.699"></polygon>
            <polygon id="Fill-83" fill="#41464B" points="65.054 106.449 85.054 106.449 85.054 102.949 65.054 102.949"></polygon>
            <polygon id="Fill-84" fill="#41464B" points="65.054 113.449 85.054 113.449 85.054 109.949 65.054 109.949"></polygon>
            <path d="M59.147,76.108 C50.356,67.318 50.356,53.078 59.147,44.288 C63.539,39.896 69.298,37.7 75.057,37.701 L75.056,60.198 L59.147,76.108" id="Fill-85" fill="#FF7443"></path>
            <path d="M90.966,76.108 L75.056,60.198 L75.057,37.701 C80.81,37.693 86.567,39.889 90.966,44.288 C99.749,53.071 99.75,67.325 90.966,76.108" id="Fill-86" fill="#4CBED8"></path>
            <path d="M61.672,76.057 C65.412,79.224 70.102,80.948 75.057,80.948 C80.012,80.948 84.702,79.223 88.44,76.057 L75.056,62.673 L61.672,76.057 L61.672,76.057 Z M75.057,84.448 C68.579,84.448 62.489,81.926 57.909,77.346 L56.672,76.108 L75.056,57.723 L93.44,76.108 L92.203,77.346 C87.624,81.926 81.534,84.448 75.057,84.448 L75.057,84.448 Z" id="Fill-87" fill="#41464B"></path>
            <polygon id="Fill-88" fill="#4CBED8" points="52.151 284.851 192.742 284.851 192.742 270.347 52.151 270.347"></polygon>
            <path d="M30.395,273.454 C30.395,272.661 30.697,271.864 31.306,271.257 C31.913,270.649 32.709,270.347 33.503,270.347 L37.647,270.347 L37.647,284.851 L33.503,284.851 C32.709,284.851 31.913,284.546 31.306,283.939 C30.697,283.333 30.395,282.536 30.395,281.743 L30.395,273.454" id="Fill-89" fill="#AFAFAF"></path>
            <polyline id="Fill-90" fill="#41464B" points="193.295 286.511 192.189 283.191 208.966 277.6 192.189 272.007 193.295 268.687 220.036 277.601 193.295 286.511"></polyline>
            <polygon id="Fill-91" fill="#41464B" points="205.507 280.013 209.007 280.013 209.007 275.183 205.507 275.183"></polygon>
            <path d="M53.901,283.101 L190.992,283.101 L190.992,272.097 L53.901,272.097 L53.901,283.101 Z M192.742,286.601 L52.151,286.601 C51.185,286.601 50.401,285.817 50.401,284.851 L50.401,270.347 C50.401,269.38 51.185,268.597 52.151,268.597 L192.742,268.597 C193.708,268.597 194.492,269.38 194.492,270.347 L194.492,284.851 C194.492,285.817 193.708,286.601 192.742,286.601 L192.742,286.601 Z" id="Fill-92" fill="#41464B"></path>
            <polygon id="Fill-93" fill="#41464B" points="52.151 279.349 192.742 279.349 192.742 275.849 52.151 275.849"></polygon>
            <path d="M39.397,283.101 L50.402,283.101 L50.402,272.097 L39.397,272.097 L39.397,283.101 Z M35.897,286.601 L53.902,286.601 L53.902,268.597 L35.897,268.597 L35.897,286.601 Z" id="Fill-94" fill="#41464B"></path>
            <path d="M33.503,272.097 C33.14,272.097 32.799,272.238 32.543,272.494 C32.286,272.752 32.145,273.092 32.145,273.454 L32.145,281.743 C32.145,282.105 32.285,282.444 32.54,282.698 C32.801,282.959 33.142,283.101 33.503,283.101 L35.897,283.101 L35.897,272.097 L33.503,272.097 L33.503,272.097 Z M39.397,286.601 L33.503,286.601 C32.207,286.601 30.987,286.095 30.068,285.176 C29.151,284.263 28.645,283.043 28.645,281.743 L28.645,273.454 C28.645,272.156 29.15,270.936 30.069,270.019 C30.986,269.102 32.206,268.597 33.503,268.597 L39.397,268.597 L39.397,286.601 L39.397,286.601 Z" id="Fill-95" fill="#41464B"></path>
            <polygon id="Fill-96" fill="#41464B" points="43.149 284.851 46.649 284.851 46.649 270.347 43.149 270.347"></polygon>
            <polyline id="Fill-97" fill="#FF7443" points="15.783 216.657 38.492 170.065 61.201 216.657 15.783 216.657"></polyline>
            <polyline id="Fill-98" fill="#FED65C" points="49.022 216.657 67.038 179.694 85.054 216.657 49.022 216.657"></polyline>
            <polyline id="Fill-99" fill="#4CBED8" points="0.677 216.657 12.63 192.134 24.583 216.657 0.677 216.657"></polyline>
            <polygon id="Fill-100" fill="#41464B" points="0.677 223.573 85.054 223.573 85.054 220.073 0.677 220.073"></polygon>
            <polyline id="Fill-101" fill="#41464B" points="37.255 189.217 19.853 171.815 0.677 171.815 0.677 168.315 21.303 168.315 39.73 186.742 37.255 189.217"></polyline>
            <polygon id="Fill-102" fill="#41464B" points="0.677 164.815 20.578 164.815 20.578 161.315 0.677 161.315"></polygon>
            <polyline id="Fill-103" fill="#41464B" points="130.519 29.641 128.044 27.166 154.044 1.166 156.519 3.641 130.519 29.641"></polyline>
            <path d="M150.377,20.348 C148.638,20.348 147.223,21.761 147.223,23.498 C147.223,25.238 148.638,26.653 150.377,26.653 C152.116,26.653 153.531,25.238 153.531,23.498 C153.531,21.761 152.116,20.348 150.377,20.348 L150.377,20.348 Z M150.377,30.153 C146.708,30.153 143.723,27.168 143.723,23.498 C143.723,19.831 146.708,16.848 150.377,16.848 C154.046,16.848 157.031,19.831 157.031,23.498 C157.031,27.168 154.046,30.153 150.377,30.153 L150.377,30.153 Z" id="Fill-104" fill="#41464B"></path>
            <path d="M134.186,4.153 C132.446,4.153 131.031,5.567 131.031,7.305 C131.031,9.044 132.446,10.459 134.186,10.459 C135.923,10.459 137.336,9.044 137.336,7.305 C137.336,5.567 135.923,4.153 134.186,4.153 L134.186,4.153 Z M134.186,13.959 C130.516,13.959 127.531,10.974 127.531,7.305 C127.531,3.637 130.516,0.653 134.186,0.653 C137.853,0.653 140.836,3.637 140.836,7.305 C140.836,10.974 137.853,13.959 134.186,13.959 L134.186,13.959 Z" id="Fill-105" fill="#41464B"></path>
            <polygon id="Fill-106" fill="#41464B" points="183.318 26.599 186.818 26.599 186.818 12.597 183.318 12.597"></polygon>
            <polygon id="Fill-107" fill="#41464B" points="178.068 21.351 192.068 21.351 192.068 17.851 178.068 17.851"></polygon>
            <polyline id="Fill-108" fill="#41464B" points="15.872 145.248 13.397 142.774 23.299 132.873 25.773 135.348 15.872 145.248"></polyline>
            <polyline id="Fill-109" fill="#41464B" points="23.296 145.25 13.397 135.351 15.871 132.876 25.771 142.775 23.296 145.25"></polyline>
            <path d="M170.425,91.284 C170.425,96.253 166.393,100.284 161.425,100.284 C156.456,100.284 152.425,96.253 152.425,91.284 C152.425,86.313 156.456,82.284 161.425,82.284 C166.393,82.284 170.425,86.313 170.425,91.284" id="Fill-110" fill="#AFAFAF"></path>
            <path d="M37.647,240.432 C34.751,240.432 32.397,242.787 32.397,245.682 C32.397,248.577 34.751,250.932 37.647,250.932 C40.542,250.932 42.897,248.577 42.897,245.682 C42.897,242.787 40.542,240.432 37.647,240.432 L37.647,240.432 Z M37.647,254.432 C32.822,254.432 28.897,250.506 28.897,245.682 C28.897,240.857 32.822,236.932 37.647,236.932 C42.471,236.932 46.397,240.857 46.397,245.682 C46.397,250.506 42.471,254.432 37.647,254.432 L37.647,254.432 Z" id="Fill-111" fill="#41464B"></path>
            <path d="M15.833,257.682 C15.833,260.44 13.592,262.682 10.832,262.682 C8.074,262.682 5.833,260.44 5.833,257.682 C5.833,254.922 8.074,252.682 10.832,252.682 C13.592,252.682 15.833,254.922 15.833,257.682" id="Fill-112" fill="#AFAFAF"></path>
            <polygon id="Fill-113" fill="#41464B" points="321.039 106.289 346.039 106.289 346.039 102.789 321.039 102.789"></polygon>
            <polygon id="Fill-114" fill="#41464B" points="321.039 113.289 336.137 113.289 336.137 109.789 321.039 109.789"></polygon>
            <path d="M306.322,21.645 C303.493,21.645 300.833,20.543 298.834,18.543 C297.496,17.204 295.715,16.467 293.822,16.467 C291.928,16.467 290.148,17.204 288.81,18.543 L286.334,16.068 C288.334,14.068 290.993,12.967 293.822,12.967 C296.65,12.967 299.31,14.068 301.31,16.068 C302.648,17.407 304.428,18.145 306.322,18.145 C308.215,18.145 309.996,17.407 311.335,16.068 L313.81,18.543 C311.81,20.543 309.15,21.645 306.322,21.645" id="Fill-115" fill="#41464B"></path>
        </g>
    </g>
</svg>