<?xml version="1.0" encoding="UTF-8" standalone="no"?>
<svg width="132px" height="137px" viewBox="0 0 132 137" version="1.1" xmlns="http://www.w3.org/2000/svg" xmlns:xlink="http://www.w3.org/1999/xlink">
    <!-- Generator: Sketch 39 (31667) - http://www.bohemiancoding.com/sketch -->
    <title>messaging</title>
    <desc>Created with Sketch.</desc>
    <defs></defs>
    <g id="Digital-Marketing" stroke="none" stroke-width="1" fill="none" fill-rule="evenodd">
        <g id="messaging">
            <path d="M38.709,118.995 L93.025,118.995 L93.025,43.111 L38.709,43.111 L38.709,118.995 Z M93.824,25.138 L37.912,25.138 C33.955,25.138 30.721,28.372 30.721,32.329 L30.721,129.779 C30.721,133.736 33.955,136.97 37.912,136.97 L93.824,136.97 C97.779,136.97 101.014,133.736 101.014,129.779 L101.014,32.329 C101.014,28.372 97.779,25.138 93.824,25.138 L93.824,25.138 Z" id="Fill-773" fill="#CED9DE"></path>
            <path d="M93.025,118.995 L38.709,118.995 L38.709,65.332 L40.209,65.332 L40.209,117.495 L91.525,117.495 L91.525,112.693 L93.025,112.693 L93.025,118.995 M93.025,76.195 L91.525,76.195 L91.525,44.611 L83.496,44.611 L83.496,43.111 L93.025,43.111 L93.025,76.195" id="Fill-774" fill="#2E3133"></path>
            <path d="M94.525,120.495 L37.209,120.495 L37.209,65.332 L38.709,65.332 L38.709,118.995 L93.025,118.995 L93.025,112.693 L94.525,112.693 L94.525,120.495 M94.525,76.195 L93.025,76.195 L93.025,43.111 L83.496,43.111 L83.496,41.611 L94.525,41.611 L94.525,76.195" id="Fill-775" fill="#252A2C"></path>
            <polygon id="Fill-776" fill="#252A2C" points="55.883 130.082 75.854 130.082 75.854 127.082 55.883 127.082"></polygon>
            <polyline id="Fill-777" fill="#F95632" points="73.662 25.138 64.174 25.138 64.174 14.239 73.662 14.239 73.662 16.693 83.496 16.693 83.496 18.804 73.662 18.804 73.662 21.804 83.496 21.804 83.496 23.913 73.662 23.913 73.662 25.138"></polyline>
            <polyline id="Fill-778" fill="#C9492C" points="83.496 32.026 64.174 32.026 64.174 25.138 73.662 25.138 73.662 26.913 83.496 26.913 83.496 32.026"></polyline>
            <path d="M12.49,80.728 L12.49,65.332 L3.137,65.332 L3.137,14.239 L61.174,14.239 L61.174,25.138 L37.912,25.138 C33.955,25.138 30.721,28.372 30.721,32.329 L30.721,65.332 L27.893,65.332 L12.49,80.728 L12.49,80.728 Z M40.209,65.332 L83.496,65.332 L83.496,44.611 L40.209,44.611 L40.209,65.332 Z" id="Fill-779" fill="#F95632"></path>
            <path d="M37.209,65.332 L30.721,65.332 L30.721,32.329 C30.721,28.372 33.955,25.138 37.912,25.138 L61.174,25.138 L61.174,35.027 L83.496,35.027 L83.496,41.611 L37.209,41.611 L37.209,65.332" id="Fill-780" fill="#C9492C"></path>
            <polyline id="Fill-781" fill="#2D1109" points="40.209 65.332 38.709 65.332 38.709 43.111 83.496 43.111 83.496 44.611 40.209 44.611 40.209 65.332"></polyline>
            <polyline id="Fill-782" fill="#240E08" points="38.709 65.332 37.209 65.332 37.209 41.611 83.496 41.611 83.496 43.111 38.709 43.111 38.709 65.332"></polyline>
            <polygon id="Fill-783" fill="#2E3133" points="73.662 11.584 85.514 11.584 85.514 8.584 73.662 8.584"></polygon>
            <polyline id="Fill-784" fill="#2E3133" points="109.219 16.693 83.496 16.693 83.496 14.239 73.662 14.239 73.662 13.692 109.219 13.692 109.219 16.693"></polyline>
            <polygon id="Fill-785" fill="#2D1109" points="73.662 16.693 83.496 16.693 83.496 14.239 73.662 14.239"></polygon>
            <polygon id="Fill-786" fill="#2E3133" points="83.496 21.804 109.219 21.804 109.219 18.804 83.496 18.804"></polygon>
            <polygon id="Fill-787" fill="#2D1109" points="73.662 21.804 83.496 21.804 83.496 18.804 73.662 18.804"></polygon>
            <path d="M96.519,25.665 C95.686,25.325 94.776,25.138 93.824,25.138 L83.496,25.138 L83.496,23.913 L96.519,23.913 L96.519,25.665" id="Fill-788" fill="#2E3133"></path>
            <path d="M96.519,26.913 L83.496,26.913 L83.496,25.138 L93.824,25.138 C94.776,25.138 95.686,25.325 96.519,25.665 L96.519,26.913" id="Fill-789" fill="#252A2C"></path>
            <polygon id="Fill-790" fill="#2D1109" points="73.662 25.138 83.496 25.138 83.496 23.913 73.662 23.913"></polygon>
            <polygon id="Fill-791" fill="#240E08" points="73.662 26.913 83.496 26.913 83.496 25.138 73.662 25.138"></polygon>
            <path d="M121.709,35.027 L101.014,35.027 L101.014,32.329 C101.014,32.228 101.012,32.127 101.007,32.026 L118.709,32.026 L118.709,3.47 L64.174,3.47 L64.174,14.239 L61.174,14.239 L61.174,0.47 L121.709,0.47 L121.709,35.027" id="Fill-792" fill="#2E3133"></path>
            <path d="M101.014,35.027 L83.496,35.027 L83.496,32.026 L101.007,32.026 C101.012,32.127 101.014,32.228 101.014,32.329 L101.014,35.027" id="Fill-793" fill="#252A2C"></path>
            <polygon id="Fill-794" fill="#2D1109" points="61.174 25.138 64.174 25.138 64.174 14.239 61.174 14.239"></polygon>
            <polyline id="Fill-795" fill="#240E08" points="83.496 35.027 61.174 35.027 61.174 25.138 64.174 25.138 64.174 32.026 83.496 32.026 83.496 35.027"></polyline>
            <path d="M101.014,112.693 L131.568,112.693 L131.568,76.195 L101.014,76.195 L101.014,112.693 Z M57.416,112.693 L91.525,112.693 L91.525,76.195 L57.416,76.195 L57.416,112.693 Z" id="Fill-796" fill="#63D1DB"></path>
            <polygon id="Fill-797" fill="#50B2BF" points="94.525 112.693 101.014 112.693 101.014 76.195 94.525 76.195"></polygon>
            <polygon id="Fill-798" fill="#12282C" points="91.525 112.693 93.025 112.693 93.025 76.195 91.525 76.195"></polygon>
            <polygon id="Fill-799" fill="#0E2226" points="93.025 112.693 94.525 112.693 94.525 76.195 93.025 76.195"></polygon>
            <polygon id="Fill-800" fill="#FFFFFF" points="73.527 92.916 78.475 92.916 78.475 87.967 73.527 87.967"></polygon>
            <polygon id="Fill-801" fill="#FFFFFF" points="80.949 92.916 85.896 92.916 85.896 87.967 80.949 87.967"></polygon>
            <polygon id="Fill-802" fill="#FFFFFF" points="88.373 92.916 93.318 92.916 93.318 87.967 88.373 87.967"></polygon>
            <polygon id="Fill-803" fill="#FFFFFF" points="95.789 92.916 100.738 92.916 100.738 87.967 95.789 87.967"></polygon>
            <polygon id="Fill-804" fill="#FFFFFF" points="103.211 92.916 108.16 92.916 108.16 87.967 103.211 87.967"></polygon>
            <polygon id="Fill-805" fill="#FFFFFF" points="110.635 92.916 115.582 92.916 115.582 87.967 110.635 87.967"></polygon>
            <polygon id="Fill-806" fill="#FFFFFF" points="118.055 92.916 122.998 92.916 122.998 87.967 118.055 87.967"></polygon>
            <polygon id="Fill-807" fill="#FFFFFF" points="69.816 100.337 74.766 100.337 74.766 95.388 69.816 95.388"></polygon>
            <polygon id="Fill-808" fill="#FFFFFF" points="77.24 100.337 82.186 100.337 82.186 95.388 77.24 95.388"></polygon>
            <polygon id="Fill-809" fill="#FFFFFF" points="84.656 100.337 89.605 100.337 89.605 95.388 84.656 95.388"></polygon>
            <polygon id="Fill-810" fill="#FFFFFF" points="92.08 100.337 97.027 100.337 97.027 95.388 92.08 95.388"></polygon>
            <polygon id="Fill-811" fill="#FFFFFF" points="99.502 100.337 104.447 100.337 104.447 95.388 99.502 95.388"></polygon>
            <polygon id="Fill-812" fill="#FFFFFF" points="106.922 100.337 111.869 100.337 111.869 95.388 106.922 95.388"></polygon>
            <polygon id="Fill-813" fill="#FFFFFF" points="114.344 100.337 119.289 100.337 119.289 95.388 114.344 95.388"></polygon>
            <polygon id="Fill-814" fill="#FFFFFF" points="121.762 100.337 126.709 100.337 126.709 95.388 121.762 95.388"></polygon>
            <polygon id="Fill-815" fill="#FFFFFF" points="73.527 107.755 78.475 107.755 78.475 102.809 73.527 102.809"></polygon>
            <polygon id="Fill-816" fill="#FFFFFF" points="80.949 107.755 115.582 107.755 115.582 102.809 80.949 102.809"></polygon>
            <polygon id="Fill-817" fill="#FFFFFF" points="118.055 107.755 122.998 107.755 122.998 102.809 118.055 102.809"></polygon>
            <polygon id="Fill-818" fill="#FFFFFF" points="10.287 29.916 51.229 29.916 51.229 26.916 10.287 26.916"></polygon>
            <polygon id="Fill-819" fill="#FFFFFF" points="10.287 35.026 51.229 35.026 51.229 32.026 10.287 32.026"></polygon>
            <polygon id="Fill-820" fill="#FFFFFF" points="10.287 40.136 21.447 40.136 21.447 37.136 10.287 37.136"></polygon>
            <polygon id="Fill-821" fill="#2E3133" points="0.404 112.529 11.479 112.529 11.479 109.529 0.404 109.529"></polygon>
            <polygon id="Fill-822" fill="#2E3133" points="0.404 107.419 26.479 107.419 26.479 104.419 0.404 104.419"></polygon>
            <polygon id="Fill-823" fill="#2E3133" points="0.404 102.31 19.953 102.31 19.953 99.31 0.404 99.31"></polygon>
        </g>
    </g>
</svg>