<?xml version="1.0" encoding="UTF-8" standalone="no"?>
<svg width="144px" height="130px" viewBox="0 0 144 130" version="1.1" xmlns="http://www.w3.org/2000/svg" xmlns:xlink="http://www.w3.org/1999/xlink">
    <!-- Generator: Sketch 39 (31667) - http://www.bohemiancoding.com/sketch -->
    <title>pinpoint</title>
    <desc>Created with Sketch.</desc>
    <defs></defs>
    <g id="SEO-and-Web-Optimization" stroke="none" stroke-width="1" fill="none" fill-rule="evenodd">
        <g id="pinpoint">
            <path d="M131.446,119.214 L12.346,119.214 L12.346,47.674 C12.346,45.994 13.004,44.411 14.198,43.217 C15.386,42.029 16.969,41.374 18.655,41.374 L54.005,41.374 L54.005,46.374 L18.655,46.374 C18.407,46.374 18.045,46.44 17.733,46.752 C17.413,47.072 17.346,47.43 17.346,47.674 L17.346,114.214 L126.446,114.214 L126.446,47.674 C126.446,47.327 126.308,46.995 126.056,46.739 C125.755,46.442 125.387,46.374 125.136,46.374 L89.776,46.374 L89.776,41.374 L125.136,41.374 C126.813,41.374 128.396,42.025 129.593,43.206 C130.797,44.428 131.446,46.006 131.446,47.674 L131.446,119.214" id="Fill-40" fill="#242D3C"></path>
            <path d="M5.75,119.218 L5.75,121.793 C5.75,122.484 6.018,123.131 6.503,123.616 C6.991,124.1 7.641,124.37 8.327,124.37 L135.466,124.37 C136.153,124.37 136.802,124.101 137.292,123.613 C137.772,123.132 138.04,122.484 138.04,121.793 L138.04,119.218 L5.75,119.218 L5.75,119.218 Z M135.466,129.37 L8.327,129.37 C6.313,129.37 4.412,128.585 2.976,127.16 C1.539,125.726 0.75,123.822 0.75,121.793 L0.75,114.218 L143.04,114.218 L143.04,121.793 C143.04,123.819 142.253,125.722 140.824,127.152 C139.386,128.584 137.484,129.37 135.466,129.37 L135.466,129.37 Z" id="Fill-41" fill="#242D3C"></path>
            <polygon id="Fill-42" fill="#43D3E8" points="24.002 84.863 51.409 84.863 51.409 53.023 24.002 53.023"></polygon>
            <polygon id="Fill-43" fill="#43D3E8" points="24.002 107.567 51.409 107.567 51.409 91.647 24.002 91.647"></polygon>
            <path d="M85.597,53.025 L85.597,84.865 L58.196,84.865 L58.196,53.025 L60.526,53.025 L71.895,68.945 C71.895,68.945 71.895,68.945 83.245,53.025 L85.597,53.025" id="Fill-44" fill="#43D3E8"></path>
            <polygon id="Fill-45" fill="#43D3E8" points="58.193 107.567 85.601 107.567 85.601 91.647 58.193 91.647"></polygon>
            <polygon id="Fill-46" fill="#43D3E8" points="92.384 84.863 119.79 84.863 119.79 53.023 92.384 53.023"></polygon>
            <polygon id="Fill-47" fill="#43D3E8" points="92.384 107.567 119.79 107.567 119.79 91.647 92.384 91.647"></polygon>
            <path d="M71.893,17.535 C66.656,17.535 62.395,21.791 62.395,27.024 C62.395,32.263 66.656,36.525 71.893,36.525 C77.133,36.525 81.396,32.263 81.396,27.024 C81.396,21.791 77.133,17.535 71.893,17.535 L71.893,17.535 Z M71.893,41.525 C63.899,41.525 57.395,35.02 57.395,27.024 C57.395,19.035 63.899,12.535 71.893,12.535 C79.89,12.535 86.396,19.035 86.396,27.024 C86.396,35.02 79.89,41.525 71.893,41.525 L71.893,41.525 Z" id="Fill-48" fill="#242D3C"></path>
            <path d="M71.893,5.165 C59.84,5.165 50.034,14.971 50.034,27.025 C50.034,31.652 51.575,36.159 54.614,40.421 L71.893,64.638 L89.173,40.416 C92.217,36.16 93.759,31.655 93.759,27.025 C93.759,14.971 83.95,5.165 71.893,5.165 L71.893,5.165 Z M71.893,73.248 L50.543,43.325 C46.887,38.198 45.034,32.714 45.034,27.025 C45.034,12.214 57.083,0.165 71.893,0.165 C86.707,0.165 98.759,12.214 98.759,27.025 C98.759,32.639 96.851,38.275 93.241,43.323 L71.893,73.248 L71.893,73.248 Z" id="Fill-49" fill="#242D3C"></path>
        </g>
    </g>
</svg>