<?xml version="1.0" encoding="UTF-8" standalone="no"?>
<svg width="141px" height="137px" viewBox="0 0 141 137" version="1.1" xmlns="http://www.w3.org/2000/svg" xmlns:xlink="http://www.w3.org/1999/xlink">
    <!-- Generator: Sketch 39 (31667) - http://www.bohemiancoding.com/sketch -->
    <title>viral-marketing</title>
    <desc>Created with Sketch.</desc>
    <defs></defs>
    <g id="Digital-Marketing" stroke="none" stroke-width="1" fill="none" fill-rule="evenodd">
        <g id="viral-marketing">
            <path d="M73.927,97.773 C62.084,97.773 51.863,90.824 47.12,80.782 C55.575,84.217 64.679,86.026 73.927,86.026 C83.174,86.026 92.279,84.216 100.736,80.78 C95.993,90.824 85.772,97.773 73.927,97.773 M66.182,82.584 C59.047,81.766 52.098,79.827 45.6,76.861 C44.753,74.104 44.296,71.176 44.296,68.142 C44.296,65.107 44.753,62.179 45.6,59.423 C52.099,56.457 59.046,54.517 66.182,53.7 C61.039,56.463 57.542,61.894 57.542,68.142 C57.542,74.389 61.039,79.82 66.182,82.584 M81.674,82.583 C86.817,79.819 90.313,74.389 90.313,68.142 C90.313,61.895 86.816,56.464 81.674,53.7 C88.807,54.518 95.756,56.459 102.255,59.425 C103.102,62.181 103.558,65.108 103.558,68.142 C103.558,71.175 103.102,74.103 102.255,76.859 C95.756,79.825 88.808,81.765 81.674,82.583 M100.736,55.504 C92.278,52.067 83.175,50.257 73.927,50.257 C64.68,50.257 55.575,52.067 47.12,55.502 C51.863,45.46 62.084,38.511 73.927,38.511 C85.772,38.511 95.992,45.46 100.736,55.504" id="Fill-295" fill="#63D1DB"></path>
            <path d="M73.927,84.527 C71.125,84.527 68.488,83.823 66.182,82.584 C68.744,82.878 71.329,83.026 73.927,83.026 C76.526,83.026 79.111,82.877 81.674,82.583 C79.367,83.823 76.729,84.527 73.927,84.527 M47.12,80.782 C40.25,77.991 33.809,74.127 28.065,69.289 L26.703,68.142 L28.065,66.994 C33.809,62.156 40.25,58.293 47.12,55.502 C46.524,56.763 46.015,58.072 45.6,59.423 C40.554,61.725 35.778,64.647 31.398,68.142 C35.778,71.637 40.554,74.558 45.6,76.861 C46.015,78.212 46.524,79.521 47.12,80.782 M100.736,80.78 C101.331,79.519 101.84,78.21 102.255,76.859 C107.3,74.557 112.076,71.636 116.456,68.142 C112.075,64.648 107.301,61.727 102.255,59.425 C101.84,58.074 101.331,56.765 100.736,55.504 C107.603,58.294 114.045,62.158 119.789,66.994 L121.151,68.142 L119.789,69.289 C114.045,74.126 107.604,77.989 100.736,80.78 M81.674,53.7 C79.111,53.406 76.525,53.257 73.927,53.257 C71.33,53.257 68.743,53.406 66.182,53.7 C68.488,52.46 71.126,51.757 73.927,51.757 C76.729,51.757 79.367,52.46 81.674,53.7" id="Fill-296" fill="#2E3133"></path>
            <path d="M73.927,86.026 C64.679,86.026 55.575,84.217 47.12,80.782 C46.524,79.521 46.015,78.212 45.6,76.861 C52.098,79.827 59.047,81.766 66.182,82.584 C68.488,83.823 71.125,84.527 73.927,84.527 C76.729,84.527 79.367,83.823 81.674,82.583 C88.808,81.765 95.756,79.825 102.255,76.859 C101.84,78.21 101.331,79.519 100.736,80.78 C92.279,84.216 83.174,86.026 73.927,86.026 M102.255,59.425 C95.756,56.459 88.807,54.518 81.674,53.7 C79.367,52.46 76.729,51.757 73.927,51.757 C71.126,51.757 68.488,52.46 66.182,53.7 C59.046,54.517 52.099,56.457 45.6,59.423 C46.015,58.072 46.524,56.763 47.12,55.502 C55.575,52.067 64.68,50.257 73.927,50.257 C83.175,50.257 92.278,52.067 100.736,55.504 C101.331,56.765 101.84,58.074 102.255,59.425" id="Fill-297" fill="#12282C"></path>
            <path d="M73.927,76.376 C69.387,76.376 65.693,72.682 65.693,68.142 C65.693,63.602 69.387,59.907 73.927,59.907 C78.468,59.907 82.161,63.602 82.161,68.142 C82.161,72.682 78.468,76.376 73.927,76.376 M73.927,62.907 C71.041,62.907 68.693,65.255 68.693,68.142 C68.693,71.029 71.041,73.376 73.927,73.376 C76.814,73.376 79.162,71.029 79.162,68.142 C79.162,65.255 76.814,62.907 73.927,62.907" id="Fill-298" fill="#2E3133"></path>
            <path d="M73.927,16.665 C69.387,16.665 65.693,12.971 65.693,8.431 C65.693,3.891 69.387,0.196 73.927,0.196 C78.468,0.196 82.161,3.891 82.161,8.431 C82.161,12.971 78.468,16.665 73.927,16.665 M73.927,3.196 C71.041,3.196 68.693,5.544 68.693,8.431 C68.693,11.318 71.041,13.665 73.927,13.665 C76.814,13.665 79.162,11.318 79.162,8.431 C79.162,5.544 76.814,3.196 73.927,3.196" id="Fill-299" fill="#2E3133"></path>
            <path d="M22.209,46.522 C20.771,46.522 19.35,46.14 18.098,45.417 C16.193,44.317 14.831,42.542 14.262,40.417 C13.692,38.293 13.985,36.073 15.084,34.169 C16.551,31.629 19.286,30.051 22.222,30.051 C23.66,30.051 25.081,30.433 26.333,31.155 C28.237,32.255 29.6,34.031 30.169,36.155 C30.738,38.279 30.446,40.499 29.346,42.403 C27.88,44.944 25.145,46.522 22.209,46.522 M22.222,33.051 C20.354,33.051 18.615,34.054 17.682,35.669 C16.983,36.88 16.798,38.29 17.16,39.641 C17.521,40.991 18.388,42.12 19.598,42.819 C20.394,43.278 21.297,43.521 22.209,43.521 C24.077,43.521 25.816,42.519 26.749,40.903 C27.447,39.692 27.633,38.282 27.271,36.932 C26.909,35.581 26.043,34.452 24.832,33.753 C24.036,33.294 23.134,33.051 22.222,33.051" id="Fill-300" fill="#2E3133"></path>
            <path d="M22.223,106.232 C19.286,106.232 16.551,104.654 15.084,102.114 C13.985,100.21 13.693,97.991 14.262,95.866 C14.832,93.741 16.194,91.966 18.099,90.867 C19.349,90.145 20.771,89.763 22.209,89.763 C25.145,89.763 27.88,91.34 29.347,93.88 C31.616,97.812 30.264,102.858 26.333,105.129 C25.082,105.852 23.66,106.232 22.223,106.232 M22.209,92.763 C21.297,92.763 20.394,93.005 19.599,93.465 C18.388,94.164 17.522,95.292 17.16,96.643 C16.798,97.993 16.984,99.404 17.683,100.614 C18.615,102.23 20.355,103.233 22.223,103.233 C23.135,103.233 24.037,102.99 24.833,102.531 C27.331,101.088 28.191,97.879 26.749,95.38 C25.816,93.766 24.077,92.763 22.209,92.763" id="Fill-301" fill="#2E3133"></path>
            <path d="M73.929,136.087 C71.73,136.087 69.661,135.231 68.105,133.676 C66.548,132.119 65.692,130.052 65.693,127.853 C65.692,125.654 66.548,123.586 68.105,122.03 C69.66,120.475 71.728,119.618 73.927,119.618 C78.465,119.619 82.159,123.314 82.161,127.853 C82.161,132.394 78.468,136.087 73.929,136.087 M73.927,122.618 C72.529,122.618 71.215,123.163 70.225,124.151 C69.236,125.141 68.692,126.455 68.693,127.853 C68.692,129.251 69.236,130.565 70.225,131.554 C71.215,132.542 72.529,133.087 73.927,133.087 L73.929,133.087 C76.814,133.087 79.162,130.739 79.162,127.854 C79.16,124.968 76.812,122.619 73.927,122.618" id="Fill-302" fill="#2E3133"></path>
            <path d="M125.632,106.234 C124.193,106.234 122.772,105.851 121.521,105.128 C119.617,104.03 118.254,102.255 117.684,100.129 C117.115,98.004 117.407,95.785 118.507,93.88 C119.974,91.341 122.709,89.763 125.646,89.763 C127.083,89.763 128.504,90.145 129.755,90.865 C133.688,93.137 135.04,98.183 132.77,102.114 C131.304,104.655 128.568,106.234 125.632,106.234 M125.646,92.763 C123.777,92.763 122.038,93.766 121.105,95.38 C120.406,96.591 120.22,98.002 120.582,99.353 C120.944,100.703 121.81,101.832 123.021,102.529 C123.818,102.99 124.72,103.234 125.632,103.234 C127.5,103.234 129.24,102.23 130.172,100.614 C131.615,98.115 130.756,94.907 128.256,93.464 C127.461,93.006 126.558,92.763 125.646,92.763" id="Fill-303" fill="#2E3133"></path>
            <path d="M125.645,46.523 C122.708,46.523 119.973,44.944 118.507,42.403 C116.239,38.473 117.591,33.427 121.52,31.155 C122.771,30.433 124.192,30.052 125.63,30.052 C128.567,30.052 131.303,31.629 132.77,34.169 C133.87,36.073 134.162,38.292 133.592,40.417 C133.023,42.543 131.66,44.32 129.754,45.418 C128.505,46.14 127.083,46.523 125.645,46.523 M125.63,33.052 C124.718,33.052 123.816,33.294 123.021,33.753 C120.523,35.197 119.664,38.405 121.105,40.903 C122.038,42.519 123.777,43.523 125.645,43.523 C126.557,43.523 127.459,43.279 128.255,42.819 C129.466,42.121 130.333,40.992 130.694,39.641 C131.056,38.29 130.871,36.879 130.172,35.669 C129.24,34.055 127.499,33.052 125.63,33.052" id="Fill-304" fill="#2E3133"></path>
            <path d="M72.427,22.479 L75.427,22.479 L75.427,19.572 L72.427,19.572 L72.427,22.479 Z M72.427,28.291 L75.427,28.291 L75.427,25.385 L72.427,25.385 L72.427,28.291 Z M72.427,34.105 L75.427,34.105 L75.427,31.198 L72.427,31.198 L72.427,34.105 Z" id="Fill-305" fill="#2E3133"></path>
            <path d="M33.63,46.609 L31.114,45.155 L32.614,42.558 L35.13,44.011 L33.63,46.609 L33.63,46.609 Z M38.665,49.516 L36.147,48.062 L37.648,45.464 L40.165,46.918 L38.665,49.516 L38.665,49.516 Z M43.699,52.422 L41.182,50.969 L42.682,48.371 L45.199,49.824 L43.699,52.422 L43.699,52.422 Z" id="Fill-306" fill="#2E3133"></path>
            <path d="M42.682,87.913 L41.182,85.316 L43.699,83.862 L45.199,86.46 L42.682,87.913 L42.682,87.913 Z M37.647,90.819 L36.147,88.222 L38.665,86.769 L40.165,89.366 L37.647,90.819 L37.647,90.819 Z M32.614,93.726 L31.114,91.128 L33.63,89.675 L35.13,92.273 L32.614,93.726 L32.614,93.726 Z" id="Fill-307" fill="#2E3133"></path>
            <path d="M72.427,105.086 L75.427,105.086 L75.427,102.18 L72.427,102.18 L72.427,105.086 Z M72.427,110.899 L75.427,110.899 L75.427,107.992 L72.427,107.992 L72.427,110.899 Z M72.427,116.712 L75.427,116.712 L75.427,113.806 L72.427,113.806 L72.427,116.712 Z" id="Fill-308" fill="#2E3133"></path>
            <path d="M105.172,87.913 L102.656,86.46 L104.156,83.862 L106.672,85.316 L105.172,87.913 L105.172,87.913 Z M110.207,90.819 L107.69,89.366 L109.19,86.769 L111.707,88.222 L110.207,90.819 L110.207,90.819 Z M115.241,93.726 L112.723,92.273 L114.223,89.675 L116.741,91.128 L115.241,93.726 L115.241,93.726 Z" id="Fill-309" fill="#2E3133"></path>
            <path d="M114.223,46.609 L112.723,44.011 L115.241,42.558 L116.741,45.155 L114.223,46.609 L114.223,46.609 Z M109.19,49.516 L107.69,46.918 L110.207,45.464 L111.707,48.062 L109.19,49.516 L109.19,49.516 Z M104.156,52.422 L102.656,49.824 L105.172,48.371 L106.672,50.969 L104.156,52.422 L104.156,52.422 Z" id="Fill-310" fill="#2E3133"></path>
            <path d="M49.684,131.336 C48.486,131.336 47.514,130.364 47.514,129.167 C47.514,127.97 48.486,126.997 49.684,126.997 C50.881,126.997 51.853,127.97 51.853,129.167 C51.853,130.364 50.881,131.336 49.684,131.336" id="Fill-311" fill="#F95632"></path>
            <path d="M98.516,121.712 C96.532,121.712 94.924,120.103 94.924,118.12 C94.924,116.136 96.532,114.527 98.516,114.527 C100.499,114.527 102.107,116.136 102.107,118.12 C102.107,120.103 100.499,121.712 98.516,121.712" id="Fill-312" fill="#F95632"></path>
            <path d="M44.296,36.796 C43.305,36.796 42.5,35.991 42.5,35.001 C42.5,34.009 43.305,33.204 44.296,33.204 C45.287,33.204 46.092,34.009 46.092,35.001 C46.092,35.991 45.287,36.796 44.296,36.796" id="Fill-313" fill="#F95632"></path>
            <path d="M137.979,89.665 C136.493,89.665 135.285,88.457 135.285,86.971 C135.285,85.484 136.493,84.276 137.979,84.276 C139.465,84.276 140.672,85.484 140.672,86.971 C140.672,88.457 139.465,89.665 137.979,89.665" id="Fill-314" fill="#CED9DE"></path>
            <path d="M23.258,61.407 C22.062,61.407 21.09,60.436 21.09,59.239 C21.09,58.042 22.062,57.069 23.258,57.069 C24.458,57.069 25.428,58.042 25.428,59.239 C25.428,60.436 24.458,61.407 23.258,61.407" id="Fill-315" fill="#F95632"></path>
            <path d="M41.178,26.477 C38.202,26.477 35.791,24.065 35.791,21.09 C35.791,18.114 38.202,15.702 41.178,15.702 C44.153,15.702 46.566,18.114 46.566,21.09 C46.566,24.065 44.153,26.477 41.178,26.477" id="Fill-316" fill="#CED9DE"></path>
            <path d="M57.435,121.644 C53.962,121.644 51.15,118.829 51.15,115.358 C51.15,111.886 53.962,109.072 57.435,109.072 C60.906,109.072 63.72,111.886 63.72,115.358 C63.72,118.829 60.906,121.644 57.435,121.644" id="Fill-317" fill="#F95632"></path>
            <path d="M93.537,17.409 C89.568,17.409 86.352,14.192 86.352,10.226 C86.352,6.259 89.568,3.042 93.537,3.042 C97.502,3.042 100.718,6.259 100.718,10.226 C100.718,14.192 97.502,17.409 93.537,17.409" id="Fill-318" fill="#F95632"></path>
            <path d="M132.374,77.094 C129.647,77.094 127.436,74.882 127.436,72.155 C127.436,69.428 129.647,67.216 132.374,67.216 C135.1,67.216 137.313,69.428 137.313,72.155 C137.313,74.882 135.1,77.094 132.374,77.094" id="Fill-319" fill="#F95632"></path>
            <path d="M95.924,28.531 C94.437,28.531 93.23,27.323 93.23,25.837 C93.23,24.351 94.437,23.144 95.924,23.144 C97.411,23.144 98.618,24.351 98.618,25.837 C98.618,27.323 97.411,28.531 95.924,28.531" id="Fill-320" fill="#CED9DE"></path>
            <path d="M27.04,23.783 C25.552,23.783 24.346,22.576 24.346,21.09 C24.346,19.604 25.552,18.396 27.04,18.396 C28.527,18.396 29.733,19.604 29.733,21.09 C29.733,22.576 28.527,23.783 27.04,23.783" id="Fill-321" fill="#CED9DE"></path>
            <path d="M9.651,83.855 C4.693,83.855 0.672,79.835 0.672,74.877 C0.672,69.918 4.693,65.898 9.651,65.898 C14.611,65.898 18.631,69.918 18.631,74.877 C18.631,79.835 14.611,83.855 9.651,83.855" id="Fill-322" fill="#CED9DE"></path>
        </g>
    </g>
</svg>