<svg width="353" height="315" viewBox="0 0 353 315" xmlns="http://www.w3.org/2000/svg"><title>program-codign</title><g fill="none" fill-rule="evenodd"><path fill="#4CBED8" d="M230.986 158.885h87v-92h-87z"/><path fill="#AFAFAF" d="M230.986 52.885h87v-14h-87z"/><path d="M232.736 157.135h83.5v-88.5h-83.5v88.5zm-3.5 3.5h90.5v-95.5h-90.5v95.5z" fill="#41464B"/><path d="M232.736 65.135h83.5v-10.5h-83.5v10.5zm-3.5 3.5h90.5v-17.5h-90.5v17.5z" fill="#41464B"/><path d="M232.736 51.135h83.5v-10.5h-83.5v10.5zm-3.5 3.5h90.5v-17.5h-90.5v17.5z" fill="#41464B"/><path fill="#41464B" d="M241.986 47.635h3.5v-3.5h-3.5zm7 0h3.5v-3.5h-3.5zm7 0h3.5v-3.5h-3.5zm-14 14h12.81v-3.5h-12.81zm52.19 0h12.81v-3.5h-12.81zm-34.793 0h12.808v-3.5h-12.806zm17.397 0h12.81v-3.5h-12.81zm-34.794 15.16h14.217v-3.5h-14.217zm14.217 13.762h15.29v-3.5h-15.29zm0 6.877h15.29v-3.5h-15.29zm0 20.636h15.29v-3.5h-15.29zm0 6.883h15.29v-3.5h-15.29zm-14.217-41.277h29.506v-3.5h-29.506zm0 20.64h14.217v-3.5h-14.217zm0 6.882h29.506v-3.5h-29.506zm35.49-20.64h15.292v-3.5h-15.293zm0 6.876h29.51v-3.5h-29.51zm0-13.758h15.292v-3.5h-15.293zm-35.49 48.16h14.217v-3.5h-14.217zm14.217 13.762h15.29v-3.5h-15.29zm0 6.877h15.29v-3.5h-15.29zm-14.217-13.758h29.506v-3.5h-29.506zm35.49 6.88h15.292v-3.5h-15.293zm0 6.878h29.51v-3.5h-29.51zm0-13.758h15.292v-3.5h-15.293zm0-20.645h15.292v-3.5h-15.293zm0 6.883h29.51v-3.5h-29.51zm0-13.757h15.292v-3.5h-15.293z"/><path fill="#41464B" d="M326.736 151.885h-3.5V33.635h-85.25v-3.5h88.75v121.75"/><path d="M145.49 28.675c0 15.636-12.676 28.31-28.31 28.31-15.635 0-28.31-12.674-28.31-28.31 0-15.635 12.675-28.31 28.31-28.31 15.634 0 28.31 12.675 28.31 28.31" fill="#FED65C"/><path fill="#454545" d="M107.49 37.974l-9.3-9.3 9.3-9.297 2.474 2.474-6.823 6.826 6.825 6.825-2.475 2.475m19.38 0l-2.474-2.475 6.823-6.825-6.825-6.824 2.474-2.472 9.297 9.298-9.298 9.3m-11.69 4.164l-3.367-.955 7.367-25.974 3.367.957-7.367 25.974"/><path d="M248.873 104.47a6.53 6.53 0 0 0-4.592-1.904H63.17a6.48 6.48 0 0 0-4.58 1.903 6.425 6.425 0 0 0-1.902 4.567V220.87h194.074V109.04c0-1.648-.64-3.298-1.89-4.57" fill="#FFF"/><path d="M182.477 220.867l-4.56 5.01h-48.37l-4.56-5.01h-88.01v8.64a8.61 8.61 0 0 0 2.52 6.103 8.667 8.667 0 0 0 6.113 2.526h216.247a8.63 8.63 0 0 0 6.102-2.526c1.695-1.677 2.525-3.897 2.525-6.104v-8.64h-88.01" fill="#AFAFAF"/><path d="M252.512 220.872h-3.5V109.038a4.75 4.75 0 0 0-1.387-3.342 4.76 4.76 0 0 0-3.344-1.38H63.17a4.743 4.743 0 0 0-3.34 1.387c-.9.9-1.392 2.08-1.392 3.335v111.834h-3.5V109.038a8.15 8.15 0 0 1 2.416-5.807 8.258 8.258 0 0 1 5.816-2.413h181.11c2.18 0 4.246.855 5.822 2.407 1.56 1.59 2.41 3.647 2.41 5.815v111.833" fill="#41464B"/><path d="M38.725 222.617v6.89c0 1.844.713 3.572 2.007 4.864a6.894 6.894 0 0 0 4.877 2.017h216.246a6.87 6.87 0 0 0 4.87-2.017 6.788 6.788 0 0 0 2.01-4.864v-6.89H183.25l-4.56 5.01h-49.917l-4.558-5.01h-85.49zm223.132 17.27H45.61a10.374 10.374 0 0 1-7.346-3.034 10.307 10.307 0 0 1-3.04-7.347v-10.39h90.538l4.558 5.01h46.825l4.558-5.01h90.533v10.39c0 2.797-1.082 5.408-3.048 7.35a10.338 10.338 0 0 1-7.33 3.03z" fill="#41464B"/><path fill="#FF7443" d="M68.377 209.203h170.717v-94.95H68.377z"/><path d="M206.438 52.165L87.383 52.16c-7.54 0-13.643 6.103-13.647 13.648l13.645.002v148.393h132.7V65.81c0-7.547-6.112-13.645-13.64-13.645" fill="#FFF"/><path d="M192.795 65.81c0-7.547 6.103-13.65 13.637-13.65H87.382c-7.538 0-13.642 6.103-13.646 13.648l119.06.002" fill="#AFAFAF"/><path fill="#41464B" d="M85.63 209.203h3.5V65.81h-3.5zm136.2 0h-3.5V65.81c0-6.56-5.335-11.895-11.892-11.895v-3.5c8.487 0 15.392 6.906 15.392 15.395v143.393"/><path d="M75.615 64.058l115.53.002a15.39 15.39 0 0 1 5.53-10.15H87.385c-5.963 0-10.917 4.414-11.77 10.148zm118.93 3.502l-122.56-.002v-1.75c.006-8.49 6.912-15.398 15.398-15.398h119.05v3.5c-6.556 0-11.888 5.338-11.888 11.9v1.75z" fill="#41464B"/><path fill="#41464B" d="M85.63 60.735h3.5v-3.5h-3.5zm7 0h3.5v-3.5h-3.5zm7 0h3.5v-3.5h-3.5zm21.05 148.468h3.5V65.81h-3.5zM92.63 83.316h3.5v-3.5h-3.5zm7 0h17.55v-3.5H99.63zm-7-7h3.5v-3.5h-3.5zm7 0h17.55v-3.5H99.63zm-7 14h3.5v-3.5h-3.5zm7 0h17.55v-3.5H99.63zm-7 7h3.5v-3.5h-3.5zm7 0h17.55v-3.5H99.63zm-7 7h3.5v-3.5h-3.5zm7 0h17.55v-3.5H99.63zm-7 21h3.5v-3.5h-3.5zm7 0h17.55v-3.5H99.63zm-7 7h3.5v-3.5h-3.5zm7 0h17.55v-3.5H99.63z"/><path fill="#41464B" d="M87.38 139.316h35.05v-3.5H87.38zm5.25 7h3.5v-3.5h-3.5zm7 0h17.55v-3.5H99.63zm-7 7h3.5v-3.5h-3.5zm7 0h17.55v-3.5H99.63zm-7 7h3.5v-3.5h-3.5zm7 0h17.55v-3.5H99.63zm-7 7h3.5v-3.5h-3.5zm7 0h17.55v-3.5H99.63zm-7 7h3.5v-3.5h-3.5zm7 0h17.55v-3.5H99.63zm-7 7h3.5v-3.5h-3.5zm7 0h17.55v-3.5H99.63z"/><path fill="#4CBED8" d="M132.756 102.566h14v-14h-14zm42 21h14v-14h-14z"/><path d="M134.506 100.816h10.5v-10.5h-10.5v10.5zm-3.5 3.5h17.5v-17.5h-17.5v17.5zm24.5-3.5h10.5v-10.5h-10.5v10.5zm-3.5 3.5h17.5v-17.5h-17.5v17.5zm-17.5 17.5h10.5v-10.5h-10.5v10.5zm-3.5 3.5h17.5v-17.5h-17.5v17.5zm24.5-3.5h10.5v-10.5h-10.5v10.5zm-3.5 3.5h17.5v-17.5h-17.5v17.5zm24.5-24.5h10.5v-10.5h-10.5v10.5zm-3.5 3.5h17.5v-17.5h-17.5v17.5zm3.5 17.5h10.5v-10.5h-10.5v10.5zm-3.5 3.5h17.5v-17.5h-17.5v17.5zm24.5-24.5h10.5v-10.5h-10.5v10.5zm-3.5 3.5h17.5v-17.5h-17.5v17.5zm-59.5 59.5h73.5v-24.5h-73.5v24.5zm-3.5 3.5h80.5v-31.5h-80.5v31.5zm59.5 24.5h17.5v-17.5h-17.5v17.5zm-3.5 3.5h24.5v-24.5h-24.5v24.5z" fill="#41464B"/><path fill="#41464B" d="M208.02 194.303l-20-20 2.473-2.474 20 20-2.474 2.472m-75.264 1.014h9.775v-3.5h-9.773zm13.274 0h9.775v-3.5h-9.774zm13.275 0h9.775v-3.5h-9.775zm-14.3-29.75h3.5v-28h-3.5z"/><path fill="#AFAFAF" d="M153.756 158.566h49v-14h-49z"/><path fill="#FED65C" d="M56.688 274.888H205.23v-22H56.688z"/><path fill="#41464B" d="M62.01 258.388h3.5v-5.5h-3.5zm7.074 0h3.5v-5.5h-3.5zm7.074 0h3.5v-5.5h-3.5zm7.072 0h3.5v-5.5h-3.5zm7.075 0h3.5v-5.5h-3.5zm7.075 0h3.5v-5.5h-3.5zm7.07 0h3.5v-5.5h-3.5zm7.075 0h3.5v-5.5h-3.5zm7.073 0h3.5v-5.5h-3.5zm7.074 0h3.5v-5.5h-3.5zm7.074 0h3.5v-5.5h-3.5zm7.072 0h3.5v-5.5h-3.5zm7.075 0h3.5v-5.5h-3.5zm7.072 0h3.5v-5.5h-3.5zm7.075 0h3.5v-5.5h-3.5zm7.073 0h3.5v-5.5h-3.5zm7.073 0h3.5v-5.5h-3.5zm7.074 0h3.5v-5.5h-3.5zm7.074 0h3.5v-5.5h-3.5zm7.072 0h3.5v-5.5h-3.5z"/><path fill="#FFF" d="M163.23 312.888h161v-49h-161z"/><path fill="#4CBED8" d="M170.23 277.888h7v-7h-7z"/><path d="M171.98 276.138h3.5v-3.5h-3.5v3.5zm-3.5 3.5h10.5v-10.5h-10.5v10.5z" fill="#4CBED8"/><path d="M185.98 276.138h3.5v-3.5h-3.5v3.5zm-3.5 3.5h10.5v-10.5h-10.5v10.5zm17.5-3.5h3.5v-3.5h-3.5v3.5zm-3.5 3.5h10.5v-10.5h-10.5v10.5zm17.5-3.5h3.5v-3.5h-3.5v3.5zm-3.5 3.5h10.5v-10.5h-10.5v10.5zm17.5-3.5h3.5v-3.5h-3.5v3.5zm-3.5 3.5h10.5v-10.5h-10.5v10.5zm17.5-3.5h3.5v-3.5h-3.5v3.5zm-3.5 3.5h10.5v-10.5h-10.5v10.5zm17.5-3.5h3.5v-3.5h-3.5v3.5zm-3.5 3.5h10.5v-10.5h-10.5v10.5zm17.5-3.5h3.5v-3.5h-3.5v3.5zm-3.5 3.5h10.5v-10.5h-10.5v10.5zm17.5-3.5h3.5v-3.5h-3.5v3.5zm-3.5 3.5h10.5v-10.5h-10.5v10.5zm17.5-3.5h3.5v-3.5h-3.5v3.5zm-3.5 3.5h10.5v-10.5h-10.5v10.5zm17.5-3.5h3.5v-3.5h-3.5v3.5zm-3.5 3.5h10.5v-10.5h-10.5v10.5zm-136.5 10.5h3.5v-3.5h-3.5v3.5zm-3.5 3.5h10.5v-10.5h-10.5v10.5zm17.5-3.5h3.5v-3.5h-3.5v3.5zm-3.5 3.5h10.5v-10.5h-10.5v10.5zm17.5-3.5h3.5v-3.5h-3.5v3.5zm-3.5 3.5h10.5v-10.5h-10.5v10.5zm17.5-3.5h3.5v-3.5h-3.5v3.5zm-3.5 3.5h10.5v-10.5h-10.5v10.5zm17.5-3.5h3.5v-3.5h-3.5v3.5zm-3.5 3.5h10.5v-10.5h-10.5v10.5zm17.5-3.5h3.5v-3.5h-3.5v3.5zm-3.5 3.5h10.5v-10.5h-10.5v10.5zm17.5-3.5h3.5v-3.5h-3.5v3.5zm-3.5 3.5h10.5v-10.5h-10.5v10.5zm17.5-3.5h3.5v-3.5h-3.5v3.5zm-3.5 3.5h10.5v-10.5h-10.5v10.5zm17.5-3.5h3.5v-3.5h-3.5v3.5zm-3.5 3.5h10.5v-10.5h-10.5v10.5zm17.5-3.5h3.5v-3.5h-3.5v3.5zm-3.5 3.5h10.5v-10.5h-10.5v10.5zm17.5-3.5h3.5v-3.5h-3.5v3.5zm-3.5 3.5h10.5v-10.5h-10.5v10.5zm-136.5 10.5h3.5v-3.5h-3.5v3.5zm-3.5 3.5h10.5v-10.5h-10.5v10.5zm17.5-3.5h3.5v-3.5h-3.5v3.5zm-3.5 3.5h10.5v-10.5h-10.5v10.5zm101.5-3.5h3.5v-3.5h-3.5v3.5zm-3.5 3.5h10.5v-10.5h-10.5v10.5zm17.5-3.5h3.5v-3.5h-3.5v3.5zm-3.5 3.5h10.5v-10.5h-10.5v10.5z" fill="#41464B"/><path fill="#FF7443" d="M198.23 305.888h77v-7h-77z"/><path d="M199.98 304.138h73.5v-3.5h-73.5v3.5zm-3.5 3.5h80.5v-10.5h-80.5v10.5z" fill="#FF7443"/><path d="M164.98 311.138h157.5v-45.5h-157.5v45.5zm-3.5 3.5h164.5v-52.5h-164.5v52.5z" fill="#41464B"/><path d="M245.48 263.888h-3.5v-2a11.68 11.68 0 0 1 3.44-8.308 11.684 11.684 0 0 1 8.31-3.442h79.666c2.74 0 5.313-1.066 7.25-3.002 1.935-1.936 3-4.51 3-7.248a10.19 10.19 0 0 0-3-7.248 10.19 10.19 0 0 0-7.25-3.002h-39.22a7.7 7.7 0 0 1-5.48-2.27 7.7 7.7 0 0 1-2.27-5.48c0-2.07.806-4.017 2.27-5.48a7.703 7.703 0 0 1 5.48-2.27h15.058c1.454 0 2.82-.565 3.844-1.59a5.404 5.404 0 0 0 1.594-3.847c0-1.45-.566-2.815-1.594-3.843a5.394 5.394 0 0 0-3.844-1.593H267.3a11.236 11.236 0 0 1-8-3.313 11.232 11.232 0 0 1-3.314-8c0-3.02 1.177-5.86 3.314-7.997a11.24 11.24 0 0 1 8-3.313h30.68c1 0 1.943-.39 2.652-1.1a3.73 3.73 0 0 0 1.098-2.65c0-1-.39-1.943-1.1-2.654a3.733 3.733 0 0 0-2.65-1.097h-15.894a7.88 7.88 0 0 1-5.613-2.327 7.89 7.89 0 0 1-2.327-5.614v-6.316h3.5v6.315c0 1.184.462 2.3 1.302 3.14a4.407 4.407 0 0 0 3.138 1.3h15.894c1.936 0 3.756.752 5.126 2.12a7.208 7.208 0 0 1 2.124 5.128 7.204 7.204 0 0 1-2.123 5.125 7.203 7.203 0 0 1-5.127 2.124H267.3c-2.088 0-4.05.812-5.526 2.287a7.763 7.763 0 0 0-2.288 5.524c0 2.088.813 4.05 2.288 5.525a7.76 7.76 0 0 0 5.525 2.288h41.933a8.87 8.87 0 0 1 6.32 2.62 8.885 8.885 0 0 1 2.618 6.32c0 2.386-.93 4.63-2.616 6.32a8.878 8.878 0 0 1-6.32 2.617h-15.06a4.223 4.223 0 0 0-3.004 1.246 4.218 4.218 0 0 0-1.244 3.004c0 1.136.442 2.203 1.245 3.006a4.22 4.22 0 0 0 3.007 1.244h39.22c3.673 0 7.126 1.43 9.724 4.027a13.666 13.666 0 0 1 4.027 9.723 13.66 13.66 0 0 1-4.026 9.723 13.66 13.66 0 0 1-9.723 4.028H253.73c-2.204 0-4.276.86-5.834 2.417a8.202 8.202 0 0 0-2.416 5.833v2M32.205 63.13l-.27-3.49a24.52 24.52 0 0 1 3.725-.003l-.264 3.49a20.982 20.982 0 0 0-3.19.002zm9.36 1.463a19.912 19.912 0 0 0-3.024-.977l.81-3.405c1.214.29 2.41.676 3.555 1.15l-1.338 3.234zm-15.532.01l-1.34-3.234a23.712 23.712 0 0 1 3.553-1.153l.813 3.404c-1.03.247-2.05.577-3.028.98zm20.942 3.306a20.505 20.505 0 0 0-2.575-1.875l1.83-2.984a23.77 23.77 0 0 1 3.018 2.198l-2.273 2.66zm-26.346.015l-2.28-2.66a23.91 23.91 0 0 1 3.018-2.198l1.83 2.983a20.25 20.25 0 0 0-2.57 1.876zm30.484 4.805a20.49 20.49 0 0 0-1.88-2.57l2.654-2.28a24.14 24.14 0 0 1 2.202 3.01l-2.977 1.84zm-34.62.023l-2.98-1.836a23.86 23.86 0 0 1 2.202-3.014l2.656 2.278a20.552 20.552 0 0 0-1.877 2.574zm37.06 5.83c-.248-1.03-.58-2.05-.987-3.024l3.23-1.348c.477 1.145.868 2.34 1.16 3.55l-3.403.82zm-39.49.026l-3.405-.817c.29-1.21.677-2.404 1.153-3.55l3.233 1.34a20.153 20.153 0 0 0-.983 3.025zm19.75-8.034c-3.42 0-6.63 1.33-9.044 3.747a12.7 12.7 0 0 0-3.752 9.045v23.405c0 3.416 1.332 6.63 3.75 9.046a12.688 12.688 0 0 0 9.045 3.745c3.418 0 6.63-1.33 9.042-3.746a12.705 12.705 0 0 0 3.75-9.048V83.368c0-3.417-1.33-6.628-3.748-9.043a12.697 12.697 0 0 0-9.044-3.75zm0 52.49a16.16 16.16 0 0 1-11.52-4.773 16.18 16.18 0 0 1-4.776-11.52V83.368c0-4.35 1.696-8.442 4.777-11.52a16.164 16.164 0 0 1 11.518-4.772c4.354 0 8.445 1.695 11.52 4.774a16.172 16.172 0 0 1 4.772 11.518v23.405c0 4.353-1.695 8.445-4.774 11.52a16.17 16.17 0 0 1-11.516 4.773z" fill="#41464B"/><path d="M33.813 81.618c-.965 0-1.75.785-1.75 1.75s.785 1.75 1.75 1.75c.964 0 1.75-.785 1.75-1.75s-.786-1.75-1.75-1.75zm0 7a5.256 5.256 0 0 1-5.25-5.25 5.256 5.256 0 0 1 5.25-5.25 5.256 5.256 0 0 1 5.25 5.25 5.256 5.256 0 0 1-5.25 5.25z" fill="#41464B"/><path fill="#4CBED8" d="M136.518 284.89l-92.295-.002v14h92.295l-6.998-7 6.998-7"/><path d="M23.223 295.888c0 .768.293 1.536.88 2.122a2.992 2.992 0 0 0 2.12.878h4v-14h-4a2.99 2.99 0 0 0-2.12.88 2.99 2.99 0 0 0-.88 2.12v8" fill="#FF7443"/><path d="M144.334 291.42v.936l.81-.468-.81-.468zm-3.5 7v-13.063l11.307 6.53-11.305 6.534zm-11.314-4.782H44.223v-3.5h85.297v3.5" fill="#454545"/><path fill="#454545" d="M137.393 300.404l-1.75-3.03 9.5-5.486-9.5-5.483 1.75-3.03 14.75 8.512-14.75 8.517"/><path d="M136.518 300.638H44.223v-3.5h88.07l-4.01-4.012a1.75 1.75 0 0 1 0-2.475l4.01-4.01h-88.07v-3.5h92.295c.708 0 1.345.427 1.617 1.08.27.655.12 1.407-.38 1.91l-5.76 5.76 5.76 5.762a1.75 1.75 0 0 1-1.237 2.988" fill="#454545"/><path d="M31.973 297.138h10.5v-10.5h-10.5v10.5zm-3.5 3.5h17.5v-17.5h-17.5v17.5z" fill="#454545"/><path d="M26.223 286.638c-.334 0-.648.13-.884.367a1.24 1.24 0 0 0-.368.883v8c0 .334.13.648.366.884.235.237.55.366.883.366h2.25v-10.5h-2.25zm5.75 14h-5.75a4.72 4.72 0 0 1-3.36-1.39 4.72 4.72 0 0 1-1.39-3.36v-8c0-1.27.494-2.462 1.392-3.36a4.72 4.72 0 0 1 3.358-1.39h5.75v17.5zm3.5-1.75h3.5v-14h-3.5zm298.217-126.43c-6.51 0-11.81 5.297-11.81 11.807 0 6.512 5.3 11.81 11.81 11.81 6.515 0 11.814-5.298 11.814-11.81 0-6.51-5.3-11.807-11.813-11.807zm0 27.116c-8.44 0-15.31-6.867-15.31-15.31 0-8.44 6.87-15.306 15.31-15.306 8.445 0 15.314 6.867 15.314 15.307 0 8.442-6.87 15.31-15.313 15.31z" fill="#454545"/><path d="M340.19 184.265a6.5 6.5 0 0 1-6.5 6.498 6.498 6.498 0 1 1 0-12.996c3.583 0 6.5 2.91 6.5 6.498" fill="#FF7443"/><path fill="#454545" d="M331.94 170.708h3.5v-5.442h-3.5zm-6.544 2.692l-2.72-4.712 3.03-1.75 2.722 4.71-3.032 1.75m-4.322 5.604l-4.71-2.72 1.75-3.03 4.71 2.718-1.75 3.032m-6.384 7.013h5.44v-3.5h-5.44zm3.423 9.265l-1.75-3.03 4.71-2.72 1.75 3.03-4.71 2.72m7.594 6.313l-3.03-1.75 2.72-4.71 3.03 1.75-2.72 4.71m6.233 1.67h3.5v-5.44h-3.5zm9.737-1.67l-2.725-4.71 3.03-1.75 2.724 4.71-3.03 1.75m7.597-6.313l-4.712-2.72 1.75-3.03 4.714 2.72-1.75 3.03m-2.02-9.265h5.437v-3.5h-5.435zm-.944-7.013l-1.75-3.032 4.713-2.72 1.75 3.03-4.712 2.722m-4.33-5.602l-3.028-1.752 2.725-4.71 3.03 1.75-2.726 4.712M32.007 192.032h-1.75v-3.5h1.75a2.95 2.95 0 0 0 2.098-.87c.562-.562.87-1.307.87-2.1V166.69c0-.793-.308-1.54-.87-2.1a2.946 2.946 0 0 0-2.098-.87h-1.75v-3.5h1.75c1.728 0 3.352.674 4.573 1.895a6.425 6.425 0 0 1 1.894 4.575v18.873c0 1.727-.673 3.35-1.896 4.573a6.418 6.418 0 0 1-4.574 1.896m-23.727 0h-1.75a6.425 6.425 0 0 1-4.575-1.896 6.428 6.428 0 0 1-1.893-4.573V166.69c0-1.727.67-3.35 1.89-4.574a6.435 6.435 0 0 1 4.576-1.895h1.75v3.5h-1.75c-.793 0-1.54.31-2.1.87a2.95 2.95 0 0 0-.868 2.1v18.874c0 .792.307 1.538.868 2.1.56.56 1.306.87 2.1.87h1.75v3.5"/><path fill="#41464B" d="M10.744 177.878h3.502v-3.5h-3.502zm6.3 0h3.5v-3.5h-3.5zm6.3 0h3.502v-3.5h-3.502z"/><path d="M30.287 253.138a4.86 4.86 0 0 0-4.855 4.857 4.86 4.86 0 0 0 4.855 4.855 4.86 4.86 0 0 0 4.856-4.855 4.862 4.862 0 0 0-4.856-4.857zm0 13.212c-4.607 0-8.355-3.748-8.355-8.355 0-4.608 3.748-8.357 8.355-8.357 4.608 0 8.356 3.75 8.356 8.357 0 4.607-3.748 8.355-8.356 8.355zm-15.887 0h3.5v-16.712h-3.5zm-7.53 0h3.5v-16.712h-3.5zM183.99 31.88a4.86 4.86 0 0 0-4.855 4.856 4.862 4.862 0 0 0 4.855 4.858 4.863 4.863 0 0 0 4.856-4.858 4.86 4.86 0 0 0-4.856-4.855zm0 13.214c-4.607 0-8.355-3.75-8.355-8.358 0-4.607 3.748-8.355 8.355-8.355 4.608 0 8.356 3.75 8.356 8.357 0 4.61-3.748 8.358-8.356 8.358zm12.387 0h3.5V28.38h-3.5zm-30.17-18.05h3.5v-16.71h-3.5zm-7.53 0h3.5v-16.71h-3.5z" fill="#454545"/></g></svg>