<?xml version="1.0" encoding="UTF-8" standalone="no"?>
<svg width="230px" height="202px" viewBox="0 0 230 202" version="1.1" xmlns="http://www.w3.org/2000/svg" xmlns:xlink="http://www.w3.org/1999/xlink">
    <!-- Generator: Sketch 39 (31667) - http://www.bohemiancoding.com/sketch -->
    <title>development</title>
    <desc>Created with Sketch.</desc>
    <defs></defs>
    <g id="Page-1" stroke="none" stroke-width="1" fill="none" fill-rule="evenodd">
        <g id="development">
            <polyline id="Fill-5" fill="#F85C2A" points="68.422 54.321 64.16 54.321 62.92 60.51 69.66 60.51 68.422 54.321"></polyline>
            <polyline id="Fill-6" fill="#F85C2A" points="54.101 57.009 50.415 59.142 52.432 65.128 58.276 61.75 54.101 57.009"></polyline>
            <polyline id="Fill-7" fill="#F85C2A" points="43.051 66.507 40.918 70.19 45.667 74.369 49.028 68.532 43.051 66.507"></polyline>
            <polyline id="Fill-8" fill="#F85C2A" points="38.217 80.251 38.217 84.511 44.419 85.755 44.419 79.013 38.217 80.251"></polyline>
            <polyline id="Fill-9" fill="#F85C2A" points="40.918 94.571 43.051 98.264 49.028 96.241 45.667 90.401 40.918 94.571"></polyline>
            <polyline id="Fill-10" fill="#F85C2A" points="50.415 105.627 54.101 107.756 58.276 103.006 52.434 99.645 50.415 105.627"></polyline>
            <polyline id="Fill-11" fill="#F85C2A" points="64.164 110.456 68.422 110.456 69.66 104.255 62.92 104.255 64.164 110.456"></polyline>
            <polyline id="Fill-12" fill="#F85C2A" points="78.486 107.756 82.169 105.627 80.144 99.645 74.303 103.006 78.486 107.756"></polyline>
            <polyline id="Fill-13" fill="#F85C2A" points="89.528 98.264 91.662 94.571 86.925 90.401 83.55 96.241 89.528 98.264"></polyline>
            <polyline id="Fill-14" fill="#F85C2A" points="94.351 84.511 94.351 80.251 88.169 79.013 88.169 85.755 94.351 84.511"></polyline>
            <polyline id="Fill-15" fill="#F85C2A" points="91.662 70.19 89.528 66.507 83.55 68.532 86.925 74.369 91.662 70.19"></polyline>
            <polyline id="Fill-16" fill="#F85C2A" points="82.169 59.142 78.481 57.014 74.303 61.75 80.144 65.119 82.169 59.142"></polyline>
            <path d="M66.283,97.313 C58.039,97.313 51.364,90.634 51.364,82.398 C51.364,74.145 58.039,67.45 66.283,67.45 C74.525,67.45 81.224,74.145 81.224,82.398 C81.224,90.634 74.525,97.313 66.283,97.313 L66.283,97.313 Z M66.286,59.491 C53.645,59.491 43.405,69.738 43.405,82.395 C43.405,95.039 53.645,105.274 66.286,105.274 C78.937,105.274 89.19,95.039 89.19,82.395 C89.19,69.738 78.937,59.491 66.286,59.491 L66.286,59.491 Z" id="Fill-17" fill="#F85C2A"></path>
            <path d="M66.283,69.44 C59.154,69.44 53.354,75.253 53.354,82.398 C53.354,89.525 59.154,95.323 66.283,95.323 C73.423,95.323 79.233,89.525 79.233,82.398 C79.233,75.253 73.423,69.44 66.283,69.44 L66.283,69.44 Z M66.283,99.304 C56.959,99.304 49.373,91.72 49.373,82.398 C49.373,73.058 56.959,65.459 66.283,65.459 C75.619,65.459 83.214,73.058 83.214,82.398 C83.214,91.72 75.619,99.304 66.283,99.304 L66.283,99.304 Z" id="Fill-18" fill="#23282B"></path>
            <polyline id="Fill-19" fill="#00B9C4" points="143.013 87.428 135 87.428 132.663 99.066 145.342 99.066 143.013 87.428"></polyline>
            <polyline id="Fill-20" fill="#00B9C4" points="116.077 92.486 109.146 96.495 112.939 107.749 123.929 101.402 116.077 92.486"></polyline>
            <polyline id="Fill-21" fill="#00B9C4" points="95.301 110.343 91.289 117.276 100.216 125.131 106.54 114.156 95.301 110.343"></polyline>
            <polyline id="Fill-22" fill="#00B9C4" points="86.209 136.192 86.209 144.203 97.872 146.545 97.872 133.867 86.209 136.192"></polyline>
            <polyline id="Fill-23" fill="#00B9C4" points="91.289 163.125 95.301 170.069 106.54 166.268 100.216 155.284 91.289 163.125"></polyline>
            <polyline id="Fill-24" fill="#00B9C4" points="109.146 183.921 116.077 187.922 123.929 178.99 112.943 172.667 109.146 183.921"></polyline>
            <polyline id="Fill-25" fill="#00B9C4" points="135.007 193 143.013 193 145.342 181.34 132.663 181.34 135.007 193"></polyline>
            <polyline id="Fill-26" fill="#00B9C4" points="161.944 187.922 168.871 183.921 165.062 172.667 154.073 178.99 161.944 187.922"></polyline>
            <polyline id="Fill-27" fill="#00B9C4" points="182.712 170.069 186.725 163.125 177.813 155.284 171.465 166.268 182.712 170.069"></polyline>
            <polyline id="Fill-28" fill="#00B9C4" points="191.783 144.203 191.783 136.192 180.146 133.867 180.146 146.545 191.783 144.203"></polyline>
            <polyline id="Fill-29" fill="#00B9C4" points="186.725 117.276 182.712 110.343 171.465 114.156 177.813 125.131 186.725 117.276"></polyline>
            <polyline id="Fill-30" fill="#00B9C4" points="168.871 96.495 161.933 92.495 154.073 101.402 165.062 107.733 168.871 96.495"></polyline>
            <path d="M138.989,168.283 C123.485,168.283 110.932,155.717 110.932,140.23 C110.932,124.709 123.485,112.116 138.989,112.116 C154.491,112.116 167.087,124.709 167.087,140.23 C167.087,155.717 154.491,168.283 138.989,168.283 L138.989,168.283 Z M138.996,97.15 C115.22,97.15 95.965,116.424 95.965,140.223 C95.965,164.006 115.22,183.258 138.996,183.258 C162.791,183.258 182.07,164.006 182.07,140.223 C182.07,116.424 162.791,97.15 138.996,97.15 L138.996,97.15 Z" id="Fill-31" fill="#00B9C4"></path>
            <path d="M138.989,115.859 C125.583,115.859 114.676,126.792 114.676,140.23 C114.676,153.634 125.583,164.539 138.989,164.539 C152.418,164.539 163.343,153.634 163.343,140.23 C163.343,126.792 152.418,115.859 138.989,115.859 L138.989,115.859 Z M138.989,172.026 C121.454,172.026 107.188,157.763 107.188,140.23 C107.188,122.664 121.454,108.372 138.989,108.372 C156.547,108.372 170.831,122.664 170.831,140.23 C170.831,157.763 156.547,172.026 138.989,172.026 L138.989,172.026 Z" id="Fill-32" fill="#23282B"></path>
            <polyline id="Fill-33" fill="#B2B2B2" points="141.889 3 136.118 3 134.437 11.38 143.566 11.38 141.889 3"></polyline>
            <polyline id="Fill-34" fill="#B2B2B2" points="122.492 6.64 117.5 9.528 120.229 17.635 128.146 13.061 122.492 6.64"></polyline>
            <polyline id="Fill-35" fill="#B2B2B2" points="107.528 19.502 104.641 24.494 111.07 30.152 115.624 22.246 107.528 19.502"></polyline>
            <polyline id="Fill-36" fill="#B2B2B2" points="100.983 38.118 100.983 43.885 109.38 45.572 109.38 36.439 100.983 38.118"></polyline>
            <polyline id="Fill-37" fill="#B2B2B2" points="104.641 57.513 107.528 62.509 115.624 59.774 111.07 51.866 104.641 57.513"></polyline>
            <polyline id="Fill-38" fill="#B2B2B2" points="117.5 72.487 122.492 75.368 128.146 68.937 120.232 64.383 117.5 72.487"></polyline>
            <polyline id="Fill-39" fill="#B2B2B2" points="136.123 79.023 141.889 79.023 143.566 70.629 134.437 70.629 136.123 79.023"></polyline>
            <polyline id="Fill-40" fill="#B2B2B2" points="155.522 75.368 160.51 72.487 157.766 64.383 149.854 68.937 155.522 75.368"></polyline>
            <polyline id="Fill-41" fill="#B2B2B2" points="170.476 62.509 173.365 57.513 166.949 51.866 162.377 59.774 170.476 62.509"></polyline>
            <polyline id="Fill-42" fill="#B2B2B2" points="177.007 43.885 177.007 38.118 168.63 36.439 168.63 45.572 177.007 43.885"></polyline>
            <polyline id="Fill-43" fill="#B2B2B2" points="173.365 24.494 170.476 19.502 162.377 22.246 166.949 30.152 173.365 24.494"></polyline>
            <polyline id="Fill-44" fill="#B2B2B2" points="160.51 9.528 155.514 6.647 149.854 13.061 157.766 17.623 160.51 9.528"></polyline>
            <path d="M138.991,61.226 C127.826,61.226 118.788,52.177 118.788,41.024 C118.788,29.846 127.826,20.78 138.991,20.78 C150.153,20.78 159.227,29.846 159.227,41.024 C159.227,52.177 150.153,61.226 138.991,61.226 L138.991,61.226 Z M138.996,9.999 C121.875,9.999 108.009,23.879 108.009,41.02 C108.009,58.144 121.875,72.01 138.996,72.01 C156.13,72.01 170.015,58.144 170.015,41.02 C170.015,23.879 156.13,9.999 138.996,9.999 L138.996,9.999 Z" id="Fill-45" fill="#B2B2B2"></path>
            <path d="M138.991,23.476 C129.337,23.476 121.483,31.348 121.483,41.024 C121.483,50.677 129.337,58.53 138.991,58.53 C148.662,58.53 156.531,50.677 156.531,41.024 C156.531,31.348 148.662,23.476 138.991,23.476 L138.991,23.476 Z M138.991,63.921 C126.364,63.921 116.092,53.65 116.092,41.024 C116.092,28.375 126.364,18.084 138.991,18.084 C151.635,18.084 161.922,28.375 161.922,41.024 C161.922,53.65 151.635,63.921 138.991,63.921 L138.991,63.921 Z" id="Fill-46" fill="#23282B"></path>
            <polygon id="Fill-47" fill="#23282B" points="133.679 46.189 134.667 46.189 134.667 43.621 133.679 43.621"></polygon>
            <path d="M148.295,34.685 L129.729,34.685 C129.186,34.685 128.742,35.129 128.742,35.672 L128.742,43.572 C128.742,44.115 129.186,44.561 129.729,44.561 L132.988,44.561 L132.988,42.93 L135.358,42.93 L135.358,44.561 L142.666,44.561 L142.666,42.93 L145.036,42.93 L145.036,44.561 L148.295,44.561 C148.838,44.561 149.282,44.115 149.282,43.572 L149.282,35.672 C149.282,35.129 148.838,34.685 148.295,34.685" id="Fill-48" fill="#23282B"></path>
            <path d="M145.036,46.88 L142.666,46.88 L142.666,45.251 L135.358,45.251 L135.358,46.88 L132.988,46.88 L132.988,45.251 L129.137,45.251 L129.137,48.51 C129.137,49.054 129.582,49.497 130.125,49.497 L147.899,49.497 C148.442,49.497 148.888,49.054 148.888,48.51 L148.888,45.251 L145.036,45.251 L145.036,46.88" id="Fill-49" fill="#23282B"></path>
            <polygon id="Fill-50" fill="#23282B" points="143.358 46.189 144.345 46.189 144.345 43.621 143.358 43.621"></polygon>
            <path d="M142.376,32.801 C142.184,32.608 141.931,32.512 141.678,32.512 L136.345,32.512 C136.093,32.512 135.84,32.608 135.648,32.801 C135.454,32.994 135.358,33.247 135.358,33.5 L135.358,34.685 L136.544,34.685 L136.544,33.697 L141.481,33.697 L141.481,34.685 L142.666,34.685 L142.666,33.5 C142.666,33.247 142.57,32.994 142.376,32.801" id="Fill-51" fill="#23282B"></path>
            <polygon id="Fill-52" fill="#23282B" points="137.765 141.782 140.278 141.782 140.278 138.642 137.765 138.642"></polygon>
            <path d="M140.473,139.967 C140.36,139.994 140.278,140.088 140.278,140.206 L140.278,140.008 C140.342,139.994 140.405,139.983 140.473,139.967" id="Fill-53" fill="#23282B"></path>
            <path d="M140.479,140.451 C140.413,140.439 140.345,140.425 140.278,140.415 L140.278,140.206 C140.278,140.329 140.361,140.429 140.479,140.451" id="Fill-54" fill="#23282B"></path>
            <path d="M137.572,139.967 C137.682,139.994 137.765,140.088 137.765,140.206 L137.765,140.008 C137.698,139.994 137.633,139.983 137.572,139.967" id="Fill-55" fill="#23282B"></path>
            <path d="M137.563,140.451 C137.628,140.439 137.696,140.425 137.765,140.415 L137.765,140.206 C137.765,140.329 137.678,140.429 137.563,140.451" id="Fill-56" fill="#23282B"></path>
            <path d="M130.032,128.429 C130.032,134.889 134.057,140.118 139.02,140.118 C143.983,140.118 148.009,134.889 148.009,128.429 L130.032,128.429" id="Fill-57" fill="#23282B"></path>
            <path d="M139.02,140.3 C134.057,140.3 130.032,145.529 130.032,151.982 L148.009,151.982 C148.009,145.529 143.984,140.3 139.02,140.3" id="Fill-58" fill="#23282B"></path>
            <path d="M139.02,132.667 C137.094,130.753 133.978,130.753 132.052,132.667 C133.254,136.261 135.922,138.773 139.02,138.773 C142.119,138.773 144.789,136.261 145.984,132.667 C144.058,134.592 140.945,134.592 139.02,132.667" id="Fill-59" fill="#FFFFFF"></path>
            <path d="M143.956,151.982 C143.321,149.226 141.35,147.21 139.02,147.21 C136.689,147.21 134.719,149.226 134.084,151.982 L143.956,151.982" id="Fill-60" fill="#FFFFFF"></path>
            <path d="M139.044,140.19 C139.044,140.343 138.921,140.461 138.773,140.461 C138.623,140.461 138.505,140.343 138.505,140.19 C138.505,140.05 138.623,139.919 138.773,139.919 C138.921,139.919 139.044,140.05 139.044,140.19" id="Fill-61" fill="#FFFFFF"></path>
            <path d="M138.33,144.143 C138.33,144.341 138.172,144.497 137.969,144.497 C137.77,144.497 137.614,144.341 137.614,144.143 C137.614,143.941 137.77,143.781 137.969,143.781 C138.172,143.781 138.33,143.941 138.33,144.143" id="Fill-62" fill="#FFFFFF"></path>
            <path d="M140.009,142.806 C140.009,143.151 139.727,143.438 139.379,143.438 C139.032,143.438 138.75,143.151 138.75,142.806 C138.75,142.457 139.032,142.175 139.379,142.175 C139.727,142.175 140.009,142.457 140.009,142.806" id="Fill-63" fill="#FFFFFF"></path>
            <path d="M138.832,146.36 C138.832,146.459 138.748,146.549 138.653,146.549 C138.549,146.549 138.47,146.459 138.47,146.36 C138.47,146.266 138.549,146.181 138.653,146.181 C138.748,146.181 138.832,146.266 138.832,146.36" id="Fill-64" fill="#FFFFFF"></path>
            <path d="M140.24,144.962 C140.24,145.158 140.081,145.324 139.884,145.324 C139.683,145.324 139.525,145.158 139.525,144.962 C139.525,144.764 139.683,144.608 139.884,144.608 C140.081,144.608 140.24,144.764 140.24,144.962" id="Fill-65" fill="#FFFFFF"></path>
            <path d="M149.624,126.243 C149.624,125.449 148.979,124.799 148.191,124.799 L129.852,124.799 C129.059,124.799 128.412,125.449 128.412,126.243 C128.412,127.037 129.059,127.684 129.852,127.684 L148.191,127.684 C148.979,127.684 149.624,127.037 149.624,126.243" id="Fill-66" fill="#23282B"></path>
            <path d="M149.624,154.171 C149.624,153.381 148.979,152.733 148.191,152.733 L129.852,152.733 C129.059,152.733 128.412,153.381 128.412,154.171 C128.412,154.962 129.059,155.61 129.852,155.61 L148.191,155.61 C148.979,155.61 149.624,154.962 149.624,154.171" id="Fill-67" fill="#23282B"></path>
            <path d="M67.285,89.527 L65.305,89.527 C64.198,89.527 63.145,89.093 62.357,88.308 C61.57,87.522 61.139,86.474 61.139,85.359 L63.521,85.359 C63.521,85.841 63.702,86.286 64.041,86.624 C64.379,86.961 64.823,87.146 65.305,87.146 L67.285,87.146 C67.761,87.146 68.212,86.959 68.558,86.617 C68.888,86.286 69.074,85.841 69.074,85.359 C69.074,84.885 68.888,84.434 68.55,84.096 C68.212,83.764 67.761,83.576 67.285,83.576 L65.305,83.576 C64.198,83.576 63.145,83.142 62.357,82.356 C61.57,81.569 61.139,80.522 61.139,79.408 C61.139,78.295 61.57,77.25 62.356,76.462 C63.145,75.677 64.198,75.244 65.305,75.244 L67.285,75.244 C68.39,75.244 69.438,75.673 70.228,76.454 C71.023,77.249 71.456,78.293 71.456,79.408 L69.074,79.408 C69.074,78.932 68.888,78.479 68.553,78.148 C68.212,77.814 67.761,77.626 67.285,77.626 L65.305,77.626 C64.823,77.626 64.38,77.81 64.041,78.15 C63.702,78.481 63.521,78.933 63.521,79.408 C63.521,79.888 63.702,80.333 64.042,80.673 C64.379,81.009 64.823,81.195 65.305,81.195 L67.285,81.195 C68.391,81.195 69.438,81.624 70.229,82.408 C71.023,83.207 71.456,84.249 71.456,85.359 C71.456,86.474 71.023,87.522 70.234,88.308 C69.438,89.095 68.39,89.527 67.285,89.527" id="Fill-68" fill="#23282B"></path>
            <polygon id="Fill-69" fill="#23282B" points="65.104 76.434 67.485 76.434 67.485 73.653 65.104 73.653"></polygon>
            <polygon id="Fill-70" fill="#23282B" points="65.104 91.112 67.485 91.112 67.485 88.335 65.104 88.335"></polygon>
            <path d="M197.778,29.842 L200.007,23.695 L202.234,29.842 L197.778,29.842 L197.778,29.842 Z M192.595,34.942 L196.042,34.942 L196.946,32.522 L203.067,32.522 L203.972,34.942 L207.419,34.942 L201.914,20.654 L198.1,20.654 L192.595,34.942 L192.595,34.942 Z" id="Fill-71" fill="#23282B"></path>
            <polygon id="Fill-72" fill="#B2B2B2" points="192.507 39.703 207.507 39.703 207.507 38.118 192.507 38.118"></polygon>
            <polygon id="Fill-73" fill="#B2B2B2" points="185.007 42.879 215.007 42.879 215.007 41.292 185.007 41.292"></polygon>
            <polygon id="Fill-74" fill="#B2B2B2" points="185.007 46.056 215.007 46.056 215.007 44.467 185.007 44.467"></polygon>
            <polygon id="Fill-75" fill="#B2B2B2" points="185.007 49.23 215.007 49.23 215.007 47.641 185.007 47.641"></polygon>
            <polygon id="Fill-76" fill="#B2B2B2" points="185.007 52.406 200.007 52.406 200.007 50.818 185.007 50.818"></polygon>
            <path d="M215.812,130.34 L211.868,130.34 L211.868,127.084 L215.812,127.084 C216.99,127.084 217.632,127.813 217.632,128.711 C217.632,129.739 216.946,130.34 215.812,130.34 L215.812,130.34 Z M211.868,121.406 L215.681,121.406 C216.709,121.406 217.352,122.029 217.352,122.907 C217.352,123.828 216.709,124.405 215.681,124.405 L211.868,124.405 L211.868,121.406 L211.868,121.406 Z M217.995,125.647 C219.344,125.369 220.458,124.148 220.458,122.37 C220.458,120.463 219.069,118.729 216.347,118.729 L208.826,118.729 L208.826,133.018 L216.583,133.018 C219.324,133.018 220.74,131.303 220.74,129.14 C220.74,127.361 219.54,125.884 217.995,125.647 L217.995,125.647 Z" id="Fill-77" fill="#23282B"></path>
            <polygon id="Fill-78" fill="#B2B2B2" points="207.283 137.78 222.283 137.78 222.283 136.192 207.283 136.192"></polygon>
            <polygon id="Fill-79" fill="#B2B2B2" points="199.783 140.954 229.783 140.954 229.783 139.366 199.783 139.366"></polygon>
            <polygon id="Fill-80" fill="#B2B2B2" points="199.783 144.131 229.783 144.131 229.783 142.543 199.783 142.543"></polygon>
            <polygon id="Fill-81" fill="#B2B2B2" points="199.783 147.305 229.783 147.305 229.783 145.719 199.783 145.719"></polygon>
            <polygon id="Fill-82" fill="#B2B2B2" points="199.783 150.481 214.783 150.481 214.783 148.891 199.783 148.891"></polygon>
            <path d="M16.053,64.993 C17.51,64.993 18.795,65.917 19.393,67.071 L22.006,65.786 C21.002,63.989 19.18,62.294 16.053,62.294 C11.745,62.294 8.426,65.274 8.426,69.687 C8.426,74.077 11.745,77.079 16.053,77.079 C19.18,77.079 21.002,75.343 22.006,73.565 L19.393,72.3 C18.795,73.456 17.51,74.378 16.053,74.378 C13.44,74.378 11.553,72.386 11.553,69.687 C11.553,66.985 13.44,64.993 16.053,64.993" id="Fill-83" fill="#23282B"></path>
            <polygon id="Fill-84" fill="#B2B2B2" points="7.717 81.837 22.717 81.837 22.717 80.251 7.717 80.251"></polygon>
            <polygon id="Fill-85" fill="#B2B2B2" points="0.217 85.015 30.217 85.015 30.217 83.427 0.217 83.427"></polygon>
            <polygon id="Fill-86" fill="#B2B2B2" points="0.217 88.188 30.217 88.188 30.217 86.604 0.217 86.604"></polygon>
            <polygon id="Fill-87" fill="#B2B2B2" points="0.217 91.364 30.217 91.364 30.217 89.776 0.217 89.776"></polygon>
            <polygon id="Fill-88" fill="#B2B2B2" points="0.217 94.542 15.217 94.542 15.217 92.954 0.217 92.954"></polygon>
            <polyline id="Fill-89" fill="#E6E6E6" points="67.871 0.273 65.106 0.273 64.296 4.292 68.675 4.292 67.871 0.273"></polyline>
            <polyline id="Fill-90" fill="#E6E6E6" points="58.567 2.018 56.17 3.403 57.485 7.293 61.283 5.102 58.567 2.018"></polyline>
            <polyline id="Fill-91" fill="#E6E6E6" points="51.392 8.188 50.008 10.582 53.091 13.293 55.278 9.501 51.392 8.188"></polyline>
            <polyline id="Fill-92" fill="#E6E6E6" points="48.254 17.118 48.255 19.882 52.284 20.689 52.284 16.31 48.254 17.118"></polyline>
            <polyline id="Fill-93" fill="#E6E6E6" points="50.008 26.415 51.392 28.816 55.278 27.499 53.091 23.703 50.008 26.415"></polyline>
            <polyline id="Fill-94" fill="#E6E6E6" points="56.17 33.596 58.567 34.979 61.283 31.895 57.489 29.71 56.17 33.596"></polyline>
            <polyline id="Fill-95" fill="#E6E6E6" points="65.107 36.73 67.871 36.73 68.675 32.706 64.299 32.706 65.107 36.73"></polyline>
            <polyline id="Fill-96" fill="#E6E6E6" points="74.403 34.979 76.799 33.596 75.487 29.71 71.693 31.895 74.403 34.979"></polyline>
            <polyline id="Fill-97" fill="#E6E6E6" points="81.582 28.816 82.966 26.415 79.883 23.703 77.693 27.499 81.582 28.816"></polyline>
            <polyline id="Fill-98" fill="#E6E6E6" points="84.715 19.882 84.714 17.118 80.695 16.31 80.695 20.689 84.715 19.882"></polyline>
            <polyline id="Fill-99" fill="#E6E6E6" points="82.966 10.582 81.582 8.188 77.693 9.501 79.883 13.293 82.966 10.582"></polyline>
            <polyline id="Fill-100" fill="#E6E6E6" points="76.799 3.403 74.402 2.021 71.693 5.102 75.487 7.288 76.799 3.403"></polyline>
            <path d="M66.485,25.399 C62.674,25.399 59.589,22.311 59.589,18.503 C59.589,14.688 62.674,11.598 66.485,11.598 C70.295,11.598 73.386,14.688 73.386,18.503 C73.386,22.311 70.295,25.399 66.485,25.399 L66.485,25.399 Z M66.485,4.128 C58.549,4.128 52.114,10.561 52.114,18.503 C52.114,26.441 58.549,32.872 66.485,32.872 C74.425,32.872 80.862,26.441 80.862,18.503 C80.862,10.561 74.425,4.128 66.485,4.128 L66.485,4.128 Z" id="Fill-101" fill="#E6E6E6"></path>
            <polyline id="Fill-102" fill="#E6E6E6" points="39.749 162.579 36.943 162.579 36.122 166.657 40.565 166.657 39.749 162.579"></polyline>
            <polyline id="Fill-103" fill="#E6E6E6" points="30.307 164.349 27.876 165.755 29.209 169.702 33.063 167.479 30.307 164.349"></polyline>
            <polyline id="Fill-104" fill="#E6E6E6" points="23.026 170.61 21.623 173.04 24.751 175.792 26.97 171.942 23.026 170.61"></polyline>
            <polyline id="Fill-105" fill="#E6E6E6" points="19.842 179.672 19.843 182.477 23.932 183.296 23.932 178.852 19.842 179.672"></polyline>
            <polyline id="Fill-106" fill="#E6E6E6" points="21.623 189.107 23.026 191.543 26.97 190.207 24.751 186.354 21.623 189.107"></polyline>
            <polyline id="Fill-107" fill="#E6E6E6" points="27.876 196.395 30.307 197.797 33.063 194.668 29.213 192.451 27.876 196.395"></polyline>
            <polyline id="Fill-108" fill="#E6E6E6" points="36.945 199.575 39.749 199.575 40.565 195.492 36.125 195.492 36.945 199.575"></polyline>
            <polyline id="Fill-109" fill="#E6E6E6" points="46.377 197.797 48.809 196.395 47.478 192.451 43.627 194.668 46.377 197.797"></polyline>
            <polyline id="Fill-110" fill="#E6E6E6" points="53.663 191.543 55.067 189.107 51.939 186.354 49.717 190.207 53.663 191.543"></polyline>
            <polyline id="Fill-111" fill="#E6E6E6" points="56.842 182.477 56.842 179.672 52.763 178.852 52.763 183.296 56.842 182.477"></polyline>
            <polyline id="Fill-112" fill="#E6E6E6" points="55.067 173.04 53.663 170.61 49.717 171.942 51.939 175.792 55.067 173.04"></polyline>
            <polyline id="Fill-113" fill="#E6E6E6" points="48.809 165.755 46.376 164.353 43.627 167.479 47.478 169.697 48.809 165.755"></polyline>
            <path d="M38.343,188.076 C34.476,188.076 31.345,184.942 31.345,181.078 C31.345,177.208 34.476,174.071 38.343,174.071 C42.209,174.071 45.346,177.208 45.346,181.078 C45.346,184.942 42.209,188.076 38.343,188.076 L38.343,188.076 Z M38.343,166.491 C30.289,166.491 23.759,173.018 23.759,181.078 C23.759,189.134 30.289,195.659 38.343,195.659 C46.4,195.659 52.932,189.134 52.932,181.078 C52.932,173.018 46.4,166.491 38.343,166.491 L38.343,166.491 Z" id="Fill-114" fill="#E6E6E6"></path>
            <polyline id="Fill-115" fill="#E6E6E6" points="51.42 130.174 50.011 130.174 49.599 132.221 51.83 132.221 51.42 130.174"></polyline>
            <polyline id="Fill-116" fill="#E6E6E6" points="46.68 131.063 45.458 131.769 46.128 133.75 48.063 132.634 46.68 131.063"></polyline>
            <polyline id="Fill-117" fill="#E6E6E6" points="43.024 134.206 42.319 135.426 43.89 136.808 45.004 134.875 43.024 134.206"></polyline>
            <polyline id="Fill-118" fill="#E6E6E6" points="41.425 138.756 41.426 140.165 43.479 140.576 43.479 138.345 41.425 138.756"></polyline>
            <polyline id="Fill-119" fill="#E6E6E6" points="42.319 143.493 43.024 144.716 45.004 144.045 43.89 142.111 42.319 143.493"></polyline>
            <polyline id="Fill-120" fill="#E6E6E6" points="45.458 147.152 46.68 147.856 48.063 146.285 46.13 145.172 45.458 147.152"></polyline>
            <polyline id="Fill-121" fill="#E6E6E6" points="50.012 148.749 51.42 148.749 51.83 146.699 49.601 146.699 50.012 148.749"></polyline>
            <polyline id="Fill-122" fill="#E6E6E6" points="54.748 147.856 55.969 147.152 55.3 145.172 53.367 146.285 54.748 147.856"></polyline>
            <polyline id="Fill-123" fill="#E6E6E6" points="58.406 144.716 59.111 143.493 57.541 142.111 56.425 144.045 58.406 144.716"></polyline>
            <polyline id="Fill-124" fill="#E6E6E6" points="60.002 140.165 60.002 138.756 57.954 138.345 57.954 140.576 60.002 140.165"></polyline>
            <polyline id="Fill-125" fill="#E6E6E6" points="59.111 135.426 58.406 134.206 56.425 134.875 57.541 136.808 59.111 135.426"></polyline>
            <polyline id="Fill-126" fill="#E6E6E6" points="55.969 131.769 54.748 131.064 53.367 132.634 55.3 133.748 55.969 131.769"></polyline>
            <path d="M50.714,142.976 C48.772,142.976 47.201,141.402 47.201,139.462 C47.201,137.519 48.772,135.944 50.714,135.944 C52.655,135.944 54.23,137.519 54.23,139.462 C54.23,141.402 52.655,142.976 50.714,142.976 L50.714,142.976 Z M50.714,132.138 C46.671,132.138 43.392,135.415 43.392,139.462 C43.392,143.506 46.671,146.783 50.714,146.783 C54.76,146.783 58.039,143.506 58.039,139.462 C58.039,135.415 54.76,132.138 50.714,132.138 L50.714,132.138 Z" id="Fill-127" fill="#E6E6E6"></path>
            <polyline id="Fill-128" fill="#E6E6E6" points="199.091 176.268 197.197 176.268 196.639 179.023 199.643 179.023 199.091 176.268"></polyline>
            <polyline id="Fill-129" fill="#E6E6E6" points="192.711 177.465 191.069 178.414 191.97 181.082 194.573 179.58 192.711 177.465"></polyline>
            <polyline id="Fill-130" fill="#E6E6E6" points="187.792 181.694 186.844 183.337 188.958 185.195 190.458 182.596 187.792 181.694"></polyline>
            <polyline id="Fill-131" fill="#E6E6E6" points="185.641 187.818 185.641 189.713 188.406 190.266 188.406 187.264 185.641 187.818"></polyline>
            <polyline id="Fill-132" fill="#E6E6E6" points="186.844 194.192 187.792 195.839 190.458 194.936 188.958 192.333 186.844 194.192"></polyline>
            <polyline id="Fill-133" fill="#E6E6E6" points="191.069 199.117 192.711 200.064 194.573 197.95 191.973 196.451 191.069 199.117"></polyline>
            <polyline id="Fill-134" fill="#E6E6E6" points="197.198 201.266 199.091 201.266 199.643 198.506 196.639 198.506 197.198 201.266"></polyline>
            <polyline id="Fill-135" fill="#E6E6E6" points="203.571 200.064 205.212 199.117 204.313 196.451 201.712 197.95 203.571 200.064"></polyline>
            <polyline id="Fill-136" fill="#E6E6E6" points="208.493 195.839 209.442 194.192 207.329 192.333 205.825 194.936 208.493 195.839"></polyline>
            <polyline id="Fill-137" fill="#E6E6E6" points="210.641 189.713 210.641 187.818 207.883 187.264 207.883 190.266 210.641 189.713"></polyline>
            <polyline id="Fill-138" fill="#E6E6E6" points="209.442 183.337 208.493 181.694 205.825 182.596 207.329 185.195 209.442 183.337"></polyline>
            <polyline id="Fill-139" fill="#E6E6E6" points="205.212 178.414 203.571 177.467 201.712 179.58 204.313 181.077 205.212 178.414"></polyline>
            <path d="M198.14,193.496 C195.528,193.496 193.415,191.379 193.415,188.769 C193.415,186.152 195.528,184.034 198.14,184.034 C200.752,184.034 202.874,186.152 202.874,188.769 C202.874,191.379 200.752,193.496 198.14,193.496 L198.14,193.496 Z M198.14,178.911 C192.7,178.911 188.287,183.321 188.287,188.769 C188.287,194.21 192.7,198.62 198.14,198.62 C203.586,198.62 208,194.21 208,188.769 C208,183.321 203.586,178.911 198.14,178.911 L198.14,178.911 Z" id="Fill-140" fill="#E6E6E6"></path>
        </g>
    </g>
</svg>