<?xml version="1.0" encoding="UTF-8" standalone="no"?>
<svg width="351px" height="322px" viewBox="0 0 351 322" version="1.1" xmlns="http://www.w3.org/2000/svg" xmlns:xlink="http://www.w3.org/1999/xlink">
    <!-- Generator: Sketch 39 (31667) - http://www.bohemiancoding.com/sketch -->
    <title>startup</title>
    <desc>Created with Sketch.</desc>
    <defs></defs>
    <g id="Startup" stroke="none" stroke-width="1" fill="none" fill-rule="evenodd">
        <g id="startup">
            <polygon id="Fill-350" fill="#FED65C" points="69.789 298.403 280.916 298.403 280.916 166.535 69.789 166.535"></polygon>
            <path d="M210.904,298.403 L205.265,307.486 L145.45,307.486 L139.812,298.403 L30.96,298.403 L30.96,309.058 C30.96,311.797 31.995,314.56 34.076,316.611 C36.17,318.707 38.896,319.731 41.644,319.731 L309.07,319.731 C311.826,319.731 314.555,318.707 316.63,316.611 C318.711,314.56 319.751,311.797 319.751,309.058 L319.751,298.403 L210.904,298.403" id="Fill-351" fill="#AFAFAF"></path>
            <polygon id="Fill-352" fill="#41464B" points="139.812 300.16 210.904 300.16 210.904 296.66 139.812 296.66"></polygon>
            <path d="M297.121,298.41 L293.621,298.41 L293.621,160.08 C293.621,158.433 292.963,156.865 291.769,155.667 C290.612,154.507 288.996,153.841 287.337,153.841 L63.365,153.841 C61.682,153.841 60.112,154.488 58.944,155.665 C57.746,156.847 57.093,158.41 57.093,160.08 L57.093,298.41 L53.593,298.41 L53.593,160.08 C53.593,157.466 54.616,155.018 56.473,153.186 C58.29,151.356 60.743,150.341 63.365,150.341 L287.337,150.341 C289.918,150.341 292.438,151.382 294.248,153.195 C296.1,155.055 297.121,157.499 297.121,160.08 L297.121,298.41" id="Fill-353" fill="#41464B"></path>
            <path d="M32.71,300.153 L32.71,309.058 C32.71,311.44 33.656,313.74 35.304,315.365 C36.994,317.055 39.242,317.981 41.644,317.981 L309.07,317.981 C311.483,317.981 313.726,317.057 315.387,315.38 C317.054,313.736 318.001,311.438 318.001,309.058 L318.001,300.153 L211.877,300.153 L206.239,309.236 L144.476,309.236 L138.838,300.153 L32.71,300.153 L32.71,300.153 Z M309.07,321.481 L41.644,321.481 C38.306,321.481 35.179,320.19 32.838,317.849 C30.536,315.579 29.21,312.371 29.21,309.058 L29.21,296.653 L140.786,296.653 L146.423,305.736 L204.292,305.736 L209.93,296.653 L321.501,296.653 L321.501,309.058 C321.501,312.368 320.174,315.575 317.859,317.857 C315.551,320.189 312.424,321.481 309.07,321.481 L309.07,321.481 Z" id="Fill-354" fill="#41464B"></path>
            <path d="M197.255,220.599 C190.983,220.599 185.879,215.495 185.879,209.223 L189.379,209.223 C189.379,213.565 192.913,217.099 197.255,217.099 C201.599,217.099 205.132,213.565 205.132,209.223 C205.132,204.879 201.599,201.346 197.255,201.346 L197.255,197.846 C203.529,197.846 208.632,202.949 208.632,209.223 C208.632,215.495 203.529,220.599 197.255,220.599" id="Fill-355" fill="#41464B"></path>
            <path d="M155.863,228.46 C150.917,228.46 146.893,224.437 146.893,219.49 C146.893,214.544 150.917,210.521 155.863,210.521 L155.863,214.021 C152.847,214.021 150.393,216.475 150.393,219.49 C150.393,222.506 152.847,224.96 155.863,224.96 C158.878,224.96 161.333,222.506 161.333,219.49 L164.833,219.49 C164.833,224.437 160.809,228.46 155.863,228.46" id="Fill-356" fill="#41464B"></path>
            <polygon id="Fill-357" fill="#41464B" points="185.879 252.701 189.379 252.701 189.379 234.531 185.879 234.531"></polygon>
            <polygon id="Fill-358" fill="#41464B" points="185.879 209.223 189.379 209.223 189.379 191.654 185.879 191.654"></polygon>
            <polygon id="Fill-359" fill="#41464B" points="177.697 252.701 181.197 252.701 181.197 226.71 177.697 226.71"></polygon>
            <polygon id="Fill-360" fill="#41464B" points="177.697 223.341 181.197 223.341 181.197 219.169 177.697 219.169"></polygon>
            <polygon id="Fill-361" fill="#41464B" points="177.697 215.699 181.197 215.699 181.197 201.802 177.697 201.802"></polygon>
            <polygon id="Fill-362" fill="#41464B" points="169.514 264.524 173.014 264.524 173.014 213.834 169.514 213.834"></polygon>
            <polygon id="Fill-363" fill="#41464B" points="161.333 264.524 164.833 264.524 164.833 244.88 161.333 244.88"></polygon>
            <polygon id="Fill-364" fill="#41464B" points="161.333 219.49 164.833 219.49 164.833 202.764 161.333 202.764"></polygon>
            <polygon id="Fill-365" fill="#41464B" points="161.333 199.395 164.833 199.395 164.833 196.025 161.333 196.025"></polygon>
            <polygon id="Fill-366" fill="#41464B" points="173.606 276.928 177.106 276.928 177.106 273.559 173.606 273.559"></polygon>
            <polygon id="Fill-367" fill="#41464B" points="91.36 293.229 94.729 293.229 94.729 289.729 91.36 289.729"></polygon>
            <polygon id="Fill-368" fill="#41464B" points="241.778 269.78 245.147 269.78 245.147 266.28 241.778 266.28"></polygon>
            <polygon id="Fill-369" fill="#41464B" points="222.685 227.658 226.055 227.658 226.055 224.158 222.685 224.158"></polygon>
            <polygon id="Fill-370" fill="#41464B" points="98.36 255.861 101.86 255.861 101.86 252.492 98.36 252.492"></polygon>
            <path d="M144.311,276.864 C137.507,276.864 131.972,271.329 131.972,264.525 L135.472,264.525 C135.472,269.399 139.437,273.364 144.311,273.364 C149.185,273.364 153.15,269.399 153.15,264.525 C153.15,259.651 149.185,255.687 144.311,255.687 L144.311,252.187 C151.115,252.187 156.65,257.722 156.65,264.525 C156.65,271.329 151.115,276.864 144.311,276.864" id="Fill-371" fill="#41464B"></path>
            <path d="M144.311,285.047 C132.996,285.047 123.79,275.841 123.79,264.525 C123.79,253.21 132.996,244.004 144.311,244.004 L144.311,247.504 C134.925,247.504 127.29,255.14 127.29,264.525 C127.29,273.911 134.925,281.547 144.311,281.547 C153.697,281.547 161.333,273.911 161.333,264.525 L164.833,264.525 C164.833,275.841 155.626,285.047 144.311,285.047" id="Fill-372" fill="#41464B"></path>
            <path d="M198.218,265.04 C191.415,265.04 185.879,259.505 185.879,252.701 L189.379,252.701 C189.379,257.575 193.344,261.54 198.218,261.54 C203.092,261.54 207.057,257.575 207.057,252.701 L210.557,252.701 C210.557,259.505 205.022,265.04 198.218,265.04" id="Fill-373" fill="#41464B"></path>
            <path d="M144.311,293.229 L144.311,289.729 C158.208,289.729 169.514,278.423 169.514,264.525 L173.014,264.525 C173.014,280.353 160.138,293.229 144.311,293.229" id="Fill-374" fill="#41464B"></path>
            <path d="M198.218,273.223 C186.903,273.223 177.697,264.017 177.697,252.701 L181.197,252.701 C181.197,262.087 188.833,269.723 198.218,269.723 C207.604,269.723 215.24,262.087 215.24,252.701 C215.24,243.315 207.604,235.68 198.218,235.68 L198.218,232.18 C209.534,232.18 218.74,241.386 218.74,252.701 C218.74,264.017 209.534,273.223 198.218,273.223" id="Fill-375" fill="#41464B"></path>
            <path d="M186.882,293.229 C181.818,293.229 177.697,289.107 177.697,284.043 C177.697,278.979 181.818,274.857 186.882,274.857 L186.882,278.357 C183.748,278.357 181.197,280.908 181.197,284.043 C181.197,287.178 183.748,289.729 186.882,289.729 C190.018,289.729 192.569,287.178 192.569,284.043 L196.069,284.043 C196.069,289.107 191.948,293.229 186.882,293.229" id="Fill-376" fill="#41464B"></path>
            <path d="M125.966,214.483 C122.951,214.483 120.497,216.938 120.497,219.953 C120.497,222.969 122.951,225.423 125.966,225.423 C128.982,225.423 131.436,222.969 131.436,219.953 C131.436,216.938 128.982,214.483 125.966,214.483 L125.966,214.483 Z M125.966,228.923 C121.02,228.923 116.997,224.899 116.997,219.953 C116.997,215.007 121.02,210.983 125.966,210.983 C130.913,210.983 134.936,215.007 134.936,219.953 C134.936,224.899 130.913,228.923 125.966,228.923 L125.966,228.923 Z" id="Fill-377" fill="#41464B"></path>
            <path d="M234.664,235.343 C232.974,235.343 231.6,236.717 231.6,238.406 C231.6,240.096 232.974,241.47 234.664,241.47 C236.352,241.47 237.726,240.096 237.726,238.406 C237.726,236.717 236.352,235.343 234.664,235.343 L234.664,235.343 Z M234.664,244.97 C231.044,244.97 228.1,242.025 228.1,238.406 C228.1,234.787 231.044,231.843 234.664,231.843 C238.282,231.843 241.226,234.787 241.226,238.406 C241.226,242.025 238.282,244.97 234.664,244.97 L234.664,244.97 Z" id="Fill-378" fill="#41464B"></path>
            <path d="M217.755,274.354 C216.73,274.354 215.896,275.188 215.896,276.213 C215.896,277.238 216.73,278.073 217.755,278.073 C218.781,278.073 219.616,277.238 219.616,276.213 C219.616,275.188 218.781,274.354 217.755,274.354 L217.755,274.354 Z M217.755,281.573 C214.8,281.573 212.396,279.169 212.396,276.213 C212.396,273.258 214.8,270.854 217.755,270.854 C220.711,270.854 223.116,273.258 223.116,276.213 C223.116,279.169 220.711,281.573 217.755,281.573 L217.755,281.573 Z" id="Fill-379" fill="#41464B"></path>
            <path d="M110.872,293.229 C103.442,293.229 97.397,287.184 97.397,279.754 C97.397,272.324 103.442,266.28 110.872,266.28 L110.872,269.78 C105.372,269.78 100.897,274.255 100.897,279.754 C100.897,285.254 105.372,289.729 110.872,289.729 L110.872,293.229" id="Fill-380" fill="#41464B"></path>
            <path d="M248.516,293.229 L248.516,289.729 C254.015,289.729 258.49,285.254 258.49,279.754 C258.49,274.255 254.015,269.78 248.516,269.78 L248.516,266.28 C255.946,266.28 261.99,272.324 261.99,279.754 C261.99,287.184 255.946,293.229 248.516,293.229" id="Fill-381" fill="#41464B"></path>
            <path d="M225.011,293.229 L225.011,289.729 C227.241,289.729 229.054,287.915 229.054,285.686 C229.054,283.456 227.241,281.642 225.011,281.642 L225.011,278.142 C229.17,278.142 232.554,281.525 232.554,285.686 C232.554,289.845 229.17,293.229 225.011,293.229" id="Fill-382" fill="#41464B"></path>
            <path d="M87.991,293.229 C83.793,293.229 80.378,289.815 80.378,285.617 C80.378,281.419 83.793,278.004 87.991,278.004 L87.991,281.504 C85.723,281.504 83.878,283.349 83.878,285.617 C83.878,287.884 85.723,289.729 87.991,289.729 L87.991,293.229" id="Fill-383" fill="#41464B"></path>
            <path d="M116.506,293.229 L116.506,289.729 C119.632,289.729 122.176,287.185 122.176,284.059 C122.176,280.933 119.632,278.389 116.506,278.389 L116.506,274.889 C121.563,274.889 125.676,279.002 125.676,284.059 C125.676,289.115 121.563,293.229 116.506,293.229" id="Fill-384" fill="#41464B"></path>
            <polygon id="Fill-385" fill="#41464B" points="237.285 293.229 241.778 293.229 241.778 289.729 237.285 289.729"></polygon>
            <polygon id="Fill-386" fill="#41464B" points="249.3 233.81 252.8 233.81 252.8 224.825 249.3 224.825"></polygon>
            <polygon id="Fill-387" fill="#41464B" points="249.3 221.456 252.8 221.456 252.8 217.284 249.3 217.284"></polygon>
            <polygon id="Fill-388" fill="#41464B" points="249.3 213.815 252.8 213.815 252.8 197.028 249.3 197.028"></polygon>
            <polygon id="Fill-389" fill="#41464B" points="241.118 209.382 244.618 209.382 244.618 191.895 241.118 191.895"></polygon>
            <polygon id="Fill-390" fill="#41464B" points="97.911 205.051 101.411 205.051 101.411 200.879 97.911 200.879"></polygon>
            <polygon id="Fill-391" fill="#41464B" points="97.911 223.181 101.411 223.181 101.411 208.521 97.911 208.521"></polygon>
            <polygon id="Fill-392" fill="#41464B" points="106.093 234.05 109.593 234.05 109.593 195.745 106.093 195.745"></polygon>
            <path d="M103.751,126.103 C98.654,133.49 95.669,142.44 95.669,152.091 L95.669,186.633 L111.834,186.633 L111.834,152.091 C111.834,142.44 108.842,133.49 103.751,126.103" id="Fill-393" fill="#FFFFFF"></path>
            <path d="M103.751,126.103 C100.762,130.436 98.506,135.309 97.146,140.542 L110.355,140.542 C108.994,135.309 106.738,130.436 103.751,126.103" id="Fill-394" fill="#FF7443"></path>
            <path d="M246.959,126.103 C241.862,133.49 238.877,142.44 238.877,152.091 L238.877,186.633 L255.042,186.633 L255.042,152.091 C255.042,142.44 252.05,133.49 246.959,126.103" id="Fill-395" fill="#FFFFFF"></path>
            <path d="M246.959,126.103 C243.97,130.436 241.713,135.309 240.354,140.542 L253.563,140.542 C252.202,135.309 249.945,130.436 246.959,126.103" id="Fill-396" fill="#FF7443"></path>
            <path d="M197.8,94.476 L197.8,171.54 L238.875,179.09 L238.875,152.091 C216.187,152.091 197.8,126.293 197.8,94.476" id="Fill-397" fill="#FFFFFF"></path>
            <path d="M152.916,94.476 L152.916,171.54 L111.834,179.09 L111.834,152.091 C134.528,152.091 152.916,126.293 152.916,94.476" id="Fill-398" fill="#FFFFFF"></path>
            <path d="M175.354,3.732 C161.209,24.241 152.916,49.085 152.916,75.876 L152.916,171.54 L197.8,171.54 L197.8,75.876 C197.8,49.085 189.493,24.241 175.354,3.732" id="Fill-399" fill="#FFFFFF"></path>
            <path d="M175.354,3.732 C168.138,14.195 162.457,25.791 158.61,38.193 L192.1,38.193 C188.25,25.791 182.567,14.195 175.354,3.732" id="Fill-400" fill="#FF7443"></path>
            <polyline id="Fill-401" fill="#4CBED8" points="190.767 186.633 159.941 186.633 152.916 171.54 197.8 171.54 190.767 186.633"></polyline>
            <path d="M240.625,184.883 L253.292,184.883 L253.292,152.091 C253.292,144.007 251.11,136.19 246.958,129.324 C242.807,136.182 240.625,143.999 240.625,152.091 L240.625,184.883 L240.625,184.883 Z M256.792,188.383 L237.125,188.383 L237.125,152.091 C237.125,142.395 240.028,133.065 245.519,125.108 L246.96,123.021 L248.401,125.109 C253.89,133.076 256.792,142.405 256.792,152.091 L256.792,188.383 L256.792,188.383 Z" id="Fill-402" fill="#41464B"></path>
            <path d="M97.419,184.883 L110.084,184.883 L110.084,152.091 C110.084,144.008 107.902,136.191 103.75,129.324 C99.6,136.183 97.419,143.999 97.419,152.091 L97.419,184.883 L97.419,184.883 Z M113.584,188.383 L93.919,188.383 L93.919,152.091 C93.919,142.396 96.821,133.065 102.311,125.108 L103.752,123.02 L105.193,125.109 C110.682,133.077 113.584,142.406 113.584,152.091 L113.584,188.383 L113.584,188.383 Z" id="Fill-403" fill="#41464B"></path>
            <path d="M199.55,170.082 L237.125,176.989 L237.125,153.792 C220.282,152.848 205.912,138.354 199.55,117.98 L199.55,170.082 L199.55,170.082 Z M240.625,181.19 L196.05,172.998 L196.05,94.476 L199.55,94.476 C199.55,125.28 217.191,150.341 238.875,150.341 L240.625,150.341 L240.625,181.19 L240.625,181.19 Z" id="Fill-404" fill="#41464B"></path>
            <path d="M113.584,153.792 L113.584,176.989 L151.166,170.082 L151.166,117.978 C144.804,138.355 130.431,152.848 113.584,153.792 L113.584,153.792 Z M110.084,181.19 L110.084,150.341 L111.834,150.341 C133.522,150.341 151.166,125.28 151.166,94.476 L154.666,94.476 L154.666,172.998 L110.084,181.19 L110.084,181.19 Z" id="Fill-405" fill="#41464B"></path>
            <path d="M161.056,184.883 L189.652,184.883 L196.05,171.152 L196.05,75.876 C196.05,51.196 188.903,27.392 175.354,6.861 C161.81,27.377 154.666,51.181 154.666,75.876 L154.666,171.152 L161.056,184.883 L161.056,184.883 Z M191.882,188.383 L158.826,188.383 L151.166,171.928 L151.166,75.876 C151.166,49.607 159.032,24.316 173.914,2.739 L175.354,0.649 L176.794,2.739 C191.681,24.333 199.55,49.623 199.55,75.876 L199.55,171.928 L191.882,188.383 L191.882,188.383 Z" id="Fill-406" fill="#41464B"></path>
            <path d="M175.354,57.949 C170.217,57.949 166.039,62.131 166.039,67.272 C166.039,72.412 170.217,76.594 175.354,76.594 C180.496,76.594 184.679,72.412 184.679,67.272 C184.679,62.131 180.496,57.949 175.354,57.949 L175.354,57.949 Z M175.354,80.094 C168.288,80.094 162.539,74.342 162.539,67.272 C162.539,60.201 168.288,54.449 175.354,54.449 C182.426,54.449 188.179,60.201 188.179,67.272 C188.179,74.342 182.426,80.094 175.354,80.094 L175.354,80.094 Z" id="Fill-407" fill="#41464B"></path>
            <path d="M175.354,87.795 C170.217,87.795 166.039,91.977 166.039,97.116 C166.039,102.257 170.217,106.439 175.354,106.439 C180.496,106.439 184.679,102.257 184.679,97.116 C184.679,91.977 180.496,87.795 175.354,87.795 L175.354,87.795 Z M175.354,109.939 C168.288,109.939 162.539,104.187 162.539,97.116 C162.539,90.047 168.288,84.295 175.354,84.295 C182.426,84.295 188.179,90.047 188.179,97.116 C188.179,104.187 182.426,109.939 175.354,109.939 L175.354,109.939 Z" id="Fill-408" fill="#41464B"></path>
            <polygon id="Fill-409" fill="#41464B" points="95.669 180.84 111.834 180.84 111.834 177.34 95.669 177.34"></polygon>
            <polygon id="Fill-410" fill="#41464B" points="152.916 161.498 197.8 161.498 197.8 157.998 152.916 157.998"></polygon>
            <polygon id="Fill-411" fill="#41464B" points="152.916 154.76 197.8 154.76 197.8 151.26 152.916 151.26"></polygon>
            <polygon id="Fill-412" fill="#41464B" points="238.875 180.84 255.039 180.84 255.039 177.34 238.875 177.34"></polygon>
            <polygon id="Fill-413" fill="#41464B" points="245.208 168.753 248.708 168.753 248.708 165.255 245.208 165.255"></polygon>
            <polygon id="Fill-414" fill="#41464B" points="245.208 161.756 248.708 161.756 248.708 158.258 245.208 158.258"></polygon>
            <polygon id="Fill-415" fill="#41464B" points="245.208 154.758 248.708 154.758 248.708 151.26 245.208 151.26"></polygon>
            <polygon id="Fill-416" fill="#41464B" points="102 168.753 105.5 168.753 105.5 165.255 102 165.255"></polygon>
            <polygon id="Fill-417" fill="#41464B" points="102 161.756 105.5 161.756 105.5 158.258 102 158.258"></polygon>
            <polygon id="Fill-418" fill="#41464B" points="102 154.758 105.5 154.758 105.5 151.26 102 151.26"></polygon>
            <path d="M181.134,67.272 C181.134,70.459 178.547,73.048 175.357,73.048 C172.166,73.048 169.583,70.459 169.583,67.272 C169.583,64.083 172.166,61.495 175.357,61.495 C178.547,61.495 181.134,64.083 181.134,67.272" id="Fill-419" fill="#4CBED8"></path>
            <path d="M181.134,97.117 C181.134,100.305 178.547,102.894 175.357,102.894 C172.166,102.894 169.583,100.305 169.583,97.117 C169.583,93.929 172.166,91.34 175.357,91.34 C178.547,91.34 181.134,93.929 181.134,97.117" id="Fill-420" fill="#4CBED8"></path>
            <polyline id="Fill-421" fill="#41464B" points="306.748 233.77 303.248 233.77 303.248 117.466 313.875 117.466 300.184 95.564 286.497 117.466 297.121 117.466 297.121 138.629 293.621 138.629 293.621 120.966 280.182 120.966 300.184 88.96 320.189 120.966 306.748 120.966 306.748 233.77"></polyline>
            <polygon id="Fill-422" fill="#41464B" points="293.621 145.367 297.121 145.367 297.121 141.998 293.621 141.998"></polygon>
            <polygon id="Fill-423" fill="#41464B" points="303.248 260.675 306.748 260.675 306.748 239.906 303.248 239.906"></polygon>
            <polyline id="Fill-424" fill="#41464B" points="57.093 131.248 53.593 131.248 53.593 91.202 64.218 91.202 50.53 69.3 36.84 91.202 47.466 91.202 47.466 118.895 43.966 118.895 43.966 94.702 30.526 94.702 50.53 62.696 70.533 94.702 57.093 94.702 57.093 131.248"></polyline>
            <polygon id="Fill-425" fill="#41464B" points="53.593 144.726 57.093 144.726 57.093 134.617 53.593 134.617"></polygon>
            <path d="M15.624,252.491 C13.403,252.491 11.596,254.296 11.596,256.515 C11.596,258.732 13.403,260.537 15.624,260.537 C17.842,260.537 19.648,258.732 19.648,256.515 C19.648,254.296 17.842,252.491 15.624,252.491 L15.624,252.491 Z M15.624,264.037 C11.473,264.037 8.096,260.662 8.096,256.515 C8.096,252.366 11.473,248.991 15.624,248.991 C19.773,248.991 23.148,252.366 23.148,256.515 C23.148,260.662 19.773,264.037 15.624,264.037 L15.624,264.037 Z" id="Fill-426" fill="#41464B"></path>
            <path d="M28.009,126.053 C24.207,126.053 21.113,129.148 21.113,132.951 C21.113,136.753 24.207,139.846 28.009,139.846 C31.815,139.846 34.911,136.753 34.911,132.951 C34.911,129.148 31.815,126.053 28.009,126.053 L28.009,126.053 Z M28.009,143.346 C22.277,143.346 17.613,138.683 17.613,132.951 C17.613,127.218 22.277,122.553 28.009,122.553 C33.745,122.553 38.411,127.218 38.411,132.951 C38.411,138.683 33.745,143.346 28.009,143.346 L28.009,143.346 Z" id="Fill-427" fill="#41464B"></path>
            <path d="M230.8,32.106 C226.192,32.106 222.443,35.856 222.443,40.464 C222.443,45.08 226.192,48.836 230.8,48.836 C235.413,48.836 239.166,45.08 239.166,40.464 C239.166,35.856 235.413,32.106 230.8,32.106 L230.8,32.106 Z M230.8,52.336 C224.262,52.336 218.943,47.01 218.943,40.464 C218.943,33.925 224.262,28.606 230.8,28.606 C237.343,28.606 242.666,33.925 242.666,40.464 C242.666,47.01 237.343,52.336 230.8,52.336 L230.8,52.336 Z" id="Fill-428" fill="#41464B"></path>
            <path d="M251.624,4.593 C251.624,6.84 249.804,8.663 247.553,8.663 C245.304,8.663 243.483,6.84 243.483,4.593 C243.483,2.341 245.304,0.523 247.553,0.523 C249.804,0.523 251.624,2.341 251.624,4.593" id="Fill-429" fill="#AFAFAF"></path>
            <path d="M39.52,235.994 C39.52,238.148 37.77,239.906 35.609,239.906 C33.448,239.906 31.698,238.148 31.698,235.994 C31.698,233.826 33.448,232.081 35.609,232.081 C37.77,232.081 39.52,233.826 39.52,235.994" id="Fill-430" fill="#AFAFAF"></path>
            <path d="M124.867,121.402 C124.867,123.649 123.045,125.473 120.795,125.473 C118.549,125.473 116.726,123.649 116.726,121.402 C116.726,119.155 118.549,117.333 120.795,117.333 C123.045,117.333 124.867,119.155 124.867,121.402" id="Fill-431" fill="#AFAFAF"></path>
            <path d="M248.639,60.838 C247.627,60.838 246.804,61.665 246.804,62.682 C246.804,63.693 247.627,64.517 248.639,64.517 C249.654,64.517 250.479,63.693 250.479,62.682 C250.479,61.665 249.654,60.838 248.639,60.838 L248.639,60.838 Z M248.639,68.017 C245.698,68.017 243.304,65.623 243.304,62.682 C243.304,59.735 245.698,57.338 248.639,57.338 C251.583,57.338 253.979,59.735 253.979,62.682 C253.979,65.623 251.583,68.017 248.639,68.017 L248.639,68.017 Z" id="Fill-432" fill="#41464B"></path>
            <path d="M326.563,162.912 C325.099,162.912 323.908,164.101 323.908,165.563 C323.908,167.023 325.099,168.212 326.563,168.212 C328.025,168.212 329.214,167.023 329.214,165.563 C329.214,164.101 328.025,162.912 326.563,162.912 L326.563,162.912 Z M326.563,171.712 C323.169,171.712 320.408,168.953 320.408,165.563 C320.408,162.171 323.169,159.412 326.563,159.412 C329.955,159.412 332.714,162.171 332.714,165.563 C332.714,168.953 329.955,171.712 326.563,171.712 L326.563,171.712 Z" id="Fill-433" fill="#41464B"></path>
            <polygon id="Fill-434" fill="#AFAFAF" points="92.446 103.319 117.466 103.319 117.466 90.51 92.446 90.51"></polygon>
            <polygon id="Fill-435" fill="#41464B" points="89.404 92.26 120.512 92.26 120.512 88.76 89.404 88.76"></polygon>
            <polygon id="Fill-436" fill="#41464B" points="89.404 105.069 120.512 105.069 120.512 101.569 89.404 101.569"></polygon>
            <polygon id="Fill-437" fill="#41464B" points="89.404 98.664 120.512 98.664 120.512 95.164 89.404 95.164"></polygon>
            <polygon id="Fill-438" fill="#41464B" points="98.095 111.475 111.819 111.475 111.819 107.975 98.095 107.975"></polygon>
            <path d="M82.083,44.832 C82.083,57.465 92.324,67.705 104.958,67.705 C117.59,67.705 127.832,57.465 127.832,44.832 C127.832,32.198 117.59,21.958 104.958,21.958 C92.324,21.958 82.083,32.198 82.083,44.832" id="Fill-439" fill="#4CBED8"></path>
            <polygon id="Fill-440" fill="#41464B" points="100.004 90.51 103.504 90.51 103.504 44.832 100.004 44.832"></polygon>
            <polygon id="Fill-441" fill="#41464B" points="106.41 90.51 109.91 90.51 109.91 44.832 106.41 44.832"></polygon>
            <polygon id="Fill-442" fill="#41464B" points="95.807 46.582 114.107 46.582 114.107 43.082 95.807 43.082"></polygon>
            <path d="M119.216,90.51 L115.716,90.51 L115.716,87.718 C115.716,80.235 118.897,73.045 124.442,67.991 L124.692,67.773 C131.387,62.004 135.226,53.644 135.226,44.832 C135.226,28.142 121.647,14.563 104.956,14.563 C88.265,14.563 74.686,28.142 74.686,44.832 C74.686,53.643 78.525,62.004 85.217,67.77 L85.438,67.962 C91.015,73.045 94.196,80.235 94.196,87.718 L94.196,90.51 L90.696,90.51 L90.696,87.718 C90.696,81.217 87.932,74.97 83.113,70.577 L82.93,70.419 C75.467,63.989 71.186,54.663 71.186,44.832 C71.186,26.212 86.335,11.063 104.956,11.063 C123.577,11.063 138.726,26.212 138.726,44.832 C138.726,54.663 134.444,63.99 126.979,70.422 L126.767,70.606 C121.98,74.97 119.216,81.217 119.216,87.718 L119.216,90.51" id="Fill-443" fill="#41464B"></path>
            <path d="M38.725,190.61 C38.725,201.243 30.105,209.863 19.473,209.863 C8.841,209.863 0.22,201.243 0.22,190.61 C0.22,179.979 8.841,171.357 19.473,171.357 C30.105,171.357 38.725,179.979 38.725,190.61" id="Fill-444" fill="#FED65C"></path>
            <path d="M20.69,199.677 L18.247,199.677 C16.833,199.677 15.444,199.105 14.435,198.106 C13.406,197.067 12.846,195.708 12.846,194.266 L16.346,194.266 C16.346,194.779 16.546,195.265 16.909,195.631 C17.255,195.973 17.748,196.177 18.247,196.177 L20.69,196.177 C21.197,196.177 21.683,195.975 22.06,195.608 C22.399,195.265 22.599,194.78 22.599,194.266 C22.599,193.754 22.403,193.276 22.045,192.921 C21.681,192.563 21.194,192.36 20.686,192.36 L18.247,192.36 C16.808,192.36 15.453,191.799 14.43,190.779 C13.407,189.752 12.846,188.397 12.846,186.957 C12.846,185.51 13.407,184.149 14.425,183.126 C15.447,182.118 16.836,181.547 18.247,181.547 L20.69,181.547 C22.111,181.547 23.463,182.101 24.5,183.106 C25.539,184.15 26.099,185.51 26.099,186.957 L22.599,186.957 C22.599,186.441 22.401,185.958 22.04,185.596 C21.683,185.249 21.196,185.047 20.69,185.047 L18.247,185.047 C17.749,185.047 17.255,185.251 16.894,185.607 C16.544,185.958 16.346,186.441 16.346,186.957 C16.346,187.464 16.544,187.943 16.906,188.305 C17.263,188.662 17.741,188.86 18.247,188.86 L20.686,188.86 C22.116,188.86 23.472,189.418 24.505,190.431 C25.537,191.458 26.099,192.816 26.099,194.266 C26.099,195.707 25.541,197.066 24.525,198.093 C23.467,199.123 22.114,199.677 20.69,199.677" id="Fill-445" fill="#41464B"></path>
            <polygon id="Fill-446" fill="#41464B" points="17.717 183.297 21.217 183.297 21.217 177.91 17.717 177.91"></polygon>
            <polygon id="Fill-447" fill="#41464B" points="17.717 203.31 21.217 203.31 21.217 197.927 17.717 197.927"></polygon>
            <polygon id="Fill-448" fill="#41464B" points="223.615 112.912 226.985 112.912 226.985 109.543 223.615 109.543"></polygon>
            <polygon id="Fill-449" fill="#41464B" points="230.354 112.912 233.723 112.912 233.723 109.543 230.354 109.543"></polygon>
            <polygon id="Fill-450" fill="#41464B" points="237.092 112.912 240.461 112.912 240.461 109.543 237.092 109.543"></polygon>
            <polygon id="Fill-451" fill="#41464B" points="243.831 112.912 247.2 112.912 247.2 109.543 243.831 109.543"></polygon>
            <polygon id="Fill-452" fill="#41464B" points="250.569 112.912 253.938 112.912 253.938 109.543 250.569 109.543"></polygon>
            <polygon id="Fill-453" fill="#41464B" points="257.307 112.912 260.677 112.912 260.677 109.543 257.307 109.543"></polygon>
            <polygon id="Fill-454" fill="#41464B" points="264.046 112.912 267.416 112.912 267.416 109.543 264.046 109.543"></polygon>
            <polygon id="Fill-455" fill="#41464B" points="270.785 112.912 274.154 112.912 274.154 109.543 270.785 109.543"></polygon>
            <polygon id="Fill-456" fill="#FF7443" points="223.615 106.174 233.723 106.174 233.723 99.109 223.615 99.109"></polygon>
            <polygon id="Fill-457" fill="#FF7443" points="237.092 106.174 247.2 106.174 247.2 82.094 237.092 82.094"></polygon>
            <polygon id="Fill-458" fill="#FF7443" points="250.569 106.174 260.677 106.174 260.677 90.977 250.569 90.977"></polygon>
            <polygon id="Fill-459" fill="#FF7443" points="264.046 106.174 274.154 106.174 274.154 66.183 264.046 66.183"></polygon>
            <path d="M331.922,201.003 C325.989,201.003 321.162,205.829 321.162,211.762 C321.162,217.704 325.989,222.539 331.922,222.539 C337.86,222.539 342.69,217.704 342.69,211.762 C342.69,205.829 337.86,201.003 331.922,201.003 L331.922,201.003 Z M331.922,226.039 C324.059,226.039 317.662,219.634 317.662,211.762 C317.662,203.899 324.059,197.503 331.922,197.503 C339.79,197.503 346.19,203.899 346.19,211.762 C346.19,219.634 339.79,226.039 331.922,226.039 L331.922,226.039 Z" id="Fill-460" fill="#41464B"></path>
            <polygon id="Fill-461" fill="#41464B" points="330.176 199.253 333.676 199.253 333.676 193.478 330.176 193.478"></polygon>
            <polygon id="Fill-462" fill="#41464B" points="330.176 230.065 333.676 230.065 333.676 224.289 330.176 224.289"></polygon>
            <polygon id="Fill-463" fill="#41464B" points="313.632 213.522 319.408 213.522 319.408 210.022 313.632 210.022"></polygon>
            <polygon id="Fill-464" fill="#41464B" points="344.444 213.522 350.22 213.522 350.22 210.022 344.444 210.022"></polygon>
            <path d="M338.665,211.767 C338.665,215.488 335.647,218.512 331.923,218.512 C328.203,218.512 325.187,215.488 325.187,211.767 C325.187,208.047 328.203,205.029 331.923,205.029 C335.647,205.029 338.665,208.047 338.665,211.767" id="Fill-465" fill="#FF7443"></path>
            <path d="M280.137,52.957 L282.217,52.957 L283.918,48.497 L284.787,48.268 C286.031,47.938 287.233,47.439 288.36,46.783 L289.134,46.333 L293.501,48.278 L294.967,46.811 L293.021,42.446 L293.473,41.671 C294.125,40.553 294.625,39.351 294.957,38.097 L295.186,37.23 L299.644,35.53 L299.644,33.448 L295.187,31.748 L294.957,30.882 C294.625,29.637 294.125,28.432 293.471,27.303 L293.022,26.528 L294.968,22.168 L293.502,20.701 L289.13,22.655 L288.353,22.198 C287.247,21.547 286.046,21.049 284.788,20.717 L283.919,20.487 L282.217,16.028 L280.137,16.028 L278.434,20.486 L277.567,20.716 C276.31,21.049 275.11,21.548 274.001,22.198 L273.224,22.655 L268.856,20.701 L267.388,22.168 L269.335,26.528 L268.886,27.303 C268.23,28.435 267.73,29.639 267.401,30.881 L267.171,31.748 L262.713,33.448 L262.713,35.53 L267.172,37.23 L267.402,38.099 C267.732,39.349 268.23,40.55 268.884,41.671 L269.336,42.446 L267.388,46.811 L268.857,48.278 L273.221,46.333 L273.996,46.783 C275.122,47.438 276.323,47.938 277.569,48.268 L278.435,48.497 L280.137,52.957 L280.137,52.957 Z M284.627,56.457 L277.727,56.457 L275.794,51.394 C274.847,51.09 273.924,50.706 273.036,50.247 L268.083,52.454 L263.21,47.584 L265.42,42.633 C264.961,41.745 264.578,40.821 264.274,39.871 L259.213,37.942 L259.213,31.036 L264.275,29.106 C264.579,28.161 264.962,27.237 265.421,26.347 L263.21,21.397 L268.084,16.522 L273.035,18.736 C273.917,18.277 274.841,17.894 275.794,17.589 L277.727,12.528 L284.627,12.528 L286.559,17.588 C287.514,17.894 288.439,18.277 289.322,18.735 L294.274,16.522 L299.144,21.397 L296.936,26.347 C297.395,27.236 297.778,28.159 298.083,29.106 L303.144,31.036 L303.144,37.942 L298.083,39.871 C297.779,40.822 297.395,41.746 296.937,42.633 L299.144,47.584 L294.275,52.454 L289.32,50.247 C288.43,50.707 287.506,51.091 286.559,51.395 L284.627,56.457 L284.627,56.457 Z" id="Fill-466" fill="#454545"></path>
            <path d="M281.178,43.219 C276.357,43.219 272.451,39.311 272.451,34.49 C272.451,29.674 276.357,25.76 281.178,25.76 C285.996,25.76 289.906,29.674 289.906,34.49 C289.906,39.311 285.996,43.219 281.178,43.219" id="Fill-467" fill="#AFAFAF"></path>
        </g>
    </g>
</svg>