<?xml version="1.0" encoding="UTF-8" standalone="no"?>
<svg width="864px" height="530px" viewBox="0 0 864 530" version="1.1" xmlns="http://www.w3.org/2000/svg" xmlns:xlink="http://www.w3.org/1999/xlink">
    <!-- Generator: Sketch 39 (31667) - http://www.bohemiancoding.com/sketch -->
    <title>web-design-development</title>
    <desc>Created with Sketch.</desc>
    <defs></defs>
    <g id="Page-1" stroke="none" stroke-width="1" fill="none" fill-rule="evenodd">
        <g id="Landscape" transform="translate(-80.000000, -119.000000)">
            <g id="web-design-development" transform="translate(80.000000, 119.000000)">
                <path d="M703.12,174.61 L822.919,174.61 L822.919,411.534 L679.172,411.534 L679.172,198.575 C679.172,185.349 689.91,174.61 703.12,174.61" id="Fill-25" fill="#FFFFFF"></path>
                <path d="M822.91,174.615 C836.15,174.615 846.858,185.349 846.858,198.573 L727.076,198.573 C727.076,185.349 716.362,174.615 703.12,174.615 L822.91,174.615" id="Fill-26" fill="#232E38"></path>
                <polygon id="Fill-27" fill="#CCCBCA" points="729.801 326.825 802.571 326.825 802.571 323.865 729.801 323.865"></polygon>
                <polygon id="Fill-28" fill="#CCCBCA" points="699.517 326.825 724.122 326.825 724.122 323.865 699.517 323.865"></polygon>
                <polygon id="Fill-29" fill="#CCCBCA" points="699.517 334.216 802.571 334.216 802.571 331.259 699.517 331.259"></polygon>
                <polygon id="Fill-30" fill="#CCCBCA" points="699.517 341.606 751.045 341.606 751.045 338.646 699.517 338.646"></polygon>
                <polygon id="Fill-31" fill="#76D0DE" points="699.517 371.871 748.37 371.871 748.37 350.387 699.517 350.387"></polygon>
                <polygon id="Fill-32" fill="#CCCBCA" points="753.719 371.871 802.571 371.871 802.571 350.387 753.719 350.387"></polygon>
                <polygon id="Fill-33" fill="#232E38" points="699.517 383.559 802.571 383.559 802.571 380.605 699.517 380.605"></polygon>
                <polygon id="Fill-34" fill="#CCCBCA" points="699.517 390.951 802.571 390.951 802.571 387.994 699.517 387.994"></polygon>
                <polygon id="Fill-35" fill="#CCCBCA" points="699.517 398.34 751.049 398.34 751.049 395.387 699.517 395.387"></polygon>
                <polygon id="Fill-36" fill="#232E38" points="699.517 228.474 802.571 228.474 802.571 225.518 699.517 225.518"></polygon>
                <polygon id="Fill-37" fill="#F87B55" points="699.517 221.027 802.571 221.027 802.571 209.588 699.517 209.588"></polygon>
                <polyline id="Fill-38" fill="#CCCBCA" points="756.684 258.047 705.176 258.047 705.176 250.347 706.794 250.347 706.794 256.428 755.066 256.428 755.066 250.347 756.684 250.347 756.684 258.047"></polyline>
                <polygon id="Fill-39" fill="#CCCBCA" points="738.436 257.238 740.053 257.238 740.053 250.347 738.436 250.347"></polygon>
                <polygon id="Fill-40" fill="#CCCBCA" points="721.807 257.238 723.42 257.238 723.42 250.347 721.807 250.347"></polygon>
                <polygon id="Fill-41" fill="#CCCBCA" points="730.12 264.126 731.74 264.126 731.74 257.238 730.12 257.238"></polygon>
                <polyline id="Fill-42" fill="#CCCBCA" points="756.684 302.96 755.066 302.96 755.066 296.88 706.794 296.88 706.794 302.96 705.176 302.96 705.176 295.264 756.684 295.264 756.684 302.96"></polyline>
                <polygon id="Fill-43" fill="#CCCBCA" points="738.436 302.96 740.053 302.96 740.053 296.068 738.436 296.068"></polygon>
                <polygon id="Fill-44" fill="#CCCBCA" points="721.807 302.96 723.42 302.96 723.42 296.068 721.807 296.068"></polygon>
                <polygon id="Fill-45" fill="#CCCBCA" points="730.12 296.068 731.74 296.068 731.74 289.179 730.12 289.179"></polygon>
                <polyline id="Fill-46" fill="#CCCBCA" points="790.451 288.778 781.238 288.778 781.238 264.531 790.451 264.531 790.451 266.148 782.851 266.148 782.851 287.163 790.451 287.163 790.451 288.778"></polyline>
                <polygon id="Fill-47" fill="#CCCBCA" points="773.641 277.46 782.047 277.46 782.047 275.844 773.641 275.844"></polygon>
                <polygon id="Fill-48" fill="#CCCBCA" points="743.455 277.46 761.534 277.46 761.534 275.844 743.455 275.844"></polygon>
                <polygon id="Fill-49" fill="#76D0DE" points="761.521 288.778 774.451 288.778 774.451 264.531 761.521 264.531"></polygon>
                <path d="M791.26,292.818 L800.959,292.818 L800.959,283.122 L791.26,283.122 L791.26,292.818 Z M789.641,294.438 L802.571,294.438 L802.571,281.503 L789.641,281.503 L789.641,294.438 Z" id="Fill-50" fill="#232E38"></path>
                <path d="M791.26,270.188 L800.959,270.188 L800.959,260.489 L791.26,260.489 L791.26,270.188 Z M789.641,271.803 L802.571,271.803 L802.571,258.873 L789.641,258.873 L789.641,271.803 Z" id="Fill-51" fill="#232E38"></path>
                <path d="M751.025,313.468 L760.726,313.468 L760.726,303.769 L751.025,303.769 L751.025,313.468 Z M749.403,315.084 L762.342,315.084 L762.342,302.152 L749.403,302.152 L749.403,315.084 Z" id="Fill-52" fill="#232E38"></path>
                <path d="M734.391,313.468 L744.096,313.468 L744.096,303.769 L734.391,303.769 L734.391,313.468 Z M732.775,315.084 L745.707,315.084 L745.707,302.152 L732.775,302.152 L732.775,315.084 Z" id="Fill-53" fill="#232E38"></path>
                <path d="M717.761,313.468 L727.461,313.468 L727.461,303.769 L717.761,303.769 L717.761,313.468 Z M716.146,315.084 L729.082,315.084 L729.082,302.152 L716.146,302.152 L716.146,315.084 Z" id="Fill-54" fill="#232E38"></path>
                <path d="M701.131,313.468 L710.833,313.468 L710.833,303.769 L701.131,303.769 L701.131,313.468 Z M699.517,315.084 L712.452,315.084 L712.452,302.152 L699.517,302.152 L699.517,315.084 Z" id="Fill-55" fill="#232E38"></path>
                <path d="M751.025,249.539 L760.726,249.539 L760.726,239.839 L751.025,239.839 L751.025,249.539 Z M749.403,251.154 L762.342,251.154 L762.342,238.22 L749.403,238.22 L749.403,251.154 Z" id="Fill-56" fill="#232E38"></path>
                <path d="M734.391,249.539 L744.096,249.539 L744.096,239.839 L734.391,239.839 L734.391,249.539 Z M732.775,251.154 L745.707,251.154 L745.707,238.22 L732.775,238.22 L732.775,251.154 Z" id="Fill-57" fill="#232E38"></path>
                <path d="M717.761,249.539 L727.461,249.539 L727.461,239.839 L717.761,239.839 L717.761,249.539 Z M716.146,251.154 L729.082,251.154 L729.082,238.22 L716.146,238.22 L716.146,251.154 Z" id="Fill-58" fill="#232E38"></path>
                <path d="M701.131,249.539 L710.833,249.539 L710.833,239.839 L701.131,239.839 L701.131,249.539 Z M699.517,251.154 L712.452,251.154 L712.452,238.22 L699.517,238.22 L699.517,251.154 Z" id="Fill-59" fill="#232E38"></path>
                <path d="M730.932,289.987 C723.574,289.987 717.593,284.007 717.593,276.655 C717.593,269.304 723.574,263.319 730.932,263.319 C738.28,263.319 744.264,269.304 744.264,276.655 C744.264,284.007 738.28,289.987 730.932,289.987" id="Fill-60" fill="#F87B55"></path>
                <path d="M639.44,316.825 C634.12,316.825 629.802,312.512 629.802,307.189 C629.802,301.862 634.12,297.55 639.44,297.55 C644.768,297.55 649.08,301.862 649.08,307.189 C649.08,312.512 644.768,316.825 639.44,316.825 L639.44,316.825 Z M639.44,263.993 C615.587,263.993 596.249,283.335 596.249,307.189 C596.249,331.042 615.587,350.382 639.44,350.382 C663.299,350.382 682.637,331.042 682.637,307.189 C682.637,283.335 663.299,263.993 639.44,263.993 L639.44,263.993 Z" id="Fill-61" fill="#353F49"></path>
                <polygon id="Fill-62" fill="#353F49" points="633.685 264.501 645.197 264.501 645.197 255.289 633.685 255.289"></polygon>
                <polyline id="Fill-63" fill="#353F49" points="618.481 259.365 608.504 265.122 613.111 273.103 623.081 267.342 618.481 259.365"></polyline>
                <polyline id="Fill-64" fill="#353F49" points="597.374 276.25 591.619 286.228 599.599 290.834 605.353 280.859 597.374 276.25"></polyline>
                <polygon id="Fill-65" fill="#353F49" points="587.545 312.942 596.758 312.942 596.758 301.432 587.545 301.432"></polygon>
                <polyline id="Fill-66" fill="#353F49" points="591.619 328.149 597.377 338.128 605.353 333.518 599.599 323.541 591.619 328.149"></polyline>
                <polyline id="Fill-67" fill="#353F49" points="608.505 349.252 618.481 355.007 623.084 347.036 613.115 341.273 608.505 349.252"></polyline>
                <polyline id="Fill-68" fill="#353F49" points="633.685 359.08 645.197 359.088 645.197 349.87 633.685 349.87 633.685 359.08"></polyline>
                <polyline id="Fill-69" fill="#353F49" points="660.401 355.007 670.381 349.252 665.771 341.272 655.799 347.032 660.401 355.007"></polyline>
                <polyline id="Fill-70" fill="#353F49" points="681.507 338.128 687.267 328.149 679.289 323.541 673.528 333.518 681.507 338.128"></polyline>
                <polyline id="Fill-71" fill="#353F49" points="691.341 312.942 691.343 301.432 682.13 301.429 682.128 312.942 691.341 312.942"></polyline>
                <polyline id="Fill-72" fill="#353F49" points="687.263 286.228 681.507 276.25 673.528 280.856 679.287 290.834 687.263 286.228"></polyline>
                <polyline id="Fill-73" fill="#353F49" points="670.381 265.122 660.401 259.365 655.799 267.338 665.771 273.103 670.381 265.122"></polyline>
                <path d="M639.44,316.825 C634.12,316.825 629.802,312.512 629.802,307.189 C629.802,301.862 634.12,297.55 639.44,297.55 C644.768,297.55 649.08,301.862 649.08,307.189 C649.08,312.512 644.768,316.825 639.44,316.825 L639.44,316.825 Z M639.44,285.742 C627.599,285.742 618.001,295.343 618.001,307.189 C618.001,319.031 627.599,328.633 639.44,328.633 C651.283,328.633 660.883,319.031 660.883,307.189 C660.883,295.343 651.283,285.742 639.44,285.742 L639.44,285.742 Z" id="Fill-74" fill="#F87B55"></path>
                <path d="M797.117,66.669 C797.117,90.952 777.441,110.624 753.161,110.624 C728.885,110.624 709.216,90.952 709.216,66.669 C709.216,42.401 728.885,22.717 753.161,22.717 C777.441,22.717 797.117,42.401 797.117,66.669" id="Fill-75" fill="#FFDB79"></path>
                <path d="M753.165,101.302 C743.411,101.302 734.051,97.123 727.48,89.847 C726.791,89.078 726.848,87.903 727.617,87.212 C728.378,86.523 729.558,86.58 730.246,87.347 C736.114,93.847 744.47,97.576 753.165,97.576 C770.203,97.576 784.069,83.713 784.069,66.669 C784.069,65.644 784.903,64.804 785.93,64.804 C786.962,64.804 787.795,65.644 787.795,66.669 C787.795,85.767 772.258,101.302 753.165,101.302" id="Fill-76" fill="#FDCA5C"></path>
                <path d="M720.398,68.533 C719.372,68.533 718.534,67.702 718.534,66.669 C718.534,47.578 734.068,32.039 753.161,32.039 C754.192,32.039 755.026,32.873 755.026,33.904 C755.026,34.933 754.192,35.771 753.161,35.771 C736.123,35.771 722.265,49.63 722.265,66.669 C722.265,67.702 721.427,68.533 720.398,68.533" id="Fill-77" fill="#FFF9A9"></path>
                <polygon id="Fill-78" fill="#FDCA5C" points="733.389 116.79 772.93 116.79 772.93 105.796 733.389 105.796"></polygon>
                <polygon id="Fill-79" fill="#474F59" points="731.197 144.215 775.129 144.215 775.129 116.79 731.197 116.79"></polygon>
                <polygon id="Fill-80" fill="#232E38" points="728.92 122.884 777.401 122.884 777.401 119.839 728.92 119.839"></polygon>
                <polygon id="Fill-81" fill="#232E38" points="728.92 128.977 777.401 128.977 777.401 125.93 728.92 125.93"></polygon>
                <polygon id="Fill-82" fill="#232E38" points="728.92 135.071 777.401 135.071 777.401 132.024 728.92 132.024"></polygon>
                <polygon id="Fill-83" fill="#232E38" points="728.92 141.165 777.401 141.165 777.401 138.116 728.92 138.116"></polygon>
                <polygon id="Fill-84" fill="#FFFFFF" points="739.183 151.67 767.147 151.67 767.147 144.215 739.183 144.215"></polygon>
                <polygon id="Fill-85" fill="#FFFFFF" points="745.743 116.79 747.611 116.79 747.611 70.178 745.743 70.178"></polygon>
                <polygon id="Fill-86" fill="#FFFFFF" points="758.725 116.79 760.587 116.79 760.587 70.178 758.725 70.178"></polygon>
                <polygon id="Fill-87" fill="#FFFFFF" points="737.318 70.178 769.011 70.178 769.011 68.311 737.318 68.311"></polygon>
                <polygon id="Fill-88" fill="#474F59" points="0.975 528.06 253.202 528.06 253.202 364.114 0.975 364.114"></polygon>
                <path d="M202.752,448.931 L51.422,448.931 C37.186,448.931 23.802,443.389 13.733,433.322 C7.878,427.463 3.567,420.476 0.975,412.858 L0.975,364.114 L253.202,364.114 L253.202,412.852 C250.608,420.474 246.294,427.46 240.432,433.322 C230.374,443.386 216.993,448.931 202.752,448.931" id="Fill-89" fill="#3C434B"></path>
                <path d="M253.202,338.891 L0.975,338.891 L0.975,395.64 C0.975,408.548 5.901,421.461 15.743,431.312 C25.601,441.165 38.504,446.087 51.422,446.087 L202.752,446.087 C215.665,446.087 228.574,441.165 238.421,431.312 C248.273,421.461 253.202,408.548 253.202,395.64 L253.202,338.891" id="Fill-90" fill="#474F59"></path>
                <polygon id="Fill-91" fill="#232E38" points="27.46 338.891 95.561 338.891 95.561 336.995 27.46 336.995"></polygon>
                <polygon id="Fill-92" fill="#232E38" points="158.616 338.891 226.715 338.891 226.715 336.995 158.616 336.995"></polygon>
                <polygon id="Fill-93" fill="#232E38" points="51.422 529.948 71.595 529.948 71.595 335.104 51.422 335.104"></polygon>
                <polygon id="Fill-94" fill="#232E38" points="182.577 529.948 202.752 529.948 202.752 335.104 182.577 335.104"></polygon>
                <polygon id="Fill-95" fill="#474F59" points="39.437 400.052 83.573 400.052 83.573 384.923 39.437 384.923"></polygon>
                <polygon id="Fill-96" fill="#474F59" points="170.591 400.052 214.73 400.052 214.73 384.923 170.591 384.923"></polygon>
                <path d="M73.472,435.382 C72.039,433.944 70.142,433.16 68.115,433.16 L54.898,433.16 C52.875,433.16 50.97,433.944 49.54,435.382 C48.106,436.813 47.319,438.716 47.319,440.743 L47.319,459.011 L51.422,459.011 L51.422,455.862 L50.477,455.862 L50.477,440.743 C50.477,439.551 50.93,438.446 51.771,437.61 C52.606,436.771 53.718,436.307 54.898,436.307 L68.115,436.307 C69.298,436.307 70.41,436.771 71.251,437.61 C72.079,438.446 72.545,439.551 72.545,440.743 L72.545,455.862 L71.595,455.862 L71.595,459.011 L75.691,459.011 L75.691,440.743 C75.691,438.716 74.907,436.813 73.472,435.382" id="Fill-97" fill="#FFFFFF"></path>
                <path d="M59.929,443.506 L63.081,443.506 L63.081,434.733 C63.081,434.417 62.96,434.09 62.711,433.845 C62.465,433.593 62.149,433.477 61.828,433.477 L61.189,433.477 C60.876,433.477 60.547,433.593 60.293,433.845 C60.053,434.09 59.929,434.417 59.929,434.733 L59.929,443.506" id="Fill-98" fill="#CCCBCA"></path>
                <path d="M204.633,435.382 C203.194,433.944 201.296,433.16 199.27,433.16 L186.062,433.16 C184.032,433.16 182.126,433.944 180.696,435.382 C179.261,436.813 178.476,438.716 178.476,440.743 L178.476,459.011 L182.577,459.011 L182.577,455.862 L181.631,455.862 L181.631,440.743 C181.631,439.551 182.09,438.446 182.932,437.61 C183.763,436.771 184.876,436.307 186.062,436.307 L199.27,436.307 C200.454,436.307 201.567,436.771 202.405,437.61 C203.242,438.446 203.707,439.551 203.707,440.743 L203.707,455.862 L202.752,455.862 L202.752,459.011 L206.848,459.011 L206.848,440.743 C206.848,438.716 206.063,436.813 204.633,435.382" id="Fill-99" fill="#FFFFFF"></path>
                <path d="M191.083,443.506 L194.24,443.506 L194.24,434.733 C194.24,434.417 194.117,434.09 193.873,433.845 C193.626,433.593 193.305,433.477 192.98,433.477 L192.352,433.477 C192.03,433.477 191.7,433.593 191.457,433.845 C191.213,434.09 191.083,434.417 191.083,434.733 L191.083,443.506" id="Fill-100" fill="#CCCBCA"></path>
                <path d="M164.296,325.336 C163.16,325.336 162.034,324.904 161.171,324.041 C160.31,323.179 159.877,322.047 159.877,320.917 L159.877,320.292 C159.877,319.781 159.686,319.306 159.323,318.953 C158.969,318.593 158.487,318.392 157.985,318.392 L96.189,318.392 C95.68,318.392 95.212,318.593 94.851,318.951 C94.489,319.306 94.295,319.781 94.295,320.292 L94.295,320.917 C94.295,322.047 93.863,323.179 93,324.041 C92.144,324.904 91.014,325.336 89.883,325.336 C88.752,325.336 87.624,324.904 86.768,324.041 C85.904,323.179 85.473,322.047 85.473,320.917 L85.473,320.292 C85.473,317.427 86.581,314.73 88.608,312.71 C90.63,310.687 93.322,309.569 96.189,309.569 L157.985,309.569 C160.844,309.569 163.542,310.687 165.563,312.71 C167.583,314.73 168.706,317.427 168.706,320.292 L168.706,320.917 C168.706,322.047 168.268,323.179 167.405,324.041 C166.549,324.904 165.42,325.336 164.296,325.336" id="Fill-101" fill="#232E38"></path>
                <path d="M90.993,321.378 C90.691,321.069 90.291,320.917 89.883,320.917 C89.472,320.917 89.072,321.069 88.765,321.378 C88.463,321.686 88.307,322.089 88.307,322.494 L88.307,336.995 L91.458,336.995 L91.458,322.494 C91.458,322.089 91.3,321.686 90.993,321.378" id="Fill-102" fill="#FFFFFF"></path>
                <path d="M165.403,321.378 C165.092,321.069 164.692,320.917 164.296,320.917 C163.891,320.917 163.482,321.069 163.165,321.378 C162.863,321.686 162.713,322.089 162.713,322.494 L162.713,336.995 L165.864,336.995 L165.864,322.494 C165.864,322.089 165.714,321.686 165.403,321.378" id="Fill-103" fill="#FFFFFF"></path>
                <path d="M574.357,469.171 C574.357,471.191 573.586,473.21 572.045,474.753 C570.503,476.293 568.484,477.064 566.464,477.064 L227.061,477.064 C225.04,477.064 223.02,476.293 221.479,474.753 C219.938,473.21 219.167,471.191 219.167,469.171 L219.167,445.491 L574.357,445.491 L574.357,469.171" id="Fill-104" fill="#FFFFFF"></path>
                <path d="M574.357,243.229 C574.357,241.21 573.586,239.189 572.045,237.648 C570.503,236.107 568.484,235.337 566.464,235.337 L227.061,235.337 C225.04,235.337 223.02,236.107 221.479,237.648 C219.938,239.189 219.167,241.21 219.167,243.229 L219.167,445.491 L574.357,445.491 L574.357,243.229" id="Fill-105" fill="#232E38"></path>
                <polygon id="Fill-106" fill="#FFFFFF" points="231.006 433.652 562.518 433.652 562.518 247.176 231.006 247.176"></polygon>
                <polyline id="Fill-107" fill="#F2F2F2" points="446.094 524.422 347.43 524.422 352.784 477.064 440.742 477.064 446.094 524.422"></polyline>
                <path d="M465.827,529.948 L327.697,529.948 L327.697,527.58 C327.697,526.772 328.006,525.964 328.622,525.347 C329.238,524.731 330.047,524.422 330.854,524.422 L462.669,524.422 C463.478,524.422 464.285,524.731 464.902,525.347 C465.519,525.964 465.827,526.772 465.827,527.58 L465.827,529.948" id="Fill-108" fill="#FFFFFF"></path>
                <polyline id="Fill-109" fill="#E6E5E5" points="446.094 524.422 440.742 477.064 352.784 477.064 398.674 524.422 446.094 524.422"></polyline>
                <path d="M525.243,195.882 C522.274,195.882 519.854,193.462 519.854,190.485 C519.854,187.508 522.274,185.097 525.243,185.097 C528.226,185.097 530.637,187.508 530.637,190.485 C530.637,193.462 528.226,195.882 525.243,195.882 L525.243,195.882 Z M503.941,433.652 L546.563,433.652 L546.563,174.615 L503.941,174.615 L503.941,433.652 Z" id="Fill-110" fill="#FFDB79"></path>
                <polygon id="Fill-111" fill="#232E38" points="538.328 207.645 546.563 207.645 546.563 206.355 538.328 206.355"></polygon>
                <polygon id="Fill-112" fill="#232E38" points="538.328 229.235 546.563 229.235 546.563 227.936 538.328 227.936"></polygon>
                <polygon id="Fill-113" fill="#232E38" points="538.328 250.823 546.563 250.823 546.563 249.53 538.328 249.53"></polygon>
                <polygon id="Fill-114" fill="#232E38" points="538.328 272.407 546.563 272.407 546.563 271.119 538.328 271.119"></polygon>
                <polygon id="Fill-115" fill="#232E38" points="538.328 293.998 546.563 293.998 546.563 292.693 538.328 292.693"></polygon>
                <polygon id="Fill-116" fill="#232E38" points="538.328 315.582 546.563 315.582 546.563 314.283 538.328 314.283"></polygon>
                <polygon id="Fill-117" fill="#232E38" points="538.328 337.16 546.563 337.16 546.563 335.86 538.328 335.86"></polygon>
                <polygon id="Fill-118" fill="#232E38" points="538.328 358.739 546.563 358.739 546.563 357.458 538.328 357.458"></polygon>
                <polygon id="Fill-119" fill="#232E38" points="538.328 380.34 546.563 380.34 546.563 379.036 538.328 379.036"></polygon>
                <polygon id="Fill-120" fill="#232E38" points="538.328 401.914 546.563 401.914 546.563 400.619 538.328 400.619"></polygon>
                <polygon id="Fill-121" fill="#232E38" points="538.328 423.512 546.563 423.512 546.563 422.216 538.328 422.216"></polygon>
                <polygon id="Fill-122" fill="#232E38" points="538.328 412.603 546.563 412.603 546.563 411.534 538.328 411.534"></polygon>
                <polygon id="Fill-123" fill="#232E38" points="538.328 391.018 546.563 391.018 546.563 389.954 538.328 389.954"></polygon>
                <polygon id="Fill-124" fill="#232E38" points="538.328 369.435 546.563 369.435 546.563 368.358 538.328 368.358"></polygon>
                <polygon id="Fill-125" fill="#232E38" points="538.328 347.854 546.563 347.854 546.563 346.778 538.328 346.778"></polygon>
                <polygon id="Fill-126" fill="#232E38" points="538.328 326.261 546.563 326.261 546.563 325.184 538.328 325.184"></polygon>
                <polygon id="Fill-127" fill="#232E38" points="538.328 304.673 546.563 304.673 546.563 303.597 538.328 303.597"></polygon>
                <polygon id="Fill-128" fill="#232E38" points="538.328 283.099 546.563 283.099 546.563 282.015 538.328 282.015"></polygon>
                <polygon id="Fill-129" fill="#232E38" points="538.328 261.507 546.563 261.507 546.563 260.431 538.328 260.431"></polygon>
                <polygon id="Fill-130" fill="#232E38" points="538.328 239.92 546.563 239.92 546.563 238.847 538.328 238.847"></polygon>
                <polygon id="Fill-131" fill="#232E38" points="538.328 218.338 546.563 218.338 546.563 217.256 538.328 217.256"></polygon>
                <polygon id="Fill-132" fill="#E6E5E5" points="458.601 247.176 474.086 247.176 474.086 235.337 458.601 235.337"></polygon>
                <polygon id="Fill-133" fill="#F87B55" points="458.601 433.652 474.086 433.652 474.086 293.071 458.601 293.071"></polygon>
                <polygon id="Fill-134" fill="#EE643C" points="466.343 433.652 474.086 433.652 474.086 293.071 466.343 293.071"></polygon>
                <path d="M488.01,221.413 L488.01,221.413 L466.343,174.615 L444.68,221.413 L444.674,221.413 L444.688,221.413 C452.36,221.417 458.578,227.63 458.601,235.298 L458.601,235.337 L474.086,235.337 L474.086,235.298 C474.108,227.63 480.325,221.417 487.994,221.413 L488.01,221.413" id="Fill-135" fill="#FFFFFF"></path>
                <polyline id="Fill-136" fill="#232E38" points="467.209 203.909 465.472 203.905 465.472 174.615 467.209 174.615 467.209 203.909"></polyline>
                <path d="M475.671,247.176 C475.853,247.176 476.037,247.245 476.176,247.385 C476.312,247.525 476.384,247.709 476.384,247.892 L476.384,292.357 C476.384,292.54 476.312,292.723 476.176,292.867 C476.037,293.004 475.853,293.071 475.671,293.071 L457.012,293.071 C456.832,293.071 456.646,293.004 456.509,292.867 C456.367,292.723 456.3,292.54 456.3,292.357 L456.3,247.892 C456.3,247.709 456.367,247.525 456.509,247.385 C456.646,247.245 456.832,247.176 457.012,247.176 L475.671,247.176" id="Fill-137" fill="#474F59"></path>
                <polygon id="Fill-138" fill="#232E38" points="456.3 292.357 476.384 292.357 476.384 247.892 456.3 247.892"></polygon>
                <polygon id="Fill-139" fill="#474F59" points="475.194 292.357 475.785 292.357 475.785 247.892 475.194 247.892"></polygon>
                <polygon id="Fill-140" fill="#474F59" points="473.783 292.357 474.378 292.357 474.378 247.892 473.783 247.892"></polygon>
                <polygon id="Fill-141" fill="#474F59" points="472.378 292.357 472.971 292.357 472.971 247.892 472.378 247.892"></polygon>
                <polygon id="Fill-142" fill="#474F59" points="470.97 292.357 471.56 292.357 471.56 247.892 470.97 247.892"></polygon>
                <polygon id="Fill-143" fill="#474F59" points="469.565 292.357 470.153 292.357 470.153 247.892 469.565 247.892"></polygon>
                <polygon id="Fill-144" fill="#474F59" points="468.156 292.357 468.748 292.357 468.748 247.892 468.156 247.892"></polygon>
                <polygon id="Fill-145" fill="#474F59" points="466.75 292.357 467.341 292.357 467.341 247.892 466.75 247.892"></polygon>
                <polygon id="Fill-146" fill="#474F59" points="465.344 292.357 465.934 292.357 465.934 247.892 465.344 247.892"></polygon>
                <polygon id="Fill-147" fill="#474F59" points="463.936 292.357 464.525 292.357 464.525 247.892 463.936 247.892"></polygon>
                <polygon id="Fill-148" fill="#474F59" points="462.527 292.357 463.121 292.357 463.121 247.892 462.527 247.892"></polygon>
                <polygon id="Fill-149" fill="#474F59" points="461.121 292.357 461.712 292.357 461.712 247.892 461.121 247.892"></polygon>
                <polygon id="Fill-150" fill="#474F59" points="459.713 292.357 460.305 292.357 460.305 247.892 459.713 247.892"></polygon>
                <polygon id="Fill-151" fill="#474F59" points="458.307 292.357 458.896 292.357 458.896 247.892 458.307 247.892"></polygon>
                <polygon id="Fill-152" fill="#474F59" points="456.9 292.357 457.491 292.357 457.491 247.892 456.9 247.892"></polygon>
                <polygon id="Fill-153" fill="#E6E5E5" points="246.962 433.652 428.741 433.652 428.741 192.794 246.962 192.794"></polygon>
                <polygon id="Fill-154" fill="#FFFFFF" points="255.926 433.652 419.782 433.652 419.782 204.155 255.926 204.155"></polygon>
                <polygon id="Fill-155" fill="#92DEEC" points="246.962 183.705 428.741 183.705 428.741 174.615 246.962 174.615"></polygon>
                <polygon id="Fill-156" fill="#E6E5E5" points="246.962 192.794 428.741 192.794 428.741 183.705 246.962 183.705"></polygon>
                <polygon id="Fill-157" fill="#FFFFFF" points="262.717 190.065 412.991 190.065 412.991 186.432 262.717 186.432"></polygon>
                <polygon id="Fill-158" fill="#F87B55" points="246.962 183.705 262.717 183.705 262.717 179.16 246.962 179.16"></polygon>
                <polygon id="Fill-159" fill="#E6E5E5" points="262.717 183.705 300.286 183.705 300.286 179.16 262.717 179.16"></polygon>
                <polygon id="Fill-160" fill="#CCCBCA" points="300.286 183.705 337.854 183.705 337.854 179.16 300.286 179.16"></polygon>
                <polygon id="Fill-161" fill="#CCCBCA" points="255.926 190.065 259.559 190.065 259.559 186.432 255.926 186.432"></polygon>
                <polygon id="Fill-162" fill="#CCCBCA" points="250.119 190.065 253.753 190.065 253.753 186.432 250.119 186.432"></polygon>
                <polygon id="Fill-163" fill="#CCCBCA" points="421.954 190.065 425.587 190.065 425.587 186.432 421.954 186.432"></polygon>
                <polygon id="Fill-164" fill="#CCCBCA" points="416.145 190.065 419.782 190.065 419.782 186.432 416.145 186.432"></polygon>
                <polygon id="Fill-165" fill="#FDCA5C" points="255.924 322.009 419.78 322.009 419.78 259.144 255.924 259.144"></polygon>
                <polyline id="Fill-166" fill="#FFFFFF" points="264.004 290.577 268.257 294.828 268.257 286.323 264.004 290.577"></polyline>
                <polyline id="Fill-167" fill="#FFFFFF" points="411.7 290.577 407.447 294.828 407.447 286.323 411.7 290.577"></polyline>
                <polygon id="Fill-168" fill="#474F59" points="322.977 275.782 366.256 275.782 366.256 271.581 322.977 271.581"></polygon>
                <polygon id="Fill-169" fill="#FFFFFF" points="322.977 279.951 395.346 279.951 395.346 278.786 322.977 278.786"></polygon>
                <polygon id="Fill-170" fill="#FFFFFF" points="322.977 284.235 395.346 284.235 395.346 283.071 322.977 283.071"></polygon>
                <polygon id="Fill-171" fill="#FFFFFF" points="323.062 288.522 395.346 288.522 395.346 287.357 323.062 287.357"></polygon>
                <polygon id="Fill-172" fill="#FFFFFF" points="323.062 292.813 382.904 292.813 382.904 291.646 323.062 291.646"></polygon>
                <polygon id="Fill-173" fill="#FFFFFF" points="280.184 309.569 318.171 309.569 318.171 271.581 280.184 271.581"></polygon>
                <polygon id="Fill-174" fill="#CCCBCA" points="316.896 417.948 358.807 417.948 358.807 391.756 316.896 391.756"></polygon>
                <polygon id="Fill-175" fill="#474F59" points="316.896 422.753 358.807 422.753 358.807 417.948 316.896 417.948"></polygon>
                <polyline id="Fill-176" fill="#FFFFFF" points="335.011 401.571 340.693 404.853 335.011 408.132 335.011 401.571"></polyline>
                <polygon id="Fill-177" fill="#CCCBCA" points="369.79 394.462 390.744 394.462 390.744 391.756 369.79 391.756"></polygon>
                <polygon id="Fill-178" fill="#CCCBCA" points="369.79 398.03 411.7 398.03 411.7 396.866 369.79 396.866"></polygon>
                <polygon id="Fill-179" fill="#CCCBCA" points="369.79 401.601 411.7 401.601 411.7 400.435 369.79 400.435"></polygon>
                <polygon id="Fill-180" fill="#CCCBCA" points="369.79 405.171 411.7 405.171 411.7 404.005 369.79 404.005"></polygon>
                <polygon id="Fill-181" fill="#CCCBCA" points="369.79 408.739 411.7 408.739 411.7 407.575 369.79 407.575"></polygon>
                <polygon id="Fill-182" fill="#CCCBCA" points="380.266 412.31 401.221 412.31 401.221 411.144 380.266 411.144"></polygon>
                <polygon id="Fill-183" fill="#474F59" points="369.79 422.753 401.296 422.753 401.296 417.948 369.79 417.948"></polygon>
                <polygon id="Fill-184" fill="#FDCA5C" points="401.296 422.753 411.7 422.753 411.7 417.948 401.296 417.948"></polygon>
                <polygon id="Fill-185" fill="#CCCBCA" points="264.004 412.044 305.914 412.044 305.914 410.88 264.004 410.88"></polygon>
                <polygon id="Fill-186" fill="#CCCBCA" points="264.004 415.614 305.914 415.614 305.914 414.45 264.004 414.45"></polygon>
                <polygon id="Fill-187" fill="#CCCBCA" points="264.004 419.187 305.914 419.187 305.914 418.019 264.004 418.019"></polygon>
                <polygon id="Fill-188" fill="#CCCBCA" points="264.004 422.753 290.631 422.753 290.631 421.588 264.004 421.588"></polygon>
                <polygon id="Fill-189" fill="#CCCBCA" points="284.717 394.462 305.914 394.462 305.914 391.756 284.717 391.756"></polygon>
                <polygon id="Fill-190" fill="#CCCBCA" points="284.717 398.03 305.914 398.03 305.914 396.866 284.717 396.866"></polygon>
                <polygon id="Fill-191" fill="#CCCBCA" points="284.717 401.603 297.561 401.603 297.561 400.435 284.717 400.435"></polygon>
                <polygon id="Fill-192" fill="#F87B55" points="264.004 407.428 280.549 407.428 280.549 391.756 264.004 391.756"></polygon>
                <polygon id="Fill-193" fill="#F87B55" points="293.272 242.954 303.545 242.954 303.545 232.679 293.272 232.679"></polygon>
                <polygon id="Fill-194" fill="#474F59" points="289.987 246.653 306.828 246.653 306.828 246.061 289.987 246.061"></polygon>
                <polygon id="Fill-195" fill="#474F59" points="289.987 248.608 306.828 248.608 306.828 248.016 289.987 248.016"></polygon>
                <polygon id="Fill-196" fill="#474F59" points="294.088 250.562 302.731 250.562 302.731 249.97 294.088 249.97"></polygon>
                <polygon id="Fill-197" fill="#F87B55" points="319.569 242.954 329.842 242.954 329.842 232.679 319.569 232.679"></polygon>
                <polygon id="Fill-198" fill="#474F59" points="316.285 246.653 333.124 246.653 333.124 246.061 316.285 246.061"></polygon>
                <polygon id="Fill-199" fill="#474F59" points="316.285 248.608 333.124 248.608 333.124 248.016 316.285 248.016"></polygon>
                <polygon id="Fill-200" fill="#474F59" points="320.384 250.562 329.026 250.562 329.026 249.97 320.384 249.97"></polygon>
                <polygon id="Fill-201" fill="#F87B55" points="345.865 242.954 356.138 242.954 356.138 232.679 345.865 232.679"></polygon>
                <polygon id="Fill-202" fill="#474F59" points="342.581 246.653 359.42 246.653 359.42 246.061 342.581 246.061"></polygon>
                <polygon id="Fill-203" fill="#474F59" points="342.581 248.608 359.42 248.608 359.42 248.016 342.581 248.016"></polygon>
                <polygon id="Fill-204" fill="#474F59" points="346.68 250.562 355.323 250.562 355.323 249.97 346.68 249.97"></polygon>
                <polygon id="Fill-205" fill="#F87B55" points="372.161 242.954 382.434 242.954 382.434 232.679 372.161 232.679"></polygon>
                <polygon id="Fill-206" fill="#474F59" points="368.876 246.653 385.717 246.653 385.717 246.061 368.876 246.061"></polygon>
                <polygon id="Fill-207" fill="#474F59" points="368.876 248.608 385.717 248.608 385.717 248.016 368.876 248.016"></polygon>
                <polygon id="Fill-208" fill="#474F59" points="372.976 250.562 381.618 250.562 381.618 249.97 372.976 249.97"></polygon>
                <polygon id="Fill-209" fill="#474F59" points="264.004 368.608 305.914 368.608 305.914 365.137 264.004 365.137"></polygon>
                <polygon id="Fill-210" fill="#CCCBCA" points="264.004 373.209 305.914 373.209 305.914 372.049 264.004 372.049"></polygon>
                <polygon id="Fill-211" fill="#CCCBCA" points="264.004 377.033 305.914 377.033 305.914 375.872 264.004 375.872"></polygon>
                <polygon id="Fill-212" fill="#CCCBCA" points="275.589 380.857 294.328 380.857 294.328 379.697 275.589 379.697"></polygon>
                <polygon id="Fill-213" fill="#FDCA5C" points="264.004 358.482 305.914 358.482 305.914 332.907 264.004 332.907"></polygon>
                <polygon id="Fill-214" fill="#474F59" points="316.896 368.608 358.807 368.608 358.807 365.137 316.896 365.137"></polygon>
                <polygon id="Fill-215" fill="#CCCBCA" points="316.896 373.209 358.807 373.209 358.807 372.049 316.896 372.049"></polygon>
                <polygon id="Fill-216" fill="#CCCBCA" points="316.896 377.033 358.807 377.033 358.807 375.872 316.896 375.872"></polygon>
                <polygon id="Fill-217" fill="#CCCBCA" points="328.483 380.857 347.221 380.857 347.221 379.697 328.483 379.697"></polygon>
                <polygon id="Fill-218" fill="#FDCA5C" points="316.896 358.482 358.807 358.482 358.807 332.907 316.896 332.907"></polygon>
                <polygon id="Fill-219" fill="#474F59" points="369.79 368.608 411.7 368.608 411.7 365.137 369.79 365.137"></polygon>
                <polygon id="Fill-220" fill="#CCCBCA" points="369.79 373.209 411.7 373.209 411.7 372.049 369.79 372.049"></polygon>
                <polygon id="Fill-221" fill="#CCCBCA" points="369.79 377.033 411.7 377.033 411.7 375.872 369.79 375.872"></polygon>
                <polygon id="Fill-222" fill="#CCCBCA" points="381.375 380.857 400.113 380.857 400.113 379.697 381.375 379.697"></polygon>
                <polygon id="Fill-223" fill="#F87B55" points="369.79 358.482 411.7 358.482 411.7 332.907 369.79 332.907"></polygon>
                <polygon id="Fill-224" fill="#FDCA5C" points="264.004 224.098 393.876 224.098 393.876 212.736 264.004 212.736"></polygon>
                <polygon id="Fill-225" fill="#FFFFFF" points="349.188 221.068 390.846 221.068 390.846 215.766 349.188 215.766"></polygon>
                <polygon id="Fill-226" fill="#474F59" points="393.876 224.098 411.7 224.098 411.7 212.736 393.876 212.736"></polygon>
                <polygon id="Fill-227" fill="#FFFFFF" points="267.659 219.109 279.219 219.109 279.219 217.725 267.659 217.725"></polygon>
                <polygon id="Fill-228" fill="#FFFFFF" points="282.876 219.109 294.435 219.109 294.435 217.725 282.876 217.725"></polygon>
                <polygon id="Fill-229" fill="#FFFFFF" points="298.098 219.109 309.658 219.109 309.658 217.725 298.098 217.725"></polygon>
                <polygon id="Fill-230" fill="#FFFFFF" points="313.322 219.109 324.882 219.109 324.882 217.725 313.322 217.725"></polygon>
                <polygon id="Fill-231" fill="#F87B55" points="246.962 204.155 428.741 204.155 428.741 192.794 246.962 192.794"></polygon>
                <polygon id="Fill-232" fill="#FFFFFF" points="255.926 199.286 295.046 199.286 295.046 197.663 255.926 197.663"></polygon>
                <polygon id="Fill-233" fill="#FFFFFF" points="312.834 199.286 323.632 199.286 323.632 197.663 312.834 197.663"></polygon>
                <polygon id="Fill-234" fill="#FFFFFF" points="327.055 199.286 337.852 199.286 337.852 197.663 327.055 197.663"></polygon>
                <polygon id="Fill-235" fill="#FFFFFF" points="369.033 200.368 386.856 200.368 386.856 196.58 369.033 196.58"></polygon>
                <polygon id="Fill-236" fill="#FFFFFF" points="389.57 200.368 407.395 200.368 407.395 196.58 389.57 196.58"></polygon>
                <polygon id="Fill-237" fill="#474F59" points="410.108 200.368 419.782 200.368 419.782 196.58 410.108 196.58"></polygon>
                <path d="M760.166,394.61 C760.166,392.887 759.508,391.161 758.192,389.847 C756.874,388.53 755.15,387.871 753.428,387.871 L531.992,387.871 C530.267,387.871 528.544,388.53 527.228,389.847 C525.91,391.161 525.252,392.887 525.252,394.61 L525.252,518.714 L760.166,518.714 L760.166,394.61" id="Fill-238" fill="#232E38"></path>
                <path d="M645.346,393.044 C645.346,394.527 644.174,395.69 642.714,395.69 C641.239,395.69 640.072,394.527 640.072,393.044 C640.072,391.604 641.239,390.431 642.714,390.431 C644.174,390.431 645.346,391.604 645.346,393.044" id="Fill-239" fill="#353F49"></path>
                <path d="M643.792,393.065 C643.792,393.647 643.305,394.136 642.714,394.136 C642.12,394.136 641.626,393.647 641.626,393.065 C641.626,392.474 642.12,391.991 642.714,391.991 C643.305,391.991 643.792,392.474 643.792,393.065" id="Fill-240" fill="#FFFFFF"></path>
                <polygon id="Fill-241" fill="#474F59" points="535.627 518.714 749.789 518.714 749.789 398.249 535.627 398.249"></polygon>
                <polygon id="Fill-242" fill="#FFFFFF" points="491.709 522.459 793.709 522.459 793.709 518.714 491.709 518.714"></polygon>
                <path d="M491.713,522.46 C502.615,527.275 514.673,529.948 527.355,529.948 L758.063,529.948 C770.747,529.948 782.803,527.275 793.705,522.46 L491.713,522.46" id="Fill-243" fill="#CCCBCA"></path>
                <polygon id="Fill-244" fill="#CCCBCA" points="616.501 520.587 668.917 520.587 668.917 518.714 616.501 518.714"></polygon>
                <polygon id="Fill-245" fill="#F87B55" points="553.717 411.55 566.813 411.55 566.813 408.614 553.717 408.614"></polygon>
                <polygon id="Fill-246" fill="#92DEEC" points="553.717 431.791 566.813 431.791 566.813 428.865 553.717 428.865"></polygon>
                <polygon id="Fill-247" fill="#F87B55" points="570.19 411.55 631.841 411.55 631.841 408.614 570.19 408.614"></polygon>
                <polygon id="Fill-248" fill="#92DEEC" points="570.19 431.791 617.411 431.791 617.411 428.865 570.19 428.865"></polygon>
                <polygon id="Fill-249" fill="#FFFFFF" points="566.813 419.238 587.595 419.238 587.595 416.312 566.813 416.312"></polygon>
                <polygon id="Fill-250" fill="#FFFFFF" points="566.813 454.875 587.595 454.875 587.595 451.943 566.813 451.943"></polygon>
                <polygon id="Fill-251" fill="#FFFFFF" points="592.523 454.875 646.907 454.875 646.907 451.943 592.523 451.943"></polygon>
                <polygon id="Fill-252" fill="#F87B55" points="578.564 477.581 595.701 477.581 595.701 474.649 578.564 474.649"></polygon>
                <polygon id="Fill-253" fill="#92DEEC" points="604.854 508.349 634.973 508.349 634.973 505.429 604.854 505.429"></polygon>
                <polygon id="Fill-254" fill="#92DEEC" points="697.725 492.967 720.028 492.967 720.028 490.027 697.725 490.027"></polygon>
                <polygon id="Fill-255" fill="#92DEEC" points="653.061 454.875 692.176 454.875 692.176 451.943 653.061 451.943"></polygon>
                <polygon id="Fill-256" fill="#FFFFFF" points="700.13 454.875 724.076 454.875 724.076 451.943 700.13 451.943"></polygon>
                <polygon id="Fill-257" fill="#FFFFFF" points="566.813 439.494 597.854 439.494 597.854 436.561 566.813 436.561"></polygon>
                <polygon id="Fill-258" fill="#FFFFFF" points="566.813 447.187 610.829 447.187 610.829 444.25 566.813 444.25"></polygon>
                <polygon id="Fill-259" fill="#FFFFFF" points="578.564 485.273 629.02 485.273 629.02 482.342 578.564 482.342"></polygon>
                <polygon id="Fill-260" fill="#FFFFFF" points="578.564 492.967 624.928 492.967 624.928 490.027 578.564 490.027"></polygon>
                <polygon id="Fill-261" fill="#FFFFFF" points="639.932 492.967 688.004 492.967 688.004 490.027 639.932 490.027"></polygon>
                <polygon id="Fill-262" fill="#92DEEC" points="639.932 508.349 688.004 508.349 688.004 505.429 639.932 505.429"></polygon>
                <polygon id="Fill-263" fill="#F87B55" points="553.717 477.581 571.55 477.581 571.55 474.649 553.717 474.649"></polygon>
                <polygon id="Fill-264" fill="#FFFFFF" points="578.564 508.349 599.074 508.349 599.074 505.429 578.564 505.429"></polygon>
                <polygon id="Fill-265" fill="#92DEEC" points="589.06 500.653 620.543 500.653 620.543 497.734 589.06 497.734"></polygon>
                <polygon id="Fill-266" fill="#FFFFFF" points="625.113 500.653 706.71 500.653 706.71 497.734 625.113 497.734"></polygon>
                <polygon id="Fill-267" fill="#FFFFFF" points="615.533 447.187 659.557 447.187 659.557 444.25 615.533 444.25"></polygon>
                <polygon id="Fill-268" fill="#F87B55" points="705.982 447.187 731.699 447.187 731.699 444.25 705.982 444.25"></polygon>
                <polygon id="Fill-269" fill="#FFFFFF" points="662.588 447.187 690.095 447.187 690.095 444.25 662.588 444.25"></polygon>
                <polygon id="Fill-270" fill="#FFFFFF" points="608.002 439.494 655.68 439.494 655.68 436.561 608.002 436.561"></polygon>
                <polygon id="Fill-271" fill="#FFFFFF" points="600.58 419.238 619.715 419.238 619.715 416.312 600.58 416.312"></polygon>
                <polygon id="Fill-272" fill="#EE643C" points="530.482 162.612 620.936 162.612 620.936 142.137 530.482 142.137"></polygon>
                <polygon id="Fill-273" fill="#FFFFFF" points="533.279 159.815 618.138 159.815 618.138 144.935 533.279 144.935"></polygon>
                <polygon id="Fill-274" fill="#CCCBCA" points="537.325 153.599 562.253 153.599 562.253 151.151 537.325 151.151"></polygon>
                <polygon id="Fill-275" fill="#EE643C" points="620.936 162.612 641.411 162.612 641.411 142.137 620.936 142.137"></polygon>
                <path d="M629.851,154.218 C628.104,154.218 626.688,152.801 626.688,151.052 C626.688,149.306 628.104,147.889 629.851,147.889 C631.599,147.889 633.016,149.306 633.016,151.052 C633.016,152.801 631.599,154.218 629.851,154.218 L629.851,154.218 Z M636.065,156.072 L633.942,153.95 L633.733,153.862 L633.525,153.948 L633.432,154.044 L632.83,153.441 C633.354,152.787 633.669,151.958 633.669,151.052 C633.669,148.943 631.96,147.234 629.851,147.234 C627.743,147.234 626.034,148.943 626.034,151.052 C626.034,153.161 627.743,154.871 629.851,154.871 C630.755,154.871 631.586,154.556 632.238,154.03 L632.842,154.633 L632.748,154.727 L632.661,154.935 L632.748,155.144 L634.871,157.268 C635.024,157.419 635.234,157.514 635.468,157.514 C635.701,157.514 635.914,157.419 636.065,157.268 C636.218,157.113 636.313,156.904 636.313,156.669 C636.313,156.437 636.218,156.225 636.065,156.072 L636.065,156.072 Z" id="Fill-276" fill="#FFFFFF"></path>
                <polygon id="Fill-277" fill="#353F49" points="341.736 126.003 487.858 126.003 487.858 34.676 341.736 34.676"></polygon>
                <polygon id="Fill-278" fill="#FFFFFF" points="341.736 153.401 487.858 153.401 487.858 126.003 341.736 126.003"></polygon>
                <path d="M435.391,80.34 C435.391,91.713 426.17,100.933 414.797,100.933 C403.425,100.933 394.204,91.713 394.204,80.34 C394.204,68.966 403.425,59.746 414.797,59.746 C426.17,59.746 435.391,68.966 435.391,80.34 L435.391,80.34 Z" id="Stroke-279" stroke="#FFFFFF" stroke-width="1.37"></path>
                <polyline id="Fill-280" fill="#FFFFFF" points="410.841 73.486 422.714 80.339 410.841 87.193 410.841 73.486"></polyline>
                <path d="M452.504,139.7 C452.504,138.949 452.26,138.179 451.543,138.179 C450.826,138.179 450.586,138.949 450.586,139.7 C450.586,140.451 450.826,141.228 451.543,141.228 C452.26,141.228 452.504,140.451 452.504,139.7 L452.504,139.7 Z M450.105,139.7 C450.105,138.781 450.512,137.76 451.543,137.76 C452.57,137.76 452.982,138.781 452.982,139.7 C452.982,140.613 452.57,141.646 451.543,141.646 C450.512,141.646 450.105,140.613 450.105,139.7 L450.105,139.7 Z" id="Fill-281" fill="#CCCBCA"></path>
                <path d="M453.436,141.025 L453.711,140.734 C453.93,141.025 454.314,141.228 454.762,141.228 C455.309,141.228 455.639,140.953 455.639,140.525 C455.639,140.057 455.254,139.858 454.701,139.858 C454.547,139.858 454.371,139.858 454.314,139.863 L454.314,139.436 C454.377,139.441 454.553,139.441 454.701,139.441 C455.176,139.441 455.576,139.256 455.576,138.821 C455.576,138.403 455.193,138.179 454.736,138.179 C454.326,138.179 454.021,138.334 453.746,138.635 L453.486,138.342 C453.758,138.009 454.191,137.76 454.775,137.76 C455.498,137.76 456.045,138.127 456.045,138.758 C456.045,139.306 455.59,139.575 455.24,139.633 C455.576,139.667 456.107,139.954 456.107,140.563 C456.107,141.19 455.6,141.646 454.77,141.646 C454.133,141.646 453.666,141.363 453.436,141.025" id="Fill-282" fill="#CCCBCA"></path>
                <path d="M456.754,141.325 C456.754,141.155 456.893,141.015 457.064,141.015 C457.232,141.015 457.375,141.155 457.375,141.325 C457.375,141.493 457.232,141.635 457.064,141.635 C456.893,141.635 456.754,141.493 456.754,141.325 L456.754,141.325 Z M456.754,139.126 C456.754,138.956 456.893,138.815 457.064,138.815 C457.232,138.815 457.375,138.956 457.375,139.126 C457.375,139.289 457.232,139.436 457.064,139.436 C456.893,139.436 456.754,139.289 456.754,139.126 L456.754,139.126 Z" id="Fill-283" fill="#CCCBCA"></path>
                <path d="M459.654,138.251 L458.332,140.214 L459.654,140.214 L459.654,138.251 L459.654,138.251 Z M459.654,141.578 L459.654,140.624 L457.865,140.624 L457.865,140.236 L459.479,137.817 L460.121,137.817 L460.121,140.214 L460.65,140.214 L460.65,140.624 L460.121,140.624 L460.121,141.578 L459.654,141.578 L459.654,141.578 Z" id="Fill-284" fill="#CCCBCA"></path>
                <path d="M463.293,138.798 C463.293,138.408 462.926,138.179 462.473,138.179 C462.016,138.179 461.66,138.408 461.66,138.798 C461.66,139.256 462.25,139.408 462.473,139.447 C462.707,139.408 463.293,139.256 463.293,138.798 L463.293,138.798 Z M463.35,140.574 C463.35,140.083 462.707,139.875 462.473,139.847 C462.242,139.875 461.6,140.083 461.6,140.574 C461.6,140.98 462.006,141.228 462.473,141.228 C462.936,141.228 463.35,140.98 463.35,140.574 L463.35,140.574 Z M461.125,140.624 C461.125,140.123 461.553,139.779 462.023,139.639 C461.59,139.515 461.191,139.227 461.191,138.736 C461.191,138.06 461.848,137.76 462.473,137.76 C463.094,137.76 463.766,138.06 463.766,138.736 C463.766,139.227 463.359,139.515 462.926,139.639 C463.395,139.779 463.822,140.123 463.822,140.624 C463.822,141.262 463.213,141.646 462.473,141.646 C461.73,141.646 461.125,141.269 461.125,140.624 L461.125,140.624 Z" id="Fill-285" fill="#CCCBCA"></path>
                <path d="M368.171,139.7 C368.171,138.949 367.929,138.177 367.212,138.177 C366.497,138.177 366.253,138.949 366.253,139.7 C366.253,140.451 366.497,141.229 367.212,141.229 C367.929,141.229 368.171,140.451 368.171,139.7 L368.171,139.7 Z M365.772,139.7 C365.772,138.779 366.181,137.76 367.212,137.76 C368.239,137.76 368.65,138.779 368.65,139.7 C368.65,140.614 368.239,141.646 367.212,141.646 C366.181,141.646 365.772,140.614 365.772,139.7 L365.772,139.7 Z" id="Fill-286" fill="#CCCBCA"></path>
                <polyline id="Fill-287" fill="#CCCBCA" points="369.944 141.578 369.944 138.432 369.341 139.073 369.06 138.786 370 137.817 370.413 137.817 370.413 141.578 369.944 141.578"></polyline>
                <path d="M371.193,141.324 C371.193,141.156 371.334,141.015 371.502,141.015 C371.671,141.015 371.813,141.156 371.813,141.324 C371.813,141.493 371.671,141.635 371.502,141.635 C371.334,141.635 371.193,141.493 371.193,141.324 L371.193,141.324 Z M371.193,139.126 C371.193,138.956 371.334,138.815 371.502,138.815 C371.671,138.815 371.813,138.956 371.813,139.126 C371.813,139.289 371.671,139.436 371.502,139.436 C371.334,139.436 371.193,139.289 371.193,139.126 L371.193,139.126 Z" id="Fill-288" fill="#CCCBCA"></path>
                <polyline id="Fill-289" fill="#CCCBCA" points="373.128 141.578 373.128 138.432 372.523 139.073 372.243 138.786 373.186 137.817 373.596 137.817 373.596 141.578 373.128 141.578"></polyline>
                <polyline id="Fill-290" fill="#CCCBCA" points="374.719 141.578 376.236 138.234 374.211 138.234 374.211 137.817 376.778 137.817 376.778 138.138 375.238 141.578 374.719 141.578"></polyline>
                <path d="M445.734,138.509 L406.266,138.509 L406.266,140.896 L445.734,140.896 C446.389,140.896 446.926,140.362 446.926,139.702 C446.926,139.044 446.389,138.509 445.734,138.509" id="Fill-291" fill="#CCCBCA"></path>
                <path d="M407.461,139.702 C407.461,140.362 406.92,140.896 406.266,140.896 L383.863,140.896 C383.206,140.896 382.668,140.362 382.668,139.702 C382.668,139.044 383.206,138.509 383.863,138.509 L406.266,138.509 C406.92,138.509 407.461,139.044 407.461,139.702" id="Fill-292" fill="#76D0DE"></path>
                <path d="M409.609,139.701 C409.609,141.549 408.109,143.05 406.266,143.05 C404.42,143.05 402.92,141.549 402.92,139.701 C402.92,137.854 404.42,136.354 406.266,136.354 C408.109,136.354 409.609,137.854 409.609,139.701" id="Fill-293" fill="#353F49"></path>
                <polyline id="Fill-294" fill="#CCCBCA" points="349.798 135.983 356.238 139.702 349.798 143.422 349.798 135.983"></polyline>
                <polygon id="Fill-295" fill="#CCCBCA" points="473.338 141.891 476.391 141.891 476.391 137.514 473.338 137.514"></polygon>
                <polyline id="Fill-296" fill="#CCCBCA" points="479.797 144.484 476.391 141.891 476.391 137.514 479.797 134.92 479.797 144.484"></polyline>
                <polyline id="Fill-297" fill="#FFFFFF" points="161.717 57.561 161.709 35.244 50.744 35.248 50.749 57.563 161.717 57.561"></polyline>
                <path d="M142.983,52.29 C146.222,52.29 148.87,49.64 148.866,46.401 C148.864,43.162 146.213,40.514 142.975,40.514 L66.888,40.52 C63.65,40.52 61.002,43.168 61.004,46.404 C61.004,49.642 63.656,52.29 66.895,52.29 L142.983,52.29" id="Fill-298" fill="#D9D8D7"></path>
                <path d="M0.576,33.547 L28.186,33.541 L35.614,46.407 L28.191,59.271 L0.576,59.279 C5.227,68.199 14.567,74.31 25.328,74.309 C40.739,74.309 53.233,61.815 53.233,46.401 C53.229,31.001 40.735,18.511 25.338,18.5 C14.563,18.511 5.232,24.604 0.576,33.547" id="Fill-299" fill="#FFFFFF"></path>
                <path d="M181.388,33.107 L183.814,38.47 L189.179,40.896 L187.11,46.401 L189.174,51.912 L183.817,54.335 L181.388,59.689 L175.881,57.629 L170.376,59.699 L167.946,54.335 L162.585,51.908 L164.658,46.407 L162.594,40.898 L167.949,38.465 L170.376,33.115 L175.885,35.18 L181.388,33.107 L181.388,33.107 Z M156.662,46.407 C156.654,57.191 165.264,65.933 175.887,65.933 C186.495,65.937 195.104,57.191 195.104,46.401 C195.099,35.612 186.492,26.88 175.874,26.882 C165.267,26.88 156.669,35.619 156.662,46.407 L156.662,46.407 Z" id="Fill-300" fill="#FFFFFF"></path>
                <path d="M138.84,194.9 L138.84,288.535 L6.533,288.535 C3.468,288.535 0.975,286.054 0.975,282.976 L0.975,194.9 C0.975,194.002 1.315,193.111 1.993,192.424 C2.671,191.747 3.568,191.408 4.469,191.408 L6.2,191.408 L6.2,184.429 C6.2,183.539 6.544,182.641 7.227,181.966 C7.902,181.281 8.804,180.939 9.702,180.939 L48.031,180.939 C48.922,180.939 49.812,181.281 50.496,181.966 C51.182,182.641 51.523,183.539 51.523,184.429 L51.523,191.408 L135.348,191.408 C136.246,191.408 137.133,191.747 137.818,192.424 C138.508,193.111 138.84,194.002 138.84,194.9" id="Fill-301" fill="#FAB83E"></path>
                <polygon id="Fill-302" fill="#FFFFFF" points="17.368 288.539 140.294 288.539 140.294 200.291 17.368 200.291"></polygon>
                <path d="M149.96,210.028 L149.96,282.976 C149.96,286.04 147.464,288.535 144.399,288.535 L6.533,288.535 C9.589,288.535 12.084,286.063 12.092,282.995 L12.092,210.028 C12.092,209.132 12.425,208.242 13.111,207.558 C13.788,206.882 14.685,206.537 15.584,206.537 L99.407,206.537 L99.407,199.561 C99.407,198.662 99.748,197.773 100.428,197.085 C101.109,196.412 102,196.067 102.901,196.067 L141.231,196.067 C142.128,196.067 143.021,196.412 143.701,197.085 C144.389,197.773 144.73,198.662 144.73,199.561 L144.73,206.537 L146.463,206.537 C147.358,206.537 148.254,206.882 148.93,207.558 C149.616,208.242 149.96,209.132 149.96,210.028" id="Fill-303" fill="#FFDB79"></path>
                <polygon id="Fill-304" fill="#FFC86D" points="12.092 282.995 149.96 282.995 149.96 280.281 12.092 280.281"></polygon>
                <polygon id="Fill-305" fill="#FFFFFF" points="10.795 191.449 37.171 191.449 37.171 187.225 10.795 187.225"></polygon>
                <polygon id="Fill-306" fill="#92DEEC" points="37.171 191.449 46.93 191.449 46.93 187.225 37.171 187.225"></polygon>
                <polygon id="Fill-307" fill="#CCCBCA" points="13.578 189.877 34.387 189.877 34.387 188.797 13.578 188.797"></polygon>
                <path d="M108.531,244.756 C108.531,259.947 96.217,272.264 81.026,272.264 C65.833,272.264 53.52,259.947 53.52,244.756 C53.52,229.564 65.833,217.249 81.026,217.249 C96.217,217.249 108.531,229.564 108.531,244.756" id="Fill-308" fill="#FFFFFF"></path>
                <polyline id="Fill-309" fill="#474F59" points="96.096 244.457 81.025 234.122 65.956 244.457 64.148 241.82 81.025 230.249 97.903 241.82 96.096 244.457"></polyline>
                <polyline id="Fill-310" fill="#F87B55" points="81.025 234.122 67.335 243.511 67.335 259.265 77.351 259.265 77.351 248.25 84.698 248.25 84.698 259.265 94.716 259.265 94.716 243.511 81.025 234.122"></polyline>
                <polygon id="Fill-311" fill="#F87B55" points="29.289 136.129 89.289 136.129 89.289 106.129 29.289 106.129"></polygon>
                <polygon id="Fill-312" fill="#353F49" points="89.289 136.129 119.289 136.129 119.289 106.129 89.289 106.129"></polygon>
                <polygon id="Fill-313" fill="#F87B55" points="119.289 136.129 299.289 136.129 299.289 106.129 119.289 106.129"></polygon>
                <polygon id="Fill-314" fill="#FF916E" points="58.875 136.129 59.704 136.129 59.704 106.129 58.875 106.129"></polygon>
                <polygon id="Fill-315" fill="#FF916E" points="88.874 136.129 89.703 136.129 89.703 106.129 88.874 106.129"></polygon>
                <polygon id="Fill-316" fill="#FF916E" points="118.874 136.129 119.703 136.129 119.703 106.129 118.874 106.129"></polygon>
                <polygon id="Fill-317" fill="#FF916E" points="148.874 136.129 149.703 136.129 149.703 106.129 148.874 106.129"></polygon>
                <polygon id="Fill-318" fill="#FF916E" points="178.874 136.129 179.703 136.129 179.703 106.129 178.874 106.129"></polygon>
                <polygon id="Fill-319" fill="#FF916E" points="208.874 136.129 209.703 136.129 209.703 106.129 208.874 106.129"></polygon>
                <polygon id="Fill-320" fill="#FF916E" points="238.874 136.129 239.703 136.129 239.703 106.129 238.874 106.129"></polygon>
                <polygon id="Fill-321" fill="#FF916E" points="268.874 136.129 269.703 136.129 269.703 106.129 268.874 106.129"></polygon>
                <path d="M70.811,115.389 C69.799,115.389 68.889,115.848 68.244,116.684 C67.513,117.635 67.3,118.844 67.632,120.174 C68.27,122.719 70.753,125.201 74.29,126.835 C77.826,125.201 80.31,122.719 80.947,120.174 C81.278,118.844 81.065,117.635 80.333,116.684 C79.689,115.848 78.779,115.389 77.768,115.389 C76.246,115.389 74.618,116.499 74.618,118.152 C74.618,118.335 74.472,118.481 74.29,118.481 C74.109,118.481 73.963,118.335 73.963,118.152 C73.963,116.499 72.334,115.389 70.811,115.389 L70.811,115.389 Z M74.29,127.523 L74.155,127.494 C70.367,125.779 67.69,123.1 67,120.332 C66.621,118.822 66.881,117.387 67.726,116.286 C68.496,115.285 69.594,114.734 70.811,114.734 C72.196,114.734 73.654,115.515 74.29,116.774 C74.926,115.515 76.384,114.734 77.768,114.734 C78.985,114.734 80.082,115.285 80.852,116.286 C81.697,117.387 81.957,118.822 81.579,120.331 C80.889,123.1 78.213,125.779 74.426,127.494 L74.29,127.523 L74.29,127.523 Z" id="Fill-322" fill="#FFFFFF"></path>
                <path d="M44.288,128.585 C40.178,128.585 36.83,125.239 36.83,121.127 C36.83,117.016 40.178,113.668 44.288,113.668 L44.288,114.354 C40.553,114.354 37.515,117.391 37.515,121.127 C37.515,124.862 40.553,127.904 44.288,127.904 L44.288,128.585" id="Fill-323" fill="#FFFFFF"></path>
                <path d="M44.289,117.914 C42.384,117.914 40.555,117.496 38.852,116.672 L39.15,116.056 C40.759,116.834 42.487,117.229 44.289,117.229 C46.09,117.229 47.82,116.834 49.429,116.056 L49.727,116.672 C48.023,117.496 46.195,117.914 44.289,117.914" id="Fill-324" fill="#FFFFFF"></path>
                <path d="M49.427,126.199 C47.818,125.422 46.089,125.027 44.289,125.027 C42.489,125.027 40.761,125.422 39.152,126.199 L38.854,125.583 C40.557,124.761 42.385,124.344 44.289,124.344 C46.194,124.344 48.021,124.761 49.725,125.583 L49.427,126.199" id="Fill-325" fill="#FFFFFF"></path>
                <path d="M44.288,128.585 C43.203,128.585 42.201,127.778 41.469,126.313 C40.771,124.921 40.388,123.081 40.388,121.127 C40.388,119.174 40.771,117.333 41.469,115.942 C42.201,114.476 43.203,113.668 44.288,113.668 L44.288,114.354 C42.546,114.354 41.073,117.455 41.073,121.127 C41.073,124.799 42.546,127.904 44.288,127.904 L44.288,128.585" id="Fill-326" fill="#FFFFFF"></path>
                <path d="M44.288,128.588 L44.288,127.904 C46.033,127.904 47.505,124.802 47.505,121.129 C47.505,117.458 46.033,114.354 44.288,114.354 L44.288,113.671 C45.376,113.671 46.377,114.479 47.109,115.944 C47.807,117.336 48.189,119.176 48.189,121.129 C48.189,123.083 47.807,124.924 47.109,126.314 C46.377,127.781 45.376,128.588 44.288,128.588" id="Fill-327" fill="#FFFFFF"></path>
                <path d="M44.288,128.585 L44.288,127.904 C48.025,127.904 51.064,124.862 51.064,121.127 C51.064,117.391 48.025,114.354 44.288,114.354 L44.288,113.668 C48.401,113.668 51.748,117.016 51.748,121.127 C51.748,125.239 48.401,128.585 44.288,128.585" id="Fill-328" fill="#FFFFFF"></path>
                <polygon id="Fill-329" fill="#FFFFFF" points="43.946 128.243 44.632 128.243 44.632 114.011 43.946 114.011"></polygon>
                <polygon id="Fill-330" fill="#FFFFFF" points="37.173 121.47 51.405 121.47 51.405 120.785 37.173 120.785"></polygon>
                <path d="M163.941,120.786 L169.599,120.786 C169.425,117.745 166.981,115.302 163.941,115.131 L163.941,120.786 L163.941,120.786 Z M169.95,121.471 L163.598,121.471 C163.41,121.471 163.256,121.316 163.256,121.128 L163.256,114.779 C163.256,114.589 163.41,114.438 163.598,114.438 C167.288,114.438 170.289,117.439 170.289,121.128 C170.289,121.316 170.138,121.471 169.95,121.471 L169.95,121.471 Z" id="Fill-331" fill="#FFFFFF"></path>
                <path d="M165.524,121.927 L171.67,121.927 C171.526,123.528 170.902,125.033 169.867,126.27 L165.524,121.927" id="Fill-332" fill="#FFFFFF"></path>
                <path d="M163.256,115.131 C160.104,115.307 157.591,117.93 157.591,121.128 C157.591,124.441 160.285,127.137 163.598,127.137 C165.088,127.137 166.497,126.599 167.599,125.611 L163.358,121.371 C163.293,121.307 163.256,121.22 163.256,121.128 L163.256,115.131 L163.256,115.131 Z M163.598,127.819 C159.909,127.819 156.908,124.818 156.908,121.128 C156.908,117.439 159.909,114.438 163.598,114.438 C163.787,114.438 163.941,114.589 163.941,114.779 L163.941,120.987 L168.33,125.377 C168.396,125.441 168.43,125.528 168.43,125.619 L168.33,125.86 C167.065,127.124 165.386,127.819 163.598,127.819 L163.598,127.819 Z" id="Fill-333" fill="#FFFFFF"></path>
                <polyline id="Fill-334" fill="#FFFFFF" points="286.322 123.645 286.806 123.162 285.8 122.156 285.316 122.64 286.322 123.645"></polyline>
                <path d="M287.37,122.6 L291.396,126.626 C291.602,126.831 291.729,127.114 291.729,127.431 C291.729,127.743 291.602,128.029 291.396,128.235 C291.189,128.441 290.904,128.569 290.591,128.569 C290.274,128.569 289.992,128.441 289.786,128.235 L285.76,124.21 L287.37,122.6" id="Fill-335" fill="#FFFFFF"></path>
                <path d="M285.677,118.309 L285.771,118.295 C285.951,118.244 286.057,118.056 286.007,117.873 C285.821,117.213 285.467,116.609 284.979,116.121 C284.489,115.633 283.886,115.277 283.227,115.093 C283.044,115.043 282.855,115.146 282.804,115.328 C282.754,115.512 282.859,115.699 283.04,115.749 C283.587,115.903 284.091,116.199 284.495,116.604 C284.899,117.009 285.195,117.512 285.351,118.06 C285.393,118.208 285.527,118.309 285.677,118.309" id="Fill-336" fill="#FFFFFF"></path>
                <path d="M279.974,122.301 C280.078,122.301 280.182,122.252 280.25,122.16 C280.359,122.006 280.326,121.795 280.173,121.684 C280.026,121.576 279.888,121.459 279.765,121.335 C279.639,121.209 279.521,121.073 279.417,120.927 C279.305,120.772 279.093,120.74 278.938,120.85 C278.788,120.961 278.752,121.175 278.862,121.326 C278.991,121.502 279.131,121.667 279.281,121.817 C279.432,121.969 279.595,122.108 279.771,122.235 L279.974,122.301" id="Fill-337" fill="#FFFFFF"></path>
                <path d="M278.877,115.717 C278.011,116.587 277.531,117.74 277.531,118.969 C277.531,120.199 278.011,121.353 278.877,122.221 C279.747,123.088 280.9,123.568 282.129,123.568 C283.359,123.568 284.513,123.088 285.381,122.221 C286.249,121.353 286.728,120.199 286.728,118.969 C286.728,117.74 286.249,116.587 285.381,115.717 C284.513,114.851 283.359,114.371 282.129,114.371 C280.9,114.371 279.747,114.851 278.877,115.717 L278.877,115.717 Z M278.395,122.703 C277.396,121.707 276.849,120.38 276.849,118.969 C276.849,117.56 277.396,116.231 278.395,115.234 C279.392,114.237 280.72,113.688 282.129,113.688 C283.54,113.688 284.867,114.237 285.863,115.234 C286.86,116.231 287.411,117.56 287.411,118.969 C287.411,120.38 286.86,121.707 285.863,122.703 C284.867,123.7 283.54,124.25 282.129,124.25 C280.72,124.25 279.392,123.7 278.395,122.703 L278.395,122.703 Z" id="Fill-338" fill="#FFFFFF"></path>
                <path d="M187.6,116.873 L187.514,116.959 L187.514,121.342 L187.6,121.429 L200.978,121.429 L201.064,121.342 L201.064,116.959 L200.978,116.873 L187.6,116.873 L187.6,116.873 Z M200.978,122.11 L187.6,122.11 C187.176,122.11 186.83,121.766 186.83,121.342 L186.83,116.959 C186.83,116.535 187.176,116.188 187.6,116.188 L200.978,116.188 C201.401,116.188 201.748,116.535 201.748,116.959 L201.748,121.342 C201.748,121.766 201.401,122.11 200.978,122.11 L200.978,122.11 Z" id="Fill-339" fill="#FFFFFF"></path>
                <path d="M200.624,127.348 L187.954,127.348 C187.748,127.348 187.558,127.27 187.412,127.124 C187.266,126.979 187.187,126.785 187.187,126.581 L187.187,121.768 L187.868,121.768 L187.868,126.581 L187.895,126.641 L187.954,126.666 L200.624,126.666 L200.684,126.641 L200.708,126.581 L200.708,121.768 L201.392,121.768 L201.392,126.581 C201.392,126.785 201.313,126.979 201.166,127.124 C201.021,127.27 200.829,127.348 200.624,127.348" id="Fill-340" fill="#FFFFFF"></path>
                <path d="M192.495,116.188 L196.083,116.188 L196.083,115.676 L196.056,115.616 L195.996,115.591 L192.582,115.591 L192.521,115.616 L192.495,115.676 L192.495,116.188 L192.495,116.188 Z M196.766,116.873 L191.813,116.873 L191.813,115.676 C191.813,115.472 191.894,115.277 192.038,115.133 C192.183,114.987 192.376,114.909 192.582,114.909 L195.996,114.909 C196.201,114.909 196.395,114.987 196.54,115.133 C196.685,115.277 196.766,115.472 196.766,115.676 L196.766,116.873 L196.766,116.873 Z" id="Fill-341" fill="#FFFFFF"></path>
                <path d="M192.154,122.908 C192.154,123.064 192.025,123.192 191.868,123.192 L191.016,123.192 C190.858,123.192 190.73,123.064 190.73,122.908 L190.73,120.63 C190.73,120.475 190.858,120.346 191.016,120.346 L191.868,120.346 C192.025,120.346 192.154,120.475 192.154,120.63 L192.154,122.908" id="Fill-342" fill="#FFFFFF"></path>
                <path d="M197.847,122.908 C197.847,123.064 197.72,123.192 197.563,123.192 L196.709,123.192 C196.553,123.192 196.424,123.064 196.424,122.908 L196.424,120.63 C196.424,120.475 196.553,120.346 196.709,120.346 L197.563,120.346 C197.72,120.346 197.847,120.475 197.847,120.63 L197.847,122.908" id="Fill-343" fill="#FFFFFF"></path>
                <path d="M97.848,127.976 L97.163,127.976 L97.163,120.161 C97.163,120.043 97.198,119.928 97.263,119.829 C97.329,119.728 97.42,119.648 97.527,119.6 L99.166,118.866 L99.445,119.489 L97.848,120.206 L97.848,127.976" id="Fill-344" fill="#FFFFFF"></path>
                <path d="M111.415,127.976 L110.73,127.976 L110.73,120.206 L109.134,119.489 L109.414,118.866 L111.052,119.601 C111.159,119.648 111.251,119.729 111.314,119.827 C111.381,119.928 111.415,120.043 111.415,120.161 L111.415,127.976" id="Fill-345" fill="#FFFFFF"></path>
                <path d="M109.615,121.239 L108.933,121.239 L108.933,114.354 L99.646,114.354 L99.646,121.239 L98.964,121.239 L98.964,114.282 C98.964,114.119 99.025,113.965 99.142,113.85 C99.258,113.734 99.412,113.67 99.576,113.67 L109.002,113.67 C109.167,113.67 109.32,113.734 109.438,113.851 C109.553,113.965 109.615,114.119 109.615,114.282 L109.615,121.239" id="Fill-346" fill="#FFFFFF"></path>
                <polyline id="Fill-347" fill="#FFFFFF" points="102.877 124.148 97.31 120.266 97.702 119.704 103.27 123.587 102.877 124.148"></polyline>
                <polyline id="Fill-348" fill="#FFFFFF" points="105.701 124.148 105.309 123.587 110.876 119.704 111.27 120.266 105.701 124.148"></polyline>
                <path d="M110.801,128.587 L97.777,128.587 C97.614,128.587 97.459,128.522 97.344,128.408 C97.228,128.291 97.163,128.139 97.163,127.976 L97.848,127.976 L97.826,127.925 L97.777,127.904 L110.801,127.904 L110.752,127.924 L110.73,127.976 L111.415,127.976 C111.415,128.139 111.351,128.292 111.235,128.408 C111.12,128.522 110.965,128.587 110.801,128.587" id="Fill-349" fill="#FFFFFF"></path>
                <path d="M97.718,128.515 L97.295,127.977 L103.911,122.775 C104.018,122.689 104.152,122.645 104.289,122.645 C104.427,122.645 104.561,122.689 104.668,122.775 L111.283,127.977 L110.86,128.515 L104.289,123.347 L97.718,128.515" id="Fill-350" fill="#FFFFFF"></path>
                <path d="M106.851,116.252 L101.728,116.252 C101.539,116.252 101.386,116.098 101.386,115.909 C101.386,115.721 101.539,115.569 101.728,115.569 L106.851,115.569 C107.039,115.569 107.193,115.721 107.193,115.909 C107.193,116.098 107.039,116.252 106.851,116.252" id="Fill-351" fill="#FFFFFF"></path>
                <path d="M106.851,117.62 L101.728,117.62 C101.539,117.62 101.386,117.466 101.386,117.277 C101.386,117.089 101.539,116.935 101.728,116.935 L106.851,116.935 C107.039,116.935 107.193,117.089 107.193,117.277 C107.193,117.466 107.039,117.62 106.851,117.62" id="Fill-352" fill="#FFFFFF"></path>
                <path d="M104.289,118.983 L101.728,118.983 C101.539,118.983 101.386,118.833 101.386,118.645 C101.386,118.455 101.539,118.302 101.728,118.302 L104.289,118.302 C104.478,118.302 104.632,118.455 104.632,118.645 C104.632,118.833 104.478,118.983 104.289,118.983" id="Fill-353" fill="#FFFFFF"></path>
                <path d="M139.91,123.774 L138.801,123.774 C138.612,123.774 138.458,123.623 138.458,123.435 C138.458,123.246 138.612,123.092 138.801,123.092 L139.91,123.092 C140.075,123.092 140.229,123.026 140.346,122.91 C140.463,122.794 140.526,122.641 140.526,122.475 C140.526,122.31 140.463,122.155 140.346,122.039 C140.229,121.924 140.075,121.858 139.91,121.858 L139.459,121.858 C139.271,121.858 139.116,121.706 139.116,121.518 C139.116,121.328 139.271,121.177 139.459,121.177 L139.91,121.177 C140.258,121.177 140.583,121.312 140.83,121.556 C141.076,121.802 141.211,122.129 141.211,122.475 C141.211,122.821 141.076,123.149 140.83,123.394 C140.583,123.641 140.258,123.774 139.91,123.774" id="Fill-354" fill="#FFFFFF"></path>
                <path d="M139.252,125.691 L138.135,125.691 C137.947,125.691 137.796,125.54 137.796,125.351 C137.796,125.161 137.947,125.008 138.135,125.008 L139.252,125.008 C139.417,125.008 139.57,124.945 139.688,124.828 C139.805,124.711 139.869,124.556 139.869,124.391 C139.869,124.227 139.805,124.073 139.688,123.955 C139.57,123.839 139.417,123.774 139.252,123.774 L138.801,123.774 C138.612,123.774 138.458,123.623 138.458,123.435 C138.458,123.246 138.612,123.092 138.801,123.092 L139.252,123.092 C139.6,123.092 139.926,123.228 140.171,123.473 C140.418,123.718 140.552,124.045 140.552,124.391 C140.552,124.74 140.418,125.065 140.171,125.311 C139.926,125.558 139.6,125.691 139.252,125.691" id="Fill-355" fill="#FFFFFF"></path>
                <path d="M141.514,119.64 C141.27,119.393 140.941,119.261 140.596,119.261 L136.099,119.261 L136.614,117.991 C136.651,117.903 136.679,117.811 136.697,117.718 C136.714,117.624 136.724,117.528 136.724,117.433 L136.724,115.949 C136.724,115.6 136.589,115.275 136.345,115.027 C136.098,114.783 135.771,114.648 135.424,114.648 C135.076,114.648 134.75,114.783 134.504,115.027 C134.26,115.275 134.123,115.6 134.123,115.949 L134.123,116.856 L134.111,116.931 L134.076,116.996 L132.347,119.174 L132.215,119.306 L132.055,119.405 L131.125,119.832 L131.125,126.498 L132.564,127.389 C132.682,127.46 132.806,127.515 132.938,127.553 C133.068,127.59 133.205,127.609 133.343,127.609 L138.588,127.609 C138.937,127.609 139.262,127.474 139.508,127.229 C139.753,126.981 139.889,126.656 139.889,126.308 C139.889,125.962 139.753,125.634 139.508,125.389 C139.262,125.144 138.937,125.008 138.588,125.008 L138.135,125.008 C137.947,125.008 137.796,125.161 137.796,125.351 C137.796,125.54 137.947,125.691 138.135,125.691 L138.588,125.691 C138.752,125.691 138.909,125.755 139.025,125.873 C139.142,125.989 139.204,126.146 139.204,126.308 C139.204,126.473 139.142,126.629 139.025,126.746 C138.909,126.862 138.752,126.925 138.588,126.925 L133.343,126.925 L133.125,126.894 L132.922,126.806 L131.807,126.117 L131.807,120.271 L132.342,120.023 C132.447,119.977 132.545,119.916 132.637,119.845 C132.728,119.773 132.809,119.69 132.88,119.599 L134.61,117.421 C134.675,117.342 134.722,117.252 134.756,117.154 C134.791,117.058 134.809,116.958 134.809,116.856 L134.809,115.949 C134.809,115.784 134.871,115.629 134.988,115.512 C135.104,115.395 135.26,115.333 135.424,115.333 C135.588,115.333 135.745,115.395 135.861,115.512 C135.978,115.629 136.04,115.784 136.04,115.949 L136.04,117.433 L136.025,117.587 L135.98,117.734 L135.307,119.393 C135.257,119.516 135.271,119.656 135.346,119.766 C135.42,119.877 135.542,119.942 135.675,119.942 L140.596,119.942 C140.758,119.942 140.914,120.008 141.031,120.124 C141.146,120.239 141.211,120.394 141.211,120.559 C141.211,120.725 141.146,120.878 141.03,120.994 C140.914,121.109 140.758,121.177 140.596,121.177 L139.459,121.177 C139.271,121.177 139.116,121.328 139.116,121.518 C139.116,121.706 139.271,121.858 139.459,121.858 L140.596,121.858 C140.941,121.858 141.27,121.723 141.514,121.478 C141.759,121.233 141.895,120.906 141.895,120.559 C141.895,120.212 141.759,119.886 141.514,119.64" id="Fill-356" fill="#FFFFFF"></path>
                <path d="M126.684,127.201 C126.684,127.421 126.863,127.601 127.083,127.601 L131.41,127.601 C131.631,127.601 131.807,127.421 131.807,127.201 L131.807,119.649 C131.807,119.431 131.631,119.251 131.41,119.251 L127.083,119.251 C126.863,119.251 126.684,119.431 126.684,119.649 L126.684,127.201" id="Fill-357" fill="#FFFFFF"></path>
                <path d="M130.717,120.767 C130.717,121.08 130.46,121.335 130.147,121.335 C129.832,121.335 129.578,121.08 129.578,120.767 C129.578,120.45 129.832,120.196 130.147,120.196 C130.46,120.196 130.717,120.45 130.717,120.767" id="Fill-358" fill="#FFFFFF"></path>
                <path d="M217.018,121.128 C218.567,123.293 221.328,124.63 224.289,124.63 C227.249,124.63 230.01,123.293 231.562,121.128 C230.01,118.964 227.248,117.628 224.289,117.628 C221.329,117.628 218.567,118.964 217.018,121.128 L217.018,121.128 Z M224.289,125.313 C221.017,125.313 217.965,123.783 216.318,121.317 C216.241,121.203 216.241,121.053 216.318,120.939 C217.965,118.474 221.018,116.944 224.289,116.944 C227.56,116.944 230.612,118.474 232.26,120.938 C232.336,121.053 232.336,121.203 232.26,121.317 C230.613,123.783 227.561,125.313 224.289,125.313 L224.289,125.313 Z" id="Fill-359" fill="#FFFFFF"></path>
                <path d="M224.29,124.053 C222.099,124.053 220.313,122.27 220.313,120.08 C220.313,119.11 220.665,118.178 221.308,117.454 C221.431,117.313 221.646,117.299 221.79,117.424 C221.931,117.548 221.943,117.766 221.819,117.905 C221.289,118.505 220.998,119.275 220.998,120.08 C220.998,121.894 222.475,123.369 224.29,123.369 C226.104,123.369 227.579,121.894 227.579,120.08 C227.579,119.275 227.288,118.505 226.759,117.905 C226.635,117.766 226.647,117.548 226.788,117.424 C226.931,117.299 227.146,117.313 227.271,117.454 C227.912,118.178 228.265,119.11 228.265,120.08 C228.265,122.27 226.48,124.053 224.29,124.053" id="Fill-360" fill="#FFFFFF"></path>
                <path d="M224.289,122.134 C223.244,122.134 222.396,121.284 222.396,120.242 C222.396,120.053 222.55,119.899 222.738,119.899 C222.926,119.899 223.08,120.053 223.08,120.242 C223.08,120.907 223.623,121.451 224.289,121.451 C224.955,121.451 225.498,120.907 225.498,120.242 C225.498,119.573 224.955,119.03 224.289,119.03 C224.102,119.03 223.947,118.879 223.947,118.689 C223.947,118.5 224.102,118.349 224.289,118.349 C225.334,118.349 226.183,119.197 226.183,120.242 C226.183,121.284 225.334,122.134 224.289,122.134" id="Fill-361" fill="#FFFFFF"></path>
                <path d="M252.431,124.489 L258.811,124.489 L259.797,120.548 L251.445,120.548 L252.431,124.489 L252.431,124.489 Z M259.067,125.141 L252.174,125.141 C252.025,125.141 251.895,125.039 251.858,124.894 L250.709,120.301 C250.686,120.2 250.707,120.097 250.768,120.02 C250.831,119.938 250.928,119.894 251.027,119.894 L260.215,119.894 C260.316,119.894 260.411,119.938 260.473,120.02 C260.536,120.097 260.557,120.2 260.533,120.301 L259.384,124.894 C259.349,125.039 259.218,125.141 259.067,125.141 L259.067,125.141 Z" id="Fill-362" fill="#FFFFFF"></path>
                <path d="M258.722,126.52 L252.521,126.52 C252.371,126.52 252.239,126.418 252.202,126.272 L250.43,119.17 L248.363,119.17 C248.183,119.17 248.036,119.023 248.036,118.843 C248.036,118.662 248.183,118.516 248.363,118.516 L250.683,118.516 C250.834,118.516 250.964,118.617 251,118.764 L252.774,125.867 L258.722,125.867 C258.902,125.867 259.049,126.014 259.049,126.192 C259.049,126.373 258.902,126.52 258.722,126.52" id="Fill-363" fill="#FFFFFF"></path>
                <path d="M252.521,127.439 C252.385,127.439 252.274,127.551 252.274,127.686 C252.274,127.824 252.385,127.934 252.521,127.934 C252.656,127.934 252.769,127.824 252.769,127.686 C252.769,127.551 252.656,127.439 252.521,127.439 L252.521,127.439 Z M252.521,128.588 C252.024,128.588 251.62,128.183 251.62,127.686 C251.62,127.19 252.024,126.786 252.521,126.786 C253.018,126.786 253.421,127.19 253.421,127.686 C253.421,128.183 253.018,128.588 252.521,128.588 L252.521,128.588 Z" id="Fill-364" fill="#FFFFFF"></path>
                <path d="M258.722,127.439 C258.587,127.439 258.475,127.551 258.475,127.686 C258.475,127.824 258.587,127.934 258.722,127.934 C258.859,127.934 258.97,127.824 258.97,127.686 C258.97,127.551 258.859,127.439 258.722,127.439 L258.722,127.439 Z M258.722,128.588 C258.225,128.588 257.822,128.183 257.822,127.686 C257.822,127.19 258.225,126.786 258.722,126.786 C259.219,126.786 259.625,127.19 259.625,127.686 C259.625,128.183 259.219,128.588 258.722,128.588 L258.722,128.588 Z" id="Fill-365" fill="#FFFFFF"></path>
                <path d="M258.253,122.079 L252.99,122.079 C252.809,122.079 252.662,121.934 252.662,121.752 C252.662,121.572 252.809,121.427 252.99,121.427 L258.253,121.427 C258.435,121.427 258.581,121.572 258.581,121.752 C258.581,121.934 258.435,122.079 258.253,122.079" id="Fill-366" fill="#FFFFFF"></path>
                <path d="M257.871,123.611 L253.373,123.611 C253.193,123.611 253.047,123.465 253.047,123.284 C253.047,123.103 253.193,122.956 253.373,122.956 L257.871,122.956 C258.052,122.956 258.198,123.103 258.198,123.284 C258.198,123.465 258.052,123.611 257.871,123.611" id="Fill-367" fill="#FFFFFF"></path>
                <path d="M254.779,117.295 L253.604,116.118 C253.477,115.991 253.271,115.991 253.141,116.118 L251.965,117.295 L251.867,117.526 L251.965,117.757 L253.141,118.933 L253.373,119.027 L253.604,118.933 L254.779,117.757 L254.877,117.526 L254.779,117.295" id="Fill-368" fill="#FFFFFF"></path>
                <path d="M260.448,116.118 L258.093,113.766 L257.863,113.668 L257.632,113.766 L255.278,116.117 C255.151,116.244 255.151,116.451 255.278,116.58 L257.632,118.933 L257.863,119.027 L258.093,118.933 L260.448,116.58 C260.574,116.452 260.574,116.245 260.448,116.118" id="Fill-369" fill="#FFFFFF"></path>
                <polygon id="Fill-370" fill="#FFDB79" points="245.623 77.016 349.716 77.016 349.716 54.71 245.623 54.71"></polygon>
                <polygon id="Fill-371" fill="#FAB83E" points="223.317 77.016 245.623 77.016 245.623 54.71 223.317 54.71"></polygon>
                <polygon id="Fill-372" fill="#FAB83E" points="349.716 77.016 372.022 77.016 372.022 54.71 349.716 54.71"></polygon>
                <polygon id="Fill-373" fill="#FFFFFF" points="254.918 66.979 340.422 66.979 340.422 64.749 254.918 64.749"></polygon>
                <polyline id="Fill-374" fill="#FFFFFF" points="230.606 61.4 238.333 65.862 230.606 70.324 230.606 61.4"></polyline>
                <polygon id="Fill-375" fill="#FFFFFF" points="357.102 68.414 360.661 68.414 360.661 63.312 357.102 63.312"></polygon>
                <polyline id="Fill-376" fill="#FFFFFF" points="364.636 71.438 360.661 68.414 360.661 63.312 364.636 60.287 364.636 71.438"></polyline>
                <path d="M281.127,65.862 C281.127,68.326 279.129,70.324 276.666,70.324 C274.2,70.324 272.204,68.326 272.204,65.862 C272.204,63.398 274.2,61.4 276.666,61.4 C279.129,61.4 281.127,63.398 281.127,65.862" id="Fill-377" fill="#FAB83E"></path>
                <polygon id="Fill-378" fill="#ADECF8" points="469.75 89.236 585.947 89.236 585.947 12.999 469.75 12.999"></polygon>
                <polygon id="Fill-379" fill="#EE643C" points="469.75 12.999 585.947 12.999 585.947 0.052 469.75 0.052"></polygon>
                <polygon id="Fill-380" fill="#EE643C" points="509.354 77.477 546.343 77.477 546.343 64.528 509.354 64.528"></polygon>
                <polyline id="Fill-381" fill="#FFFFFF" points="518.563 68.59 517.964 68.59 517.964 73.402 520.797 73.402 520.797 72.868 518.563 72.868 518.563 68.59"></polyline>
                <path d="M523.552,72.953 C522.466,72.953 521.782,72.118 521.782,70.997 C521.782,69.874 522.466,69.041 523.552,69.041 C524.627,69.041 525.322,69.874 525.322,70.997 C525.322,72.118 524.627,72.953 523.552,72.953 L523.552,72.953 Z M523.552,68.507 C522.13,68.507 521.164,69.575 521.164,70.997 C521.164,72.419 522.13,73.487 523.552,73.487 C524.97,73.487 525.947,72.419 525.947,70.997 C525.947,69.575 524.97,68.507 523.552,68.507 L523.552,68.507 Z" id="Fill-382" fill="#FFFFFF"></path>
                <path d="M528.8,71.458 L530.456,71.458 L530.456,72.437 C530.209,72.677 529.735,72.953 529.159,72.953 C528.104,72.953 527.306,72.137 527.306,70.997 C527.306,69.845 528.104,69.041 529.159,69.041 C529.735,69.041 530.246,69.317 530.552,69.707 L531.026,69.406 C530.606,68.885 530.019,68.507 529.159,68.507 C527.787,68.507 526.682,69.497 526.682,70.997 C526.682,72.492 527.787,73.494 529.159,73.494 C529.945,73.494 530.6,73.163 531.049,72.658 L531.049,70.925 L528.8,70.925 L528.8,71.458" id="Fill-383" fill="#FFFFFF"></path>
                <polygon id="Fill-384" fill="#FFFFFF" points="532.024 73.402 532.624 73.402 532.624 68.59 532.024 68.59"></polygon>
                <polyline id="Fill-385" fill="#FFFFFF" points="537.134 68.59 537.134 72.348 534.365 68.59 533.748 68.59 533.748 73.402 534.349 73.402 534.349 69.563 537.155 73.402 537.732 73.402 537.732 68.59 537.134 68.59"></polyline>
                <polygon id="Fill-386" fill="#76D0DE" points="551.432 37.708 564.379 37.708 564.379 24.759 551.432 24.759"></polygon>
                <path d="M559.837,30.037 C559.837,31.292 558.97,32.311 557.907,32.311 C556.842,32.311 555.975,31.292 555.975,30.037 C555.975,28.784 556.842,27.765 557.907,27.765 C558.97,27.765 559.837,28.784 559.837,30.037" id="Fill-387" fill="#FFFFFF"></path>
                <path d="M558.932,32.845 C558.615,32.991 558.271,33.072 557.907,33.072 C557.541,33.072 557.196,32.991 556.879,32.845 C555.487,33.09 554.451,33.819 554.329,34.702 L561.482,34.702 C561.361,33.819 560.323,33.09 558.932,32.845" id="Fill-388" fill="#FFFFFF"></path>
                <polygon id="Fill-389" fill="#FFFFFF" points="491.317 37.708 551.432 37.708 551.432 24.759 491.317 24.759"></polygon>
                <path d="M506.377,31.752 C506.377,32.634 505.902,33.188 505.016,33.188 C504.127,33.188 503.658,32.634 503.658,31.752 L503.658,28.824 L503.052,28.824 L503.052,31.77 C503.052,32.952 503.718,33.722 505.016,33.722 C506.321,33.722 506.983,32.959 506.983,31.759 L506.983,28.824 L506.377,28.824 L506.377,31.752" id="Fill-390" fill="#353F49"></path>
                <path d="M508.594,30.049 C508.594,29.598 509.013,29.286 509.584,29.286 C510.112,29.286 510.616,29.46 510.976,29.862 L511.335,29.424 C510.933,28.998 510.363,28.745 509.632,28.745 C508.683,28.745 507.975,29.292 507.975,30.085 C507.975,31.806 510.825,31.11 510.825,32.353 C510.825,32.729 510.55,33.188 509.69,33.188 C509.013,33.188 508.492,32.856 508.186,32.496 L507.825,32.959 C508.221,33.407 508.84,33.722 509.668,33.722 C510.97,33.722 511.444,33.001 511.444,32.311 C511.444,30.511 508.594,31.135 508.594,30.049" id="Fill-391" fill="#353F49"></path>
                <polyline id="Fill-392" fill="#353F49" points="512.341 33.637 515.496 33.637 515.496 33.103 512.94 33.103 512.94 31.441 515.441 31.441 515.441 30.91 512.94 30.91 512.94 29.358 515.496 29.358 515.496 28.824 512.341 28.824 512.341 33.637"></polyline>
                <path d="M517.046,31.2 L517.046,29.358 L518.312,29.358 C518.882,29.358 519.277,29.725 519.277,30.275 C519.277,30.816 518.882,31.2 518.312,31.2 L517.046,31.2 L517.046,31.2 Z M519.896,30.275 C519.896,29.388 519.261,28.824 518.384,28.824 L516.446,28.824 L516.446,33.637 L517.046,33.637 L517.046,31.723 L518.013,31.723 L519.23,33.637 L519.938,33.637 L518.642,31.674 C519.296,31.615 519.896,31.141 519.896,30.275 L519.896,30.275 Z" id="Fill-393" fill="#353F49"></path>
                <polyline id="Fill-394" fill="#353F49" points="524.229 32.582 521.458 28.824 520.847 28.824 520.847 33.637 521.442 33.637 521.442 29.797 524.25 33.637 524.826 33.637 524.826 28.824 524.229 28.824 524.229 32.582"></polyline>
                <path d="M526.749,32.034 L527.767,29.437 L528.789,32.034 L526.749,32.034 L526.749,32.034 Z M527.396,28.824 L525.457,33.637 L526.143,33.637 L526.568,32.563 L528.962,32.563 L529.389,33.637 L530.073,33.637 L528.14,28.824 L527.396,28.824 L527.396,28.824 Z" id="Fill-395" fill="#353F49"></path>
                <polyline id="Fill-396" fill="#353F49" points="533.063 32.532 531.563 28.824 530.705 28.824 530.705 33.637 531.305 33.637 531.305 29.592 532.941 33.637 533.188 33.637 534.815 29.592 534.815 33.637 535.416 33.637 535.416 28.824 534.557 28.824 533.063 32.532"></polyline>
                <polyline id="Fill-397" fill="#353F49" points="539.696 29.358 539.696 28.824 536.546 28.824 536.546 33.637 539.696 33.637 539.696 33.103 537.146 33.103 537.146 31.441 539.648 31.441 539.648 30.91 537.146 30.91 537.146 29.358 539.696 29.358"></polyline>
                <polygon id="Fill-398" fill="#76D0DE" points="551.432 55.281 564.379 55.281 564.379 42.333 551.432 42.333"></polygon>
                <path d="M559.127,48.198 L556.683,48.198 L556.683,47.13 C556.683,46.459 557.233,45.912 557.907,45.912 C558.576,45.912 559.127,46.459 559.127,47.13 L559.127,48.198 L559.127,48.198 Z M559.702,48.198 L559.702,47.13 C559.702,46.139 558.895,45.338 557.907,45.338 C556.916,45.338 556.108,46.139 556.108,47.13 L556.108,48.198 L555.447,48.198 L555.447,52.272 L560.368,52.272 L560.368,48.198 L559.702,48.198 L559.702,48.198 Z" id="Fill-399" fill="#FFFFFF"></path>
                <polygon id="Fill-400" fill="#FFFFFF" points="491.317 55.281 551.432 55.281 551.432 42.333 491.317 42.333"></polygon>
                <path d="M504.722,47.137 C503.799,47.137 503.052,47.884 503.052,48.806 C503.052,49.727 503.799,50.474 504.722,50.474 C505.639,50.474 506.386,49.727 506.386,48.806 C506.386,47.884 505.639,47.137 504.722,47.137" id="Fill-401" fill="#353F49"></path>
                <path d="M511.379,47.137 C510.463,47.137 509.716,47.884 509.716,48.806 C509.716,49.727 510.463,50.474 511.379,50.474 C512.302,50.474 513.048,49.727 513.048,48.806 C513.048,47.884 512.302,47.137 511.379,47.137" id="Fill-402" fill="#353F49"></path>
                <path d="M518.042,47.137 C517.122,47.137 516.374,47.884 516.374,48.806 C516.374,49.727 517.122,50.474 518.042,50.474 C518.965,50.474 519.712,49.727 519.712,48.806 C519.712,47.884 518.965,47.137 518.042,47.137" id="Fill-403" fill="#353F49"></path>
                <path d="M524.706,47.137 C523.784,47.137 523.037,47.884 523.037,48.806 C523.037,49.727 523.784,50.474 524.706,50.474 C525.628,50.474 526.374,49.727 526.374,48.806 C526.374,47.884 525.628,47.137 524.706,47.137" id="Fill-404" fill="#353F49"></path>
                <path d="M531.369,47.137 C530.447,47.137 529.7,47.884 529.7,48.806 C529.7,49.727 530.447,50.474 531.369,50.474 C532.286,50.474 533.032,49.727 533.032,48.806 C533.032,47.884 532.286,47.137 531.369,47.137" id="Fill-405" fill="#353F49"></path>
                <path d="M538.027,47.137 C537.11,47.137 536.364,47.884 536.364,48.806 C536.364,49.727 537.11,50.474 538.027,50.474 C538.95,50.474 539.696,49.727 539.696,48.806 C539.696,47.884 538.95,47.137 538.027,47.137" id="Fill-406" fill="#353F49"></path>
                <path d="M834.115,457.769 L834.115,516.381 C834.11,519.856 835.437,523.328 838.092,525.971 C840.735,528.629 844.203,529.948 847.678,529.948 C851.147,529.948 854.621,528.621 857.271,525.975 C859.923,523.324 861.245,519.856 861.242,516.381 L861.242,457.769 L834.115,457.769" id="Fill-407" fill="#353F49"></path>
                <path d="M831.928,448.741 C831.926,449.943 832.912,450.93 834.115,450.926 L861.242,450.922 C862.444,450.922 863.427,449.94 863.424,448.741 L863.424,446.867 C863.427,445.662 862.448,444.685 861.242,444.685 L834.113,444.692 C832.912,444.685 831.922,445.667 831.926,446.867 L831.928,448.741" id="Fill-408" fill="#353F49"></path>
                <polyline id="Fill-409" fill="#FFFFFF" points="844.088 363.351 851.265 363.351 851.269 444.685 844.083 444.685 844.088 363.351"></polyline>
                <path d="M856.159,358.321 C856.151,359.775 855.606,361.221 854.506,362.318 C853.401,363.427 851.949,363.974 850.505,363.974 L844.851,363.987 C843.409,363.974 841.951,363.424 840.856,362.327 C839.75,361.221 839.194,359.765 839.193,358.326 L839.197,339.479 L856.159,339.479 L856.159,358.321" id="Fill-410" fill="#FFFFFF"></path>
                <path d="M857.82,454.343 C857.82,452.456 859.353,450.922 861.242,450.922 L834.115,450.922 C836.003,450.922 837.536,452.456 837.536,454.343 C837.536,456.234 836.003,457.769 834.115,457.769 L861.242,457.769 C859.353,457.769 857.82,456.234 857.82,454.343" id="Fill-411" fill="#232E38"></path>
                <path d="M647.299,49.693 C637.159,49.693 628.934,57.904 628.934,68.036 L628.934,78.948 L634.808,78.948 L634.808,68.036 C634.808,61.165 640.408,55.571 647.299,55.571 C654.178,55.571 659.775,61.165 659.775,68.036 L659.775,78.948 L665.655,78.948 L665.655,68.036 C665.655,57.904 657.438,49.693 647.299,49.693" id="Fill-412" fill="#FFFFFF"></path>
                <polygon id="Fill-413" fill="#F87B55" points="622.137 117.585 672.447 117.585 672.447 78.948 622.137 78.948"></polygon>
                <polygon id="Fill-414" fill="#232E38" points="622.137 124.693 672.447 124.693 672.447 117.585 622.137 117.585"></polygon>
                <polygon id="Fill-415" fill="#FFFFFF" points="626.716 103.604 667.875 103.604 667.875 92.931 626.716 92.931"></polygon>
                <path d="M633.382,100.153 C632.341,100.153 631.494,99.308 631.494,98.268 C631.494,97.227 632.341,96.38 633.382,96.38 C634.424,96.38 635.271,97.227 635.271,98.268 C635.271,99.308 634.424,100.153 633.382,100.153" id="Fill-416" fill="#232E38"></path>
                <path d="M640.338,100.153 C639.295,100.153 638.447,99.308 638.447,98.268 C638.447,97.227 639.295,96.38 640.338,96.38 C641.378,96.38 642.224,97.227 642.224,98.268 C642.224,99.308 641.378,100.153 640.338,100.153" id="Fill-417" fill="#232E38"></path>
                <path d="M647.291,100.153 C646.249,100.153 645.401,99.308 645.401,98.268 C645.401,97.227 646.249,96.38 647.291,96.38 C648.334,96.38 649.183,97.227 649.183,98.268 C649.183,99.308 648.334,100.153 647.291,100.153" id="Fill-418" fill="#232E38"></path>
                <path d="M654.244,100.153 C653.208,100.153 652.365,99.308 652.365,98.268 C652.365,97.227 653.208,96.38 654.244,96.38 C655.285,96.38 656.132,97.227 656.132,98.268 C656.132,99.308 655.285,100.153 654.244,100.153" id="Fill-419" fill="#232E38"></path>
                <path d="M661.201,100.153 C660.161,100.153 659.315,99.308 659.315,98.268 C659.315,97.227 660.161,96.38 661.201,96.38 C662.243,96.38 663.09,97.227 663.09,98.268 C663.09,99.308 662.243,100.153 661.201,100.153" id="Fill-420" fill="#232E38"></path>
            </g>
        </g>
    </g>
</svg>