<?xml version="1.0" encoding="UTF-8" standalone="no"?>
<svg width="358px" height="301px" viewBox="0 0 358 301" version="1.1" xmlns="http://www.w3.org/2000/svg" xmlns:xlink="http://www.w3.org/1999/xlink">
    <!-- Generator: Sketch 39 (31667) - http://www.bohemiancoding.com/sketch -->
    <title>web-design</title>
    <desc>Created with Sketch.</desc>
    <defs></defs>
    <g id="Agency" stroke="none" stroke-width="1" fill="none" fill-rule="evenodd">
        <g id="web-design">
            <polyline id="Fill-480" fill="#FF7443" points="133.09 72.326 301.237 72.326 301.237 56.998 133.09 56.996 133.09 72.326"></polyline>
            <path d="M324.231,60.28 C324.231,59.442 323.911,58.601 323.269,57.96 C322.626,57.317 321.785,56.996 320.946,56.996 L316.566,56.996 L316.566,72.326 L320.946,72.326 C321.785,72.326 322.626,72.005 323.269,71.361 C323.911,70.722 324.231,69.88 324.231,69.041 L324.231,60.28" id="Fill-481" fill="#AFAFAF"></path>
            <polyline id="Fill-482" fill="#454545" points="132.536 73.986 104.56 64.663 132.536 55.336 133.644 58.656 115.628 64.663 133.644 70.666 132.536 73.986"></polyline>
            <polygon id="Fill-483" fill="#454545" points="116 67.214 119.5 67.214 119.5 62.107 116 62.107"></polygon>
            <path d="M134.84,70.576 L299.487,70.576 L299.487,58.748 L134.84,58.746 L134.84,70.576 L134.84,70.576 Z M301.237,74.076 L133.09,74.076 C132.123,74.076 131.34,73.293 131.34,72.326 L131.34,56.996 C131.34,56.532 131.524,56.087 131.853,55.759 C132.181,55.43 132.626,55.246 133.09,55.246 L301.237,55.248 C302.204,55.248 302.987,56.031 302.987,56.998 L302.987,72.326 C302.987,73.293 302.204,74.076 301.237,74.076 L301.237,74.076 Z" id="Fill-484" fill="#454545"></path>
            <polyline id="Fill-485" fill="#454545" points="301.237 66.412 133.09 66.411 133.09 62.911 301.237 62.912 301.237 66.412"></polyline>
            <path d="M302.987,70.576 L314.816,70.576 L314.816,58.746 L302.987,58.746 L302.987,70.576 Z M299.487,74.076 L318.316,74.076 L318.316,55.246 L299.487,55.246 L299.487,74.076 Z" id="Fill-486" fill="#454545"></path>
            <path d="M318.316,70.576 L320.946,70.576 C321.354,70.576 321.739,70.416 322.03,70.125 C322.323,69.834 322.481,69.45 322.481,69.041 L322.481,60.28 C322.481,59.872 322.322,59.487 322.032,59.198 C321.74,58.906 321.354,58.746 320.946,58.746 L318.316,58.746 L318.316,70.576 L318.316,70.576 Z M320.946,74.076 L314.816,74.076 L314.816,55.246 L320.946,55.246 C322.29,55.246 323.554,55.77 324.506,56.722 C325.457,57.672 325.981,58.935 325.981,60.28 L325.981,69.041 C325.981,70.389 325.456,71.654 324.502,72.602 C323.555,73.551 322.29,74.076 320.946,74.076 L320.946,74.076 Z" id="Fill-487" fill="#454545"></path>
            <polygon id="Fill-488" fill="#454545" points="307.151 72.326 310.651 72.326 310.651 56.996 307.151 56.996"></polygon>
            <polygon id="Fill-489" fill="#4CBED8" points="269.872 263.955 301.237 263.955 301.237 26.338 269.872 26.338"></polygon>
            <polygon id="Fill-490" fill="#41464B" points="269.872 51.083 277.19 51.083 277.19 47.583 269.872 47.583"></polygon>
            <polygon id="Fill-491" fill="#41464B" points="269.872 58.748 277.19 58.748 277.19 55.248 269.872 55.248"></polygon>
            <polygon id="Fill-492" fill="#41464B" points="269.872 66.413 277.19 66.413 277.19 62.913 269.872 62.913"></polygon>
            <polygon id="Fill-493" fill="#41464B" points="269.872 74.078 277.19 74.078 277.19 70.578 269.872 70.578"></polygon>
            <polygon id="Fill-494" fill="#41464B" points="269.872 81.743 277.19 81.743 277.19 78.243 269.872 78.243"></polygon>
            <polygon id="Fill-495" fill="#41464B" points="269.872 89.409 277.19 89.409 277.19 85.909 269.872 85.909"></polygon>
            <polygon id="Fill-496" fill="#41464B" points="269.872 97.073 277.19 97.073 277.19 93.573 269.872 93.573"></polygon>
            <polygon id="Fill-497" fill="#41464B" points="269.872 104.738 277.19 104.738 277.19 101.238 269.872 101.238"></polygon>
            <polygon id="Fill-498" fill="#41464B" points="269.872 112.403 277.19 112.403 277.19 108.903 269.872 108.903"></polygon>
            <polygon id="Fill-499" fill="#41464B" points="269.872 120.068 277.19 120.068 277.19 116.568 269.872 116.568"></polygon>
            <polygon id="Fill-500" fill="#41464B" points="269.872 127.733 277.19 127.733 277.19 124.233 269.872 124.233"></polygon>
            <polygon id="Fill-501" fill="#41464B" points="269.872 135.398 277.19 135.398 277.19 131.898 269.872 131.898"></polygon>
            <polygon id="Fill-502" fill="#41464B" points="269.872 143.063 277.19 143.063 277.19 139.563 269.872 139.563"></polygon>
            <polygon id="Fill-503" fill="#41464B" points="269.872 150.728 277.19 150.728 277.19 147.228 269.872 147.228"></polygon>
            <polygon id="Fill-504" fill="#41464B" points="269.872 158.393 277.19 158.393 277.19 154.893 269.872 154.893"></polygon>
            <polygon id="Fill-505" fill="#41464B" points="269.872 166.058 277.19 166.058 277.19 162.558 269.872 162.558"></polygon>
            <polygon id="Fill-506" fill="#41464B" points="269.872 173.723 277.19 173.723 277.19 170.223 269.872 170.223"></polygon>
            <polygon id="Fill-507" fill="#41464B" points="269.872 181.388 277.19 181.388 277.19 177.888 269.872 177.888"></polygon>
            <polygon id="Fill-508" fill="#41464B" points="269.872 189.053 277.19 189.053 277.19 185.553 269.872 185.553"></polygon>
            <polygon id="Fill-509" fill="#41464B" points="269.872 196.718 277.19 196.718 277.19 193.218 269.872 193.218"></polygon>
            <polygon id="Fill-510" fill="#41464B" points="269.872 204.384 277.19 204.384 277.19 200.884 269.872 200.884"></polygon>
            <polygon id="Fill-511" fill="#41464B" points="269.872 212.049 277.19 212.049 277.19 208.549 269.872 208.549"></polygon>
            <polygon id="Fill-512" fill="#41464B" points="269.872 219.714 277.19 219.714 277.19 216.214 269.872 216.214"></polygon>
            <polygon id="Fill-513" fill="#41464B" points="269.872 227.38 277.19 227.38 277.19 223.88 269.872 223.88"></polygon>
            <polygon id="Fill-514" fill="#41464B" points="269.872 235.045 277.19 235.045 277.19 231.545 269.872 231.545"></polygon>
            <polygon id="Fill-515" fill="#41464B" points="269.872 242.71 277.19 242.71 277.19 239.21 269.872 239.21"></polygon>
            <polygon id="Fill-516" fill="#41464B" points="269.872 250.375 277.19 250.375 277.19 246.875 269.872 246.875"></polygon>
            <polygon id="Fill-517" fill="#41464B" points="269.872 258.04 277.19 258.04 277.19 254.54 269.872 254.54"></polygon>
            <path d="M285.555,36.26 C284.685,36.26 283.978,36.966 283.978,37.834 C283.978,38.704 284.685,39.411 285.555,39.411 C286.424,39.411 287.131,38.704 287.131,37.834 C287.131,36.966 286.424,36.26 285.555,36.26 L285.555,36.26 Z M285.555,42.911 C282.755,42.911 280.478,40.634 280.478,37.834 C280.478,35.036 282.755,32.76 285.555,32.76 C288.354,32.76 290.631,35.036 290.631,37.834 C290.631,40.634 288.354,42.911 285.555,42.911 L285.555,42.911 Z" id="Fill-518" fill="#41464B"></path>
            <polygon id="Fill-519" fill="#41464B" points="31.178 300.072 34.678 300.072 34.678 278.212 31.178 278.212"></polygon>
            <polygon id="Fill-520" fill="#41464B" points="17.871 300.072 21.371 300.072 21.371 278.212 17.871 278.212"></polygon>
            <polygon id="Fill-521" fill="#41464B" points="312.794 300.072 316.294 300.072 316.294 278.212 312.794 278.212"></polygon>
            <polygon id="Fill-522" fill="#41464B" points="299.487 300.072 302.987 300.072 302.987 278.212 299.487 278.212"></polygon>
            <polygon id="Fill-523" fill="#FED65C" points="0.75 278.212 333.414 278.212 333.414 263.955 0.75 263.955"></polygon>
            <polygon id="Fill-524" fill="#41464B" points="0.75 265.705 120.984 265.705 120.984 262.205 0.75 262.205"></polygon>
            <polygon id="Fill-525" fill="#41464B" points="213.18 265.705 333.414 265.705 333.414 262.205 213.18 262.205"></polygon>
            <polygon id="Fill-526" fill="#41464B" points="0.75 279.962 333.414 279.962 333.414 276.462 0.75 276.462"></polygon>
            <path d="M252.718,220.377 C252.718,222.51 251.933,224.644 250.33,226.276 C248.718,227.908 246.602,228.727 244.493,228.727 L89.673,228.727 C87.563,228.727 85.461,227.908 83.854,226.276 C82.243,224.644 81.446,222.51 81.446,220.377 L81.446,209.234 L252.718,209.234 L252.718,220.377" id="Fill-527" fill="#AFAFAF"></path>
            <path d="M83.196,207.484 L250.968,207.484 L250.968,100.276 C250.968,98.499 250.297,96.836 249.08,95.593 C247.858,94.354 246.229,93.67 244.493,93.67 L89.673,93.67 C87.945,93.67 86.322,94.353 85.103,95.594 C83.873,96.843 83.196,98.506 83.196,100.276 L83.196,207.484 L83.196,207.484 Z M254.468,210.984 L79.696,210.984 L79.696,100.276 C79.696,97.581 80.73,95.047 82.607,93.14 C84.489,91.225 86.999,90.17 89.673,90.17 L244.493,90.17 C247.172,90.17 249.688,91.224 251.576,93.139 C253.442,95.046 254.468,97.578 254.468,100.276 L254.468,210.984 L254.468,210.984 Z" id="Fill-528" fill="#41464B"></path>
            <path d="M83.196,210.984 L83.196,220.377 C83.196,222.145 83.872,223.803 85.1,225.047 C86.326,226.293 87.949,226.977 89.673,226.977 L244.493,226.977 C246.224,226.977 247.854,226.292 249.085,225.047 C250.298,223.811 250.968,222.152 250.968,220.377 L250.968,210.984 L83.196,210.984 L83.196,210.984 Z M244.493,230.477 L89.673,230.477 C87.004,230.477 84.495,229.422 82.607,227.504 C80.73,225.603 79.696,223.072 79.696,220.377 L79.696,207.484 L254.468,207.484 L254.468,220.377 C254.468,223.075 253.441,225.605 251.579,227.503 C249.682,229.422 247.167,230.477 244.493,230.477 L244.493,230.477 Z" id="Fill-529" fill="#41464B"></path>
            <path d="M143.748,256.502 L190.416,256.502 L186.801,230.477 L147.364,230.477 L143.748,256.502 L143.748,256.502 Z M194.436,260.002 L139.729,260.002 L144.317,226.977 L189.848,226.977 L194.436,260.002 L194.436,260.002 Z" id="Fill-530" fill="#41464B"></path>
            <polygon id="Fill-531" fill="#41464B" points="159.306 220.731 174.878 220.731 174.878 217.231 159.306 217.231"></polygon>
            <path d="M132.238,262.205 L201.925,262.205 L201.925,260.002 L132.238,260.002 L132.238,262.205 Z M128.738,265.705 L205.425,265.705 L205.425,256.502 L128.738,256.502 L128.738,265.705 Z" id="Fill-532" fill="#41464B"></path>
            <polygon id="Fill-533" fill="#FF7443" points="92.295 161.509 241.876 161.509 241.876 131.455 92.295 131.455"></polygon>
            <polygon id="Fill-534" fill="#AFAFAF" points="92.295 111.495 241.876 111.495 241.876 102.941 92.295 102.941"></polygon>
            <polygon id="Fill-535" fill="#4CBED8" points="92.295 198.209 119.49 198.209 119.49 171.012 92.295 171.012"></polygon>
            <polygon id="Fill-536" fill="#41464B" points="197.666 174.427 201.166 174.427 201.166 170.927 197.666 170.927"></polygon>
            <path d="M181.37,174.427 L185.444,174.427 L185.444,170.927 L181.37,170.927 L181.37,174.427 Z M189.518,174.427 L193.592,174.427 L193.592,170.927 L189.518,170.927 L189.518,174.427 Z" id="Fill-537" fill="#41464B"></path>
            <polygon id="Fill-538" fill="#41464B" points="173.797 174.427 177.297 174.427 177.297 170.927 173.797 170.927"></polygon>
            <path d="M173.797,182.575 L177.297,182.575 L177.297,178.501 L173.797,178.501 L173.797,182.575 Z M173.797,190.722 L177.297,190.722 L177.297,186.648 L173.797,186.648 L173.797,190.722 Z" id="Fill-539" fill="#41464B"></path>
            <polygon id="Fill-540" fill="#41464B" points="173.797 198.296 177.297 198.296 177.297 194.796 173.797 194.796"></polygon>
            <path d="M181.371,198.296 L185.445,198.296 L185.445,194.796 L181.371,194.796 L181.371,198.296 Z M189.519,198.296 L193.593,198.296 L193.593,194.796 L189.519,194.796 L189.519,198.296 Z" id="Fill-541" fill="#41464B"></path>
            <polygon id="Fill-542" fill="#41464B" points="197.666 198.296 201.166 198.296 201.166 194.796 197.666 194.796"></polygon>
            <path d="M197.666,182.574 L201.166,182.574 L201.166,178.5 L197.666,178.5 L197.666,182.574 Z M197.666,190.721 L201.166,190.721 L201.166,186.647 L197.666,186.647 L197.666,190.721 Z" id="Fill-543" fill="#41464B"></path>
            <polygon id="Fill-544" fill="#4CBED8" points="214.678 198.209 241.874 198.209 241.874 171.012 214.678 171.012"></polygon>
            <polygon id="Fill-545" fill="#41464B" points="105.893 123.225 130.762 123.225 130.762 119.725 105.893 119.725"></polygon>
            <polygon id="Fill-546" fill="#41464B" points="138.397 123.225 163.267 123.225 163.267 119.725 138.397 119.725"></polygon>
            <polygon id="Fill-547" fill="#41464B" points="170.902 123.225 195.771 123.225 195.771 119.725 170.902 119.725"></polygon>
            <polygon id="Fill-548" fill="#41464B" points="203.407 123.225 228.275 123.225 228.275 119.725 203.407 119.725"></polygon>
            <polygon id="Fill-549" fill="#AFAFAF" points="134.752 190.13 158.623 190.13 158.623 166.26 134.752 166.26"></polygon>
            <path d="M136.502,188.38 L156.873,188.38 L156.873,168.01 L136.502,168.01 L136.502,188.38 Z M133.002,191.88 L160.373,191.88 L160.373,164.51 L133.002,164.51 L133.002,191.88 Z" id="Fill-550" fill="#41464B"></path>
            <path d="M154.479,167.498 L146.688,159.706 L138.896,167.498 L136.421,165.023 L145.45,155.994 C146.134,155.31 147.241,155.31 147.925,155.994 L156.954,165.023 L154.479,167.498" id="Fill-551" fill="#41464B"></path>
            <path d="M235.404,146.481 C235.404,150.419 232.212,153.61 228.275,153.61 C224.339,153.61 221.147,150.419 221.147,146.481 C221.147,142.545 224.339,139.353 228.275,139.353 C232.212,139.353 235.404,142.545 235.404,146.481" id="Fill-552" fill="#FFFFFF"></path>
            <polygon id="Fill-553" fill="#41464B" points="144.938 131.455 148.438 131.455 148.438 56.996 144.938 56.996"></polygon>
            <path d="M145.111,141.111 L148.265,141.111 L148.265,133.205 L145.111,133.205 L145.111,141.111 Z M141.611,144.611 L151.765,144.611 L151.765,129.705 L141.611,129.705 L141.611,144.611 Z" id="Fill-554" fill="#41464B"></path>
            <path d="M146.688,159.931 C143.103,159.931 140.186,157.014 140.186,153.429 L143.686,153.429 C143.686,155.085 145.032,156.431 146.688,156.431 C148.343,156.431 149.689,155.085 149.689,153.429 C149.689,151.773 148.343,150.427 146.688,150.427 L144.938,150.427 L144.938,142.861 L148.438,142.861 L148.438,147.166 C151.176,147.932 153.189,150.45 153.189,153.429 C153.189,157.014 150.272,159.931 146.688,159.931" id="Fill-555" fill="#41464B"></path>
            <polygon id="Fill-556" fill="#AFAFAF" points="41.936 99.533 67.927 99.533 67.927 86.226 41.936 86.226"></polygon>
            <path d="M86.299,35.62 C84.814,20.766 72.949,8.901 58.085,7.407 L58.435,3.925 C74.949,5.585 88.133,18.768 89.781,35.272 L86.299,35.62" id="Fill-557" fill="#41464B"></path>
            <path d="M43.689,86.226 L40.189,86.226 L40.189,83.326 C40.189,76.553 37.311,70.045 32.292,65.469 L31.359,64.666 C24.936,58.797 20.947,50.856 20.099,42.278 L23.581,41.934 C24.345,49.651 27.935,56.797 33.69,62.054 L34.623,62.859 C40.395,68.12 43.689,75.571 43.689,83.326 L43.689,86.226" id="Fill-558" fill="#41464B"></path>
            <path d="M23.571,35.62 L20.089,35.272 C21.738,18.768 34.917,5.585 51.425,3.925 L51.774,7.407 C36.917,8.901 25.056,20.766 23.571,35.62" id="Fill-559" fill="#41464B"></path>
            <path d="M69.68,86.226 L66.18,86.226 L66.18,83.326 C66.18,75.571 69.476,68.12 75.222,62.884 L76.199,62.027 C81.933,56.79 85.525,49.644 86.288,41.934 L89.771,42.278 C88.924,50.849 84.932,58.791 78.53,64.638 L77.553,65.494 C72.559,70.046 69.68,76.553 69.68,83.326 L69.68,86.226" id="Fill-560" fill="#41464B"></path>
            <polygon id="Fill-561" fill="#41464B" points="38.775 87.976 71.091 87.976 71.091 84.476 38.775 84.476"></polygon>
            <polygon id="Fill-562" fill="#41464B" points="38.775 101.283 71.091 101.283 71.091 97.783 38.775 97.783"></polygon>
            <polygon id="Fill-563" fill="#41464B" points="38.775 94.63 71.091 94.63 71.091 91.13 38.775 91.13"></polygon>
            <polygon id="Fill-564" fill="#41464B" points="47.805 107.936 62.061 107.936 62.061 104.436 47.805 104.436"></polygon>
            <path d="M31.171,38.775 C31.171,51.898 41.809,62.537 54.934,62.537 C68.057,62.537 78.694,51.898 78.694,38.775 C78.694,25.651 68.057,15.013 54.934,15.013 C41.809,15.013 31.171,25.651 31.171,38.775" id="Fill-565" fill="#FED65C"></path>
            <polygon id="Fill-566" fill="#41464B" points="49.855 86.226 53.355 86.226 53.355 38.775 49.855 38.775"></polygon>
            <polygon id="Fill-567" fill="#41464B" points="56.51 86.226 60.01 86.226 60.01 38.775 56.51 38.775"></polygon>
            <polygon id="Fill-568" fill="#41464B" points="45.428 40.525 64.438 40.525 64.438 37.025 45.428 37.025"></polygon>
            <path d="M86.619,40.351 L89.772,40.351 L89.772,37.198 L86.619,37.198 L86.619,40.351 Z M83.119,43.851 L93.272,43.851 L93.272,33.698 L83.119,33.698 L83.119,43.851 Z" id="Fill-569" fill="#41464B"></path>
            <path d="M20.09,40.351 L23.243,40.351 L23.243,37.198 L20.09,37.198 L20.09,40.351 Z M16.59,43.851 L26.743,43.851 L26.743,33.698 L16.59,33.698 L16.59,43.851 Z" id="Fill-570" fill="#41464B"></path>
            <path d="M53.355,7.085 L56.508,7.085 L56.508,3.931 L53.355,3.931 L53.355,7.085 Z M49.855,10.585 L60.008,10.585 L60.008,0.431 L49.855,0.431 L49.855,10.585 Z" id="Fill-571" fill="#41464B"></path>
            <path d="M29.676,158.009 L37.703,158.009 L37.703,134.955 L29.676,134.955 L29.676,158.009 Z M26.176,161.509 L41.203,161.509 L41.203,131.455 L26.176,131.455 L26.176,161.509 Z" id="Fill-572" fill="#41464B"></path>
            <polygon id="Fill-573" fill="#41464B" points="346.555 131.455 348.305 131.455 348.305 127.955 346.555 127.955"></polygon>
            <path d="M324.03,131.455 L327.784,131.455 L327.784,127.955 L324.03,127.955 L324.03,131.455 Z M331.539,131.455 L335.293,131.455 L335.293,127.955 L331.539,127.955 L331.539,131.455 Z M339.047,131.455 L342.801,131.455 L342.801,127.955 L339.047,127.955 L339.047,131.455 Z" id="Fill-574" fill="#41464B"></path>
            <polygon id="Fill-575" fill="#41464B" points="318.526 131.455 320.276 131.455 320.276 127.955 318.526 127.955"></polygon>
            <polygon id="Fill-576" fill="#41464B" points="346.555 168.684 348.305 168.684 348.305 165.184 346.555 165.184"></polygon>
            <path d="M324.03,168.684 L327.784,168.684 L327.784,165.184 L324.03,165.184 L324.03,168.684 Z M331.539,168.684 L335.293,168.684 L335.293,165.184 L331.539,165.184 L331.539,168.684 Z M339.047,168.684 L342.801,168.684 L342.801,165.184 L339.047,165.184 L339.047,168.684 Z" id="Fill-577" fill="#41464B"></path>
            <polygon id="Fill-578" fill="#41464B" points="318.526 168.684 320.276 168.684 320.276 165.184 318.526 165.184"></polygon>
            <polygon id="Fill-579" fill="#41464B" points="313.051 163.209 316.551 163.209 316.551 161.459 313.051 161.459"></polygon>
            <path d="M313.051,142.688 L316.551,142.688 L316.551,138.934 L313.051,138.934 L313.051,142.688 Z M313.051,150.197 L316.551,150.197 L316.551,146.443 L313.051,146.443 L313.051,150.197 Z M313.051,157.705 L316.551,157.705 L316.551,153.951 L313.051,153.951 L313.051,157.705 Z" id="Fill-580" fill="#41464B"></path>
            <polygon id="Fill-581" fill="#41464B" points="313.051 135.18 316.551 135.18 316.551 133.43 313.051 133.43"></polygon>
            <polygon id="Fill-582" fill="#41464B" points="350.281 163.209 353.781 163.209 353.781 161.459 350.281 161.459"></polygon>
            <path d="M350.281,142.688 L353.781,142.688 L353.781,138.934 L350.281,138.934 L350.281,142.688 Z M350.281,150.197 L353.781,150.197 L353.781,146.443 L350.281,146.443 L350.281,150.197 Z M350.281,157.705 L353.781,157.705 L353.781,153.951 L350.281,153.951 L350.281,157.705 Z" id="Fill-583" fill="#41464B"></path>
            <polygon id="Fill-584" fill="#41464B" points="350.281 135.18 353.781 135.18 353.781 133.43 350.281 133.43"></polygon>
            <path d="M312.828,131.68 L316.774,131.68 L316.774,127.733 L312.828,127.733 L312.828,131.68 Z M309.328,135.18 L320.274,135.18 L320.274,124.233 L309.328,124.233 L309.328,135.18 Z" id="Fill-585" fill="#41464B"></path>
            <path d="M350.053,131.68 L354,131.68 L354,127.733 L350.053,127.733 L350.053,131.68 Z M346.553,135.18 L357.5,135.18 L357.5,124.233 L346.553,124.233 L346.553,135.18 Z" id="Fill-586" fill="#41464B"></path>
            <path d="M312.828,168.905 L316.774,168.905 L316.774,164.959 L312.828,164.959 L312.828,168.905 Z M309.328,172.405 L320.274,172.405 L320.274,161.459 L309.328,161.459 L309.328,172.405 Z" id="Fill-587" fill="#41464B"></path>
            <path d="M350.053,168.905 L354,168.905 L354,164.959 L350.053,164.959 L350.053,168.905 Z M346.553,172.405 L357.5,172.405 L357.5,161.459 L346.553,161.459 L346.553,172.405 Z" id="Fill-588" fill="#41464B"></path>
            <polygon id="Fill-589" fill="#FED65C" points="324.374 157.359 342.454 157.359 342.454 139.28 324.374 139.28"></polygon>
            <polygon id="Fill-590" fill="#41464B" points="19.437 202.01 22.937 202.01 22.937 182.052 19.437 182.052"></polygon>
            <polygon id="Fill-591" fill="#41464B" points="16.196 203.76 26.177 203.76 26.177 200.26 16.196 200.26"></polygon>
            <polyline id="Fill-592" fill="#41464B" points="32.914 187.038 29.414 187.038 29.414 183.802 12.959 183.802 12.959 187.038 9.459 187.038 9.459 180.302 32.914 180.302 32.914 187.038"></polyline>
            <polyline id="Fill-593" fill="#41464B" points="39.57 179.831 36.07 179.831 36.07 177.148 33.385 177.148 33.385 173.648 39.57 173.648 39.57 179.831"></polyline>
            <polyline id="Fill-594" fill="#41464B" points="6.303 179.831 2.803 179.831 2.803 173.648 8.989 173.648 8.989 177.148 6.303 177.148 6.303 179.831"></polyline>
            <polyline id="Fill-595" fill="#41464B" points="39.57 210.413 33.385 210.413 33.385 206.913 36.07 206.913 36.07 204.231 39.57 204.231 39.57 210.413"></polyline>
            <polyline id="Fill-596" fill="#41464B" points="8.989 210.413 2.803 210.413 2.803 204.231 6.303 204.231 6.303 206.913 8.989 206.913 8.989 210.413"></polyline>
            <polygon id="Fill-597" fill="#41464B" points="86.695 134.955 90.195 134.955 90.195 131.455 86.695 131.455"></polygon>
            <polygon id="Fill-598" fill="#41464B" points="79.697 134.955 83.196 134.955 83.196 131.455 79.697 131.455"></polygon>
            <polygon id="Fill-599" fill="#41464B" points="72.697 134.955 76.197 134.955 76.197 131.455 72.697 131.455"></polygon>
            <polygon id="Fill-600" fill="#41464B" points="65.699 134.955 69.198 134.955 69.198 131.455 65.699 131.455"></polygon>
            <polygon id="Fill-601" fill="#41464B" points="58.699 134.955 62.199 134.955 62.199 131.455 58.699 131.455"></polygon>
            <polygon id="Fill-602" fill="#41464B" points="51.701 134.955 55.2 134.955 55.2 131.455 51.701 131.455"></polygon>
            <polygon id="Fill-603" fill="#41464B" points="44.701 134.955 48.201 134.955 48.201 131.455 44.701 131.455"></polygon>
            <polygon id="Fill-604" fill="#41464B" points="37.703 134.955 41.203 134.955 41.203 131.455 37.703 131.455"></polygon>
            <polygon id="Fill-605" fill="#41464B" points="86.695 161.509 90.195 161.509 90.195 158.009 86.695 158.009"></polygon>
            <polygon id="Fill-606" fill="#41464B" points="79.697 161.509 83.196 161.509 83.196 158.009 79.697 158.009"></polygon>
            <polygon id="Fill-607" fill="#41464B" points="72.697 161.509 76.197 161.509 76.197 158.009 72.697 158.009"></polygon>
            <polygon id="Fill-608" fill="#41464B" points="65.699 161.509 69.198 161.509 69.198 158.009 65.699 158.009"></polygon>
            <polygon id="Fill-609" fill="#41464B" points="58.699 161.509 62.199 161.509 62.199 158.009 58.699 158.009"></polygon>
            <polygon id="Fill-610" fill="#41464B" points="51.701 161.509 55.2 161.509 55.2 158.009 51.701 158.009"></polygon>
            <polygon id="Fill-611" fill="#41464B" points="44.701 161.509 48.201 161.509 48.201 158.009 44.701 158.009"></polygon>
            <polygon id="Fill-612" fill="#41464B" points="37.703 161.509 41.203 161.509 41.203 158.009 37.703 158.009"></polygon>
            <path d="M53.855,226.1 L35.709,244.246 C40.72,249.257 48.846,249.258 53.855,244.246 C58.866,239.235 58.866,231.11 53.855,226.1" id="Fill-613" fill="#FF7443"></path>
            <path d="M44.783,224.092 C38.673,224.092 33.701,229.063 33.701,235.174 C33.701,241.284 38.673,246.255 44.783,246.255 C50.893,246.255 55.863,241.284 55.863,235.174 C55.863,229.063 50.893,224.092 44.783,224.092 L44.783,224.092 Z M44.783,249.755 C36.742,249.755 30.201,243.214 30.201,235.174 C30.201,227.133 36.742,220.592 44.783,220.592 C52.822,220.592 59.363,227.133 59.363,235.174 C59.363,243.214 52.822,249.755 44.783,249.755 L44.783,249.755 Z" id="Fill-614" fill="#41464B"></path>
            <polyline id="Fill-615" fill="#41464B" points="29.218 253.213 26.743 250.738 60.347 217.134 62.821 219.608 29.218 253.213"></polyline>
            <path d="M313.632,241.752 L315.971,241.752 L317.778,237.018 L318.646,236.789 C319.97,236.437 321.25,235.905 322.45,235.208 L323.225,234.758 L327.861,236.822 L329.511,235.172 L327.444,230.537 L327.896,229.762 C328.591,228.574 329.121,227.294 329.476,225.957 L329.705,225.09 L334.438,223.285 L334.438,220.943 L329.706,219.138 L329.476,218.272 C329.123,216.943 328.591,215.661 327.895,214.461 L327.445,213.687 L329.512,209.057 L327.861,207.406 L323.221,209.48 L322.442,209.023 C321.268,208.332 319.99,207.802 318.647,207.447 L317.779,207.218 L315.971,202.483 L313.632,202.483 L311.823,207.218 L310.956,207.446 C309.615,207.802 308.337,208.332 307.158,209.024 L306.381,209.48 L301.744,207.406 L300.093,209.057 L302.16,213.686 L301.711,214.461 C301.014,215.664 300.481,216.945 300.13,218.271 L299.9,219.138 L295.167,220.943 L295.167,223.285 L299.901,225.09 L300.131,225.958 C300.482,227.292 301.014,228.571 301.709,229.762 L302.161,230.538 L300.093,235.171 L301.745,236.822 L306.378,234.758 L307.151,235.207 C308.353,235.904 309.633,236.436 310.958,236.789 L311.824,237.019 L313.632,241.752 L313.632,241.752 Z M318.381,245.252 L311.222,245.252 L309.184,239.916 C308.156,239.589 307.155,239.173 306.191,238.673 L300.972,240.998 L295.915,235.944 L298.244,230.726 C297.744,229.765 297.328,228.762 297.001,227.73 L291.667,225.697 L291.667,218.531 L297.002,216.498 C297.329,215.469 297.745,214.468 298.245,213.503 L295.915,208.286 L300.973,203.226 L306.189,205.56 C307.146,205.061 308.148,204.645 309.185,204.317 L311.222,198.983 L318.381,198.983 L320.418,204.317 C321.456,204.645 322.458,205.061 323.414,205.56 L328.635,203.226 L333.688,208.286 L331.36,213.503 C331.859,214.467 332.275,215.468 332.603,216.498 L337.938,218.533 L337.938,225.697 L332.604,227.73 C332.275,228.764 331.86,229.766 331.361,230.726 L333.688,235.943 L328.635,240.998 L323.411,238.673 C322.448,239.173 321.446,239.59 320.419,239.917 L318.381,245.252 L318.381,245.252 Z" id="Fill-616" fill="#454545"></path>
            <path d="M314.802,231.348 C309.702,231.348 305.568,227.215 305.568,222.115 C305.568,217.019 309.702,212.88 314.802,212.88 C319.899,212.88 324.035,217.019 324.035,222.115 C324.035,227.215 319.899,231.348 314.802,231.348" id="Fill-617" fill="#AFAFAF"></path>
            <polygon id="Fill-618" fill="#AFAFAF" points="207.711 44.477 233.615 44.477 233.615 33.071 207.711 33.071"></polygon>
            <path d="M179.046,38.776 L197.054,47.113 L205.961,40.635 L205.961,36.913 L197.055,30.445 L179.046,38.776 L179.046,38.776 Z M197.45,51.154 L170.712,38.774 L197.449,26.406 L209.461,35.13 L209.461,42.417 L197.45,51.154 L197.45,51.154 Z" id="Fill-619" fill="#41464B"></path>
            <polygon id="Fill-620" fill="#41464B" points="205.961 48.284 209.461 48.284 209.461 29.275 205.961 29.275"></polygon>
            <polyline id="Fill-621" fill="#41464B" points="174.879 40.525 174.879 37.025 191.295 37.024 191.295 40.524 174.879 40.525"></polyline>
            <polygon id="Fill-622" fill="#41464B" points="91.522 40.525 93.272 40.525 93.272 37.025 91.522 37.025"></polygon>
            <path d="M96.744,40.525 L100.216,40.525 L100.216,37.025 L96.744,37.025 L96.744,40.525 Z M103.688,40.525 L107.16,40.525 L107.16,37.025 L103.688,37.025 L103.688,40.525 Z M110.632,40.525 L114.104,40.525 L114.104,37.025 L110.632,37.025 L110.632,40.525 Z M117.576,40.525 L121.048,40.525 L121.048,37.025 L117.576,37.025 L117.576,40.525 Z M124.521,40.525 L127.992,40.525 L127.992,37.025 L124.521,37.025 L124.521,40.525 Z M131.464,40.525 L134.937,40.525 L134.937,37.025 L131.464,37.025 L131.464,40.525 Z M138.408,40.525 L141.881,40.525 L141.881,37.025 L138.408,37.025 L138.408,40.525 Z M145.353,40.525 L148.824,40.525 L148.824,37.025 L145.353,37.025 L145.353,40.525 Z M152.297,40.525 L155.769,40.525 L155.769,37.025 L152.297,37.025 L152.297,40.525 Z M159.24,40.525 L162.713,40.525 L162.713,37.025 L159.24,37.025 L159.24,40.525 Z M166.185,40.525 L169.656,40.525 L169.656,37.025 L166.185,37.025 L166.185,40.525 Z" id="Fill-623" fill="#41464B"></path>
            <polygon id="Fill-624" fill="#41464B" points="173.129 40.525 174.879 40.525 174.879 37.025 173.129 37.025"></polygon>
            <path d="M74.793,240.419 C72.09,240.419 69.891,242.618 69.891,245.322 C69.891,248.026 72.09,250.225 74.793,250.225 C77.497,250.225 79.696,248.026 79.696,245.322 C79.696,242.618 77.497,240.419 74.793,240.419 L74.793,240.419 Z M74.793,253.725 C70.16,253.725 66.391,249.956 66.391,245.322 C66.391,240.688 70.16,236.919 74.793,236.919 C79.427,236.919 83.196,240.688 83.196,245.322 C83.196,249.956 79.427,253.725 74.793,253.725 L74.793,253.725 Z" id="Fill-625" fill="#41464B"></path>
            <path d="M59.823,183.007 C58.953,183.007 58.246,183.714 58.246,184.583 C58.246,185.453 58.953,186.16 59.823,186.16 C60.693,186.16 61.4,185.453 61.4,184.583 C61.4,183.714 60.693,183.007 59.823,183.007 L59.823,183.007 Z M59.823,189.66 C57.023,189.66 54.746,187.383 54.746,184.583 C54.746,181.784 57.023,179.507 59.823,179.507 C62.623,179.507 64.9,181.784 64.9,184.583 C64.9,187.383 62.623,189.66 59.823,189.66 L59.823,189.66 Z" id="Fill-626" fill="#41464B"></path>
            <path d="M259.775,263.955 L256.275,263.955 C256.275,261.371 255.27,258.942 253.442,257.114 C251.614,255.287 249.186,254.281 246.602,254.281 L236.449,254.281 C233.865,254.281 231.437,255.287 229.608,257.114 C227.781,258.942 226.775,261.371 226.775,263.955 L223.275,263.955 C223.275,260.436 224.646,257.129 227.134,254.639 C229.623,252.151 232.931,250.781 236.449,250.781 L246.602,250.781 C250.12,250.781 253.428,252.151 255.917,254.639 C258.405,257.129 259.775,260.436 259.775,263.955" id="Fill-627" fill="#41464B"></path>
        </g>
    </g>
</svg>