<?xml version="1.0" encoding="UTF-8" standalone="no"?>
<svg width="316px" height="350px" viewBox="0 0 316 350" version="1.1" xmlns="http://www.w3.org/2000/svg" xmlns:xlink="http://www.w3.org/1999/xlink">
    <!-- Generator: Sketch 39 (31667) - http://www.bohemiancoding.com/sketch -->
    <title>app-development</title>
    <desc>Created with Sketch.</desc>
    <defs></defs>
    <g id="Agency" stroke="none" stroke-width="1" fill="none" fill-rule="evenodd">
        <g id="app-development">
            <polygon id="Fill-339" fill="#4CBED8" points="0.083 53.816 138.27 53.816 138.27 30.559 0.083 30.559"></polygon>
            <polygon id="Fill-340" fill="#41464B" points="129.942 53.816 133.442 53.816 133.442 48.002 129.942 48.002"></polygon>
            <polygon id="Fill-341" fill="#41464B" points="123.361 53.816 126.861 53.816 126.861 48.002 123.361 48.002"></polygon>
            <polygon id="Fill-342" fill="#41464B" points="116.78 53.816 120.28 53.816 120.28 48.002 116.78 48.002"></polygon>
            <polygon id="Fill-343" fill="#41464B" points="110.201 53.816 113.701 53.816 113.701 48.002 110.201 48.002"></polygon>
            <polygon id="Fill-344" fill="#41464B" points="103.62 53.816 107.12 53.816 107.12 48.002 103.62 48.002"></polygon>
            <polygon id="Fill-345" fill="#41464B" points="97.039 53.816 100.539 53.816 100.539 48.002 97.039 48.002"></polygon>
            <polygon id="Fill-346" fill="#41464B" points="90.459 53.816 93.959 53.816 93.959 48.002 90.459 48.002"></polygon>
            <polygon id="Fill-347" fill="#41464B" points="83.878 53.816 87.378 53.816 87.378 48.002 83.878 48.002"></polygon>
            <polygon id="Fill-348" fill="#41464B" points="77.299 53.816 80.799 53.816 80.799 48.002 77.299 48.002"></polygon>
            <polygon id="Fill-349" fill="#41464B" points="70.718 53.816 74.218 53.816 74.218 48.002 70.718 48.002"></polygon>
            <polygon id="Fill-350" fill="#41464B" points="64.137 53.816 67.637 53.816 67.637 48.002 64.137 48.002"></polygon>
            <polygon id="Fill-351" fill="#41464B" points="57.558 53.816 61.058 53.816 61.058 48.002 57.558 48.002"></polygon>
            <polygon id="Fill-352" fill="#41464B" points="50.977 53.816 54.477 53.816 54.477 48.002 50.977 48.002"></polygon>
            <polygon id="Fill-353" fill="#41464B" points="44.397 53.816 47.897 53.816 47.897 48.002 44.397 48.002"></polygon>
            <polygon id="Fill-354" fill="#41464B" points="37.816 53.816 41.316 53.816 41.316 48.002 37.816 48.002"></polygon>
            <polygon id="Fill-355" fill="#41464B" points="31.235 53.816 34.735 53.816 34.735 48.002 31.235 48.002"></polygon>
            <polygon id="Fill-356" fill="#41464B" points="24.656 53.816 28.156 53.816 28.156 48.002 24.656 48.002"></polygon>
            <polygon id="Fill-357" fill="#41464B" points="18.075 53.816 21.575 53.816 21.575 48.002 18.075 48.002"></polygon>
            <polygon id="Fill-358" fill="#41464B" points="11.494 53.816 14.994 53.816 14.994 48.002 11.494 48.002"></polygon>
            <polygon id="Fill-359" fill="#41464B" points="4.915 53.816 8.415 53.816 8.415 48.002 4.915 48.002"></polygon>
            <path d="M220.013,75.343 L220.013,52.794 C220.013,46.959 215.241,42.188 209.408,42.188 L96.24,42.188 C90.405,42.188 85.628,46.959 85.628,52.794 L85.628,75.343 L220.013,75.343" id="Fill-360" fill="#AFAFAF"></path>
            <path d="M85.628,269.511 L85.628,292.062 C85.628,297.895 90.405,302.669 96.24,302.669 L209.408,302.669 C215.241,302.669 220.013,297.895 220.013,292.062 L220.013,269.511 L85.628,269.511" id="Fill-361" fill="#AFAFAF"></path>
            <path d="M172.716,286.09 C172.716,288.527 170.728,290.515 168.291,290.515 L137.351,290.515 C134.919,290.515 132.927,288.527 132.927,286.09 C132.927,283.663 134.919,281.675 137.351,281.675 L168.291,281.675 C170.728,281.675 172.716,283.663 172.716,286.09" id="Fill-362" fill="#FFFFFF"></path>
            <path d="M117.677,58.766 C117.677,60.714 116.095,62.302 114.141,62.302 C112.19,62.302 110.606,60.714 110.606,58.766 C110.606,56.811 112.19,55.23 114.141,55.23 C116.095,55.23 117.677,56.811 117.677,58.766" id="Fill-363" fill="#FFFFFF"></path>
            <polygon id="Fill-364" fill="#41464B" points="142.654 60.516 162.988 60.516 162.988 57.016 142.654 57.016"></polygon>
            <path d="M96.24,43.938 C91.354,43.938 87.378,47.911 87.378,52.794 L87.378,292.062 C87.378,296.946 91.354,300.919 96.24,300.919 L209.408,300.919 C214.291,300.919 218.263,296.946 218.263,292.062 L218.263,52.794 C218.263,47.911 214.291,43.938 209.408,43.938 L96.24,43.938 L96.24,43.938 Z M209.408,304.419 L96.24,304.419 C89.424,304.419 83.878,298.876 83.878,292.062 L83.878,52.794 C83.878,45.981 89.424,40.438 96.24,40.438 L209.408,40.438 C216.221,40.438 221.763,45.981 221.763,52.794 L221.763,292.062 C221.763,298.876 216.221,304.419 209.408,304.419 L209.408,304.419 Z" id="Fill-365" fill="#41464B"></path>
            <path d="M137.351,283.425 C135.877,283.425 134.677,284.62 134.677,286.09 C134.677,287.565 135.877,288.765 137.351,288.765 L168.291,288.765 C169.766,288.765 170.966,287.565 170.966,286.09 C170.966,284.62 169.766,283.425 168.291,283.425 L137.351,283.425 L137.351,283.425 Z M168.291,292.265 L137.351,292.265 C133.947,292.265 131.177,289.495 131.177,286.09 C131.177,282.69 133.947,279.925 137.351,279.925 L168.291,279.925 C171.696,279.925 174.466,282.69 174.466,286.09 C174.466,289.495 171.696,292.265 168.291,292.265 L168.291,292.265 Z" id="Fill-366" fill="#41464B"></path>
            <path d="M87.378,267.761 L218.263,267.761 L218.263,77.093 L87.378,77.093 L87.378,267.761 Z M83.878,271.261 L221.763,271.261 L221.763,73.593 L83.878,73.593 L83.878,271.261 Z" id="Fill-367" fill="#41464B"></path>
            <path d="M114.141,56.98 C113.157,56.98 112.356,57.781 112.356,58.766 C112.356,59.751 113.157,60.552 114.141,60.552 C115.126,60.552 115.927,59.751 115.927,58.766 C115.927,57.781 115.126,56.98 114.141,56.98 L114.141,56.98 Z M114.141,64.052 C111.227,64.052 108.856,61.68 108.856,58.766 C108.856,55.851 111.227,53.48 114.141,53.48 C117.056,53.48 119.427,55.851 119.427,58.766 C119.427,61.68 117.056,64.052 114.141,64.052 L114.141,64.052 Z" id="Fill-368" fill="#41464B"></path>
            <path d="M117.938,135.685 C117.938,136.709 117.101,137.546 116.078,137.546 L99.868,137.546 C98.844,137.546 98.007,136.709 98.007,135.685 L98.007,119.476 C98.007,118.453 98.844,117.616 99.868,117.616 L116.078,117.616 C117.101,117.616 117.938,118.453 117.938,119.476 L117.938,135.685" id="Fill-369" fill="#AFAFAF"></path>
            <path d="M177.735,165.589 C177.735,166.611 176.898,167.449 175.875,167.449 L159.66,167.449 C158.637,167.449 157.799,166.611 157.799,165.589 L157.799,149.375 C157.799,148.351 158.637,147.514 159.66,147.514 L175.875,147.514 C176.898,147.514 177.735,148.351 177.735,149.375 L177.735,165.589" id="Fill-370" fill="#AFAFAF"></path>
            <path d="M147.836,255.277 C147.836,256.301 146.999,257.138 145.976,257.138 L129.767,257.138 C128.744,257.138 127.906,256.301 127.906,255.277 L127.906,239.063 C127.906,238.04 128.744,237.202 129.767,237.202 L145.976,237.202 C146.999,237.202 147.836,238.04 147.836,239.063 L147.836,255.277" id="Fill-371" fill="#AFAFAF"></path>
            <path d="M147.837,105.792 C147.837,106.815 147,107.652 145.977,107.652 L129.767,107.652 C128.744,107.652 127.906,106.815 127.906,105.792 L127.906,89.578 C127.906,88.555 128.744,87.718 129.767,87.718 L145.977,87.718 C147,87.718 147.837,88.555 147.837,89.578 L147.837,105.792" id="Fill-372" fill="#FF7443"></path>
            <path d="M117.943,255.277 C117.943,256.301 117.105,257.138 116.083,257.138 L99.868,257.138 C98.845,257.138 98.007,256.301 98.007,255.277 L98.007,239.063 C98.007,238.04 98.845,237.202 99.868,237.202 L116.083,237.202 C117.105,237.202 117.943,238.04 117.943,239.063 L117.943,255.277" id="Fill-373" fill="#FF7443"></path>
            <path d="M207.635,135.685 C207.635,136.709 206.797,137.546 205.775,137.546 L189.564,137.546 C188.541,137.546 187.704,136.709 187.704,135.685 L187.704,119.476 C187.704,118.453 188.541,117.616 189.564,117.616 L205.775,117.616 C206.797,117.616 207.635,118.453 207.635,119.476 L207.635,135.685" id="Fill-374" fill="#FF7443"></path>
            <path d="M117.938,105.793 C117.938,106.815 117.101,107.653 116.078,107.653 L99.868,107.653 C98.844,107.653 98.007,106.815 98.007,105.793 L98.007,89.578 C98.007,88.555 98.844,87.718 99.868,87.718 L116.078,87.718 C117.101,87.718 117.938,88.555 117.938,89.578 L117.938,105.793" id="Fill-375" fill="#4CBED8"></path>
            <path d="M177.735,105.793 C177.735,106.815 176.898,107.653 175.875,107.653 L159.66,107.653 C158.637,107.653 157.799,106.815 157.799,105.793 L157.799,89.578 C157.799,88.555 158.637,87.718 159.66,87.718 L175.875,87.718 C176.898,87.718 177.735,88.555 177.735,89.578 L177.735,105.793" id="Fill-376" fill="#4CBED8"></path>
            <path d="M147.836,135.685 C147.836,136.709 146.999,137.546 145.976,137.546 L129.767,137.546 C128.744,137.546 127.906,136.709 127.906,135.685 L127.906,119.476 C127.906,118.453 128.744,117.616 129.767,117.616 L145.976,117.616 C146.999,117.616 147.836,118.453 147.836,119.476 L147.836,135.685" id="Fill-377" fill="#4CBED8"></path>
            <path d="M147.836,165.589 C147.836,166.611 146.999,167.449 145.976,167.449 L129.767,167.449 C128.744,167.449 127.906,166.611 127.906,165.589 L127.906,149.375 C127.906,148.351 128.744,147.514 129.767,147.514 L145.976,147.514 C146.999,147.514 147.836,148.351 147.836,149.375 L147.836,165.589" id="Fill-378" fill="#FF7443"></path>
            <path d="M207.635,255.277 C207.635,256.301 206.797,257.138 205.775,257.138 L189.564,257.138 C188.541,257.138 187.704,256.301 187.704,255.277 L187.704,239.063 C187.704,238.04 188.541,237.202 189.564,237.202 L205.775,237.202 C206.797,237.202 207.635,238.04 207.635,239.063 L207.635,255.277" id="Fill-379" fill="#4CBED8"></path>
            <path d="M99.868,89.468 C99.811,89.468 99.757,89.521 99.757,89.578 L99.757,105.793 C99.757,105.849 99.811,105.903 99.868,105.903 L116.078,105.903 C116.135,105.903 116.188,105.849 116.188,105.793 L116.188,89.578 C116.188,89.521 116.135,89.468 116.078,89.468 L99.868,89.468 L99.868,89.468 Z M116.078,109.403 L99.868,109.403 C97.877,109.403 96.257,107.784 96.257,105.793 L96.257,89.578 C96.257,87.587 97.877,85.968 99.868,85.968 L116.078,85.968 C118.069,85.968 119.688,87.587 119.688,89.578 L119.688,105.793 C119.688,107.784 118.069,109.403 116.078,109.403 L116.078,109.403 Z" id="Fill-380" fill="#41464B"></path>
            <path d="M129.767,89.468 C129.71,89.468 129.656,89.521 129.656,89.578 L129.656,105.793 C129.656,105.849 129.71,105.903 129.767,105.903 L145.976,105.903 C146.032,105.903 146.086,105.849 146.086,105.793 L146.086,89.578 C146.086,89.521 146.032,89.468 145.976,89.468 L129.767,89.468 L129.767,89.468 Z M145.976,109.403 L129.767,109.403 C127.776,109.403 126.156,107.784 126.156,105.793 L126.156,89.578 C126.156,87.587 127.776,85.968 129.767,85.968 L145.976,85.968 C147.966,85.968 149.586,87.587 149.586,89.578 L149.586,105.793 C149.586,107.784 147.966,109.403 145.976,109.403 L145.976,109.403 Z" id="Fill-381" fill="#41464B"></path>
            <path d="M159.66,89.468 C159.604,89.468 159.549,89.522 159.549,89.578 L159.549,105.793 C159.549,105.848 159.604,105.903 159.66,105.903 L175.875,105.903 C175.931,105.903 175.985,105.849 175.985,105.793 L175.985,89.578 C175.985,89.521 175.931,89.468 175.875,89.468 L159.66,89.468 L159.66,89.468 Z M175.875,109.403 L159.66,109.403 C157.669,109.403 156.049,107.784 156.049,105.793 L156.049,89.578 C156.049,87.587 157.669,85.968 159.66,85.968 L175.875,85.968 C177.865,85.968 179.485,87.587 179.485,89.578 L179.485,105.793 C179.485,107.784 177.865,109.403 175.875,109.403 L175.875,109.403 Z" id="Fill-382" fill="#41464B"></path>
            <path d="M189.564,89.468 C189.507,89.468 189.454,89.521 189.454,89.578 L189.454,105.793 C189.454,105.849 189.507,105.903 189.564,105.903 L205.775,105.903 C205.831,105.903 205.885,105.848 205.885,105.793 L205.885,89.578 C205.885,89.522 205.831,89.468 205.775,89.468 L189.564,89.468 L189.564,89.468 Z M205.775,109.403 L189.564,109.403 C187.573,109.403 185.954,107.784 185.954,105.793 L185.954,89.578 C185.954,87.587 187.573,85.968 189.564,85.968 L205.775,85.968 C207.766,85.968 209.385,87.587 209.385,89.578 L209.385,105.793 C209.385,107.784 207.766,109.403 205.775,109.403 L205.775,109.403 Z" id="Fill-383" fill="#41464B"></path>
            <path d="M99.868,119.366 C99.811,119.366 99.757,119.42 99.757,119.476 L99.757,135.685 C99.757,135.742 99.811,135.796 99.868,135.796 L116.078,135.796 C116.135,135.796 116.188,135.742 116.188,135.685 L116.188,119.476 C116.188,119.42 116.135,119.366 116.078,119.366 L99.868,119.366 L99.868,119.366 Z M116.078,139.296 L99.868,139.296 C97.877,139.296 96.257,137.677 96.257,135.685 L96.257,119.476 C96.257,117.485 97.877,115.866 99.868,115.866 L116.078,115.866 C118.069,115.866 119.688,117.485 119.688,119.476 L119.688,135.685 C119.688,137.677 118.069,139.296 116.078,139.296 L116.078,139.296 Z" id="Fill-384" fill="#41464B"></path>
            <path d="M129.767,119.366 C129.71,119.366 129.656,119.42 129.656,119.476 L129.656,135.685 C129.656,135.742 129.71,135.796 129.767,135.796 L145.976,135.796 C146.032,135.796 146.086,135.742 146.086,135.685 L146.086,119.476 C146.086,119.42 146.032,119.366 145.976,119.366 L129.767,119.366 L129.767,119.366 Z M145.976,139.296 L129.767,139.296 C127.776,139.296 126.156,137.677 126.156,135.685 L126.156,119.476 C126.156,117.485 127.776,115.866 129.767,115.866 L145.976,115.866 C147.966,115.866 149.586,117.485 149.586,119.476 L149.586,135.685 C149.586,137.677 147.966,139.296 145.976,139.296 L145.976,139.296 Z" id="Fill-385" fill="#41464B"></path>
            <path d="M159.66,119.366 C159.603,119.366 159.549,119.42 159.549,119.476 L159.549,135.685 C159.549,135.742 159.603,135.796 159.66,135.796 L175.875,135.796 C175.931,135.796 175.985,135.742 175.985,135.685 L175.985,119.476 C175.985,119.42 175.931,119.366 175.875,119.366 L159.66,119.366 L159.66,119.366 Z M175.875,139.296 L159.66,139.296 C157.669,139.296 156.049,137.677 156.049,135.685 L156.049,119.476 C156.049,117.485 157.669,115.866 159.66,115.866 L175.875,115.866 C177.865,115.866 179.485,117.485 179.485,119.476 L179.485,135.685 C179.485,137.677 177.865,139.296 175.875,139.296 L175.875,139.296 Z" id="Fill-386" fill="#41464B"></path>
            <path d="M189.564,119.366 C189.507,119.366 189.454,119.42 189.454,119.476 L189.454,135.685 C189.454,135.742 189.507,135.796 189.564,135.796 L205.775,135.796 C205.832,135.796 205.885,135.742 205.885,135.685 L205.885,119.476 C205.885,119.42 205.832,119.366 205.775,119.366 L189.564,119.366 L189.564,119.366 Z M205.775,139.296 L189.564,139.296 C187.573,139.296 185.954,137.677 185.954,135.685 L185.954,119.476 C185.954,117.485 187.573,115.866 189.564,115.866 L205.775,115.866 C207.766,115.866 209.385,117.485 209.385,119.476 L209.385,135.685 C209.385,137.677 207.766,139.296 205.775,139.296 L205.775,139.296 Z" id="Fill-387" fill="#41464B"></path>
            <path d="M99.868,149.264 C99.811,149.264 99.757,149.318 99.757,149.375 L99.757,165.589 C99.757,165.645 99.811,165.699 99.868,165.699 L116.078,165.699 C116.135,165.699 116.188,165.645 116.188,165.589 L116.188,149.375 C116.188,149.318 116.135,149.264 116.078,149.264 L99.868,149.264 L99.868,149.264 Z M116.078,169.199 L99.868,169.199 C97.877,169.199 96.257,167.58 96.257,165.589 L96.257,149.375 C96.257,147.384 97.877,145.764 99.868,145.764 L116.078,145.764 C118.069,145.764 119.688,147.384 119.688,149.375 L119.688,165.589 C119.688,167.58 118.069,169.199 116.078,169.199 L116.078,169.199 Z" id="Fill-388" fill="#41464B"></path>
            <path d="M129.767,149.264 C129.71,149.264 129.656,149.318 129.656,149.375 L129.656,165.589 C129.656,165.645 129.71,165.699 129.767,165.699 L145.976,165.699 C146.032,165.699 146.086,165.645 146.086,165.589 L146.086,149.375 C146.086,149.318 146.032,149.264 145.976,149.264 L129.767,149.264 L129.767,149.264 Z M145.976,169.199 L129.767,169.199 C127.776,169.199 126.156,167.58 126.156,165.589 L126.156,149.375 C126.156,147.384 127.776,145.764 129.767,145.764 L145.976,145.764 C147.966,145.764 149.586,147.384 149.586,149.375 L149.586,165.589 C149.586,167.58 147.966,169.199 145.976,169.199 L145.976,169.199 Z" id="Fill-389" fill="#41464B"></path>
            <path d="M159.66,149.264 C159.603,149.264 159.549,149.318 159.549,149.375 L159.549,165.589 C159.549,165.644 159.604,165.699 159.66,165.699 L175.875,165.699 C175.931,165.699 175.985,165.645 175.985,165.589 L175.985,149.375 C175.985,149.318 175.931,149.264 175.875,149.264 L159.66,149.264 L159.66,149.264 Z M175.875,169.199 L159.66,169.199 C157.669,169.199 156.049,167.58 156.049,165.589 L156.049,149.375 C156.049,147.384 157.669,145.764 159.66,145.764 L175.875,145.764 C177.865,145.764 179.485,147.384 179.485,149.375 L179.485,165.589 C179.485,167.58 177.865,169.199 175.875,169.199 L175.875,169.199 Z" id="Fill-390" fill="#41464B"></path>
            <path d="M99.868,238.952 C99.811,238.952 99.757,239.006 99.757,239.063 L99.757,255.277 C99.757,255.335 99.811,255.388 99.868,255.388 L116.078,255.388 C116.135,255.388 116.188,255.335 116.188,255.277 L116.188,239.063 C116.188,239.006 116.135,238.952 116.078,238.952 L99.868,238.952 L99.868,238.952 Z M116.078,258.888 L99.868,258.888 C97.877,258.888 96.257,257.268 96.257,255.277 L96.257,239.063 C96.257,237.072 97.877,235.452 99.868,235.452 L116.078,235.452 C118.069,235.452 119.688,237.072 119.688,239.063 L119.688,255.277 C119.688,257.268 118.069,258.888 116.078,258.888 L116.078,258.888 Z" id="Fill-391" fill="#41464B"></path>
            <path d="M129.767,238.952 C129.71,238.952 129.656,239.006 129.656,239.063 L129.656,255.277 C129.656,255.335 129.71,255.388 129.767,255.388 L145.976,255.388 C146.032,255.388 146.086,255.335 146.086,255.277 L146.086,239.063 C146.086,239.006 146.032,238.952 145.976,238.952 L129.767,238.952 L129.767,238.952 Z M145.976,258.888 L129.767,258.888 C127.776,258.888 126.156,257.268 126.156,255.277 L126.156,239.063 C126.156,237.072 127.776,235.452 129.767,235.452 L145.976,235.452 C147.966,235.452 149.586,237.072 149.586,239.063 L149.586,255.277 C149.586,257.268 147.966,258.888 145.976,258.888 L145.976,258.888 Z" id="Fill-392" fill="#41464B"></path>
            <path d="M159.66,238.952 C159.604,238.952 159.549,239.007 159.549,239.063 L159.549,255.277 C159.549,255.334 159.604,255.388 159.66,255.388 L175.875,255.388 C175.931,255.388 175.985,255.335 175.985,255.277 L175.985,239.063 C175.985,239.006 175.931,238.952 175.875,238.952 L159.66,238.952 L159.66,238.952 Z M175.875,258.888 L159.66,258.888 C157.669,258.888 156.049,257.268 156.049,255.277 L156.049,239.063 C156.049,237.072 157.669,235.452 159.66,235.452 L175.875,235.452 C177.865,235.452 179.485,237.072 179.485,239.063 L179.485,255.277 C179.485,257.268 177.865,258.888 175.875,258.888 L175.875,258.888 Z" id="Fill-393" fill="#41464B"></path>
            <path d="M189.564,238.952 C189.507,238.952 189.454,239.006 189.454,239.063 L189.454,255.277 C189.454,255.335 189.507,255.388 189.564,255.388 L205.775,255.388 C205.831,255.388 205.885,255.334 205.885,255.277 L205.885,239.063 C205.885,239.007 205.831,238.952 205.775,238.952 L189.564,238.952 L189.564,238.952 Z M205.775,258.888 L189.564,258.888 C187.573,258.888 185.954,257.268 185.954,255.277 L185.954,239.063 C185.954,237.072 187.573,235.452 189.564,235.452 L205.775,235.452 C207.766,235.452 209.385,237.072 209.385,239.063 L209.385,255.277 C209.385,257.268 207.766,258.888 205.775,258.888 L205.775,258.888 Z" id="Fill-394" fill="#41464B"></path>
            <polyline id="Fill-395" fill="#FED65C" points="45.693 212.557 259.95 212.558 259.95 192.094 45.693 192.093 45.693 212.557"></polyline>
            <path d="M290.647,196.479 C290.647,195.356 290.22,194.234 289.365,193.378 C288.505,192.522 287.384,192.093 286.263,192.093 L280.415,192.093 L280.415,212.558 L286.263,212.558 C287.384,212.558 288.505,212.131 289.365,211.273 C290.22,210.419 290.647,209.295 290.647,208.172 L290.647,196.479" id="Fill-396" fill="#AFAFAF"></path>
            <polyline id="Fill-397" fill="#454545" points="45.14 214.218 9.46 202.327 45.139 190.432 46.247 193.753 20.528 202.327 46.246 210.897 45.14 214.218"></polyline>
            <polygon id="Fill-398" fill="#454545" points="23.466 205.733 26.966 205.733 26.966 198.92 23.466 198.92"></polygon>
            <path d="M47.443,210.807 L258.2,210.808 L258.2,193.844 L47.443,193.843 L47.443,210.807 L47.443,210.807 Z M259.95,214.308 L45.693,214.307 C44.727,214.307 43.943,213.524 43.943,212.557 L43.943,192.093 C43.943,191.629 44.127,191.183 44.456,190.855 C44.784,190.527 45.229,190.343 45.693,190.343 L259.95,190.344 C260.916,190.344 261.7,191.128 261.7,192.094 L261.7,212.558 C261.7,213.022 261.515,213.468 261.187,213.796 C260.859,214.124 260.414,214.308 259.95,214.308 L259.95,214.308 Z" id="Fill-399" fill="#454545"></path>
            <path d="M47.443,205.225 L258.2,205.227 L258.2,199.426 L47.443,199.425 L47.443,205.225 L47.443,205.225 Z M259.95,208.727 L45.693,208.725 C44.727,208.725 43.943,207.942 43.943,206.975 L43.943,197.675 C43.943,197.211 44.127,196.765 44.456,196.437 C44.784,196.109 45.229,195.925 45.693,195.925 L259.95,195.926 C260.916,195.926 261.7,196.709 261.7,197.676 L261.7,206.977 C261.7,207.441 261.515,207.886 261.187,208.215 C260.859,208.543 260.414,208.727 259.95,208.727 L259.95,208.727 Z" id="Fill-400" fill="#454545"></path>
            <path d="M261.7,210.808 L278.665,210.808 L278.665,193.843 L261.7,193.843 L261.7,210.808 Z M258.2,214.308 L282.165,214.308 L282.165,190.343 L258.2,190.343 L258.2,214.308 Z" id="Fill-401" fill="#454545"></path>
            <path d="M282.165,210.808 L286.263,210.808 C286.966,210.808 287.628,210.534 288.129,210.034 C288.624,209.54 288.897,208.878 288.897,208.172 L288.897,196.479 C288.897,195.774 288.624,195.112 288.126,194.614 C287.628,194.118 286.965,193.843 286.263,193.843 L282.165,193.843 L282.165,210.808 L282.165,210.808 Z M286.263,214.308 L278.665,214.308 L278.665,190.343 L286.263,190.343 C287.896,190.343 289.437,190.98 290.599,192.137 C291.76,193.3 292.397,194.84 292.397,196.479 L292.397,208.172 C292.397,209.813 291.759,211.355 290.602,212.511 C289.44,213.671 287.899,214.308 286.263,214.308 L286.263,214.308 Z" id="Fill-402" fill="#454545"></path>
            <polygon id="Fill-403" fill="#454545" points="268.431 212.558 271.931 212.558 271.931 192.093 268.431 192.093"></polygon>
            <polygon id="Fill-404" fill="#41464B" points="213.824 99.435 237.944 99.435 237.944 95.935 213.824 95.935"></polygon>
            <polygon id="Fill-405" fill="#41464B" points="68.622 248.921 91.818 248.921 91.818 245.421 68.622 245.421"></polygon>
            <polyline id="Fill-406" fill="#41464B" points="91.818 159.232 13.244 159.232 13.244 127.581 16.744 127.581 16.744 155.732 91.818 155.732 91.818 159.232"></polyline>
            <path d="M275.598,105.795 C275.598,106.817 274.762,107.657 273.738,107.657 L257.526,107.657 C256.503,107.657 255.666,106.817 255.666,105.795 L255.666,89.576 C255.666,88.552 256.503,87.714 257.526,87.714 L273.738,87.714 C274.762,87.714 275.598,88.552 275.598,89.576 L275.598,105.795" id="Fill-407" fill="#4CBED8"></path>
            <polygon id="Fill-408" fill="#41464B" points="285.553 114.018 289.053 114.018 289.053 112.268 285.553 112.268"></polygon>
            <path d="M285.553,89.586 L289.053,89.586 L289.053,86.345 L285.553,86.345 L285.553,89.586 Z M285.553,96.067 L289.053,96.067 L289.053,92.826 L285.553,92.826 L285.553,96.067 Z M285.553,102.548 L289.053,102.548 L289.053,99.307 L285.553,99.307 L285.553,102.548 Z M285.553,109.028 L289.053,109.028 L289.053,105.788 L285.553,105.788 L285.553,109.028 Z" id="Fill-409" fill="#41464B"></path>
            <polygon id="Fill-410" fill="#41464B" points="285.553 83.105 289.053 83.105 289.053 81.355 285.553 81.355"></polygon>
            <polygon id="Fill-411" fill="#41464B" points="280.22 121.101 281.97 121.101 281.97 117.601 280.22 117.601"></polygon>
            <path d="M254.287,121.101 L257.529,121.101 L257.529,117.601 L254.287,117.601 L254.287,121.101 Z M260.771,121.101 L264.012,121.101 L264.012,117.601 L260.771,117.601 L260.771,121.101 Z M267.253,121.101 L270.495,121.101 L270.495,117.601 L267.253,117.601 L267.253,121.101 Z M273.736,121.101 L276.978,121.101 L276.978,117.601 L273.736,117.601 L273.736,121.101 Z" id="Fill-412" fill="#41464B"></path>
            <polygon id="Fill-413" fill="#41464B" points="249.296 121.101 251.046 121.101 251.046 117.601 249.296 117.601"></polygon>
            <polygon id="Fill-414" fill="#41464B" points="280.22 77.772 281.97 77.772 281.97 74.272 280.22 74.272"></polygon>
            <path d="M254.287,77.772 L257.529,77.772 L257.529,74.272 L254.287,74.272 L254.287,77.772 Z M260.771,77.772 L264.012,77.772 L264.012,74.272 L260.771,74.272 L260.771,77.772 Z M267.253,77.772 L270.495,77.772 L270.495,74.272 L267.253,74.272 L267.253,77.772 Z M273.736,77.772 L276.978,77.772 L276.978,74.272 L273.736,74.272 L273.736,77.772 Z" id="Fill-415" fill="#41464B"></path>
            <polygon id="Fill-416" fill="#41464B" points="249.296 77.772 251.046 77.772 251.046 74.272 249.296 74.272"></polygon>
            <polygon id="Fill-417" fill="#41464B" points="242.213 114.018 245.713 114.018 245.713 112.268 242.213 112.268"></polygon>
            <path d="M242.213,89.586 L245.713,89.586 L245.713,86.345 L242.213,86.345 L242.213,89.586 Z M242.213,96.067 L245.713,96.067 L245.713,92.826 L242.213,92.826 L242.213,96.067 Z M242.213,102.548 L245.713,102.548 L245.713,99.307 L242.213,99.307 L242.213,102.548 Z M242.213,109.028 L245.713,109.028 L245.713,105.788 L242.213,105.788 L242.213,109.028 Z" id="Fill-418" fill="#41464B"></path>
            <polygon id="Fill-419" fill="#41464B" points="242.213 83.105 245.713 83.105 245.713 81.355 242.213 81.355"></polygon>
            <path d="M283.714,79.601 L290.882,79.601 L290.882,72.434 L283.714,72.434 L283.714,79.601 Z M280.214,83.101 L294.382,83.101 L294.382,68.934 L280.214,68.934 L280.214,83.101 Z" id="Fill-420" fill="#41464B"></path>
            <path d="M240.382,79.601 L247.549,79.601 L247.549,72.434 L240.382,72.434 L240.382,79.601 Z M236.882,83.101 L251.049,83.101 L251.049,68.934 L236.882,68.934 L236.882,83.101 Z" id="Fill-421" fill="#41464B"></path>
            <path d="M283.714,122.935 L290.882,122.935 L290.882,115.769 L283.714,115.769 L283.714,122.935 Z M280.214,126.435 L294.382,126.435 L294.382,112.269 L280.214,112.269 L280.214,126.435 Z" id="Fill-422" fill="#41464B"></path>
            <path d="M240.382,122.935 L247.549,122.935 L247.549,115.769 L240.382,115.769 L240.382,122.935 Z M236.882,126.435 L251.049,126.435 L251.049,112.269 L236.882,112.269 L236.882,126.435 Z" id="Fill-423" fill="#41464B"></path>
            <polyline id="Fill-424" fill="#FED65C" points="3.011 268.844 3.011 304.241 10.63 304.241 10.63 312.755 19.142 304.241 66.011 304.241 66.011 268.844 3.011 268.844"></polyline>
            <polygon id="Fill-425" fill="#41464B" points="16.011 284.792 53.011 284.792 53.011 281.292 16.011 281.292"></polygon>
            <polygon id="Fill-426" fill="#41464B" points="16.011 291.794 38.356 291.794 38.356 288.294 16.011 288.294"></polygon>
            <polygon id="Fill-427" fill="#41464B" points="60.683 258.888 64.183 258.888 64.183 255.388 60.683 255.388"></polygon>
            <path d="M47.537,258.888 L50.824,258.888 L50.824,255.388 L47.537,255.388 L47.537,258.888 Z M54.109,258.888 L57.396,258.888 L57.396,255.388 L54.109,255.388 L54.109,258.888 Z" id="Fill-428" fill="#41464B"></path>
            <polygon id="Fill-429" fill="#41464B" points="40.751 258.888 44.251 258.888 44.251 255.388 40.751 255.388"></polygon>
            <path d="M40.751,245.527 L44.251,245.527 L44.251,242.239 L40.751,242.239 L40.751,245.527 Z M40.751,252.101 L44.251,252.101 L44.251,248.814 L40.751,248.814 L40.751,252.101 Z" id="Fill-430" fill="#41464B"></path>
            <polygon id="Fill-431" fill="#41464B" points="40.751 238.952 44.251 238.952 44.251 235.452 40.751 235.452"></polygon>
            <path d="M47.537,238.952 L50.824,238.952 L50.824,235.452 L47.537,235.452 L47.537,238.952 Z M54.11,238.952 L57.397,238.952 L57.397,235.452 L54.11,235.452 L54.11,238.952 Z" id="Fill-432" fill="#41464B"></path>
            <polygon id="Fill-433" fill="#41464B" points="60.683 238.952 64.183 238.952 64.183 235.452 60.683 235.452"></polygon>
            <path d="M60.683,245.526 L64.183,245.526 L64.183,242.239 L60.683,242.239 L60.683,245.526 Z M60.683,252.101 L64.183,252.101 L64.183,248.813 L60.683,248.813 L60.683,252.101 Z" id="Fill-434" fill="#41464B"></path>
            <polygon id="Fill-435" fill="#AFAFAF" points="25.761 146.716 74.863 146.716 74.863 97.614 25.761 97.614"></polygon>
            <polygon id="Fill-436" fill="#41464B" points="25.761 94.114 29.261 94.114 29.261 90.614 25.761 90.614"></polygon>
            <polygon id="Fill-437" fill="#41464B" points="32.761 94.114 36.261 94.114 36.261 90.614 32.761 90.614"></polygon>
            <polygon id="Fill-438" fill="#41464B" points="39.761 94.114 43.261 94.114 43.261 90.614 39.761 90.614"></polygon>
            <path d="M231.915,50.933 L231.915,47.433 C243.774,47.433 253.422,37.785 253.422,25.926 C253.422,14.066 243.774,4.419 231.915,4.419 C220.056,4.419 210.408,14.066 210.408,25.926 L206.908,25.926 C206.908,12.136 218.126,0.919 231.915,0.919 C245.704,0.919 256.922,12.136 256.922,25.926 C256.922,39.715 245.704,50.933 231.915,50.933" id="Fill-439" fill="#41464B"></path>
            <path d="M249.257,25.926 C249.257,35.504 241.494,43.269 231.915,43.269 C222.336,43.269 214.572,35.504 214.572,25.926 C214.572,16.345 222.336,8.583 231.915,8.583 C241.494,8.583 249.257,16.345 249.257,25.926" id="Fill-440" fill="#FF7443"></path>
            <polyline id="Fill-441" fill="#FFFFFF" points="228.55 20.096 238.647 25.926 228.55 31.756 228.55 20.096"></polyline>
            <polygon id="Fill-442" fill="#41464B" points="171.431 325.835 174.931 325.835 174.931 322.335 171.431 322.335"></polygon>
            <polygon id="Fill-443" fill="#41464B" points="178.431 325.835 181.931 325.835 181.931 322.335 178.431 322.335"></polygon>
            <polygon id="Fill-444" fill="#41464B" points="185.431 325.835 188.931 325.835 188.931 322.335 185.431 322.335"></polygon>
            <path d="M167.931,329.335 L254.431,329.335 L254.431,318.835 L167.931,318.835 L167.931,329.335 Z M164.431,332.835 L257.931,332.835 L257.931,315.335 L164.431,315.335 L164.431,332.835 Z" id="Fill-445" fill="#41464B"></path>
            <polygon id="Fill-446" fill="#FF7443" points="256.181 331.085 270.181 331.085 270.181 317.085 256.181 317.085"></polygon>
            <path d="M257.931,329.335 L268.431,329.335 L268.431,318.835 L257.931,318.835 L257.931,329.335 Z M254.431,332.835 L271.931,332.835 L271.931,315.335 L254.431,315.335 L254.431,332.835 Z" id="Fill-447" fill="#41464B"></path>
            <polygon id="Fill-448" fill="#41464B" points="252.494 278.259 314.599 278.259 314.599 274.759 252.494 274.759"></polygon>
            <polygon id="Fill-449" fill="#41464B" points="252.494 285.26 314.599 285.26 314.599 281.76 252.494 281.76"></polygon>
            <polygon id="Fill-450" fill="#41464B" points="252.494 292.261 290 292.261 290 288.761 252.494 288.761"></polygon>
            <polygon id="Fill-451" fill="#41464B" points="236.097 271.261 277.101 271.261 277.101 267.761 236.097 267.761"></polygon>
            <path d="M267.322,233.071 C265.92,233.071 264.602,233.617 263.61,234.609 C261.563,236.656 261.563,239.987 263.61,242.034 C264.602,243.026 265.92,243.572 267.322,243.572 C268.724,243.572 270.042,243.026 271.035,242.034 C273.082,239.987 273.082,236.656 271.035,234.609 C270.042,233.617 268.724,233.071 267.322,233.071 L267.322,233.071 Z M267.322,247.072 C264.985,247.072 262.788,246.162 261.135,244.509 C257.724,241.097 257.724,235.546 261.135,232.135 C262.788,230.481 264.985,229.571 267.322,229.571 C269.659,229.571 271.856,230.481 273.509,232.135 C276.921,235.546 276.921,241.097 273.509,244.509 C271.856,246.162 269.659,247.072 267.322,247.072 L267.322,247.072 Z" id="Fill-452" fill="#41464B"></path>
            <polyline id="Fill-453" fill="#41464B" points="280.934 254.408 271.035 244.509 273.509 242.034 283.409 251.933 280.934 254.408"></polyline>
            <path d="M71.713,346.169 C63.249,344.628 57.105,337.256 57.105,328.639 C57.105,318.822 65.092,310.835 74.91,310.835 C84.733,310.835 92.725,318.822 92.725,328.639 L89.225,328.639 C89.225,320.752 82.803,314.335 74.91,314.335 C67.022,314.335 60.605,320.752 60.605,328.639 C60.605,335.563 65.54,341.487 72.34,342.725 L71.713,346.169" id="Fill-454" fill="#41464B"></path>
            <path d="M74.909,323.395 C72.016,323.395 69.662,325.751 69.662,328.646 C69.662,331.54 72.016,333.894 74.909,333.894 C77.806,333.894 80.162,331.54 80.162,328.646 C80.162,325.751 77.806,323.395 74.909,323.395 L74.909,323.395 Z M74.909,337.394 C70.086,337.394 66.162,333.469 66.162,328.646 C66.162,323.821 70.086,319.895 74.909,319.895 C79.735,319.895 83.662,323.821 83.662,328.646 C83.662,333.469 79.735,337.394 74.909,337.394 L74.909,337.394 Z" id="Fill-455" fill="#41464B"></path>
            <path d="M86.431,337.394 C84.739,337.394 83.161,336.739 81.988,335.55 C80.802,334.389 80.137,332.802 80.137,331.104 L80.137,328.118 L83.637,328.118 L83.637,331.104 C83.637,331.853 83.929,332.552 84.458,333.071 C85.53,334.155 87.381,334.12 88.413,333.086 C88.935,332.564 89.221,331.861 89.221,331.104 L89.221,328.118 L92.721,328.118 L92.721,331.104 C92.721,332.795 92.071,334.377 90.891,335.557 C89.712,336.742 88.127,337.394 86.431,337.394" id="Fill-456" fill="#41464B"></path>
            <path d="M73.778,345.835 L76.044,345.835 L76.044,343.573 L73.778,343.573 L73.778,345.835 Z M70.278,349.335 L79.544,349.335 L79.544,340.073 L70.278,340.073 L70.278,349.335 Z" id="Fill-457" fill="#41464B"></path>
            <polygon id="Fill-458" fill="#41464B" points="247.875 156.678 261.542 156.678 261.542 153.178 247.875 153.178"></polygon>
            <polygon id="Fill-459" fill="#41464B" points="273.542 156.678 315.417 156.678 315.417 153.178 273.542 153.178"></polygon>
            <path d="M265.042,153.178 C264.077,153.178 263.292,153.964 263.292,154.928 C263.292,155.893 264.077,156.678 265.042,156.678 C266.006,156.678 266.792,155.893 266.792,154.928 C266.792,153.964 266.006,153.178 265.042,153.178 L265.042,153.178 Z M265.042,160.178 C262.146,160.178 259.792,157.823 259.792,154.928 C259.792,152.034 262.146,149.678 265.042,149.678 C267.937,149.678 270.292,152.034 270.292,154.928 C270.292,157.823 267.937,160.178 265.042,160.178 L265.042,160.178 Z" id="Fill-460" fill="#41464B"></path>
            <polygon id="Fill-461" fill="#41464B" points="247.875 170.678 286.917 170.678 286.917 167.178 247.875 167.178"></polygon>
            <polygon id="Fill-462" fill="#41464B" points="298.917 170.678 315.417 170.678 315.417 167.178 298.917 167.178"></polygon>
            <path d="M290.417,167.178 C289.452,167.178 288.667,167.964 288.667,168.928 C288.667,169.893 289.452,170.678 290.417,170.678 C291.381,170.678 292.167,169.893 292.167,168.928 C292.167,167.964 291.381,167.178 290.417,167.178 L290.417,167.178 Z M290.417,174.178 C287.521,174.178 285.167,171.823 285.167,168.928 C285.167,166.034 287.521,163.678 290.417,163.678 C293.312,163.678 295.667,166.034 295.667,168.928 C295.667,171.823 293.312,174.178 290.417,174.178 L290.417,174.178 Z" id="Fill-463" fill="#41464B"></path>
        </g>
    </g>
</svg>