<?xml version="1.0" encoding="UTF-8" standalone="no"?>
<svg width="327px" height="333px" viewBox="0 0 327 333" version="1.1" xmlns="http://www.w3.org/2000/svg" xmlns:xlink="http://www.w3.org/1999/xlink">
    <!-- Generator: Sketch 39 (31667) - http://www.bohemiancoding.com/sketch -->
    <title>product-development</title>
    <desc>Created with Sketch.</desc>
    <defs></defs>
    <g id="Startup" stroke="none" stroke-width="1" fill="none" fill-rule="evenodd">
        <g id="product-development">
            <polygon id="Fill-105" fill="#AFAFAF" points="18.874 192.614 126.739 192.614 126.739 84.75 18.874 84.75"></polygon>
            <polygon id="Fill-106" fill="#41464B" points="132.558 74.197 134.308 74.197 134.308 70.697 132.558 70.697"></polygon>
            <path d="M16.469,74.197 L19.883,74.197 L19.883,70.697 L16.469,70.697 L16.469,74.197 Z M23.297,74.197 L26.712,74.197 L26.712,70.697 L23.297,70.697 L23.297,74.197 Z M30.126,74.197 L33.541,74.197 L33.541,70.697 L30.126,70.697 L30.126,74.197 Z M36.956,74.197 L40.37,74.197 L40.37,70.697 L36.956,70.697 L36.956,74.197 Z M43.784,74.197 L47.199,74.197 L47.199,70.697 L43.784,70.697 L43.784,74.197 Z M50.613,74.197 L54.027,74.197 L54.027,70.697 L50.613,70.697 L50.613,74.197 Z M57.442,74.197 L60.856,74.197 L60.856,70.697 L57.442,70.697 L57.442,74.197 Z M64.271,74.197 L67.685,74.197 L67.685,70.697 L64.271,70.697 L64.271,74.197 Z M71.099,74.197 L74.514,74.197 L74.514,70.697 L71.099,70.697 L71.099,74.197 Z M77.928,74.197 L81.342,74.197 L81.342,70.697 L77.928,70.697 L77.928,74.197 Z M84.757,74.197 L88.171,74.197 L88.171,70.697 L84.757,70.697 L84.757,74.197 Z M91.585,74.197 L95,74.197 L95,70.697 L91.585,70.697 L91.585,74.197 Z M98.415,74.197 L101.829,74.197 L101.829,70.697 L98.415,70.697 L98.415,74.197 Z M105.244,74.197 L108.658,74.197 L108.658,70.697 L105.244,70.697 L105.244,74.197 Z M112.072,74.197 L115.487,74.197 L115.487,70.697 L112.072,70.697 L112.072,74.197 Z M118.901,74.197 L122.315,74.197 L122.315,70.697 L118.901,70.697 L118.901,74.197 Z M125.73,74.197 L129.144,74.197 L129.144,70.697 L125.73,70.697 L125.73,74.197 Z" id="Fill-107" fill="#41464B"></path>
            <polygon id="Fill-108" fill="#41464B" points="11.304 74.197 13.054 74.197 13.054 70.697 11.304 70.697"></polygon>
            <polygon id="Fill-109" fill="#41464B" points="132.558 206.663 134.308 206.663 134.308 203.163 132.558 203.163"></polygon>
            <path d="M16.469,206.663 L19.883,206.663 L19.883,203.163 L16.469,203.163 L16.469,206.663 Z M23.297,206.663 L26.712,206.663 L26.712,203.163 L23.297,203.163 L23.297,206.663 Z M30.126,206.663 L33.541,206.663 L33.541,203.163 L30.126,203.163 L30.126,206.663 Z M36.956,206.663 L40.37,206.663 L40.37,203.163 L36.956,203.163 L36.956,206.663 Z M43.784,206.663 L47.199,206.663 L47.199,203.163 L43.784,203.163 L43.784,206.663 Z M50.613,206.663 L54.027,206.663 L54.027,203.163 L50.613,203.163 L50.613,206.663 Z M57.442,206.663 L60.856,206.663 L60.856,203.163 L57.442,203.163 L57.442,206.663 Z M64.271,206.663 L67.685,206.663 L67.685,203.163 L64.271,203.163 L64.271,206.663 Z M71.099,206.663 L74.514,206.663 L74.514,203.163 L71.099,203.163 L71.099,206.663 Z M77.928,206.663 L81.342,206.663 L81.342,203.163 L77.928,203.163 L77.928,206.663 Z M84.757,206.663 L88.171,206.663 L88.171,203.163 L84.757,203.163 L84.757,206.663 Z M91.585,206.663 L95,206.663 L95,203.163 L91.585,203.163 L91.585,206.663 Z M98.415,206.663 L101.829,206.663 L101.829,203.163 L98.415,203.163 L98.415,206.663 Z M105.244,206.663 L108.658,206.663 L108.658,203.163 L105.244,203.163 L105.244,206.663 Z M112.072,206.663 L115.487,206.663 L115.487,203.163 L112.072,203.163 L112.072,206.663 Z M118.901,206.663 L122.315,206.663 L122.315,203.163 L118.901,203.163 L118.901,206.663 Z M125.73,206.663 L129.144,206.663 L129.144,203.163 L125.73,203.163 L125.73,206.663 Z" id="Fill-110" fill="#41464B"></path>
            <polygon id="Fill-111" fill="#41464B" points="11.304 206.663 13.054 206.663 13.054 203.163 11.304 203.163"></polygon>
            <polygon id="Fill-112" fill="#41464B" points="4.824 200.182 8.324 200.182 8.324 198.432 4.824 198.432"></polygon>
            <path d="M4.824,85.758 L8.324,85.758 L8.324,82.343 L4.824,82.343 L4.824,85.758 Z M4.824,92.586 L8.324,92.586 L8.324,89.171 L4.824,89.171 L4.824,92.586 Z M4.824,99.415 L8.324,99.415 L8.324,96.001 L4.824,96.001 L4.824,99.415 Z M4.824,106.244 L8.324,106.244 L8.324,102.829 L4.824,102.829 L4.824,106.244 Z M4.824,113.072 L8.324,113.072 L8.324,109.658 L4.824,109.658 L4.824,113.072 Z M4.824,119.901 L8.324,119.901 L8.324,116.486 L4.824,116.486 L4.824,119.901 Z M4.824,126.73 L8.324,126.73 L8.324,123.315 L4.824,123.315 L4.824,126.73 Z M4.824,133.559 L8.324,133.559 L8.324,130.144 L4.824,130.144 L4.824,133.559 Z M4.824,140.387 L8.324,140.387 L8.324,136.973 L4.824,136.973 L4.824,140.387 Z M4.824,147.216 L8.324,147.216 L8.324,143.802 L4.824,143.802 L4.824,147.216 Z M4.824,154.044 L8.324,154.044 L8.324,150.63 L4.824,150.63 L4.824,154.044 Z M4.824,160.874 L8.324,160.874 L8.324,157.459 L4.824,157.459 L4.824,160.874 Z M4.824,167.702 L8.324,167.702 L8.324,164.288 L4.824,164.288 L4.824,167.702 Z M4.824,174.531 L8.324,174.531 L8.324,171.117 L4.824,171.117 L4.824,174.531 Z M4.824,181.359 L8.324,181.359 L8.324,177.945 L4.824,177.945 L4.824,181.359 Z M4.824,188.189 L8.324,188.189 L8.324,184.774 L4.824,184.774 L4.824,188.189 Z M4.824,195.017 L8.324,195.017 L8.324,191.603 L4.824,191.603 L4.824,195.017 Z" id="Fill-113" fill="#41464B"></path>
            <polygon id="Fill-114" fill="#41464B" points="4.824 78.929 8.324 78.929 8.324 77.179 4.824 77.179"></polygon>
            <polygon id="Fill-115" fill="#41464B" points="137.289 200.182 140.789 200.182 140.789 198.432 137.289 198.432"></polygon>
            <path d="M137.289,85.758 L140.789,85.758 L140.789,82.343 L137.289,82.343 L137.289,85.758 Z M137.289,92.586 L140.789,92.586 L140.789,89.171 L137.289,89.171 L137.289,92.586 Z M137.289,99.415 L140.789,99.415 L140.789,96.001 L137.289,96.001 L137.289,99.415 Z M137.289,106.244 L140.789,106.244 L140.789,102.829 L137.289,102.829 L137.289,106.244 Z M137.289,113.072 L140.789,113.072 L140.789,109.658 L137.289,109.658 L137.289,113.072 Z M137.289,119.901 L140.789,119.901 L140.789,116.486 L137.289,116.486 L137.289,119.901 Z M137.289,126.73 L140.789,126.73 L140.789,123.315 L137.289,123.315 L137.289,126.73 Z M137.289,133.559 L140.789,133.559 L140.789,130.144 L137.289,130.144 L137.289,133.559 Z M137.289,140.387 L140.789,140.387 L140.789,136.973 L137.289,136.973 L137.289,140.387 Z M137.289,147.216 L140.789,147.216 L140.789,143.802 L137.289,143.802 L137.289,147.216 Z M137.289,154.044 L140.789,154.044 L140.789,150.63 L137.289,150.63 L137.289,154.044 Z M137.289,160.874 L140.789,160.874 L140.789,157.459 L137.289,157.459 L137.289,160.874 Z M137.289,167.702 L140.789,167.702 L140.789,164.288 L137.289,164.288 L137.289,167.702 Z M137.289,174.531 L140.789,174.531 L140.789,171.117 L137.289,171.117 L137.289,174.531 Z M137.289,181.359 L140.789,181.359 L140.789,177.945 L137.289,177.945 L137.289,181.359 Z M137.289,188.189 L140.789,188.189 L140.789,184.774 L137.289,184.774 L137.289,188.189 Z M137.289,195.017 L140.789,195.017 L140.789,191.603 L137.289,191.603 L137.289,195.017 Z" id="Fill-116" fill="#41464B"></path>
            <polygon id="Fill-117" fill="#41464B" points="137.289 78.929 140.789 78.929 140.789 77.179 137.289 77.179"></polygon>
            <path d="M3.592,75.431 L9.554,75.431 L9.554,69.469 L3.592,69.469 L3.592,75.431 Z M0.092,78.931 L13.054,78.931 L13.054,65.969 L0.092,65.969 L0.092,78.931 Z" id="Fill-118" fill="#41464B"></path>
            <path d="M136.058,75.431 L142.02,75.431 L142.02,69.469 L136.058,69.469 L136.058,75.431 Z M132.558,78.931 L145.52,78.931 L145.52,65.969 L132.558,65.969 L132.558,78.931 Z" id="Fill-119" fill="#41464B"></path>
            <path d="M3.592,207.896 L9.554,207.896 L9.554,201.934 L3.592,201.934 L3.592,207.896 Z M0.092,211.396 L13.054,211.396 L13.054,198.434 L0.092,198.434 L0.092,211.396 Z" id="Fill-120" fill="#41464B"></path>
            <path d="M136.058,207.896 L142.02,207.896 L142.02,201.934 L136.058,201.934 L136.058,207.896 Z M132.558,211.396 L145.52,211.396 L145.52,198.434 L132.558,198.434 L132.558,211.396 Z" id="Fill-121" fill="#41464B"></path>
            <path d="M304.993,248.236 L304.993,96.831 L50.206,96.831 L50.206,287.426 L304.993,287.426 C315.832,287.426 324.589,278.645 324.589,267.83 L324.589,267.657 C324.5,256.914 315.777,248.236 304.993,248.236" id="Fill-122" fill="#4CBED8"></path>
            <path d="M304.993,274.983 L62.648,274.983 L62.648,109.274 L304.995,109.274 L304.995,112.774 L66.148,112.774 L66.148,271.483 L304.993,271.483 C314.833,271.483 322.839,263.478 322.839,253.638 L326.339,253.638 C326.339,265.408 316.763,274.983 304.993,274.983" id="Fill-123" fill="#FFFFFF"></path>
            <polyline id="Fill-124" fill="#41464B" points="51.956 192.614 48.456 192.614 48.456 95.081 304.993 95.081 304.993 98.581 51.956 98.581 51.956 192.614"></polyline>
            <path d="M304.993,289.176 L220.438,289.176 L220.438,285.676 L304.993,285.676 C314.833,285.676 322.839,277.67 322.839,267.83 L326.339,267.83 C326.339,279.6 316.763,289.176 304.993,289.176" id="Fill-125" fill="#41464B"></path>
            <path d="M306.743,246.557 C313.472,247.106 319.33,250.785 322.848,256.129 L322.848,96.834 C322.848,87.587 315.771,79.956 306.746,79.07 L306.743,246.557 L306.743,246.557 Z M326.348,267.822 L322.848,267.822 C322.848,257.987 314.838,249.986 304.993,249.986 L303.243,249.986 L303.246,75.483 L304.997,75.484 C316.77,75.49 326.348,85.067 326.348,96.834 L326.348,267.822 L326.348,267.822 Z" id="Fill-126" fill="#41464B"></path>
            <polygon id="Fill-127" fill="#41464B" points="313.043 98.675 316.543 98.675 316.543 95.176 313.043 95.176"></polygon>
            <polygon id="Fill-128" fill="#41464B" points="313.043 105.673 316.543 105.673 316.543 102.174 313.043 102.174"></polygon>
            <polygon id="Fill-129" fill="#41464B" points="313.043 112.671 316.543 112.671 316.543 109.172 313.043 109.172"></polygon>
            <polygon id="Fill-130" fill="#FFFFFF" points="239.716 250.649 243.216 250.649 243.216 247.149 239.716 247.149"></polygon>
            <path d="M133.224,250.649 L136.774,250.649 L136.774,247.149 L133.224,247.149 L133.224,250.649 Z M140.324,250.649 L143.874,250.649 L143.874,247.149 L140.324,247.149 L140.324,250.649 Z M147.423,250.649 L150.973,250.649 L150.973,247.149 L147.423,247.149 L147.423,250.649 Z M154.522,250.649 L158.072,250.649 L158.072,247.149 L154.522,247.149 L154.522,250.649 Z M161.622,250.649 L165.171,250.649 L165.171,247.149 L161.622,247.149 L161.622,250.649 Z M168.721,250.649 L172.271,250.649 L172.271,247.149 L168.721,247.149 L168.721,250.649 Z M175.821,250.649 L179.371,250.649 L179.371,247.149 L175.821,247.149 L175.821,250.649 Z M182.92,250.649 L186.47,250.649 L186.47,247.149 L182.92,247.149 L182.92,250.649 Z M190.02,250.649 L193.57,250.649 L193.57,247.149 L190.02,247.149 L190.02,250.649 Z M197.12,250.649 L200.669,250.649 L200.669,247.149 L197.12,247.149 L197.12,250.649 Z M204.219,250.649 L207.769,250.649 L207.769,247.149 L204.219,247.149 L204.219,250.649 Z M211.318,250.649 L214.868,250.649 L214.868,247.149 L211.318,247.149 L211.318,250.649 Z M225.517,250.649 L229.067,250.649 L229.067,247.149 L225.517,247.149 L225.517,250.649 Z M232.617,250.649 L236.167,250.649 L236.167,247.149 L232.617,247.149 L232.617,250.649 Z" id="Fill-131" fill="#FFFFFF"></path>
            <polygon id="Fill-132" fill="#FFFFFF" points="126.174 250.649 129.674 250.649 129.674 247.149 126.174 247.149"></polygon>
            <path d="M126.174,144.207 L129.674,144.207 L129.674,140.657 L126.174,140.657 L126.174,144.207 Z M126.174,151.306 L129.674,151.306 L129.674,147.756 L126.174,147.756 L126.174,151.306 Z M126.174,158.406 L129.674,158.406 L129.674,154.856 L126.174,154.856 L126.174,158.406 Z M126.174,165.505 L129.674,165.505 L129.674,161.956 L126.174,161.956 L126.174,165.505 Z M126.174,172.605 L129.674,172.605 L129.674,169.055 L126.174,169.055 L126.174,172.605 Z M126.174,179.704 L129.674,179.704 L129.674,176.154 L126.174,176.154 L126.174,179.704 Z M126.174,186.804 L129.674,186.804 L129.674,183.254 L126.174,183.254 L126.174,186.804 Z M126.174,193.903 L129.674,193.903 L129.674,190.354 L126.174,190.354 L126.174,193.903 Z M126.174,201.003 L129.674,201.003 L129.674,197.453 L126.174,197.453 L126.174,201.003 Z M126.174,208.102 L129.674,208.102 L129.674,204.552 L126.174,204.552 L126.174,208.102 Z M126.174,215.202 L129.674,215.202 L129.674,211.652 L126.174,211.652 L126.174,215.202 Z M126.174,222.301 L129.674,222.301 L129.674,218.752 L126.174,218.752 L126.174,222.301 Z M126.174,229.401 L129.674,229.401 L129.674,225.851 L126.174,225.851 L126.174,229.401 Z M126.174,236.5 L129.674,236.5 L129.674,232.95 L126.174,232.95 L126.174,236.5 Z M126.174,243.6 L129.674,243.6 L129.674,240.05 L126.174,240.05 L126.174,243.6 Z" id="Fill-133" fill="#FFFFFF"></path>
            <polygon id="Fill-134" fill="#FFFFFF" points="126.174 137.107 129.674 137.107 129.674 133.607 126.174 133.607"></polygon>
            <path d="M133.224,137.107 L136.774,137.107 L136.774,133.607 L133.224,133.607 L133.224,137.107 Z M140.324,137.107 L143.874,137.107 L143.874,133.607 L140.324,133.607 L140.324,137.107 Z M154.523,137.107 L158.073,137.107 L158.073,133.607 L154.523,133.607 L154.523,137.107 Z M161.622,137.107 L165.171,137.107 L165.171,133.607 L161.622,133.607 L161.622,137.107 Z M168.721,137.107 L172.271,137.107 L172.271,133.607 L168.721,133.607 L168.721,137.107 Z M175.821,137.107 L179.371,137.107 L179.371,133.607 L175.821,133.607 L175.821,137.107 Z M182.92,137.107 L186.47,137.107 L186.47,133.607 L182.92,133.607 L182.92,137.107 Z M190.02,137.107 L193.57,137.107 L193.57,133.607 L190.02,133.607 L190.02,137.107 Z M197.12,137.107 L200.669,137.107 L200.669,133.607 L197.12,133.607 L197.12,137.107 Z M204.219,137.107 L207.769,137.107 L207.769,133.607 L204.219,133.607 L204.219,137.107 Z M211.319,137.107 L214.869,137.107 L214.869,133.607 L211.319,133.607 L211.319,137.107 Z M218.417,137.107 L221.967,137.107 L221.967,133.607 L218.417,133.607 L218.417,137.107 Z M225.517,137.107 L229.067,137.107 L229.067,133.607 L225.517,133.607 L225.517,137.107 Z M232.617,137.107 L236.167,137.107 L236.167,133.607 L232.617,133.607 L232.617,137.107 Z" id="Fill-135" fill="#FFFFFF"></path>
            <polygon id="Fill-136" fill="#FFFFFF" points="239.716 137.107 243.216 137.107 243.216 133.607 239.716 133.607"></polygon>
            <path d="M239.716,144.207 L243.216,144.207 L243.216,140.657 L239.716,140.657 L239.716,144.207 Z M239.716,151.307 L243.216,151.307 L243.216,147.757 L239.716,147.757 L239.716,151.307 Z M239.716,158.406 L243.216,158.406 L243.216,154.856 L239.716,154.856 L239.716,158.406 Z M239.716,165.505 L243.216,165.505 L243.216,161.956 L239.716,161.956 L239.716,165.505 Z M239.716,172.605 L243.216,172.605 L243.216,169.055 L239.716,169.055 L239.716,172.605 Z M239.716,179.705 L243.216,179.705 L243.216,176.155 L239.716,176.155 L239.716,179.705 Z M239.716,186.804 L243.216,186.804 L243.216,183.254 L239.716,183.254 L239.716,186.804 Z M239.716,193.903 L243.216,193.903 L243.216,190.354 L239.716,190.354 L239.716,193.903 Z M239.716,201.003 L243.216,201.003 L243.216,197.453 L239.716,197.453 L239.716,201.003 Z M239.716,208.103 L243.216,208.103 L243.216,204.553 L239.716,204.553 L239.716,208.103 Z M239.716,215.202 L243.216,215.202 L243.216,211.652 L239.716,211.652 L239.716,215.202 Z M239.716,222.301 L243.216,222.301 L243.216,218.752 L239.716,218.752 L239.716,222.301 Z M239.716,229.401 L243.216,229.401 L243.216,225.851 L239.716,225.851 L239.716,229.401 Z M239.716,236.501 L243.216,236.501 L243.216,232.951 L239.716,232.951 L239.716,236.501 Z M239.716,243.6 L243.216,243.6 L243.216,240.05 L239.716,240.05 L239.716,243.6 Z" id="Fill-137" fill="#FFFFFF"></path>
            <path d="M183.09,230.591 L186.32,230.591 L188.037,221.993 L189.247,221.807 C191.427,221.471 193.563,220.898 195.594,220.106 L196.736,219.66 L202.534,226.248 L205.337,224.63 L202.521,216.324 L203.472,215.557 C205.187,214.174 206.752,212.607 208.125,210.901 L208.892,209.948 L217.208,212.766 L218.82,209.96 L212.234,204.163 L212.68,203.022 C213.463,201.019 214.036,198.885 214.379,196.679 L214.568,195.474 L223.158,193.75 L223.158,190.509 L214.57,188.801 L214.381,187.592 C214.037,185.373 213.463,183.231 212.677,181.225 L212.23,180.082 L218.819,174.3 L217.208,171.49 L208.899,174.307 L208.131,173.357 C206.75,171.648 205.182,170.08 203.472,168.698 L202.524,167.931 L205.337,159.623 L202.534,158.009 L196.732,164.591 L195.592,164.147 C193.586,163.365 191.45,162.793 189.243,162.448 L188.037,162.259 L186.32,153.666 L183.075,153.666 L181.351,162.261 L180.147,162.45 C177.949,162.794 175.813,163.367 173.798,164.152 L172.657,164.597 L166.864,158.008 L164.068,159.622 L166.875,167.937 L165.923,168.703 C164.206,170.084 162.642,171.649 161.276,173.353 L160.509,174.31 L152.195,171.489 L150.574,174.3 L157.167,180.072 L156.722,181.215 C155.911,183.303 155.336,185.446 155.014,187.585 L154.832,188.802 L146.233,190.51 L146.233,193.749 L154.834,195.471 L155.016,196.686 C155.334,198.809 155.908,200.944 156.72,203.034 L157.165,204.175 L150.574,209.96 L152.194,212.767 L160.516,209.947 L161.282,210.906 C162.646,212.614 164.208,214.176 165.923,215.551 L166.878,216.317 L164.068,224.63 L166.864,226.247 L172.647,219.662 L173.785,220.097 C175.889,220.903 178.033,221.478 180.155,221.805 L181.363,221.991 L183.09,230.591 L183.09,230.591 Z M189.189,234.091 L180.223,234.091 L178.409,225.053 C176.831,224.749 175.25,224.324 173.684,223.785 L167.598,230.714 L159.833,226.225 L162.787,217.494 C161.552,216.428 160.398,215.272 159.336,214.042 L150.598,217.003 L146.107,209.222 L153.032,203.145 C152.489,201.586 152.064,200.006 151.763,198.425 L142.733,196.618 L142.733,187.637 L151.761,185.843 C152.064,184.253 152.49,182.667 153.034,181.106 L146.107,175.042 L150.597,167.252 L159.334,170.215 C160.396,168.987 161.551,167.832 162.786,166.764 L159.833,158.024 L167.598,153.543 L173.685,160.465 C175.208,159.937 176.785,159.514 178.395,159.203 L180.208,150.166 L189.189,150.166 L190.995,159.201 C192.61,159.512 194.187,159.934 195.708,160.46 L201.801,153.548 L209.574,158.023 L206.614,166.765 C207.842,167.832 208.998,168.987 210.065,170.216 L218.811,167.251 L223.28,175.042 L216.366,181.109 C216.895,182.633 217.318,184.217 217.629,185.841 L226.658,187.637 L226.658,196.617 L217.627,198.429 C217.317,200.044 216.895,201.62 216.368,203.139 L223.279,209.222 L218.81,217.004 L210.063,214.04 C209,215.268 207.844,216.423 206.613,217.492 L209.574,226.226 L201.801,230.713 L195.71,223.793 C194.177,224.326 192.599,224.749 190.994,225.056 L189.189,234.091 L189.189,234.091 Z" id="Fill-138" fill="#41464B"></path>
            <path d="M184.705,174.95 C175.237,174.95 167.535,182.656 167.535,192.128 C167.535,201.585 175.237,209.279 184.705,209.279 C194.176,209.279 201.881,201.585 201.881,192.128 C201.881,182.656 194.176,174.95 184.705,174.95 L184.705,174.95 Z M184.705,212.779 C173.307,212.779 164.035,203.515 164.035,192.128 C164.035,180.726 173.307,171.45 184.705,171.45 C196.106,171.45 205.381,180.726 205.381,192.128 C205.381,203.515 196.106,212.779 184.705,212.779 L184.705,212.779 Z" id="Fill-139" fill="#41464B"></path>
            <polyline id="Fill-140" fill="#41464B" points="150.703 145.766 147.203 145.766 147.203 123.861 81.719 123.861 81.719 120.361 150.703 120.361 150.703 145.766"></polyline>
            <polygon id="Fill-141" fill="#41464B" points="81.719 130.484 110.697 130.484 110.697 126.984 81.719 126.984"></polygon>
            <polygon id="Fill-142" fill="#41464B" points="81.719 137.107 110.697 137.107 110.697 133.607 81.719 133.607"></polygon>
            <polyline id="Fill-143" fill="#41464B" points="287.671 263.896 218.688 263.896 218.688 238.491 222.188 238.491 222.188 260.396 287.671 260.396 287.671 263.896"></polyline>
            <polygon id="Fill-144" fill="#41464B" points="258.694 257.273 287.671 257.273 287.671 253.773 258.694 253.773"></polygon>
            <polygon id="Fill-145" fill="#41464B" points="258.694 250.649 287.671 250.649 287.671 247.149 258.694 247.149"></polygon>
            <path d="M258.223,146.855 L281.216,146.855 L281.216,123.861 L258.223,123.861 L258.223,146.855 Z M254.723,150.355 L284.716,150.355 L284.716,120.361 L254.723,120.361 L254.723,150.355 Z" id="Fill-146" fill="#41464B"></path>
            <polyline id="Fill-147" fill="#41464B" points="281.729 149.842 255.236 123.349 257.71 120.874 284.204 147.367 281.729 149.842"></polyline>
            <polyline id="Fill-148" fill="#41464B" points="257.709 149.841 255.235 147.366 281.728 120.873 284.203 123.348 257.709 149.841"></polyline>
            <polygon id="Fill-149" fill="#41464B" points="80.372 257.273 109.348 257.273 109.348 253.773 80.372 253.773"></polygon>
            <polygon id="Fill-150" fill="#41464B" points="80.372 250.649 109.348 250.649 109.348 247.149 80.372 247.149"></polygon>
            <polygon id="Fill-151" fill="#41464B" points="80.372 263.896 83.87 263.896 83.87 260.396 80.372 260.396"></polygon>
            <polygon id="Fill-152" fill="#41464B" points="87.369 263.896 90.867 263.896 90.867 260.396 87.369 260.396"></polygon>
            <polygon id="Fill-153" fill="#41464B" points="94.366 263.896 97.864 263.896 97.864 260.396 94.366 260.396"></polygon>
            <path d="M85.125,160.101 L94.872,160.101 L94.872,150.355 L85.125,150.355 L85.125,160.101 Z M81.625,163.601 L98.372,163.601 L98.372,146.855 L81.625,146.855 L81.625,163.601 Z" id="Fill-154" fill="#41464B"></path>
            <path d="M85.125,179.971 L94.872,179.971 L94.872,170.224 L85.125,170.224 L85.125,179.971 Z M81.625,183.471 L98.372,183.471 L98.372,166.724 L81.625,166.724 L81.625,183.471 Z" id="Fill-155" fill="#41464B"></path>
            <path d="M85.125,199.841 L94.872,199.841 L94.872,190.094 L85.125,190.094 L85.125,199.841 Z M81.625,203.341 L98.372,203.341 L98.372,186.594 L81.625,186.594 L81.625,203.341 Z" id="Fill-156" fill="#41464B"></path>
            <polygon id="Fill-157" fill="#FF7443" points="6.574 301.618 220.438 301.618 220.438 273.233 6.574 273.233"></polygon>
            <path d="M8.324,299.868 L218.688,299.868 L218.688,274.983 L8.324,274.983 L8.324,299.868 Z M4.824,303.368 L222.188,303.368 L222.188,271.483 L4.824,271.483 L4.824,303.368 Z" id="Fill-158" fill="#41464B"></path>
            <polygon id="Fill-159" fill="#41464B" points="12.198 301.618 15.698 301.618 15.698 294.523 12.198 294.523"></polygon>
            <polygon id="Fill-160" fill="#41464B" points="19.573 301.618 23.073 301.618 23.073 294.523 19.573 294.523"></polygon>
            <polygon id="Fill-161" fill="#41464B" points="26.946 301.618 30.446 301.618 30.446 294.523 26.946 294.523"></polygon>
            <polygon id="Fill-162" fill="#41464B" points="34.323 301.618 37.823 301.618 37.823 294.523 34.323 294.523"></polygon>
            <polygon id="Fill-163" fill="#41464B" points="41.697 301.618 45.197 301.618 45.197 294.523 41.697 294.523"></polygon>
            <polygon id="Fill-164" fill="#41464B" points="49.071 301.618 52.571 301.618 52.571 294.523 49.071 294.523"></polygon>
            <polygon id="Fill-165" fill="#41464B" points="56.446 301.618 59.946 301.618 59.946 294.523 56.446 294.523"></polygon>
            <polygon id="Fill-166" fill="#41464B" points="63.821 301.618 67.321 301.618 67.321 294.523 63.821 294.523"></polygon>
            <polygon id="Fill-167" fill="#41464B" points="71.195 301.618 74.695 301.618 74.695 294.523 71.195 294.523"></polygon>
            <polygon id="Fill-168" fill="#41464B" points="78.569 301.618 82.069 301.618 82.069 294.523 78.569 294.523"></polygon>
            <polygon id="Fill-169" fill="#41464B" points="85.943 301.618 89.443 301.618 89.443 294.523 85.943 294.523"></polygon>
            <polygon id="Fill-170" fill="#41464B" points="93.318 301.618 96.818 301.618 96.818 294.523 93.318 294.523"></polygon>
            <polygon id="Fill-171" fill="#41464B" points="100.694 301.618 104.194 301.618 104.194 294.523 100.694 294.523"></polygon>
            <polygon id="Fill-172" fill="#41464B" points="108.068 301.618 111.568 301.618 111.568 294.523 108.068 294.523"></polygon>
            <polygon id="Fill-173" fill="#41464B" points="115.443 301.618 118.943 301.618 118.943 294.523 115.443 294.523"></polygon>
            <polygon id="Fill-174" fill="#41464B" points="122.818 301.618 126.318 301.618 126.318 294.523 122.818 294.523"></polygon>
            <polygon id="Fill-175" fill="#41464B" points="130.193 301.618 133.693 301.618 133.693 294.523 130.193 294.523"></polygon>
            <polygon id="Fill-176" fill="#41464B" points="137.567 301.618 141.067 301.618 141.067 294.523 137.567 294.523"></polygon>
            <polygon id="Fill-177" fill="#41464B" points="144.942 301.618 148.442 301.618 148.442 294.523 144.942 294.523"></polygon>
            <polygon id="Fill-178" fill="#41464B" points="152.316 301.618 155.816 301.618 155.816 294.523 152.316 294.523"></polygon>
            <polygon id="Fill-179" fill="#41464B" points="159.692 301.618 163.192 301.618 163.192 294.523 159.692 294.523"></polygon>
            <polygon id="Fill-180" fill="#41464B" points="167.066 301.618 170.566 301.618 170.566 294.523 167.066 294.523"></polygon>
            <polygon id="Fill-181" fill="#41464B" points="174.439 301.618 177.939 301.618 177.939 294.523 174.439 294.523"></polygon>
            <polygon id="Fill-182" fill="#41464B" points="181.814 301.618 185.314 301.618 185.314 294.523 181.814 294.523"></polygon>
            <polygon id="Fill-183" fill="#41464B" points="189.188 301.618 192.688 301.618 192.688 294.523 189.188 294.523"></polygon>
            <polygon id="Fill-184" fill="#41464B" points="196.565 301.618 200.065 301.618 200.065 294.523 196.565 294.523"></polygon>
            <polygon id="Fill-185" fill="#41464B" points="203.939 301.618 207.439 301.618 207.439 294.523 203.939 294.523"></polygon>
            <polygon id="Fill-186" fill="#41464B" points="211.313 301.618 214.813 301.618 214.813 294.523 211.313 294.523"></polygon>
            <polyline id="Fill-187" fill="#FED65C" points="265.913 330.627 71.962 330.627 71.962 316.123 265.913 316.122 265.913 330.627"></polyline>
            <path d="M50.206,319.23 C50.206,318.437 50.508,317.641 51.117,317.033 C51.724,316.426 52.52,316.122 53.314,316.122 L57.458,316.122 L57.458,330.627 L53.314,330.627 C52.52,330.627 51.724,330.322 51.117,329.714 C50.508,329.109 50.206,328.313 50.206,327.519 L50.206,319.23" id="Fill-188" fill="#AFAFAF"></path>
            <polyline id="Fill-189" fill="#454545" points="266.466 332.287 265.359 328.967 282.137 323.376 265.359 317.782 266.466 314.462 293.206 323.377 266.466 332.287"></polyline>
            <polygon id="Fill-190" fill="#454545" points="278.677 325.789 282.177 325.789 282.177 320.958 278.677 320.958"></polygon>
            <path d="M73.712,328.877 L264.163,328.877 L264.163,317.872 L73.712,317.873 L73.712,328.877 L73.712,328.877 Z M265.913,332.377 L71.962,332.377 C70.996,332.377 70.212,331.593 70.212,330.627 L70.212,316.123 C70.212,315.157 70.996,314.373 71.962,314.373 L265.913,314.372 C266.376,314.372 266.822,314.557 267.15,314.885 C267.478,315.213 267.663,315.658 267.663,316.122 L267.663,330.627 C267.663,331.593 266.879,332.377 265.913,332.377 L265.913,332.377 Z" id="Fill-191" fill="#454545"></path>
            <polyline id="Fill-192" fill="#454545" points="71.962 325.125 71.962 321.625 265.913 321.624 265.913 325.124 71.962 325.125"></polyline>
            <path d="M59.208,328.877 L70.212,328.877 L70.212,317.872 L59.208,317.872 L59.208,328.877 Z M55.708,332.377 L73.712,332.377 L73.712,314.372 L55.708,314.372 L55.708,332.377 Z" id="Fill-193" fill="#454545"></path>
            <path d="M53.314,317.872 C52.952,317.872 52.611,318.014 52.354,318.271 C52.097,318.528 51.956,318.868 51.956,319.23 L51.956,327.519 C51.956,327.881 52.095,328.22 52.35,328.473 C52.613,328.735 52.953,328.877 53.314,328.877 L55.708,328.877 L55.708,317.872 L53.314,317.872 L53.314,317.872 Z M59.208,332.377 L53.314,332.377 C52.017,332.377 50.796,331.87 49.878,330.95 C48.962,330.041 48.456,328.82 48.456,327.519 L48.456,319.23 C48.456,317.932 48.961,316.712 49.88,315.795 C50.797,314.877 52.017,314.372 53.314,314.372 L59.208,314.372 L59.208,332.377 L59.208,332.377 Z" id="Fill-194" fill="#454545"></path>
            <polygon id="Fill-195" fill="#454545" points="62.96 330.627 66.46 330.627 66.46 316.122 62.96 316.122"></polygon>
            <path d="M192.82,11.839 C189.611,11.839 187,14.449 187,17.658 C187,20.867 189.611,23.478 192.82,23.478 C196.029,23.478 198.639,20.867 198.639,17.658 C198.639,14.449 196.029,11.839 192.82,11.839 L192.82,11.839 Z M192.82,26.978 C187.681,26.978 183.5,22.797 183.5,17.658 C183.5,12.52 187.681,8.339 192.82,8.339 C197.958,8.339 202.139,12.52 202.139,17.658 C202.139,22.797 197.958,26.978 192.82,26.978 L192.82,26.978 Z" id="Fill-196" fill="#41464B"></path>
            <path d="M192.819,60.232 C181.912,60.232 171.005,56.08 162.702,47.776 L165.176,45.302 C180.42,60.545 205.22,60.542 220.462,45.301 L222.937,47.775 C214.634,56.079 203.726,60.232 192.819,60.232" id="Fill-197" fill="#41464B"></path>
            <polyline id="Fill-198" fill="#41464B" points="173.205 85.666 169.857 84.645 188.298 24.163 191.646 25.183 173.205 85.666"></polyline>
            <polyline id="Fill-199" fill="#41464B" points="212.435 85.666 193.994 25.183 197.341 24.163 215.783 84.645 212.435 85.666"></polyline>
            <polygon id="Fill-200" fill="#41464B" points="191.07 10.089 194.57 10.089 194.57 0.627 191.07 0.627"></polygon>
            <polygon id="Fill-201" fill="#41464B" points="184.075 86.812 187.574 86.812 187.574 83.312 184.075 83.312"></polygon>
            <polygon id="Fill-202" fill="#41464B" points="191.072 86.812 194.569 86.812 194.569 83.312 191.072 83.312"></polygon>
            <polygon id="Fill-203" fill="#41464B" points="198.067 86.812 201.565 86.812 201.565 83.312 198.067 83.312"></polygon>
            <polygon id="Fill-204" fill="#FED65C" points="243.118 85.154 284.369 85.154 284.369 43.902 243.118 43.902"></polygon>
            <path d="M265.492,62.779 L303.243,62.779 L303.243,25.029 L265.492,25.029 L265.492,62.779 Z M261.992,66.279 L306.743,66.279 L306.743,21.529 L261.992,21.529 L261.992,66.279 Z" id="Fill-205" fill="#41464B"></path>
            <polygon id="Fill-206" fill="#41464B" points="50.206 53.625 128.996 53.625 128.996 50.125 50.206 50.125"></polygon>
            <polygon id="Fill-207" fill="#41464B" points="50.206 60.248 89.6 60.248 89.6 56.748 50.206 56.748"></polygon>
            <polygon id="Fill-208" fill="#FF7443" points="35.54 60.154 45.474 60.154 45.474 50.219 35.54 50.219"></polygon>
            <polygon id="Fill-209" fill="#41464B" points="50.206 27.132 128.996 27.132 128.996 23.632 50.206 23.632"></polygon>
            <polygon id="Fill-210" fill="#41464B" points="50.206 33.755 89.6 33.755 89.6 30.255 50.206 30.255"></polygon>
            <polygon id="Fill-211" fill="#FF7443" points="35.54 33.662 45.474 33.662 45.474 23.726 35.54 23.726"></polygon>
            <polygon id="Fill-212" fill="#41464B" points="38.757 30.444 42.257 30.444 42.257 26.942 38.757 26.942"></polygon>
            <polygon id="Fill-213" fill="#41464B" points="50.206 40.378 128.996 40.378 128.996 36.878 50.206 36.878"></polygon>
            <polygon id="Fill-214" fill="#41464B" points="50.206 47.002 89.6 47.002 89.6 43.502 50.206 43.502"></polygon>
            <polygon id="Fill-215" fill="#FF7443" points="35.54 46.908 45.474 46.908 45.474 36.973 35.54 36.973"></polygon>
            <polygon id="Fill-216" fill="#41464B" points="38.757 43.69 42.257 43.69 42.257 40.188 38.757 40.188"></polygon>
        </g>
    </g>
</svg>