<?xml version="1.0" encoding="UTF-8" standalone="no"?>
<svg width="236px" height="219px" viewBox="0 0 236 219" version="1.1" xmlns="http://www.w3.org/2000/svg" xmlns:xlink="http://www.w3.org/1999/xlink">
    <!-- Generator: Sketch 39 (31667) - http://www.bohemiancoding.com/sketch -->
    <title>process</title>
    <desc>Created with Sketch.</desc>
    <defs></defs>
    <g id="Page-1" stroke="none" stroke-width="1" fill="none" fill-rule="evenodd">
        <g id="process">
            <path d="M164.062,62.16 C151.969,50.964 135.782,44.121 118.002,44.121 C100.221,44.121 84.033,50.964 71.933,62.162 L90.876,81.1 C95.041,76.933 101.826,76.923 105.99,81.1 C110.165,85.274 110.155,92.047 105.99,96.213 L117.997,108.225 L133.849,92.376 C134.386,91.9 135.187,91.925 135.679,92.426 C135.832,92.59 135.956,92.792 136.014,93.014 L136.024,93.023 C136.035,93.101 136.035,93.189 136.049,93.268 C136.049,93.268 136.049,93.268 136.049,93.284 C136.217,94.346 136.718,95.386 137.562,96.223 C139.641,98.3 143.022,98.3 145.109,96.223 C147.196,94.131 147.196,90.744 145.109,88.656 C144.277,87.827 143.234,87.333 142.157,87.161 C142.084,87.141 141.99,87.126 141.904,87.126 C141.697,87.073 141.493,86.956 141.317,86.79 C140.826,86.288 140.797,85.534 141.227,85.006 L164.062,62.16" id="Fill-239" fill="#B2B2B2"></path>
            <path d="M68.157,158.058 L87.102,139.122 L87.102,139.112 C82.943,134.945 82.922,128.173 87.102,123.996 C91.257,119.832 98.022,119.841 102.206,124.006 L114.212,111.995 L98.376,96.155 C97.904,95.634 97.914,94.822 98.41,94.321 C98.588,94.154 98.785,94.041 99.016,93.984 C99.099,93.974 99.186,93.964 99.266,93.939 L99.286,93.939 C100.354,93.767 101.382,93.284 102.216,92.444 C104.316,90.352 104.307,86.963 102.216,84.887 C100.126,82.794 96.746,82.794 94.647,84.887 C93.827,85.71 93.325,86.754 93.159,87.827 C93.128,87.92 93.128,87.999 93.118,88.077 C93.063,88.308 92.951,88.51 92.784,88.677 C92.275,89.185 91.46,89.201 90.933,88.714 L90.895,88.677 L68.156,65.943 C56.977,78.046 50.121,94.222 50.121,112 C50.121,129.778 56.977,145.955 68.157,158.058" id="Fill-240" fill="#F85C2A"></path>
            <path d="M167.838,65.933 L148.881,84.887 C153.051,89.054 153.051,95.826 148.891,100.002 C144.724,104.177 137.932,104.167 133.778,100.002 L121.771,111.995 L137.573,127.786 C138.089,128.319 138.089,129.167 137.573,129.688 C137.396,129.853 137.188,129.971 136.966,130.024 C136.886,130.024 136.799,130.035 136.718,130.06 C135.65,130.232 134.603,130.731 133.778,131.555 C131.678,133.647 131.678,137.034 133.778,139.122 C135.868,141.204 139.248,141.204 141.337,139.122 C142.157,138.29 142.658,137.245 142.825,136.18 L142.825,136.172 C142.845,136.088 142.866,136 142.866,135.921 L142.876,135.912 C142.932,135.691 143.042,135.489 143.21,135.323 C143.732,134.798 144.58,134.798 145.102,135.323 L167.843,158.061 C179.026,145.958 185.883,129.78 185.883,112 C185.883,94.216 179.024,78.036 167.838,65.933" id="Fill-241" fill="#A1D13B"></path>
            <path d="M164.058,161.84 L145.109,142.892 C140.953,147.051 134.163,147.065 129.995,142.899 C125.829,138.724 125.839,131.952 129.995,127.776 L117.997,115.774 L102.155,131.623 C101.641,132.095 100.823,132.084 100.313,131.573 C100.137,131.398 100.019,131.196 99.97,130.976 C99.96,130.887 99.953,130.809 99.944,130.731 C99.769,129.653 99.276,128.6 98.431,127.776 C96.355,125.679 92.962,125.679 90.876,127.776 C88.797,129.853 88.797,133.255 90.876,135.332 C91.707,136.172 92.744,136.655 93.815,136.837 C93.827,136.828 93.838,136.837 93.838,136.837 C93.904,136.858 93.993,136.873 94.081,136.873 L94.081,136.882 C94.308,136.926 94.511,137.053 94.667,137.209 C95.197,137.73 95.197,138.578 94.667,139.102 L71.943,161.839 C84.034,173.031 100.221,179.878 118.002,179.878 C135.782,179.878 151.968,173.031 164.058,161.84" id="Fill-242" fill="#23282B"></path>
            <path d="M113.01,34.659 L112.693,29.669 C114.402,29.561 116.145,29.504 117.869,29.501 L117.877,34.501 C116.255,34.504 114.617,34.557 113.01,34.659 L113.01,34.659 Z M127.592,35.088 C125.986,34.89 124.355,34.741 122.745,34.644 L123.046,29.652 C124.76,29.756 126.495,29.915 128.203,30.125 L127.592,35.088 L127.592,35.088 Z M103.358,35.881 L102.419,30.97 C104.105,30.648 105.827,30.375 107.535,30.158 L108.164,35.118 C106.56,35.321 104.942,35.578 103.358,35.881 L103.358,35.881 Z M137.151,36.885 C135.586,36.487 133.987,36.134 132.4,35.836 L133.324,30.922 C135.014,31.239 136.717,31.615 138.384,32.04 L137.151,36.885 L137.151,36.885 Z M93.938,38.308 L92.388,33.554 C94.02,33.022 95.692,32.534 97.362,32.104 L98.61,36.945 C97.043,37.35 95.471,37.808 93.938,38.308 L93.938,38.308 Z M146.416,39.876 C144.912,39.283 143.369,38.73 141.828,38.232 L143.365,33.475 C145.005,34.004 146.649,34.593 148.252,35.225 L146.416,39.876 L146.416,39.876 Z M84.907,41.901 L82.769,37.382 C84.318,36.649 85.914,35.955 87.513,35.318 L89.362,39.963 C87.86,40.561 86.362,41.213 84.907,41.901 L84.907,41.901 Z M155.234,44.016 C153.816,43.237 152.354,42.494 150.892,41.807 L153.017,37.281 C154.574,38.013 156.13,38.804 157.641,39.633 L155.234,44.016 L155.234,44.016 Z M76.398,46.602 L73.711,42.386 C75.158,41.463 76.656,40.573 78.161,39.742 L80.579,44.118 C79.165,44.899 77.759,45.735 76.398,46.602 L76.398,46.602 Z M163.458,49.229 C162.152,48.281 160.797,47.36 159.429,46.493 L162.106,42.271 C163.562,43.193 165.005,44.173 166.396,45.182 L163.458,49.229 L163.458,49.229 Z M68.541,52.334 L65.348,48.486 C66.678,47.382 68.054,46.312 69.436,45.304 L72.381,49.345 C71.083,50.291 69.791,51.297 68.541,52.334 L68.541,52.334 Z M170.965,55.427 C169.791,54.326 168.562,53.245 167.31,52.211 L170.493,48.355 C171.825,49.456 173.135,50.607 174.385,51.779 L170.965,55.427 L170.965,55.427 Z M61.454,59.003 L57.806,55.584 C58.983,54.328 60.215,53.094 61.467,51.917 L64.893,55.558 C63.717,56.665 62.56,57.824 61.454,59.003 L61.454,59.003 Z M177.641,62.51 C176.606,61.265 175.521,60.039 174.415,58.865 L178.054,55.436 C179.231,56.685 180.386,57.99 181.486,59.314 L177.641,62.51 L177.641,62.51 Z M55.252,66.507 L51.207,63.57 C52.216,62.179 53.285,60.801 54.383,59.473 L58.236,62.659 C57.205,63.907 56.201,65.202 55.252,66.507 L55.252,66.507 Z M183.377,70.365 C182.511,69.007 181.587,67.656 180.633,66.349 L184.67,63.4 C185.687,64.792 186.669,66.23 187.592,67.676 L183.377,70.365 L183.377,70.365 Z M50.036,74.729 L45.653,72.322 C46.483,70.812 47.372,69.309 48.294,67.857 L52.515,70.537 C51.649,71.9 50.815,73.311 50.036,74.729 L50.036,74.729 Z M188.08,78.871 C187.389,77.41 186.642,75.955 185.862,74.545 L190.237,72.125 C191.067,73.625 191.862,75.175 192.6,76.73 L188.08,78.871 L188.08,78.871 Z M45.891,83.545 L41.24,81.708 C41.871,80.112 42.563,78.51 43.298,76.945 L47.823,79.07 C47.133,80.541 46.482,82.046 45.891,83.545 L45.891,83.545 Z M191.679,87.9 C191.18,86.37 190.622,84.832 190.022,83.326 L194.667,81.475 C195.307,83.079 195.9,84.718 196.433,86.348 L191.679,87.9 L191.679,87.9 Z M42.896,92.808 L38.05,91.574 C38.476,89.903 38.959,88.228 39.487,86.595 L44.245,88.134 C43.749,89.667 43.295,91.24 42.896,92.808 L42.896,92.808 Z M194.111,97.318 C193.809,95.738 193.449,94.141 193.044,92.571 L197.886,91.321 C198.317,92.993 198.699,94.694 199.021,96.378 L194.111,97.318 L194.111,97.318 Z M41.094,102.368 L36.131,101.752 C36.342,100.051 36.61,98.33 36.929,96.635 L41.843,97.558 C41.544,99.151 41.291,100.769 41.094,102.368 L41.094,102.368 Z M195.337,106.968 C195.235,105.366 195.08,103.736 194.875,102.125 L199.836,101.494 C200.054,103.21 200.219,104.945 200.327,106.652 L195.337,106.968 L195.337,106.968 Z M35.5,112.084 L35.5,112.002 C35.5,110.312 35.552,108.598 35.655,106.911 L40.646,107.214 C40.549,108.801 40.5,110.412 40.5,112.002 L35.5,112.084 L35.5,112.084 Z M200.341,117.178 L195.351,116.869 C195.449,115.263 195.5,113.625 195.5,112.002 L195.5,111.833 L200.5,111.833 L200.5,112.002 C200.5,113.728 200.446,115.469 200.341,117.178 L200.341,117.178 Z M36.152,122.42 C35.937,120.709 35.773,118.974 35.666,117.262 L40.656,116.95 C40.757,118.557 40.911,120.188 41.113,121.795 L36.152,122.42 L36.152,122.42 Z M199.055,127.453 L194.143,126.524 C194.443,124.931 194.697,123.313 194.897,121.715 L199.858,122.335 C199.646,124.036 199.376,125.758 199.055,127.453 L199.055,127.453 Z M38.092,132.595 C37.662,130.922 37.281,129.221 36.961,127.537 L41.873,126.602 C42.174,128.183 42.53,129.78 42.934,131.351 L38.092,132.595 L38.092,132.595 Z M196.486,137.491 L191.73,135.946 C192.229,134.413 192.685,132.841 193.086,131.273 L197.93,132.513 C197.502,134.183 197.017,135.857 196.486,137.491 L196.486,137.491 Z M41.3,142.445 C40.664,140.845 40.072,139.205 39.54,137.571 L44.294,136.022 C44.794,137.557 45.35,139.097 45.946,140.6 L41.3,142.445 L41.3,142.445 Z M192.664,147.137 L188.143,145.004 C188.831,143.544 189.482,142.04 190.079,140.533 L194.728,142.374 C194.092,143.979 193.397,145.582 192.664,147.137 L192.664,147.137 Z M45.72,151.8 C44.887,150.292 44.094,148.741 43.362,147.191 L47.884,145.057 C48.57,146.512 49.315,147.968 50.097,149.384 L45.72,151.8 L45.72,151.8 Z M187.659,156.218 L183.44,153.535 C184.31,152.167 185.146,150.757 185.925,149.344 L190.304,151.757 C189.475,153.261 188.585,154.762 187.659,156.218 L187.659,156.218 Z M51.278,160.53 C50.267,159.142 49.286,157.703 48.362,156.253 L52.579,153.566 C53.447,154.929 54.369,156.282 55.319,157.587 L51.278,160.53 L51.278,160.53 Z M181.562,164.595 L177.712,161.406 C178.74,160.164 179.746,158.87 180.699,157.56 L184.742,160.503 C183.727,161.896 182.657,163.273 181.562,164.595 L181.562,164.595 Z M57.886,168.502 C56.707,167.249 55.554,165.942 54.456,164.619 L58.306,161.428 C59.336,162.671 60.421,163.899 61.528,165.076 L57.886,168.502 L57.886,168.502 Z M174.471,172.142 L171.045,168.5 C172.227,167.389 173.385,166.23 174.489,165.056 L178.132,168.48 C176.958,169.729 175.727,170.961 174.471,172.142 L174.471,172.142 Z M65.438,175.59 C64.117,174.496 62.811,173.344 61.554,172.165 L64.974,168.518 C66.156,169.626 67.385,170.71 68.628,171.739 L65.438,175.59 L65.438,175.59 Z M166.496,178.747 L163.553,174.705 C164.86,173.752 166.153,172.748 167.396,171.719 L170.585,175.571 C169.264,176.665 167.888,177.733 166.496,178.747 L166.496,178.747 Z M73.82,181.685 C72.366,180.762 70.924,179.78 69.532,178.769 L72.474,174.725 C73.78,175.675 75.136,176.597 76.5,177.464 L73.82,181.685 L73.82,181.685 Z M157.761,184.302 L155.347,179.923 C156.762,179.143 158.169,178.309 159.53,177.443 L162.214,181.662 C160.765,182.583 159.267,183.472 157.761,184.302 L157.761,184.302 Z M82.904,186.683 C81.347,185.95 79.792,185.157 78.282,184.326 L80.692,179.945 C82.111,180.726 83.571,181.471 85.033,182.159 L82.904,186.683 L82.904,186.683 Z M148.404,188.715 L146.561,184.068 C148.061,183.473 149.561,182.822 151.019,182.135 L153.151,186.656 C151.599,187.389 150.002,188.082 148.404,188.715 L148.404,188.715 Z M92.553,190.5 C90.913,189.968 89.27,189.377 87.668,188.744 L89.506,184.094 C91.012,184.689 92.555,185.244 94.094,185.743 L92.553,190.5 L92.553,190.5 Z M138.552,191.919 L137.31,187.075 C138.872,186.675 140.444,186.218 141.981,185.718 L143.528,190.473 C141.891,191.006 140.216,191.492 138.552,191.919 L138.552,191.919 Z M102.589,193.063 C100.893,192.742 99.189,192.364 97.529,191.939 L98.768,187.096 C100.326,187.494 101.925,187.849 103.517,188.15 L102.589,193.063 L102.589,193.063 Z M128.377,193.854 L127.754,188.893 C129.358,188.691 130.976,188.436 132.561,188.135 L133.494,193.047 C131.807,193.368 130.085,193.639 128.377,193.854 L128.377,193.854 Z M112.866,194.343 C111.147,194.238 109.412,194.077 107.709,193.865 L108.326,188.903 C109.927,189.102 111.558,189.253 113.173,189.353 L112.866,194.343 L112.866,194.343 Z M118.042,194.5 L118.04,189.5 C119.657,189.5 121.295,189.449 122.907,189.348 L123.22,194.338 C121.505,194.445 119.763,194.5 118.042,194.5 L118.042,194.5 Z" id="Fill-243" fill="#E6E6E6"></path>
            <path d="M115.441,68.822 L117.998,61.772 L120.555,68.822 L115.441,68.822 L115.441,68.822 Z M109.496,74.668 L113.452,74.668 L114.484,71.892 L121.514,71.892 L122.542,74.668 L126.498,74.668 L120.184,58.286 L115.813,58.286 L109.496,74.668 L109.496,74.668 Z" id="Fill-244" fill="#23282B"></path>
            <path d="M164.702,117.118 L160.181,117.118 L160.181,113.384 L164.702,113.384 C166.051,113.384 166.791,114.221 166.791,115.25 C166.791,116.43 166.005,117.118 164.702,117.118 L164.702,117.118 Z M160.181,106.876 L164.554,106.876 C165.734,106.876 166.471,107.586 166.471,108.596 C166.471,109.652 165.734,110.316 164.554,110.316 L160.181,110.316 L160.181,106.876 L160.181,106.876 Z M167.206,111.738 C168.753,111.419 170.033,110.019 170.033,107.979 C170.033,105.793 168.435,103.805 165.315,103.805 L156.692,103.805 L156.692,120.188 L165.585,120.188 C168.729,120.188 170.352,118.223 170.352,115.743 C170.352,113.704 168.977,112.01 167.206,111.738 L167.206,111.738 Z" id="Fill-245" fill="#FFFFFF"></path>
            <path d="M71.355,117.121 L68.383,117.121 L68.383,106.879 L71.376,106.879 C74.719,106.879 76.488,109.113 76.488,111.987 C76.488,114.788 74.598,117.121 71.355,117.121 L71.355,117.121 Z M71.355,103.809 L64.894,103.809 L64.894,120.192 L71.376,120.192 C76.488,120.192 80.05,116.95 80.05,111.987 C80.05,107.075 76.488,103.809 71.355,103.809 L71.355,103.809 Z" id="Fill-246" fill="#FFFFFF"></path>
            <path d="M118.959,152.143 C120.63,152.143 122.104,153.2 122.788,154.528 L125.787,153.052 C124.635,150.989 122.546,149.048 118.959,149.048 C114.02,149.048 110.215,152.462 110.215,157.521 C110.215,162.559 114.02,165.998 118.959,165.998 C122.546,165.998 124.635,164.007 125.787,161.968 L122.788,160.52 C122.104,161.847 120.63,162.901 118.959,162.901 C115.962,162.901 113.802,160.619 113.802,157.521 C113.802,154.428 115.962,152.143 118.959,152.143" id="Fill-247" fill="#FFFFFF"></path>
            <polyline id="Fill-248" fill="#23282B" points="14.767 92.811 13.247 92.811 12.806 95.016 15.208 95.016 14.767 92.811"></polyline>
            <polyline id="Fill-249" fill="#23282B" points="9.663 93.77 8.351 94.529 9.069 96.66 11.151 95.459 9.663 93.77"></polyline>
            <polyline id="Fill-250" fill="#23282B" points="5.726 97.152 4.968 98.465 6.657 99.955 7.856 97.875 5.726 97.152"></polyline>
            <polyline id="Fill-251" fill="#23282B" points="4.005 102.049 4.005 103.566 6.214 104.012 6.214 101.609 4.005 102.049"></polyline>
            <polyline id="Fill-252" fill="#23282B" points="4.968 107.152 5.726 108.467 7.856 107.746 6.657 105.666 4.968 107.152"></polyline>
            <polyline id="Fill-253" fill="#23282B" points="8.351 111.092 9.663 111.85 11.151 110.158 9.069 108.959 8.351 111.092"></polyline>
            <polyline id="Fill-254" fill="#23282B" points="13.249 112.813 14.767 112.813 15.208 110.604 12.806 110.604 13.249 112.813"></polyline>
            <polyline id="Fill-255" fill="#23282B" points="18.353 111.85 19.665 111.092 18.942 108.959 16.862 110.158 18.353 111.85"></polyline>
            <polyline id="Fill-256" fill="#23282B" points="22.286 108.467 23.048 107.152 21.358 105.666 20.155 107.746 22.286 108.467"></polyline>
            <polyline id="Fill-257" fill="#23282B" points="24.005 103.566 24.005 102.049 21.802 101.609 21.802 104.012 24.005 103.566"></polyline>
            <polyline id="Fill-258" fill="#23282B" points="23.048 98.465 22.286 97.152 20.155 97.875 21.358 99.955 23.048 98.465"></polyline>
            <polyline id="Fill-259" fill="#23282B" points="19.665 94.529 18.349 93.771 16.862 95.459 18.942 96.658 19.665 94.529"></polyline>
            <path d="M16.069,102.811 C16.069,101.672 15.146,100.746 14.005,100.746 C12.87,100.746 11.946,101.672 11.946,102.811 C11.946,103.947 12.87,104.873 14.005,104.873 C15.146,104.873 16.069,103.947 16.069,102.811" id="Fill-260" fill="#23282B"></path>
            <path d="M14.005,107.576 C11.38,107.576 9.241,105.439 9.241,102.813 C9.241,100.182 11.38,98.041 14.005,98.041 C16.634,98.041 18.774,100.182 18.774,102.813 C18.774,105.439 16.634,107.576 14.005,107.576 L14.005,107.576 Z M14.005,94.926 C9.651,94.926 6.126,98.455 6.126,102.813 C6.126,107.168 9.651,110.693 14.005,110.693 C18.362,110.693 21.894,107.168 21.894,102.813 C21.894,98.455 18.362,94.926 14.005,94.926 L14.005,94.926 Z" id="Fill-261" fill="#23282B"></path>
            <polygon id="Fill-262" fill="#B2B2B2" points="7.005 118.367 21.005 118.367 21.005 116.516 7.005 116.516"></polygon>
            <polygon id="Fill-263" fill="#B2B2B2" points="0.005 122.072 28.005 122.072 28.005 120.221 0.005 120.221"></polygon>
            <polygon id="Fill-264" fill="#B2B2B2" points="0.005 125.777 28.005 125.777 28.005 123.926 0.005 123.926"></polygon>
            <polygon id="Fill-265" fill="#B2B2B2" points="0.005 129.482 28.005 129.482 28.005 127.629 0.005 127.629"></polygon>
            <polygon id="Fill-266" fill="#B2B2B2" points="0.005 133.188 14.005 133.188 14.005 131.334 0.005 131.334"></polygon>
            <polygon id="Fill-267" fill="#23282B" points="219.429 98.364 224.572 98.364 224.572 96.811 219.429 96.811"></polygon>
            <polyline id="Fill-268" fill="#23282B" points="224.466 90.813 224.466 92.813 223.23 92.813 223.23 90.813 220.77 90.813 220.77 92.813 219.535 92.813 219.535 90.813 217.076 90.813 217.076 96.811 226.925 96.811 226.925 90.813 224.466 90.813"></polyline>
            <polygon id="Fill-269" fill="#23282B" points="217.076 99.87 226.925 99.87 226.925 98.364 217.076 98.364"></polygon>
            <polyline id="Fill-270" fill="#23282B" points="224.572 99.87 219.429 99.87 217.076 110.104 226.925 110.104 224.572 99.87"></polyline>
            <polygon id="Fill-271" fill="#23282B" points="215.226 112.813 228.774 112.813 228.774 110.104 215.226 110.104"></polygon>
            <polygon id="Fill-272" fill="#B2B2B2" points="215 118.368 229 118.368 229 116.517 215 116.517"></polygon>
            <polygon id="Fill-273" fill="#B2B2B2" points="208 122.073 236 122.073 236 120.221 208 120.221"></polygon>
            <polygon id="Fill-274" fill="#B2B2B2" points="208 125.778 236 125.778 236 123.926 208 123.926"></polygon>
            <polygon id="Fill-275" fill="#B2B2B2" points="208 129.482 236 129.482 236 127.63 208 127.63"></polygon>
            <polygon id="Fill-276" fill="#B2B2B2" points="208 133.188 222 133.188 222 131.335 208 131.335"></polygon>
            <polygon id="Fill-277" fill="#B2B2B2" points="104.247 7.18 131.747 7.18 131.747 5.329 104.247 5.329"></polygon>
            <polygon id="Fill-278" fill="#B2B2B2" points="90.497 10.885 145.497 10.885 145.497 9.034 90.497 9.034"></polygon>
            <polygon id="Fill-279" fill="#B2B2B2" points="90.497 14.59 145.497 14.59 145.497 12.739 90.497 12.739"></polygon>
            <polygon id="Fill-280" fill="#B2B2B2" points="90.497 18.295 145.497 18.295 145.497 16.442 90.497 16.442"></polygon>
            <polygon id="Fill-281" fill="#B2B2B2" points="90.497 22 117.997 22 117.997 20.147 90.497 20.147"></polygon>
            <path d="M74.729,18.076 C74.729,18.379 74.974,18.625 75.276,18.625 L81.654,18.625 C81.956,18.625 82.199,18.379 82.199,18.076 C82.199,17.775 81.956,17.529 81.654,17.529 L75.276,17.529 C74.974,17.529 74.729,17.775 74.729,18.076" id="Fill-282" fill="#23282B"></path>
            <path d="M74.729,19.735 C74.729,20.039 74.974,20.285 75.276,20.285 L81.654,20.285 C81.956,20.285 82.199,20.039 82.199,19.735 C82.199,19.435 81.956,19.189 81.654,19.189 L75.276,19.189 C74.974,19.189 74.729,19.435 74.729,19.735" id="Fill-283" fill="#23282B"></path>
            <path d="M76.872,20.848 C77.094,21.516 77.724,22 78.466,22 C79.207,22 79.835,21.516 80.057,20.848 L76.872,20.848" id="Fill-284" fill="#23282B"></path>
            <path d="M71.823,8.331 C71.823,10.28 72.666,12.034 74.006,13.249 C74.008,13.25 74.203,13.417 74.3,13.499 C74.931,14.046 75.277,14.889 75.277,15.788 L75.275,15.788 L75.275,16.967 L81.653,16.967 L81.653,15.788 C81.653,14.889 82.001,14.046 82.631,13.499 C82.726,13.417 82.923,13.25 82.925,13.249 C84.263,12.034 85.104,10.28 85.104,8.331 C85.104,4.663 82.13,1.691 78.465,1.691 C74.797,1.691 71.823,4.663 71.823,8.331" id="Fill-285" fill="#23282B"></path>
            <path d="M75.112,9.145 C75.22,8.891 75.461,8.728 75.723,8.728 C75.819,8.728 75.913,8.748 76.002,8.792 C76.394,8.981 76.61,9.635 76.688,9.908 C76.51,9.996 76.132,10.156 75.778,10.156 C75.649,10.156 75.536,10.134 75.443,10.088 C75.28,10.01 75.155,9.868 75.095,9.689 C75.031,9.511 75.036,9.318 75.112,9.145 L75.112,9.145 Z M77.793,7.53 C77.793,7.138 78.092,6.816 78.462,6.816 C78.834,6.816 79.133,7.138 79.133,7.53 C79.133,7.95 78.73,8.425 78.464,8.674 L78.462,8.674 C78.199,8.425 77.793,7.95 77.793,7.53 L77.793,7.53 Z M80.24,9.908 C80.318,9.635 80.533,8.981 80.926,8.792 C81.017,8.748 81.109,8.728 81.204,8.728 C81.467,8.728 81.708,8.891 81.818,9.145 C81.892,9.318 81.896,9.511 81.835,9.689 C81.772,9.868 81.647,10.01 81.485,10.088 C81.393,10.134 81.279,10.156 81.148,10.156 C80.798,10.156 80.421,9.996 80.24,9.908 L80.24,9.908 Z M74.815,9.802 C74.905,10.059 75.084,10.263 75.318,10.377 C75.45,10.441 75.605,10.475 75.778,10.475 C76.155,10.475 76.543,10.323 76.762,10.22 L77.783,16.967 L77.866,16.967 L77.035,10.097 C77.079,10.076 77.134,10.05 77.201,10.018 C77.283,9.976 77.379,9.931 77.481,9.877 C77.53,9.851 77.579,9.824 77.633,9.794 C77.657,9.78 77.683,9.766 77.707,9.75 L77.746,9.729 L77.767,9.718 L77.77,9.716 L77.779,9.709 L77.789,9.705 C77.893,9.64 77.995,9.576 78.09,9.515 C78.137,9.485 78.183,9.453 78.227,9.425 C78.271,9.396 78.311,9.367 78.348,9.342 C78.363,9.332 78.411,9.295 78.462,9.256 C78.518,9.295 78.562,9.332 78.579,9.342 C78.617,9.367 78.657,9.396 78.701,9.425 C78.745,9.453 78.791,9.485 78.84,9.515 C78.934,9.576 79.035,9.64 79.14,9.705 L79.148,9.709 L79.157,9.716 L79.163,9.718 L79.181,9.729 L79.221,9.75 C79.246,9.766 79.271,9.78 79.296,9.794 C79.348,9.824 79.399,9.851 79.446,9.877 C79.55,9.931 79.646,9.976 79.728,10.018 C79.792,10.05 79.849,10.076 79.895,10.097 L79.063,16.967 L79.146,16.967 L80.167,10.22 C80.386,10.323 80.773,10.475 81.148,10.475 C81.32,10.475 81.477,10.441 81.608,10.377 C81.842,10.263 82.021,10.059 82.114,9.802 C82.206,9.542 82.195,9.263 82.088,9.012 C81.93,8.645 81.583,8.408 81.204,8.408 C81.065,8.408 80.93,8.44 80.806,8.502 C80.326,8.733 80.07,9.415 79.971,9.756 C79.941,9.74 79.908,9.723 79.872,9.703 C79.8,9.659 79.713,9.608 79.621,9.554 C79.574,9.523 79.527,9.491 79.479,9.459 C79.454,9.443 79.428,9.427 79.403,9.411 L79.367,9.386 L79.348,9.373 L79.346,9.373 L79.344,9.37 L79.336,9.364 C79.239,9.295 79.146,9.227 79.056,9.162 C79.013,9.128 78.971,9.094 78.934,9.065 C78.892,9.035 78.855,9.005 78.822,8.977 C78.815,8.975 78.813,8.973 78.81,8.969 C79.099,8.685 79.574,8.125 79.574,7.53 C79.574,6.878 79.075,6.352 78.462,6.352 C77.853,6.352 77.354,6.878 77.354,7.53 C77.354,8.125 77.831,8.685 78.118,8.969 C78.114,8.973 78.112,8.975 78.108,8.977 C78.072,9.005 78.036,9.035 77.997,9.065 C77.957,9.094 77.915,9.128 77.872,9.162 C77.783,9.227 77.687,9.295 77.595,9.364 L77.585,9.37 L77.583,9.373 L77.577,9.373 L77.562,9.386 L77.524,9.411 C77.499,9.427 77.476,9.443 77.45,9.459 C77.4,9.491 77.354,9.523 77.308,9.554 C77.214,9.608 77.126,9.659 77.056,9.703 C77.02,9.723 76.989,9.74 76.958,9.756 C76.857,9.415 76.602,8.733 76.124,8.502 C75.997,8.44 75.86,8.408 75.723,8.408 C75.343,8.408 74.997,8.645 74.84,9.012 C74.734,9.263 74.722,9.542 74.815,9.802 L74.815,9.802 Z" id="Fill-286" fill="#FFFFFF"></path>
            <polygon id="Fill-287" fill="#23282B" points="78.146 1.127 78.784 1.127 78.784 0 78.146 0"></polygon>
            <polyline id="Fill-288" fill="#23282B" points="76.292 1.456 75.999 0.368 76.616 0.202 76.909 1.29 76.292 1.456"></polyline>
            <polyline id="Fill-289" fill="#23282B" points="74.587 2.252 74.023 1.277 74.576 0.958 75.14 1.933 74.587 2.252"></polyline>
            <polyline id="Fill-290" fill="#23282B" points="73.146 3.464 72.35 2.667 72.801 2.216 73.597 3.013 73.146 3.464"></polyline>
            <polyline id="Fill-291" fill="#23282B" points="72.065 5.006 71.092 4.442 71.412 3.89 72.386 4.454 72.065 5.006"></polyline>
            <polyline id="Fill-292" fill="#23282B" points="71.424 6.775 70.336 6.483 70.502 5.867 71.59 6.159 71.424 6.775"></polyline>
            <polygon id="Fill-293" fill="#23282B" points="70.136 8.65 71.261 8.65 71.261 8.012 70.136 8.012"></polygon>
            <polyline id="Fill-294" fill="#23282B" points="70.502 10.795 70.336 10.179 71.424 9.888 71.59 10.504 70.502 10.795"></polyline>
            <polyline id="Fill-295" fill="#23282B" points="71.411 12.772 71.093 12.219 72.067 11.656 72.386 12.209 71.411 12.772"></polyline>
            <polyline id="Fill-296" fill="#23282B" points="72.801 14.446 72.35 13.995 73.146 13.198 73.598 13.649 72.801 14.446"></polyline>
            <polyline id="Fill-297" fill="#23282B" points="80.638 1.456 80.021 1.29 80.313 0.202 80.93 0.368 80.638 1.456"></polyline>
            <polyline id="Fill-298" fill="#23282B" points="82.342 2.251 81.789 1.932 82.354 0.957 82.906 1.276 82.342 2.251"></polyline>
            <polyline id="Fill-299" fill="#23282B" points="83.784 3.463 83.333 3.012 84.129 2.215 84.58 2.667 83.784 3.463"></polyline>
            <polyline id="Fill-300" fill="#23282B" points="84.864 5.006 84.544 4.453 85.518 3.889 85.838 4.442 84.864 5.006"></polyline>
            <polyline id="Fill-301" fill="#23282B" points="85.506 6.774 85.34 6.158 86.428 5.867 86.594 6.483 85.506 6.774"></polyline>
            <polygon id="Fill-302" fill="#23282B" points="85.669 8.65 86.794 8.65 86.794 8.012 85.669 8.012"></polygon>
            <polyline id="Fill-303" fill="#23282B" points="86.429 10.795 85.341 10.504 85.505 9.888 86.593 10.179 86.429 10.795"></polyline>
            <polyline id="Fill-304" fill="#23282B" points="85.518 12.772 84.544 12.209 84.864 11.656 85.838 12.219 85.518 12.772"></polyline>
            <polyline id="Fill-305" fill="#23282B" points="84.129 14.446 83.333 13.649 83.784 13.198 84.58 13.995 84.129 14.446"></polyline>
            <polygon id="Fill-306" fill="#B2B2B2" points="104.247 203.763 131.747 203.763 131.747 201.912 104.247 201.912"></polygon>
            <polygon id="Fill-307" fill="#B2B2B2" points="90.497 207.468 145.497 207.468 145.497 205.617 90.497 205.617"></polygon>
            <polygon id="Fill-308" fill="#B2B2B2" points="90.497 211.173 145.497 211.173 145.497 209.322 90.497 209.322"></polygon>
            <polygon id="Fill-309" fill="#B2B2B2" points="90.497 214.878 145.497 214.878 145.497 213.025 90.497 213.025"></polygon>
            <polygon id="Fill-310" fill="#B2B2B2" points="90.497 218.583 117.997 218.583 117.997 216.73 90.497 216.73"></polygon>
            <path d="M84.381,211.007 C84.381,215.189 80.993,218.583 76.812,218.583 C72.627,218.583 69.235,215.189 69.235,211.007 C69.235,206.824 72.627,203.439 76.812,203.439 C80.993,203.439 84.381,206.824 84.381,211.007" id="Fill-311" fill="#23282B"></path>
            <polygon id="Fill-312" fill="#23282B" points="74.915 203.673 78.702 203.673 78.702 198.314 74.915 198.314"></polygon>
            <path d="M79.571,197.447 C79.571,197.226 79.486,197.007 79.315,196.837 C79.146,196.669 78.924,196.583 78.702,196.583 L74.915,196.583 C74.692,196.583 74.47,196.669 74.304,196.837 C74.134,197.007 74.051,197.226 74.051,197.447 C74.051,197.669 74.134,197.89 74.304,198.06 C74.47,198.23 74.692,198.314 74.915,198.314 L78.702,198.314 C78.924,198.314 79.146,198.23 79.315,198.06 C79.486,197.89 79.571,197.669 79.571,197.447" id="Fill-313" fill="#23282B"></path>
            <polyline id="Fill-314" fill="#23282B" points="84.371 204.947 82.872 203.447 81.32 205.003 82.814 206.498 84.371 204.947"></polyline>
            <path d="M85.062,204.953 C85.149,204.865 85.215,204.73 85.215,204.595 C85.215,204.457 85.161,204.333 85.071,204.244 L83.574,202.748 C83.484,202.656 83.361,202.603 83.226,202.603 C83.087,202.603 82.966,202.656 82.871,202.748 C82.783,202.837 82.729,202.962 82.729,203.099 C82.729,203.234 82.783,203.359 82.871,203.447 L84.372,204.947 C84.459,205.035 84.585,205.089 84.719,205.089 C84.856,205.089 84.992,205.021 85.081,204.931 L85.062,204.953" id="Fill-315" fill="#23282B"></path>
            <path d="M86.794,203.673 C86.794,203.841 86.654,203.986 86.484,203.986 C86.313,203.986 86.175,203.841 86.175,203.673 C86.175,203.501 86.313,203.361 86.484,203.361 C86.654,203.361 86.794,203.501 86.794,203.673" id="Fill-316" fill="#23282B"></path>
            <path d="M86.794,200.437 C86.794,200.978 86.35,201.425 85.802,201.425 C85.253,201.425 84.812,200.978 84.812,200.437 C84.812,199.89 85.253,199.447 85.802,199.447 C86.35,199.447 86.794,199.89 86.794,200.437" id="Fill-317" fill="#23282B"></path>
            <path d="M79.977,212.322 C78.937,212.242 77.687,211.886 76.811,211.007 C75.062,209.257 72.223,209.257 70.473,211.007 C70.473,214.503 73.315,217.347 76.811,217.347 C80.28,217.347 83.111,214.537 83.145,211.074 C83.073,211.806 81.842,212.46 79.977,212.322" id="Fill-318" fill="#FFFFFF"></path>
            <path d="M76.647,201.982 C76.647,202.195 76.471,202.375 76.253,202.375 C76.033,202.375 75.857,202.195 75.857,201.982 C75.857,201.761 76.033,201.585 76.253,201.585 C76.471,201.585 76.647,201.761 76.647,201.982" id="Fill-319" fill="#FFFFFF"></path>
            <path d="M78.268,205.089 C78.268,205.615 77.84,206.037 77.315,206.037 C76.787,206.037 76.367,205.615 76.367,205.089 C76.367,204.562 76.787,204.14 77.315,204.14 C77.84,204.14 78.268,204.562 78.268,205.089" id="Fill-320" fill="#FFFFFF"></path>
            <path d="M73.036,208.619 C73.036,208.894 72.815,209.115 72.543,209.115 C72.269,209.115 72.046,208.894 72.046,208.619 C72.046,208.345 72.269,208.126 72.543,208.126 C72.815,208.126 73.036,208.345 73.036,208.619" id="Fill-321" fill="#FFFFFF"></path>
            <path d="M75.063,213.578 C75.063,213.988 74.729,214.318 74.317,214.318 C73.911,214.318 73.577,213.988 73.577,213.578 C73.577,213.166 73.911,212.835 74.317,212.835 C74.729,212.835 75.063,213.166 75.063,213.578" id="Fill-322" fill="#23282B"></path>
            <path d="M78.234,215.675 C78.234,215.851 78.098,215.992 77.927,215.992 C77.755,215.992 77.616,215.851 77.616,215.675 C77.616,215.507 77.755,215.371 77.927,215.371 C78.098,215.371 78.234,215.507 78.234,215.675" id="Fill-323" fill="#23282B"></path>
            <path d="M80.365,214.48 C80.365,214.755 80.144,214.972 79.87,214.972 C79.598,214.972 79.379,214.755 79.379,214.48 C79.379,214.207 79.598,213.984 79.87,213.984 C80.144,213.984 80.365,214.207 80.365,214.48" id="Fill-324" fill="#23282B"></path>
        </g>
    </g>
</svg>