<svg width="150" height="127" viewBox="0 0 150 127" xmlns="http://www.w3.org/2000/svg"><title>banners</title><g fill="none" fill-rule="evenodd"><path fill="#F95632" d="M40.39 13.49h85.048V.73H40.39z"/><path fill="#63D1DB" d="M31.736 59.343h85.048V33.83H31.736z"/><path d="M107.302 119.595H34.488v-17.88h3v14.88h69.814v3zm12.235-7.658h3V78.724h-3v33.213zm-85.05-13.223h3V73.35h-3v25.364zm85.05-22.99h3v-29.99h-3v29.99zm0-32.99h3V30.578h-3v12.158zm-82.05-8.905h-3V1.782h5.904v3h-2.9V33.83zm82.05-6.254h3V13.49h-3v14.087z" fill="#2E3133"/><path fill="#2D1109" d="M122.537 13.49h-3V4.783H40.39v-3h82.147V13.49"/><path fill="#12282C" d="M34.488 48.03h3v-14.2h-3z"/><path fill="#2E3133" d="M46.62 25.16h10.36v-3H46.62zm17.81 0h10.358v-3H64.43zm17.807 0H92.6v-3H82.236zm17.808 0h10.36v-3h-10.36z"/><path fill="#FFF" d="M46.62 11.163h3v-3h-3zm5.995 0h3v-3h-3zm6 0h3v-3h-3z"/><path fill="#CED9DE" d="M69.613 109.116h17.8v-17.8h-17.8zm22.994 0h17.798v-17.8H92.607zM46.62 86.122h17.8V68.325h-17.8zm22.993 0h17.8V68.325h-17.8z"/><path fill="#2E3133" d="M61.45 94.284h3v-3h-3zm-9.488 0h2.372v-3h-2.372v3zm4.745 0h2.372v-3h-2.374v3zm-10.117 0h3v-3h-3zm0 4.746h3v-2.373h-3v2.373zm0 4.746h3v-2.374h-3v2.374zm0 5.372h3v-3h-3zm5.37 0h2.373v-3H51.96v3zm4.746 0h2.372v-3h-2.372v3zm4.744 0h3v-3h-3zm0-10.118h3v-2.374h-3v2.373zm0 4.745h3V101.4h-3v2.375zm45.987-32.483h3v-3h-3zm-9.49 0h2.372v-3h-2.374v3zm4.745 0h2.372v-3h-2.372v3zm-10.118 0h3v-3h-3zm0 4.744h3v-2.372h-3v2.372zm0 4.745h3v-2.37h-3v2.373zm0 5.373h3v-3h-3zm5.372 0h2.372v-3h-2.372v3zm4.745 0h2.374v-3h-2.372v3zm4.747 0h3v-3h-3zm0-10.116h3v-2.373h-3v2.373zm0 4.744h3v-2.37h-3v2.37zm15.1-2.056h5.84v-3h-5.84v3zm-8.84 0h5.84v-3h-5.84v3z"/><path fill="#070809" d="M119.537 78.724h3v-3h-3z"/><path fill="#F95632" d="M131.668 86.122h17.797v-17.8h-17.797z"/><path d="M37.488 101.714h5.842v-3h-5.842v3zm-8.84 0h5.84v-3h-5.84v3z" fill="#2E3133"/><path fill="#070809" d="M34.488 101.714h3v-3h-3z"/><path fill="#63D1DB" d="M7.56 109.116h17.8v-17.8H7.56z"/><path d="M37.488 73.35h5.572V59.344h-5.572V73.35zm-3 0H4.465V48.03h27.27v11.313h2.753V73.35z" fill="#F95632"/><path d="M37.488 59.343h5.572V48.03h-5.572v11.313zm-5.752 0h2.752V48.03h-2.752v11.313z" fill="#61462B"/><path fill="#2D1109" d="M34.488 73.35h3V59.344h-3z"/><path fill="#120D08" d="M34.488 59.343h3V48.03h-3z"/><path fill="#FFF" d="M20.685 57.134l6.156 3.555-6.154 3.554v-7.11"/><path d="M136.27 45.735h-13.733v-3h10.734V30.577H122.54v-3h13.734v18.158zm-19.486 0h2.753v-3h-2.753v3zm-7.982-11.906h-3v-6.254h13.735v3h-10.735v3.252z" fill="#2E3133"/><path fill="#12282C" d="M116.784 45.735h-10.982V33.83h3v8.905h7.982v3"/><path d="M119.537 45.735h3v-3h-3v3zm0-15.158h3v-3h-3v3z" fill="#070809"/><path d="M137.06 126.208H107.3v-6.613h15.235v-7.658h14.522v.966h-9.305v3h9.304v10.305zm-29.758-9.613h12.235v-4.658h-12.235v4.658z" fill="#CED9DE"/><path fill="#252A2C" d="M122.537 119.595h-15.235v-3h12.235v-4.658h3v7.658"/><path fill="#2E3133" d="M5.26 30.593h16.25v-3H5.26zm0-5.11h19.55v-3H5.26zm-4.75-5.11h15.825v-3H.51zm136.55 95.53h6.727v-3h-6.728z"/><path fill="#252A2C" d="M127.755 115.903h9.304v-3h-9.306z"/><path fill="#2E3133" d="M132.228 110.792h11.56v-3h-11.56z"/></g></svg>