<svg width="142" height="108" viewBox="0 0 142 108" xmlns="http://www.w3.org/2000/svg"><title>Slice 8</title><g fill="none" fill-rule="evenodd"><path d="M101.926 70.396l12.338-12.353-12.338 12.353zM27.53 58.043L39.873 70.39 27.53 58.042zm43.367-18.678l-12.34-12.347 12.34 12.347zm-23.27 38.787a5.51 5.51 0 0 0 1.605-3.886c0-1.517-.614-2.89-1.606-3.873a5.49 5.49 0 0 0-3.876-1.613 5.506 5.506 0 0 0-3.882 1.614l-.007.007a5.45 5.45 0 0 0-1.6 3.87c0 1.518.616 2.89 1.6 3.887 1 .993 2.37 1.6 3.883 1.6a5.47 5.47 0 0 0 3.883-1.6v-.004zm7.753 7.745a5.47 5.47 0 0 0 1.614-3.87 5.48 5.48 0 0 0-1.614-3.876 5.428 5.428 0 0 0-3.88-1.606 5.42 5.42 0 0 0-3.874 1.61v.002a5.458 5.458 0 0 0 0 7.75 5.404 5.404 0 0 0 3.868 1.607 5.42 5.42 0 0 0 3.88-1.606l.006-.01zm9.366 3.893a5.55 5.55 0 0 0-1.6-3.892 5.48 5.48 0 0 0-3.882-1.594 5.473 5.473 0 0 0-3.884 1.593l-.005.01a5.52 5.52 0 0 0-1.6 3.886c0 1.515.614 2.885 1.6 3.87a5.5 5.5 0 0 0 3.882 1.612 5.5 5.5 0 0 0 3.88-1.61l.008-.008a5.455 5.455 0 0 0 1.6-3.867zm6.143 3.866a5.504 5.504 0 0 0-3.878-1.606 5.472 5.472 0 0 0-3.868 1.607l-.01.008a5.44 5.44 0 0 0-1.61 3.876 5.45 5.45 0 0 0 1.61 3.886 5.475 5.475 0 0 0 3.87 1.61c1.516 0 2.88-.628 3.887-1.615a5.404 5.404 0 0 0 1.605-3.873c0-1.527-.6-2.9-1.607-3.89z" stroke="#242D3C" stroke-width="5"/><path fill="#43D3E8" d="M42.923-.012L.5 42.418l21.33 21.33 42.423-42.43-21.33-21.33M141.29 42.42L98.87-.01 77.544 21.32l42.417 42.434 21.33-21.33"/><path d="M83.236 27.018L53.072 57.186a5.532 5.532 0 0 0-1.604 3.888c0 1.513.615 2.882 1.604 3.867a5.49 5.49 0 0 0 3.882 1.617 5.49 5.49 0 0 0 3.88-1.616l8.98-8.98 1.082 1.08c4.88 4.885 12.795 4.88 17.676 0l15.323 15.333a5.388 5.388 0 0 1 1.605 3.868 5.455 5.455 0 0 1-1.605 3.888 5.448 5.448 0 0 1-3.874 1.6 5.452 5.452 0 0 1-3.873-1.6 5.462 5.462 0 0 1 1.598 3.876 5.446 5.446 0 0 1-1.598 3.873 5.464 5.464 0 0 1-3.882 1.607 5.408 5.408 0 0 1-3.876-1.607c.986 1 1.607 2.37 1.607 3.89 0 1.512-.62 2.883-1.607 3.868a5.476 5.476 0 0 1-7.765 0 5.468 5.468 0 0 1 1.61 3.878 5.465 5.465 0 0 1-1.61 3.885 5.452 5.452 0 0 1-3.868 1.61 5.54 5.54 0 0 1-3.89-1.61l-1.975-1.977" stroke="#242D3C" stroke-width="5"/><path fill="#242D3C" d="M119.56 56.28l-3.535-3.534 3.536-3.536 3.537 3.536-3.535 3.535M22.23 56.28l-3.536-3.536 3.535-3.535 3.534 3.535-3.536 3.536"/><path d="M227.396-168.16v27.038h60v-27.04h-60zm0 0h60v-10.706h-60v10.705zm45 27.038v-37.744 37.744zm-15 0v-37.744 37.744zM10.896 485h120v-65.002h-120V485z" stroke="#242D3C" stroke-width="5"/></g></svg>