<svg width="141" height="138" viewBox="0 0 141 138" xmlns="http://www.w3.org/2000/svg"><title>seo</title><g fill="none" fill-rule="evenodd"><path d="M83.492 53.443c-8.348 0-15.12-6.76-15.12-15.147 0-8.368 6.772-15.144 15.12-15.144 8.41 0 15.156 6.776 15.156 15.144a15.113 15.113 0 0 1-15.156 15.147m27.36-13.065v-4.156l-5.782-1.165a21.178 21.178 0 0 0-1.275-4.732l4.428-3.918-2.055-3.562-5.607 1.883a22.098 22.098 0 0 0-3.48-3.475l1.89-5.612-3.578-2.06-3.908 4.446a21.677 21.677 0 0 0-4.73-1.268l-1.17-5.81h-4.14l-1.17 5.808a21.718 21.718 0 0 0-4.73 1.267L71.64 13.58l-3.59 2.06 1.896 5.62a21.997 21.997 0 0 0-3.47 3.47l-5.612-1.885-2.064 3.562 4.434 3.925c-.59 1.5-1.02 3.08-1.263 4.723l-5.805 1.167.01 4.156 5.797 1.164c.243 1.64.676 3.22 1.266 4.723L58.8 50.182l2.063 3.573 5.61-1.894a21.89 21.89 0 0 0 3.474 3.474L68.05 60.95l3.587 2.063 3.9-4.446a21.605 21.605 0 0 0 4.734 1.27l1.17 5.816h4.143l1.172-5.815a21.8 21.8 0 0 0 4.732-1.272l3.906 4.447 3.575-2.063-1.89-5.612a22.075 22.075 0 0 0 3.484-3.476l5.608 1.893 2.055-3.573-4.43-3.91a21.295 21.295 0 0 0 1.277-4.738l5.78-1.156" fill="#63D1DB"/><path d="M83.492 53.443c-8.348 0-15.12-6.76-15.12-15.147 0-8.368 6.772-15.144 15.12-15.144 8.41 0 15.156 6.776 15.156 15.144a15.113 15.113 0 0 1-15.156 15.147m0-28.792c-7.51 0-13.62 6.124-13.62 13.647 0 7.525 6.11 13.647 13.62 13.647 7.53 0 13.656-6.122 13.656-13.647 0-7.523-6.126-13.645-13.656-13.645" fill="#2E3133"/><path d="M83.492 54.942c-9.164 0-16.62-7.467-16.62-16.646 0-9.178 7.456-16.645 16.62-16.645 9.185 0 16.656 7.47 16.656 16.647 0 9.18-7.47 16.646-16.656 16.646m0-31.79c-8.348 0-15.12 6.776-15.12 15.144 0 8.387 6.772 15.147 15.12 15.147 8.41 0 15.156-6.76 15.156-15.147a15.122 15.122 0 0 0-15.156-15.144" fill="#12282C"/><path fill="#2E3133" d="M82.01 41.23h3V29.51h-3zm0 5.86h3v-2.93h-3z"/><path d="M83.51 3.178c-19.367 0-35.123 15.756-35.123 35.122 0 19.367 15.756 35.123 35.123 35.123 19.366 0 35.12-15.756 35.12-35.123 0-19.366-15.754-35.122-35.12-35.122m0 73.245c-21.022 0-38.123-17.102-38.123-38.123 0-21.02 17.1-38.122 38.123-38.122 21.02 0 38.12 17.102 38.12 38.122s-17.1 38.123-38.12 38.123" fill="#2E3133"/><path fill="#2E3133" d="M82.01 85.665h3V74.923h-3z"/><path fill="#F95632" d="M77.65 132.54h11.72V85.666H77.65z"/><path d="M89.37 91.56h2.927v-3H89.37v3zm-14.65 0h2.93v-3h-2.93v3z" fill="#2E3133"/><path fill="#2D1109" d="M77.65 91.56h11.72v-3H77.65z"/><path d="M89.37 97.42h2.927v-3H89.37v3zm-14.65 0h2.93v-3h-2.93v3z" fill="#2E3133"/><path fill="#2D1109" d="M77.65 97.42h11.72v-3H77.65z"/><path d="M47.445 77.782h5.72v-5.718h-5.72v5.718zm-3 3h11.72V69.064h-11.72v11.718z" fill="#2E3133"/><path fill="#F95632" d="M.986 80.782h43.46V69.064H.986z"/><path fill="#FFF" d="M5.992 76.423H39.44v-3H5.99z"/><path fill="#2E3133" d="M5.992 88.142H39.44v-3H5.99zM22.715 94h33.45v-3h-33.45zm0 5.86h33.45v-3h-33.45zm0 5.86h33.45v-3h-33.45zm0 5.86h33.45v-3h-33.45zm0 5.86h33.45v-3h-33.45zm0 5.858h33.45v-3h-33.45z"/><path fill="#CED9DE" d="M92.787 137.262H85.95v-4.72h3.42v-9.93h3.417v14.65"/><path fill="#C9492C" d="M85.95 132.54h3.42v-9.927h-3.42z"/><path fill="#CED9DE" d="M96.246 137.262h6.836v-26.19h-6.836zm10.294 0h6.837v-37.73h-6.836zm10.294 0h6.836v-49.27h-6.836zm10.296 0h6.835v-60.81h-6.836z"/><path d="M111.584 75.43a1.92 1.92 0 0 0 0 3.835c1.06 0 1.92-.86 1.92-1.918a1.92 1.92 0 0 0-1.92-1.918zm0 6.835a4.922 4.922 0 0 1-4.916-4.918 4.922 4.922 0 0 1 4.916-4.918 4.924 4.924 0 0 1 4.92 4.916 4.924 4.924 0 0 1-4.92 4.918z" fill="#2E3133"/><path d="M140.986 50.914c0-5.346-4.334-9.684-9.683-9.684-5.348 0-9.684 4.338-9.684 9.684 0 5.35 4.334 9.685 9.682 9.685 5.35 0 9.683-4.338 9.683-9.687" fill="#63D1DB"/><path d="M121.62 31.98c-.175 0-.347-.008-.517-.022a37.793 37.793 0 0 0-3.666-11.032 6.32 6.32 0 0 1 10.5 4.735 6.32 6.32 0 0 1-6.32 6.32m-3.816-1.285a6.306 6.306 0 0 1-2.5-5.035c0-.606.085-1.194.246-1.75a34.87 34.87 0 0 1 2.255 6.786" fill="#CED9DE"/><path d="M121.103 31.958a6.283 6.283 0 0 1-3.3-1.262 34.87 34.87 0 0 0-2.256-6.786 6.31 6.31 0 0 1 1.89-2.984 37.793 37.793 0 0 1 3.666 11.032" fill="#252A2C"/><path d="M31.668 31.01a3.387 3.387 0 0 0-3.383 3.384 3.386 3.386 0 0 0 3.383 3.382 3.388 3.388 0 0 0 3.385-3.382 3.388 3.388 0 0 0-3.385-3.383zm0 9.766a6.39 6.39 0 0 1-6.383-6.382 6.39 6.39 0 0 1 6.383-6.383 6.39 6.39 0 0 1 6.385 6.385 6.39 6.39 0 0 1-6.385 6.382z" fill="#2E3133"/><path d="M46.887 60.762a8.3 8.3 0 0 1-1.04-16.538 37.898 37.898 0 0 0 5.823 15.023 8.268 8.268 0 0 1-4.783 1.515m6.927-3.724A34.893 34.893 0 0 1 48.92 44.41a8.305 8.305 0 0 1 4.894 12.628" fill="#CED9DE"/><path d="M51.67 59.247a37.898 37.898 0 0 1-5.824-15.023 8.313 8.313 0 0 1 3.073.186 34.893 34.893 0 0 0 4.893 12.628 8.328 8.328 0 0 1-2.144 2.21" fill="#252A2C"/></g></svg>